<svg width="124" height="116" viewBox="0 0 124 116" fill="none" xmlns="http://www.w3.org/2000/svg">
<path d="M0 88.1231C0.485428 85.993 0.790356 83.8016 1.48873 81.7438C3.9961 74.3556 6.63647 67.0125 9.67414 59.2575C17.8871 56.8283 25.6524 54.7941 33.4049 53.1311C32.3855 56.2999 31.379 59.0974 30.4276 62.2051C30.7993 63.2906 31.1159 64.0661 31.5635 65.0484C31.8977 65.5162 32.142 65.73 32.4285 65.8949C32.4295 65.8931 32.4235 65.8959 32.4429 66.2781C33.5161 71.5784 35.2025 76.1105 40.506 79.9541C40.506 76.8997 40.506 74.9769 40.7562 73.0221C41.1691 72.9482 41.3319 72.9064 41.8223 73.0348C46.1626 74.0707 50.1752 74.9363 54.4865 75.8289C54.9849 75.8583 55.1847 75.8607 55.4592 76.2311C56.6601 79.7426 57.7864 82.8863 58.9126 86.0299C59.503 79.6453 59.1224 73.6247 58.4008 67.6451C57.1554 57.3241 55.6982 47.0287 54.3052 36.4302C54.0221 35.6281 53.7635 35.1183 53.4838 34.2392C52.9193 32.1542 52.3749 30.4388 51.8326 28.7228C50.7008 25.1416 49.5701 21.56 48.439 17.9785C58.1114 18.0179 67.7838 18.0572 77.8387 18.4925C76.6557 24.2792 75.0903 29.67 73.4493 35.3754C73.3313 36.1172 73.2889 36.5443 73.0533 37.3254C72.9919 46.0836 73.1239 54.488 73.2909 63.3283C73.3593 65.8032 73.3926 67.8422 73.2092 70.1919C73.4715 73.3067 73.9506 76.1107 74.4018 79.3139C73.7256 83.0689 73.0771 86.4247 71.9796 89.8809C66.8808 90.6448 62.231 91.3081 57.2499 91.821C51.4196 89.4137 45.9205 87.1568 39.9563 84.8906C34.8343 84.9168 30.1773 84.9523 25.0585 84.967C16.3977 86.0051 8.19887 87.0641 0 88.1231Z" fill="#F58319"/>
<path d="M33.416 52.7605C25.6507 54.7948 17.8853 56.8291 9.72225 58.8921C4.7567 55.6398 4.31657 50.7061 3.94875 45.6975C3.5638 40.4556 3.55732 35.1143 2.46685 30.0129C0.859161 22.4917 1.69128 15.5572 5.06093 8.7376C6.36736 6.0936 7.25056 3.24048 8.51486 0C11.2989 1.8321 13.72 3.42538 16.3865 5.65362C28.9224 15.7288 41.2128 25.1691 53.5032 34.6093C53.7617 35.1191 54.0203 35.6289 54.0069 36.5942C46.962 42.2866 40.189 47.5236 33.416 52.7605Z" fill="#773900"/>
<path d="M73.2461 36.9722C73.2884 36.545 73.3307 36.1178 73.7824 35.2819C86.3526 26.0197 98.5228 17.1789 110.652 8.2823C111.388 7.74229 111.8 6.76002 112.363 5.98354C114.185 4.79321 116.006 3.60289 118.451 2.00586C121.212 12.3181 125.991 20.9446 122.681 31.3743C121.076 36.4304 122.477 42.3697 121.45 47.7036C120.709 51.5508 118.206 55.0587 115.795 58.8784C107.8 57.1034 100.501 55.168 92.9498 53.0946C90.8043 51.6612 88.7827 50.5164 87.0406 49.0414C82.3784 45.094 77.836 41.0049 73.2461 36.9722Z" fill="#773901"/>
<path d="M93.2028 53.2324C100.502 55.1679 107.802 57.1033 115.471 59.0535C118.65 68.0867 121.46 77.1051 123.845 86.4896C116.72 86.2278 110.02 85.5998 102.867 84.9497C97.7406 85.2393 93.0667 85.551 88.0149 85.8727C84.231 87.8997 80.8251 89.9166 77.1024 91.7931C75.3337 91.0287 73.8817 90.4048 72.4297 89.7809C73.0782 86.4252 73.7266 83.0694 74.4481 79.0151C74.8255 77.5869 75.13 76.8574 75.6464 76.1126C75.8583 76.0973 76.2655 75.9754 76.6768 75.9929C80.6198 74.9824 84.1516 73.9545 88.0325 72.9316C91.7371 69.6819 95.1002 66.4346 98.3989 63.1232C98.4708 63.051 97.8064 62.2454 97.4074 61.44C95.9538 58.4762 94.5783 55.8543 93.2028 53.2324Z" fill="#F38219"/>
<path d="M0.0664062 88.5191C8.19754 87.0643 16.3964 86.0053 25.1003 85.3105C29.5455 92.0799 33.4857 98.4849 37.4429 105.158C37.4753 105.604 37.4907 105.782 37.4733 106.123C37.4403 106.285 37.3066 106.588 37.3066 106.588C27.3939 109.674 17.4812 112.759 7.07785 115.997C4.71087 106.765 2.42251 97.8401 0.0664062 88.5191Z" fill="#E17619"/>
<path d="M103.319 84.9707C110.019 85.5986 116.719 86.2266 123.82 86.8609C121.813 95.9451 119.406 105.023 116.816 114.788C108.119 111.834 99.6234 108.947 90.7982 105.662C90.4788 105.087 90.4886 104.911 90.74 104.526C95.094 97.8687 99.2064 91.4197 103.319 84.9707Z" fill="#E07519"/>
<path d="M86.5492 107.947C82.3753 111.596 77.8814 113.916 72.0089 114.251C61.3594 114.859 51.2202 113.804 41.8516 108.078C44.8336 107.84 47.7761 107.851 50.566 108.509C54.8462 109.519 56.9123 108.315 56.9161 103.689C64.351 103.693 71.3737 103.753 78.3993 104.205C78.1576 107.442 79.0502 108.859 82.2436 108.052C83.601 107.709 85.1094 107.964 86.5492 107.947Z" fill="#BCA99A"/>
<path d="M111.977 5.92773C111.801 6.7591 111.39 7.74136 110.653 8.28137C98.5241 17.1779 86.3539 26.0188 73.8594 34.9664C75.0911 29.6698 76.6565 24.279 78.3027 18.5415C87.735 14.5927 97.079 10.9708 106.445 7.40683C108.113 6.77211 109.873 6.37805 111.977 5.92773Z" fill="#DA7418"/>
<path d="M53.4828 34.2382C41.2135 25.1673 28.9231 15.7271 16.5273 5.95117C20.9296 7.11715 25.5063 8.44156 29.9281 10.1637C35.937 12.504 41.8274 15.1483 48.1033 17.8199C49.5691 21.559 50.6998 25.1406 51.8316 28.7218C52.3739 30.4378 52.9183 32.1532 53.4828 34.2382Z" fill="#DE7418"/>
<path d="M56.502 103.744C56.9105 108.314 54.8445 109.518 50.5642 108.508C47.7744 107.85 44.8318 107.839 41.6702 107.774C40.2499 107.626 39.1172 107.242 37.6459 106.723C37.3073 106.588 37.441 106.285 37.7803 105.969C44.5094 101.711 50.8991 97.7678 57.3596 94.2461C57.1208 97.693 56.8114 100.719 56.502 103.744Z" fill="#D3BEAD"/>
<path d="M90.498 104.735C90.4882 104.911 90.4784 105.087 90.4557 105.527C90.4428 105.79 90.0797 105.916 89.6992 105.6C85.4295 101.503 81.5403 97.7225 77.5718 93.613C77.4676 92.8336 77.4428 92.3831 77.418 91.9326C80.824 89.9157 84.2299 87.8988 88.0612 86.293C89.157 92.7145 89.8275 98.7249 90.498 104.735Z" fill="#E3781B"/>
<path d="M77.6523 93.9414C81.5415 97.7219 85.4308 101.502 89.511 105.567C88.8543 106.488 88.0065 107.125 86.854 107.853C85.1095 107.962 83.6011 107.708 82.2437 108.051C79.0503 108.857 78.1577 107.441 78.4301 103.786C78.1895 99.9646 77.9209 96.953 77.6523 93.9414Z" fill="#D2BCAB"/>
<path d="M33.4034 53.1301C40.1893 47.5219 46.9623 42.2849 54.0318 36.8848C55.6967 47.0277 57.154 57.3232 58.3994 67.6442C59.1209 73.6237 59.5015 79.6444 58.9111 86.029C57.7849 82.8853 56.6587 79.7417 55.4639 75.7985C55.6382 73.0404 55.7433 71.0524 56.1526 69.1292C56.9771 65.2558 56.316 62.5531 51.6318 62.4448C44.5444 62.281 37.4579 62.0795 30.3711 61.894C31.3776 59.0965 32.384 56.299 33.4034 53.1301Z" fill="#E2761A"/>
<path d="M92.9516 53.0928C94.5785 55.8527 95.954 58.4745 96.9361 61.4742C88.7808 62.1983 81.019 62.5448 73.2572 62.8912C73.1252 54.4868 72.9932 46.0824 73.0546 37.3242C77.8379 41.0031 82.3802 45.0922 87.0424 49.0396C88.7845 50.5146 90.8061 51.6594 92.9516 53.0928Z" fill="#E27619"/>
<path d="M77.5715 93.6133C77.9194 96.9538 78.188 99.9654 78.4258 103.394C71.3723 103.752 64.3496 103.692 56.9146 103.689C56.8118 100.719 57.1212 97.6933 57.4438 93.9444C57.4983 92.8044 57.5396 92.3879 57.5809 91.9714C62.2307 91.3081 66.8805 90.6447 71.9793 89.8809C73.8803 90.4043 75.3324 91.0282 77.1011 91.7925C77.4426 92.3834 77.4674 92.8339 77.5715 93.6133Z" fill="#0C0806"/>
<path d="M57.2495 91.8215C57.5395 92.3885 57.4982 92.805 57.373 93.5235C50.8994 97.7686 44.5096 101.712 37.8135 105.808C37.4916 105.783 37.4762 105.604 37.5243 104.766C38.5322 97.7035 39.4766 91.3019 40.421 84.9004C45.9201 87.1573 51.4192 89.4142 57.2495 91.8215Z" fill="#E2781B"/>
<path d="M73.2891 63.3275C81.0158 62.5451 88.7776 62.1986 97.011 61.8164C97.8035 62.2441 98.4678 63.0497 98.396 63.1218C95.0972 66.4332 91.7342 69.6805 87.8013 72.6489C84.7873 71.1763 82.3506 69.99 79.3704 68.5392C78.2154 71.3022 77.239 73.6382 76.2626 75.9741C76.2626 75.9741 75.8554 76.0959 75.5184 75.7478C74.5957 73.5598 74.0099 71.7201 73.4241 69.8803C73.3908 67.8414 73.3574 65.8024 73.2891 63.3275Z" fill="#CA6203"/>
<path d="M30.4258 62.2048C37.4575 62.0802 44.544 62.2817 51.6314 62.4455C56.3156 62.5537 56.9767 65.2565 56.1522 69.1299C55.7429 71.0531 55.6378 73.041 55.3888 75.4313C55.1828 75.8605 54.983 75.858 54.306 75.5536C52.633 73.1472 51.4373 71.0427 50.0188 68.5461C46.957 70.0968 44.225 71.4806 41.4929 72.8643C41.3301 72.9061 41.1672 72.9479 40.573 72.7214C37.5683 70.2673 34.995 68.0815 32.4217 65.8957C32.4217 65.8957 32.4276 65.8928 32.2929 65.6905C31.9513 65.2326 31.7088 65.0169 31.4306 64.8412C31.114 64.0658 30.7974 63.2904 30.4258 62.2048Z" fill="#CA6203"/>
<path d="M39.9553 84.8906C39.476 91.3015 38.5316 97.703 37.5067 104.497C33.486 98.4848 29.5458 92.0798 25.5625 85.3313C30.1763 84.9524 34.8333 84.9168 39.9553 84.8906Z" fill="#CE6301"/>
<path d="M32.4414 66.2773C34.9954 68.081 37.5687 70.2668 40.3233 72.7531C40.5046 74.9762 40.5046 76.8989 40.5046 79.9534C35.2011 76.1098 33.5146 71.5777 32.4414 66.2773Z" fill="#E27421"/>
<path d="M41.8203 73.0353C44.2248 71.4813 46.9569 70.0976 50.0186 68.5469C51.4371 71.0434 52.6328 73.1479 54.0072 75.5275C50.1732 74.9368 46.1605 74.0712 41.8203 73.0353Z" fill="#33383E"/>
<path d="M73.2109 70.1914C74.0135 71.7204 74.5993 73.5602 75.3101 75.7634C75.1307 76.8563 74.8262 77.5859 74.4766 78.6148C73.9523 76.1102 73.4733 73.3062 73.2109 70.1914Z" fill="#E27619"/>
<path d="M31.5625 65.0479C31.7096 65.0166 31.9522 65.2323 32.2928 65.6921C32.141 65.7295 31.8967 65.5157 31.5625 65.0479Z" fill="#E27421"/>
<path d="M90.738 104.527C89.8259 98.7253 89.1555 92.7148 88.4375 86.2832C93.064 85.5504 97.7379 85.2388 102.864 84.9492C99.2044 91.4203 95.092 97.8693 90.738 104.527Z" fill="#CE6302"/>
<path d="M76.6758 75.9915C77.241 73.6381 78.2174 71.3022 79.3723 68.5391C82.3525 69.9899 84.7892 71.1762 87.4542 72.6438C84.1506 73.953 80.6188 74.981 76.6758 75.9915Z" fill="#34383D"/>
</svg>
