<svg width="82" height="132" viewBox="0 0 82 132" fill="none" xmlns="http://www.w3.org/2000/svg">
<path d="M71.5 131.5L78.5 128.5L79 125L80 83.5V16.5L80.5 1H80L76.5 4.5L71.5 7.5L68 9L64 11H58.5H52.5L48 12L40 17.5L36.5 23L34 25.5L35 35.5L36 45.5L35.5 50L32 53L24 55L18.5 59.5L20.5 66V71L16 75L16.5 76L28 76.5L35 77.5L38.5 80L41 83.5L41.5 87.5L42 92.5L39 97.5L31 101.5V105.5V114.5L30 115.5L28 117L22.5 120.5H13L11.5 121.5L5.5 126.5L1 129V130V131.5H9H28H52H60.5H71.5Z" fill="#1F1A38" stroke="#1F1A38"/>
</svg>
