<svg width="116" height="105" viewBox="0 0 116 105" fill="none" xmlns="http://www.w3.org/2000/svg">
<path d="M49.5 1H7L4 2.5L2.5 4.5L1 8V14V60.5V89.5V104H3L5 101.5L6.5 99L8 96L9 94V92.5V84V76L10 74L14 69L19.5 63L23 60.5L25 59L28.5 58H32.5L37 59L41 60L42.5 61L45.5 61.5L47.5 62L52 61.5L57 59L61 58.5L67 57H69L71 56L72.5 55L73 47L72 44L71.5 42L72 35.5V34L73 32.5L74.5 30.5H76.5L78.5 29.5L79 28L79.5 26L80 24.5L80.5 23L82 20.5L84 18.5L85 17.5L86.5 16.5L87.5 15.5H89.5H91.5H95H98.5L102.5 15L104 14.5L105 12.5L106.5 10.5L108.5 7L111.5 3.5L114 1H113H109H76.5H49.5Z" fill="#1F1A38" stroke="#1F1A38"/>
</svg>
