<svg width="108" height="108" viewBox="0 0 108 108" fill="none" xmlns="http://www.w3.org/2000/svg">
<g filter="url(#filter0_d_21_335)">
<circle cx="54" cy="53" r="50" fill="white"/>
<circle cx="54" cy="53" r="49.5" stroke="url(#paint0_linear_21_335)"/>
</g>
<path d="M54 26.125C55.6576 26.125 57.2473 26.7835 58.4194 27.9556C59.5915 29.1277 60.25 30.7174 60.25 32.375V44.875H47.75V32.375C47.75 30.7174 48.4085 29.1277 49.5806 27.9556C50.7527 26.7835 52.3424 26.125 54 26.125ZM63.375 44.875V32.375C63.375 29.8886 62.3873 27.504 60.6291 25.7459C58.871 23.9877 56.4864 23 54 23C51.5136 23 49.129 23.9877 47.3709 25.7459C45.6127 27.504 44.625 29.8886 44.625 32.375V44.875C42.9674 44.875 41.3777 45.5335 40.2056 46.7056C39.0335 47.8777 38.375 49.4674 38.375 51.125V66.75C38.375 68.4076 39.0335 69.9973 40.2056 71.1694C41.3777 72.3415 42.9674 73 44.625 73H63.375C65.0326 73 66.6223 72.3415 67.7944 71.1694C68.9665 69.9973 69.625 68.4076 69.625 66.75V51.125C69.625 49.4674 68.9665 47.8777 67.7944 46.7056C66.6223 45.5335 65.0326 44.875 63.375 44.875Z" fill="#1F1A38"/>
<defs>
<filter id="filter0_d_21_335" x="0" y="0" width="108" height="108" filterUnits="userSpaceOnUse" color-interpolation-filters="sRGB">
<feFlood flood-opacity="0" result="BackgroundImageFix"/>
<feColorMatrix in="SourceAlpha" type="matrix" values="0 0 0 0 0 0 0 0 0 0 0 0 0 0 0 0 0 0 127 0" result="hardAlpha"/>
<feOffset dy="1"/>
<feGaussianBlur stdDeviation="2"/>
<feComposite in2="hardAlpha" operator="out"/>
<feColorMatrix type="matrix" values="0 0 0 0 0.121569 0 0 0 0 0.101961 0 0 0 0 0.219608 0 0 0 1 0"/>
<feBlend mode="normal" in2="BackgroundImageFix" result="effect1_dropShadow_21_335"/>
<feBlend mode="normal" in="SourceGraphic" in2="effect1_dropShadow_21_335" result="shape"/>
</filter>
<linearGradient id="paint0_linear_21_335" x1="54" y1="3" x2="94.5" y2="100" gradientUnits="userSpaceOnUse">
<stop stop-color="#262143"/>
<stop offset="1" stop-color="#5736FE"/>
</linearGradient>
</defs>
</svg>
