<svg width="395" height="854" viewBox="0 0 395 854" fill="none" xmlns="http://www.w3.org/2000/svg">
<rect x="1" y="1" width="393" height="852" fill="white"/>
<path d="M84.6947 1H11.354H1V5.89806V12.8932V23.0874V102.092V151.364V176H4.45133L7.90265 171.752L10.4911 167.505L13.0796 162.408L14.8053 159.01V156.461V142.019V128.427L16.531 125.029L23.4336 116.534L32.9248 106.34L38.9646 102.092L42.4159 99.5437L48.4557 97.8447H55.3584L63.1239 99.5437L70.0266 101.243L72.615 102.942L77.792 103.791L81.2434 104.641L89.0089 103.791L97.6372 99.5437L104.54 98.6942L114.894 96.1456H118.345L121.796 94.4466L124.385 92.7476L125.248 79.1553L123.522 74.0583L122.659 70.6602L123.522 59.6165V57.068L125.248 54.5194L127.836 51.1214H131.288L134.739 49.4223L135.602 46.8738L136.465 43.4757L137.327 40.9272L138.19 38.3786L140.779 34.1311L144.23 30.733L145.956 29.034L148.544 27.335L150.27 25.6359H153.721H157.173H163.212H169.252L176.155 24.7864L178.743 23.9369L180.469 20.5388L183.058 17.1408L186.509 11.1942L191.686 5.24757L196 1H194.274H187.372H131.288H84.6947Z" fill="#1F1A38" stroke="#1F1A38"/>
<path d="M378.038 853L390.453 848.816L391.34 843.935L393.113 786.057V692.617L394 671H393.113L386.906 675.881L378.038 680.065L371.83 682.157L364.736 684.946H354.981H344.34L336.358 686.341L322.17 694.011L315.962 701.682L311.528 705.169L313.302 719.115L315.075 733.061L314.189 739.337L307.981 743.521L293.792 746.31L284.038 752.586L287.585 761.651V768.625L279.604 774.203L280.491 775.598L300.887 776.295L313.302 777.69L319.509 781.176L323.943 786.057L324.83 791.636L325.717 798.609L320.396 805.582L306.208 811.161V816.739V829.291L304.434 830.686L300.887 832.778L291.132 837.659H274.283L271.623 839.054L260.981 846.027L253 849.513V850.908V853H267.189H300.887H343.453H358.528H378.038Z" fill="#1F1A38" stroke="#1F1A38"/>
</svg>
