<svg width="100" height="100" viewBox="0 0 100 100" fill="none" xmlns="http://www.w3.org/2000/svg">
<path d="M49.9736 0.806824C22.8014 0.806824 0.772705 22.8342 0.772705 50.0077C0.772705 77.1813 22.8014 99.2086 49.9736 99.2086C77.1471 99.2086 99.1745 77.1799 99.1745 50.0077C99.1745 22.8356 77.1458 0.806824 49.9736 0.806824ZM49.9736 94.9843C25.1336 94.9843 4.99707 74.8477 4.99707 50.0077C4.99707 25.1677 25.1336 5.03118 49.9736 5.03118C74.8136 5.03118 94.9502 25.1677 94.9502 50.0077C94.9502 74.8477 74.8136 94.9843 49.9736 94.9843Z" fill="#1F1A38"/>
<path d="M89.302 58.1132C93.7835 36.4059 79.8193 15.1755 58.1119 10.694C36.4045 6.21244 15.1742 20.1767 10.6927 41.8841C6.21114 63.5915 20.1754 84.8218 41.8828 89.3033C63.5901 93.7849 84.8204 79.8206 89.302 58.1132Z" fill="#DFDDDE"/>
<path d="M90.5563 59.4437C95.7719 37.0451 81.8423 14.6593 59.4437 9.4437C37.0451 4.22809 14.6593 18.1577 9.4437 40.5563C4.22809 62.9549 18.1577 85.3407 40.5563 90.5563C62.9549 95.7719 85.3407 81.8423 90.5563 59.4437Z" fill="#1F1A38"/>
<path d="M89.302 58.1132C93.7835 36.4059 79.8193 15.1755 58.1119 10.694C36.4045 6.21244 15.1742 20.1767 10.6927 41.8841C6.21114 63.5915 20.1754 84.8218 41.8828 89.3033C63.5901 93.7849 84.8204 79.8206 89.302 58.1132Z" fill="white"/>
<path d="M39.4519 61.7779C39.1954 62.1477 39.1968 62.6281 39.1145 63.0695C38.7743 64.8982 37.0198 66.0657 35.4124 67.0037C30.1434 70.0808 24.8718 73.104 19.7229 76.362C27.0798 84.7986 37.8998 90.1377 49.9722 90.1377C62.652 90.1377 73.9512 84.2506 81.3053 75.0677C76.8529 72.7612 72.4018 70.4533 67.9494 68.1468C66.9034 67.6042 65.8534 67.0617 64.7548 66.6352C63.891 66.3005 62.9746 66.0265 62.2661 65.4286C61.1634 64.496 61.4293 62.9939 61.1364 61.7144C61.0581 61.3649 60.9731 61.0005 60.7504 60.7197C60.2281 60.0625 59.1646 60.0962 58.587 59.4875C58.2361 59.1191 58.1321 58.5792 58.12 58.0718C58.1133 57.7492 58.1402 57.4145 58.2955 57.1311C58.479 56.795 58.8974 56.6277 59.1875 56.3888C59.4953 56.1364 59.8138 55.9124 60.1431 55.6883C60.8422 55.2105 61.4914 54.695 61.818 53.8852C62.2931 52.7083 62.6143 51.3411 62.752 50.0819C62.8991 48.7485 62.6035 47.1654 63.1744 45.9075C63.725 44.6942 64.8682 44.153 65.1232 42.7399C65.3405 41.5347 65.1206 39.9786 64.636 38.8638C64.4093 38.3442 64.0476 38.0149 63.7399 37.5681C63.4146 37.0958 63.6252 36.5276 63.694 35.9796C63.9005 34.3344 63.5482 32.6771 63.1973 31.0561C63.0731 30.4812 62.9476 29.9036 62.7357 29.3556C62.2917 28.2071 61.4509 27.2259 60.4063 26.5781C59.8786 26.2501 59.2739 26.103 58.7462 25.7939C58.1645 25.4525 57.5666 25.1731 56.9417 24.9072C55.5557 24.3174 54.1345 23.7992 52.6715 23.4307C49.8143 22.71 46.7237 22.5831 44.0028 23.8667C42.5938 24.5334 41.2604 25.7197 41.1105 27.2704C39.1198 26.7063 36.8066 27.6308 35.7525 29.4096C34.913 30.8281 34.743 32.4733 34.8186 34.0888C34.8874 35.5693 35.4151 36.9109 35.631 38.3806C35.6904 38.7868 35.7417 39.2349 35.515 39.5777C35.3247 39.8652 34.9724 40.0177 34.7943 40.3119C34.6634 40.5292 34.6445 40.7938 34.6296 41.0488C34.5217 42.8803 34.4474 44.8521 35.4381 46.3974C35.5771 46.6147 35.739 46.8226 35.9428 46.9818C36.1034 47.1073 36.2883 47.1991 36.4611 47.3071C37.3019 47.8321 37.8606 48.7256 38.1711 49.6676C38.4599 50.5408 38.4126 51.4518 38.6367 52.3237C38.8202 53.0336 39.051 53.811 39.3061 54.5074C39.5207 55.0918 39.9121 55.4454 40.3426 55.8597C40.7893 56.2916 41.0593 56.7856 41.7057 56.9664C41.7435 57.096 41.8124 57.2134 41.865 57.3376C42.0013 57.6655 42.0148 58.0299 42.027 58.3862C42.0485 59.0314 42.1106 60.053 41.6693 60.5767C41.1132 61.2353 39.9728 61.0275 39.4519 61.7779Z" fill="#1F1A38"/>
</svg>
