<svg width="83" height="83" viewBox="0 0 83 83" fill="none" xmlns="http://www.w3.org/2000/svg">
<rect width="83" height="83" rx="23" fill="#F7F7F7"/>
<g clip-path="url(#clip0_24_369)">
<path d="M48.0074 35.635L36.396 25.6082C35.3796 24.7305 33.7778 25.4431 33.7778 26.8065V32.2666C25.2554 32.9416 19 35.7111 19 44.3757C19 48.4291 21.6113 52.4447 24.4977 54.5441C25.3984 55.1993 26.6821 54.377 26.35 53.315C23.8093 45.1897 26.6087 42.1339 33.7778 41.307V46.8602C33.7778 48.2259 35.3809 48.9353 36.396 48.0586L48.0074 38.0316C48.7378 37.4009 48.7388 36.2667 48.0074 35.635ZM56.4518 38.0316L44.8405 48.0585C43.8254 48.9352 42.2222 48.2259 42.2222 46.8602V45.8166L49.3872 39.6294C49.7889 39.2827 50.1111 38.8534 50.3319 38.3709C50.5527 37.8883 50.6669 37.3638 50.6667 36.8332C50.6669 36.3026 50.5527 35.7782 50.3319 35.2957C50.1112 34.8132 49.7889 34.384 49.3873 34.0373L42.2222 27.85V26.8065C42.2222 25.4431 43.824 24.7305 44.8405 25.6082L56.4518 35.635C57.1832 36.2667 57.1822 37.4009 56.4518 38.0316Z" fill="black"/>
</g>
<defs>
<clipPath id="clip0_24_369">
<rect width="38" height="38" fill="white" transform="matrix(-1 0 0 1 57 21)"/>
</clipPath>
</defs>
</svg>
