<svg width="83" height="83" viewBox="0 0 83 83" fill="none" xmlns="http://www.w3.org/2000/svg">
<rect width="83" height="83" rx="23" fill="#693CBC"/>
<path d="M13.1875 23.8312C13.5656 22.1747 14.495 20.6955 15.8235 19.6362C17.152 18.5768 18.8008 17.9999 20.5 18H65.5C67.1992 17.9999 68.848 18.5768 70.1765 19.6362C71.505 20.6955 72.4344 22.1747 72.8125 23.8312L43 42.0525L13.1875 23.8312ZM13 28.1137V54.7537L34.7612 41.4112L13 28.1137ZM38.3538 43.6125L13.7162 58.7137C14.325 59.9973 15.2857 61.0816 16.4867 61.8404C17.6876 62.5992 19.0794 63.0014 20.5 63H65.5C66.9204 63.0003 68.3116 62.5973 69.5119 61.8378C70.7121 61.0784 71.6721 59.9937 72.28 58.71L47.6425 43.6088L43 46.4475L38.3538 43.6125ZM51.2387 41.415L73 54.7537V28.1137L51.2387 41.4112V41.415Z" fill="#FCFCFE"/>
</svg>
