<svg width="83" height="83" viewBox="0 0 83 83" fill="none" xmlns="http://www.w3.org/2000/svg">
<rect width="83" height="83" rx="23" fill="#F7F7F7"/>
<path d="M47.5469 41.5C47.5469 44.8426 44.8426 47.5469 41.5 47.5469C38.1574 47.5469 35.4531 44.8426 35.4531 41.5C35.4531 38.1574 38.1574 35.4531 41.5 35.4531C44.8426 35.4531 47.5469 38.1574 47.5469 41.5ZM56.2812 35.4531C52.9387 35.4531 50.2344 38.1574 50.2344 41.5C50.2344 44.8426 52.9387 47.5469 56.2812 47.5469C59.6238 47.5469 62.3281 44.8426 62.3281 41.5C62.3281 38.1574 59.6238 35.4531 56.2812 35.4531ZM26.7188 35.4531C23.3762 35.4531 20.6719 38.1574 20.6719 41.5C20.6719 44.8426 23.3762 47.5469 26.7188 47.5469C30.0613 47.5469 32.7656 44.8426 32.7656 41.5C32.7656 38.1574 30.0613 35.4531 26.7188 35.4531Z" fill="#1F1A38"/>
</svg>
