<svg width="83" height="83" viewBox="0 0 83 83" fill="none" xmlns="http://www.w3.org/2000/svg">
<rect width="83" height="83" rx="23" fill="#33C47F"/>
<path d="M41.5 22.75C29.6246 22.75 20 30.7508 20 40.625C20 44.8875 21.7973 48.7891 24.7871 51.857C23.7373 56.1883 20.2268 60.0469 20.1848 60.0898C20 60.2875 19.9496 60.5797 20.0588 60.8375C20.168 61.0953 20.4031 61.25 20.6719 61.25C26.24 61.25 30.4141 58.5172 32.4801 56.8328C35.2264 57.8898 38.275 58.5 41.5 58.5C53.3754 58.5 63 50.4992 63 40.625C63 30.7508 53.3754 22.75 41.5 22.75Z" fill="#FFFCFC"/>
</svg>
