<svg width="83" height="83" viewBox="0 0 83 83" fill="none" xmlns="http://www.w3.org/2000/svg">
<rect width="83" height="83" rx="23" fill="#70C667"/>
<path d="M55.4836 28.3445C51.8828 24.7352 47.0875 22.75 41.9914 22.75C31.4727 22.75 22.9133 31.3094 22.9133 41.8281C22.9133 45.1883 23.7898 48.4711 25.457 51.3672L22.75 61.25L32.8648 58.5945C35.6492 60.1156 38.7859 60.9148 41.9828 60.9148H41.9914C52.5016 60.9148 61.25 52.3555 61.25 41.8367C61.25 36.7406 59.0844 31.9539 55.4836 28.3445ZM41.9914 57.7008C39.1383 57.7008 36.3453 56.9359 33.9133 55.4922L33.3375 55.1484L27.3391 56.7211L28.9375 50.8688L28.5594 50.2672C26.9695 47.7406 26.1359 44.8273 26.1359 41.8281C26.1359 33.0883 33.2516 25.9727 42 25.9727C46.2367 25.9727 50.2156 27.6227 53.2062 30.6219C56.1969 33.6211 58.0359 37.6 58.0273 41.8367C58.0273 50.5852 50.7312 57.7008 41.9914 57.7008ZM50.6883 45.8242C50.2156 45.5836 47.8695 44.432 47.4313 44.2773C46.993 44.1141 46.675 44.0367 46.357 44.518C46.0391 44.9992 45.1281 46.0648 44.8445 46.3914C44.5695 46.7094 44.2859 46.7523 43.8133 46.5117C41.0117 45.1109 39.1727 44.0109 37.325 40.8398C36.8352 39.9977 37.8148 40.0578 38.7258 38.2359C38.8805 37.918 38.8031 37.643 38.6828 37.4023C38.5625 37.1617 37.6086 34.8156 37.2133 33.8617C36.8266 32.9336 36.4313 33.0625 36.1391 33.0453C35.8641 33.0281 35.5461 33.0281 35.2281 33.0281C34.9102 33.0281 34.3945 33.1484 33.9562 33.6211C33.518 34.1023 32.2891 35.2539 32.2891 37.6C32.2891 39.9461 33.9992 42.2148 34.2313 42.5328C34.4719 42.8508 37.5914 47.6633 42.3781 49.7344C45.4031 51.0406 46.5891 51.1523 48.1016 50.9289C49.0211 50.7914 50.9203 49.7773 51.3156 48.6602C51.7109 47.543 51.7109 46.5891 51.5906 46.3914C51.4789 46.1766 51.1609 46.0563 50.6883 45.8242Z" fill="white"/>
</svg>
