<svg width="26" height="26" viewBox="0 0 26 26" fill="none" xmlns="http://www.w3.org/2000/svg">
<g clip-path="url(#clip0_49_180)">
<path d="M13.2675 18.8003C10.3046 18.8003 7.90617 16.5069 7.68546 13.6007L3.58781 10.4339C3.04913 11.1097 2.55343 11.8241 2.15343 12.6054C2.06407 12.7821 2.01751 12.9774 2.01751 13.1755C2.01751 13.3736 2.06407 13.5688 2.15343 13.7456C4.27179 17.8788 8.46554 20.6753 13.2675 20.6753C14.3187 20.6753 15.3327 20.519 16.3101 20.2667L14.2831 18.6983C13.9484 18.763 13.6084 18.7971 13.2675 18.8003ZM25.5261 21.0698L21.2077 17.7323C22.5195 16.6268 23.5984 15.2715 24.3816 13.7452C24.4709 13.5685 24.5175 13.3732 24.5175 13.1751C24.5175 12.977 24.4709 12.7817 24.3816 12.605C22.2632 8.47177 18.0694 5.67529 13.2675 5.67529C11.2564 5.67773 9.27789 6.18403 7.51281 7.14795L2.54327 3.30693C2.47847 3.2565 2.40437 3.21934 2.32519 3.19757C2.24602 3.17579 2.16334 3.16983 2.08186 3.18002C2.00038 3.19022 1.92171 3.21637 1.85035 3.25697C1.77898 3.29758 1.71631 3.35186 1.66593 3.4167L0.899134 4.40381C0.797415 4.53466 0.751835 4.70056 0.77242 4.86501C0.793004 5.02947 0.878067 5.17901 1.0089 5.28076L23.9917 23.0437C24.0565 23.0941 24.1306 23.1312 24.2098 23.153C24.289 23.1748 24.3717 23.1808 24.4531 23.1706C24.5346 23.1604 24.6133 23.1342 24.6846 23.0936C24.756 23.053 24.8187 22.9987 24.8691 22.9339L25.6362 21.9468C25.7379 21.8159 25.7834 21.6499 25.7628 21.4855C25.7421 21.321 25.657 21.1715 25.5261 21.0698ZM18.3495 15.5229L16.8144 14.3362C16.9437 13.9626 17.0122 13.5706 17.0175 13.1753C17.0251 12.5965 16.8969 12.024 16.6431 11.5037C16.3893 10.9834 16.0171 10.53 15.5562 10.1797C15.0954 9.82938 14.5588 9.59205 13.9896 9.48675C13.4204 9.38145 12.8345 9.4111 12.2788 9.57334C12.5144 9.89252 12.6418 10.2786 12.6425 10.6753C12.6367 10.8073 12.6165 10.9383 12.5823 11.0659L9.70695 8.84365C10.7058 8.00896 11.9658 7.55125 13.2675 7.55029C14.0063 7.54988 14.7379 7.69509 15.4206 7.97763C16.1032 8.26017 16.7235 8.67449 17.2459 9.1969C17.7683 9.71931 18.1826 10.3396 18.4652 11.0222C18.7477 11.7049 18.8929 12.4365 18.8925 13.1753C18.8925 14.0202 18.6859 14.8077 18.3495 15.5233V15.5229Z" fill="#0A0892"/>
</g>
<defs>
<clipPath id="clip0_49_180">
<rect width="25" height="25" fill="white" transform="translate(0.767578 0.675291)"/>
</clipPath>
</defs>
</svg>
