<svg width="25" height="25" viewBox="0 0 25 25" fill="none" xmlns="http://www.w3.org/2000/svg">
<path d="M15.0805 11.4256C15.1521 11.8042 15.2033 12.1828 15.2033 12.6739C15.2033 16.9611 12.3281 20 8 20C3.85609 20 0.5 16.6439 0.5 12.5C0.5 8.35605 3.85609 5 8 5C10.0259 5 11.7142 5.73668 13.0239 6.96453L10.9877 8.91883C10.4352 8.38676 9.46316 7.76262 8 7.76262C5.44203 7.76262 3.35469 9.88063 3.35469 12.5C3.35469 15.1194 5.44203 17.2374 8 17.2374C10.9672 17.2374 12.0825 15.0989 12.2564 14.0041H8V11.4256H15.0805V11.4256ZM22.3229 11.6771V9.5H20.1354V11.6771H17.9583V13.8646H20.1354V16.0417H22.3229V13.8646H24.5V11.6771H22.3229Z" fill="white"/>
</svg>
