<svg width="783" height="793" viewBox="0 0 783 793" fill="none" xmlns="http://www.w3.org/2000/svg">
<g filter="url(#filter0_d_44_169)">
<path d="M769.461 396.279C769.461 605.763 602.825 775.61 395.195 775.643C185.238 775.676 13.2998 602.422 13.2998 388.667C13.2998 174.912 185.238 5.11874 395.195 9.37974C602.825 13.5937 769.461 186.795 769.461 396.279Z" fill="white"/>
<path d="M549.51 278.973C549.51 365.289 480.592 434.615 395.297 433.815C309.691 433.012 240.063 361.922 240.063 275.035C240.063 188.148 309.69 118.83 395.297 120.206C480.592 121.577 549.51 192.657 549.51 278.973Z" fill="url(#paint0_linear_44_169)"/>
<path d="M395.195 775.643C486.976 775.628 570.696 742.447 635.521 687.479C613.461 573.365 514.573 486.58 395.195 485.676C275.052 484.765 174.357 571.051 151.747 686.411C218.037 742.19 302.962 775.658 395.195 775.643Z" fill="url(#paint1_linear_44_169)"/>
<path d="M395.134 784.943C290.998 784.943 192.902 743.722 118.899 668.864C44.806 593.914 4 494.406 4 388.668C4 282.037 45.399 182.743 120.571 109.082C194.441 36.6958 292.007 -2.03922 395.382 0.0827847C498.172 2.16978 594.59 44.5408 666.876 119.393C739.024 194.102 778.758 292.436 778.758 396.28C778.758 500.158 739.003 597.733 666.813 671.031C594.483 744.47 498.021 784.927 395.195 784.943C395.176 784.943 395.153 784.943 395.134 784.943ZM387.421 18.6018C291.927 18.6018 202.054 55.2768 133.59 122.367C62.0161 192.501 22.6001 287.076 22.6001 388.669C22.6001 489.479 61.4981 584.345 132.128 655.79C202.605 727.081 296.016 766.342 395.135 766.346C395.159 766.346 395.17 766.346 395.193 766.346C596.437 766.313 760.162 600.302 760.162 396.281C760.162 192.156 596.354 22.7648 395.006 18.6788C392.479 18.6268 389.94 18.6018 387.421 18.6018Z" fill="#0A0892"/>
</g>
<defs>
<filter id="filter0_d_44_169" x="0" y="0" width="782.758" height="792.943" filterUnits="userSpaceOnUse" color-interpolation-filters="sRGB">
<feFlood flood-opacity="0" result="BackgroundImageFix"/>
<feColorMatrix in="SourceAlpha" type="matrix" values="0 0 0 0 0 0 0 0 0 0 0 0 0 0 0 0 0 0 127 0" result="hardAlpha"/>
<feOffset dy="4"/>
<feGaussianBlur stdDeviation="2"/>
<feComposite in2="hardAlpha" operator="out"/>
<feColorMatrix type="matrix" values="0 0 0 0 0 0 0 0 0 0 0 0 0 0 0 0 0 0 0.25 0"/>
<feBlend mode="normal" in2="BackgroundImageFix" result="effect1_dropShadow_44_169"/>
<feBlend mode="normal" in="SourceGraphic" in2="effect1_dropShadow_44_169" result="shape"/>
</filter>
<linearGradient id="paint0_linear_44_169" x1="145.015" y1="-233.703" x2="1302.67" y2="2133.43" gradientUnits="userSpaceOnUse">
<stop stop-color="#12115A"/>
<stop offset="0.9964" stop-color="#6165D7"/>
</linearGradient>
<linearGradient id="paint1_linear_44_169" x1="-13.7969" y1="-156.035" x2="1143.85" y2="2211.1" gradientUnits="userSpaceOnUse">
<stop stop-color="#12115A"/>
<stop offset="0.9964" stop-color="#000C47"/>
</linearGradient>
</defs>
</svg>
