<svg width="25" height="26" viewBox="0 0 25 26" fill="none" xmlns="http://www.w3.org/2000/svg">
<g clip-path="url(#clip0_1_89)">
<mask id="mask0_1_89" style="mask-type:luminance" maskUnits="userSpaceOnUse" x="0" y="0" width="25" height="26">
<path d="M25 0.5H0V25.5H25V0.5Z" fill="white"/>
</mask>
<g mask="url(#mask0_1_89)">
<path d="M14.0625 7.14062V0.5H4.29688C3.64746 0.5 3.125 1.02246 3.125 1.67188V24.3281C3.125 24.9775 3.64746 25.5 4.29688 25.5H20.7031C21.3525 25.5 21.875 24.9775 21.875 24.3281V8.3125H15.2344C14.5898 8.3125 14.0625 7.78516 14.0625 7.14062ZM17.1875 18.6641C17.1875 18.9863 16.9238 19.25 16.6016 19.25H8.39844C8.07617 19.25 7.8125 18.9863 7.8125 18.6641V18.2734C7.8125 17.9512 8.07617 17.6875 8.39844 17.6875H16.6016C16.9238 17.6875 17.1875 17.9512 17.1875 18.2734V18.6641ZM17.1875 15.5391C17.1875 15.8613 16.9238 16.125 16.6016 16.125H8.39844C8.07617 16.125 7.8125 15.8613 7.8125 15.5391V15.1484C7.8125 14.8262 8.07617 14.5625 8.39844 14.5625H16.6016C16.9238 14.5625 17.1875 14.8262 17.1875 15.1484V15.5391ZM17.1875 12.0234V12.4141C17.1875 12.7363 16.9238 13 16.6016 13H8.39844C8.07617 13 7.8125 12.7363 7.8125 12.4141V12.0234C7.8125 11.7012 8.07617 11.4375 8.39844 11.4375H16.6016C16.9238 11.4375 17.1875 11.7012 17.1875 12.0234ZM21.875 6.45215V6.75H15.625V0.5H15.9229C16.2354 0.5 16.5332 0.62207 16.7529 0.841797L21.5332 5.62695C21.7529 5.84668 21.875 6.14453 21.875 6.45215Z" fill="#1F1A38"/>
</g>
</g>
<defs>
<clipPath id="clip0_1_89">
<rect width="25" height="26" fill="white"/>
</clipPath>
</defs>
</svg>
