<svg width="26" height="26" viewBox="0 0 26 26" fill="none" xmlns="http://www.w3.org/2000/svg">
<mask id="mask0_1_62" style="mask-type:luminance" maskUnits="userSpaceOnUse" x="0" y="0" width="26" height="26">
<path d="M25.8555 0.439056H0.855469V25.4391H25.8555V0.439056Z" fill="white"/>
</mask>
<g mask="url(#mask0_1_62)">
<path d="M21.9492 12.9391H9.83984V7.90488C9.83984 5.97129 11.3877 4.36484 13.3213 4.34531C15.2744 4.32578 16.8711 5.91269 16.8711 7.86093V8.64218C16.8711 9.2916 17.3936 9.81406 18.043 9.81406H19.6055C20.2549 9.81406 20.7773 9.2916 20.7773 8.64218V7.86093C20.7773 3.75937 17.4326 0.42441 13.3311 0.439059C9.22949 0.453707 5.93359 3.83261 5.93359 7.93418V12.9391H4.76172C3.46777 12.9391 2.41797 13.9889 2.41797 15.2828V23.0953C2.41797 24.3893 3.46777 25.4391 4.76172 25.4391H21.9492C23.2432 25.4391 24.293 24.3893 24.293 23.0953V15.2828C24.293 13.9889 23.2432 12.9391 21.9492 12.9391ZM15.3086 20.3609C15.3086 21.44 14.4346 22.3141 13.3555 22.3141C12.2764 22.3141 11.4023 21.44 11.4023 20.3609V18.0172C11.4023 16.9381 12.2764 16.0641 13.3555 16.0641C14.4346 16.0641 15.3086 16.9381 15.3086 18.0172V20.3609Z" fill="#1F1A38"/>
</g>
</svg>
