<svg width="25" height="19" viewBox="0 0 25 19" fill="none" xmlns="http://www.w3.org/2000/svg">
<g clip-path="url(#clip0_14_2)">
<path d="M3.75 8C5.12891 8 6.25 6.87891 6.25 5.5C6.25 4.12109 5.12891 3 3.75 3C2.37109 3 1.25 4.12109 1.25 5.5C1.25 6.87891 2.37109 8 3.75 8ZM21.25 8C22.6289 8 23.75 6.87891 23.75 5.5C23.75 4.12109 22.6289 3 21.25 3C19.8711 3 18.75 4.12109 18.75 5.5C18.75 6.87891 19.8711 8 21.25 8ZM22.5 9.25H20C19.3125 9.25 18.6914 9.52734 18.2383 9.97656C19.8125 10.8398 20.9297 12.3984 21.1719 14.25H23.75C24.4414 14.25 25 13.6914 25 13V11.75C25 10.3711 23.8789 9.25 22.5 9.25ZM12.5 9.25C14.918 9.25 16.875 7.29297 16.875 4.875C16.875 2.45703 14.918 0.5 12.5 0.5C10.082 0.5 8.125 2.45703 8.125 4.875C8.125 7.29297 10.082 9.25 12.5 9.25ZM15.5 10.5H15.1758C14.3633 10.8906 13.4609 11.125 12.5 11.125C11.5391 11.125 10.6406 10.8906 9.82422 10.5H9.5C7.01562 10.5 5 12.5156 5 15V16.125C5 17.1602 5.83984 18 6.875 18H18.125C19.1602 18 20 17.1602 20 16.125V15C20 12.5156 17.9844 10.5 15.5 10.5ZM6.76172 9.97656C6.30859 9.52734 5.6875 9.25 5 9.25H2.5C1.12109 9.25 0 10.3711 0 11.75V13C0 13.6914 0.558594 14.25 1.25 14.25H3.82422C4.07031 12.3984 5.1875 10.8398 6.76172 9.97656Z" fill="#1F1A38"/>
</g>
<defs>
<clipPath id="clip0_14_2">
<rect width="25" height="18" fill="white" transform="translate(0 0.5)"/>
</clipPath>
</defs>
</svg>
