<svg width="25" height="26" viewBox="0 0 25 26" fill="none" xmlns="http://www.w3.org/2000/svg">
<g clip-path="url(#clip0_1_76)">
<mask id="mask0_1_76" style="mask-type:luminance" maskUnits="userSpaceOnUse" x="0" y="0" width="25" height="26">
<path d="M25 0.5H0V25.5H25V0.5Z" fill="white"/>
</mask>
<g mask="url(#mask0_1_76)">
<mask id="mask1_1_76" style="mask-type:luminance" maskUnits="userSpaceOnUse" x="0" y="0" width="25" height="26">
<path d="M25 0.5H0V25.5H25V0.5Z" fill="white"/>
</mask>
<g mask="url(#mask1_1_76)">
<path d="M12.5 23.9375C9.59919 23.9375 6.8172 22.7852 4.76602 20.734C2.71484 18.6828 1.5625 15.9008 1.5625 13C1.5625 10.0992 2.71484 7.3172 4.76602 5.26602C6.8172 3.21484 9.59919 2.0625 12.5 2.0625C15.4008 2.0625 18.1828 3.21484 20.234 5.26602C22.2852 7.3172 23.4375 10.0992 23.4375 13C23.4375 15.9008 22.2852 18.6828 20.234 20.734C18.1828 22.7852 15.4008 23.9375 12.5 23.9375ZM12.5 25.5C15.8152 25.5 18.9946 24.183 21.3388 21.8388C23.683 19.4946 25 16.3152 25 13C25 9.68479 23.683 6.50537 21.3388 4.16117C18.9946 1.81696 15.8152 0.5 12.5 0.5C9.18479 0.5 6.00537 1.81696 3.66117 4.16117C1.31696 6.50537 0 9.68479 0 13C0 16.3152 1.31696 19.4946 3.66117 21.8388C6.00537 24.183 9.18479 25.5 12.5 25.5Z" fill="#1F1A38"/>
<path d="M8.2109 9.54062C8.20876 9.59108 8.21696 9.64145 8.23501 9.68862C8.25305 9.73579 8.28056 9.77877 8.31583 9.81492C8.3511 9.85107 8.39339 9.87962 8.4401 9.89882C8.48682 9.91802 8.53696 9.92746 8.58746 9.92656H9.87652C10.0922 9.92656 10.2641 9.75 10.2922 9.53594C10.4328 8.51094 11.1359 7.76406 12.3891 7.76406C13.4609 7.76406 14.4422 8.3 14.4422 9.58906C14.4422 10.5812 13.8578 11.0375 12.9344 11.7313C11.8828 12.4953 11.05 13.3875 11.1094 14.8359L11.1141 15.175C11.1157 15.2775 11.1576 15.3753 11.2307 15.4472C11.3037 15.5191 11.4022 15.5594 11.5047 15.5594H12.7719C12.8755 15.5594 12.9748 15.5182 13.0481 15.445C13.1213 15.3717 13.1625 15.2723 13.1625 15.1687V15.0047C13.1625 13.8828 13.5891 13.5562 14.7406 12.6828C15.6922 11.9594 16.6844 11.1563 16.6844 9.47031C16.6844 7.10938 14.6906 5.96875 12.5078 5.96875C10.5281 5.96875 8.35934 6.89062 8.2109 9.54062ZM10.6437 18.5453C10.6437 19.3781 11.3078 19.9937 12.2219 19.9937C13.1734 19.9937 13.8281 19.3781 13.8281 18.5453C13.8281 17.6828 13.1719 17.0766 12.2203 17.0766C11.3078 17.0766 10.6437 17.6828 10.6437 18.5453Z" fill="#1F1A38"/>
</g>
</g>
</g>
<defs>
<clipPath id="clip0_1_76">
<rect width="25" height="26" fill="white"/>
</clipPath>
</defs>
</svg>
