<svg width="25" height="25" viewBox="0 0 25 25" fill="none" xmlns="http://www.w3.org/2000/svg">
<path d="M14.0625 6.64062V0H4.29688C3.64746 0 3.125 0.522461 3.125 1.17188V23.8281C3.125 24.4775 3.64746 25 4.29688 25H20.7031C21.3525 25 21.875 24.4775 21.875 23.8281V7.8125H15.2344C14.5898 7.8125 14.0625 7.28516 14.0625 6.64062ZM6.25 3.51562C6.25 3.2998 6.4248 3.125 6.64062 3.125H10.5469C10.7627 3.125 10.9375 3.2998 10.9375 3.51562V4.29688C10.9375 4.5127 10.7627 4.6875 10.5469 4.6875H6.64062C6.4248 4.6875 6.25 4.5127 6.25 4.29688V3.51562ZM6.25 6.64062C6.25 6.4248 6.4248 6.25 6.64062 6.25H10.5469C10.7627 6.25 10.9375 6.4248 10.9375 6.64062V7.42188C10.9375 7.6377 10.7627 7.8125 10.5469 7.8125H6.64062C6.4248 7.8125 6.25 7.6377 6.25 7.42188V6.64062ZM15.6646 18.75H17.9688C18.4004 18.75 18.75 19.0996 18.75 19.5312C18.75 19.9629 18.4004 20.3125 17.9688 20.3125H15.6646C14.8613 20.3125 14.1377 19.8662 13.7778 19.1475C13.6338 18.8584 13.3828 18.8291 13.2812 18.8291C13.1797 18.8291 12.9287 18.8579 12.792 19.1313L12.4175 19.8804C12.3526 20.0101 12.2529 20.1193 12.1295 20.1955C12.0061 20.2718 11.8638 20.3121 11.7188 20.312C11.7002 20.312 11.6821 20.311 11.6631 20.3096C11.3481 20.2876 11.0771 20.0776 10.978 19.7778L10.1562 17.314L9.63818 18.8706C9.35059 19.7329 8.54541 20.3125 7.63623 20.3125H7.03125C6.59961 20.3125 6.25 19.9629 6.25 19.5312C6.25 19.0996 6.59961 18.75 7.03125 18.75H7.63623C7.87207 18.75 8.08105 18.5996 8.15576 18.376L9.04395 15.708C9.20508 15.229 9.65137 14.9067 10.1562 14.9067C10.6611 14.9067 11.1074 15.2285 11.2681 15.708L11.9458 17.7412C12.9111 16.9507 14.585 17.2676 15.1685 18.4326C15.2671 18.6309 15.4595 18.75 15.6646 18.75ZM21.5332 5.12695L16.7529 0.341797C16.5332 0.12207 16.2354 0 15.9229 0H15.625V6.25H21.875V5.95215C21.875 5.64453 21.7529 5.34668 21.5332 5.12695Z" fill="#1F1A38"/>
</svg>
