<svg width="25" height="26" viewBox="0 0 25 26" fill="none" xmlns="http://www.w3.org/2000/svg">
<mask id="mask0_1_2" style="mask-type:luminance" maskUnits="userSpaceOnUse" x="0" y="0" width="25" height="26">
<path d="M25 0.5H0V25.5H25V0.5Z" fill="white"/>
</mask>
<g mask="url(#mask0_1_2)">
<mask id="mask1_1_2" style="mask-type:luminance" maskUnits="userSpaceOnUse" x="0" y="0" width="25" height="26">
<path d="M25 0.5H0V25.5H25V0.5Z" fill="white"/>
</mask>
<g mask="url(#mask1_1_2)">
<path d="M12.169 8.32377L4.16683 14.9145V22.0278C4.16683 22.2119 4.23999 22.3886 4.37023 22.5188C4.50046 22.649 4.67709 22.7222 4.86127 22.7222L9.72499 22.7096C9.90856 22.7087 10.0843 22.6351 10.2138 22.505C10.3433 22.3749 10.416 22.1988 10.416 22.0152V17.8611C10.416 17.6769 10.4891 17.5003 10.6194 17.3701C10.7496 17.2398 10.9262 17.1667 11.1104 17.1667H13.8882C14.0724 17.1667 14.249 17.2398 14.3792 17.3701C14.5095 17.5003 14.5826 17.6769 14.5826 17.8611V22.0121C14.5823 22.1035 14.6001 22.1941 14.6349 22.2786C14.6696 22.3631 14.7207 22.4399 14.7853 22.5046C14.8498 22.5693 14.9264 22.6207 15.0108 22.6557C15.0952 22.6907 15.1857 22.7088 15.2771 22.7088L20.1391 22.7222C20.3232 22.7222 20.4999 22.649 20.6301 22.5188C20.7603 22.3886 20.8335 22.2119 20.8335 22.0278V14.9097L12.8331 8.32377C12.739 8.24796 12.6218 8.20662 12.501 8.20662C12.3802 8.20662 12.2631 8.24796 12.169 8.32377ZM24.8092 12.8034L21.1807 9.81249V3.80077C21.1807 3.66264 21.1258 3.53016 21.0282 3.43249C20.9305 3.33481 20.798 3.27994 20.6599 3.27994H18.2293C18.0912 3.27994 17.9587 3.33481 17.861 3.43249C17.7634 3.53016 17.7085 3.66264 17.7085 3.80077V6.95225L13.8226 3.7552C13.4497 3.44833 12.9818 3.28055 12.4989 3.28055C12.0159 3.28055 11.548 3.44833 11.1751 3.7552L0.18853 12.8034C0.13579 12.847 0.0921566 12.9005 0.0601219 12.961C0.0280872 13.0214 0.00827941 13.0876 0.00183036 13.1557C-0.00461869 13.2239 0.00241739 13.2926 0.0225366 13.358C0.0426557 13.4234 0.0754637 13.4842 0.119086 13.5369L1.22586 14.8824C1.26936 14.9353 1.32287 14.9791 1.38332 15.0113C1.44377 15.0434 1.50998 15.0634 1.57815 15.07C1.64633 15.0765 1.71513 15.0696 1.78061 15.0496C1.8461 15.0295 1.90699 14.9967 1.9598 14.9531L12.169 6.54426C12.2631 6.46845 12.3802 6.4271 12.501 6.4271C12.6218 6.4271 12.739 6.46845 12.8331 6.54426L23.0427 14.9531C23.0954 14.9967 23.1562 15.0295 23.2216 15.0497C23.287 15.0698 23.3557 15.0768 23.4238 15.0704C23.492 15.0639 23.5581 15.0441 23.6186 15.0121C23.6791 14.98 23.7326 14.9364 23.7762 14.8837L24.883 13.5382C24.9265 13.4852 24.9592 13.4241 24.9791 13.3584C24.999 13.2927 25.0057 13.2237 24.9988 13.1554C24.992 13.0872 24.9717 13.0209 24.9391 12.9605C24.9066 12.9001 24.8624 12.8467 24.8092 12.8034Z" fill="#1F1A38"/>
</g>
</g>
</svg>
