<svg width="26" height="26" viewBox="0 0 26 26" fill="none" xmlns="http://www.w3.org/2000/svg">
<g clip-path="url(#clip0_30_4)">
<path d="M24.2705 19.2321H3.17676V4.38832C3.17676 3.95668 2.82715 3.60707 2.39551 3.60707H0.833008C0.401367 3.60707 0.0517578 3.95668 0.0517578 4.38832V20.7946C0.0517578 21.6574 0.751465 22.3571 1.61426 22.3571H24.2705C24.7021 22.3571 25.0518 22.0075 25.0518 21.5758V20.0133C25.0518 19.5817 24.7021 19.2321 24.2705 19.2321ZM22.708 5.16957H16.9434C15.8994 5.16957 15.3765 6.43178 16.1147 7.17006L17.6968 8.75209L14.1143 12.3351L10.5317 8.75258C9.92139 8.14223 8.93213 8.14223 8.32227 8.75258L4.96826 12.1066C4.66309 12.4118 4.66309 12.9064 4.96826 13.2116L6.07275 14.3161C6.37793 14.6212 6.87256 14.6212 7.17773 14.3161L9.42676 12.0665L13.0093 15.6491C13.6196 16.2594 14.6089 16.2594 15.2187 15.6491L19.9062 10.9616L21.4883 12.5436C22.2266 13.2819 23.4888 12.7589 23.4888 11.715V5.95082C23.4893 5.51918 23.1396 5.16957 22.708 5.16957Z" fill="#1F1A38"/>
</g>
<defs>
<clipPath id="clip0_30_4">
<rect width="25" height="25" fill="white" transform="translate(0.0517578 0.482071)"/>
</clipPath>
</defs>
</svg>
