<svg width="25" height="25" viewBox="0 0 25 25" fill="none" xmlns="http://www.w3.org/2000/svg">
<path d="M14.375 3.75H10.625C9.93477 3.75 9.375 4.30977 9.375 5V8.75C9.375 9.44023 9.93477 10 10.625 10H14.375C15.0652 10 15.625 9.44023 15.625 8.75V5C15.625 4.30977 15.0652 3.75 14.375 3.75ZM8.125 5.9375H4.81445C4.44336 5.02187 3.54844 4.375 2.5 4.375C1.11953 4.375 0 5.49414 0 6.875C0 8.25586 1.11953 9.375 2.5 9.375C3.54844 9.375 4.44336 8.72813 4.81445 7.8125H7.92891C5.76602 9.08281 4.18438 11.2234 3.65 13.75H5.57969C6.02109 12.1246 7.01602 10.734 8.35469 9.78281C8.21016 9.46719 8.125 9.11914 8.125 8.75V5.9375ZM6.25 15H2.5C1.80977 15 1.25 15.5598 1.25 16.25V20C1.25 20.6902 1.80977 21.25 2.5 21.25H6.25C6.94023 21.25 7.5 20.6902 7.5 20V16.25C7.5 15.5598 6.94023 15 6.25 15ZM22.5 4.375C21.4516 4.375 20.5566 5.02187 20.1855 5.9375H16.875V8.75C16.875 9.11914 16.7895 9.46719 16.6453 9.78281C17.984 10.734 18.9789 12.1246 19.4203 13.75H21.35C20.8156 11.2234 19.234 9.08281 17.0711 7.8125H20.1855C20.5566 8.72813 21.4516 9.375 22.5 9.375C23.8805 9.375 25 8.25586 25 6.875C25 5.49414 23.8805 4.375 22.5 4.375ZM22.5 15H18.75C18.0598 15 17.5 15.5598 17.5 16.25V20C17.5 20.6902 18.0598 21.25 18.75 21.25H22.5C23.1902 21.25 23.75 20.6902 23.75 20V16.25C23.75 15.5598 23.1902 15 22.5 15Z" fill="#1F1A38"/>
</svg>
