<svg width="25" height="26" viewBox="0 0 25 26" fill="none" xmlns="http://www.w3.org/2000/svg">
<g clip-path="url(#clip0_14_17)">
<path d="M24.6641 1.43231C24.606 1.16223 24.339 0.895203 24.068 0.837219C22.4959 0.5 21.265 0.5 20.0394 0.5C14.9988 0.5 11.976 3.19546 9.71936 6.75H4.63075C3.83252 6.75076 2.89459 7.32983 2.53667 8.04318L0.122833 12.868C0.0482369 13.0326 0.00651075 13.2101 0 13.3906C0.000112239 13.7014 0.123652 13.9995 0.343459 14.2192C0.563265 14.439 0.861344 14.5625 1.17216 14.5625H6.24102L5.14363 15.6596C4.58869 16.2144 4.50906 17.2347 5.14363 17.8691L7.62919 20.3547C8.17393 20.901 9.19932 20.9971 9.84 20.3547L10.9374 19.2576V24.3281C10.9375 24.6389 11.061 24.937 11.2808 25.1567C11.5007 25.3765 11.7987 25.5 12.1095 25.5C12.2901 25.4933 12.4677 25.4516 12.6323 25.3772L17.4531 22.9655C18.1674 22.6092 18.7474 21.6716 18.7474 20.8728V15.7733C22.2922 13.5119 24.9991 10.48 24.9991 5.46597C25.0037 4.23535 25.0037 3.00473 24.6641 1.43231ZM18.752 8.70312C18.3657 8.70303 17.9881 8.5884 17.667 8.37373C17.3459 8.15907 17.0956 7.854 16.9479 7.4971C16.8001 7.14021 16.7615 6.74751 16.8369 6.36867C16.9123 5.98984 17.0984 5.64187 17.3715 5.36877C17.6447 5.09566 17.9927 4.90969 18.3716 4.83437C18.7504 4.75905 19.1431 4.79775 19.5 4.94559C19.8568 5.09343 20.1618 5.34377 20.3764 5.66495C20.591 5.98613 20.7056 6.36373 20.7056 6.75C20.7053 7.26799 20.4993 7.76467 20.133 8.1309C19.7667 8.49713 19.27 8.70295 18.752 8.70312Z" fill="#1F1A38"/>
</g>
<defs>
<clipPath id="clip0_14_17">
<rect width="25" height="25" fill="white" transform="translate(0 0.5)"/>
</clipPath>
</defs>
</svg>
