<svg width="26" height="26" viewBox="0 0 26 26" fill="none" xmlns="http://www.w3.org/2000/svg">
<g clip-path="url(#clip0_50_134)">
<path d="M19.0405 15.9226C17.9366 15.9226 16.922 16.3044 16.1211 16.9428L11.1169 13.8152C11.2651 13.1449 11.2651 12.4502 11.1169 11.7799L16.1211 8.65226C16.922 9.29079 17.9366 9.67258 19.0405 9.67258C21.6293 9.67258 23.728 7.5739 23.728 4.98508C23.728 2.39626 21.6293 0.297577 19.0405 0.297577C16.4517 0.297577 14.353 2.39626 14.353 4.98508C14.353 5.33459 14.3916 5.67502 14.4642 6.0027L9.45996 9.13034C8.65903 8.49186 7.64443 8.11008 6.54053 8.11008C3.95171 8.11008 1.85303 10.2088 1.85303 12.7976C1.85303 15.3864 3.95171 17.4851 6.54053 17.4851C7.64443 17.4851 8.65903 17.1033 9.45996 16.4648L14.4642 19.5924C14.3902 19.9266 14.3529 20.2678 14.353 20.6101C14.353 23.1989 16.4517 25.2976 19.0405 25.2976C21.6293 25.2976 23.728 23.1989 23.728 20.6101C23.728 18.0213 21.6293 15.9226 19.0405 15.9226Z" fill="black"/>
</g>
<defs>
<clipPath id="clip0_50_134">
<rect width="25" height="25" fill="white" transform="translate(0.290527 0.297577)"/>
</clipPath>
</defs>
</svg>
