<svg width="25" height="26" viewBox="0 0 25 26" fill="none" xmlns="http://www.w3.org/2000/svg">
<g clip-path="url(#clip0_14_19)">
<mask id="mask0_14_19" style="mask-type:luminance" maskUnits="userSpaceOnUse" x="0" y="0" width="25" height="26">
<path d="M25 0.5H0V25.5H25V0.5Z" fill="white"/>
</mask>
<g mask="url(#mask0_14_19)">
<path d="M22.9167 1.88892H2.08333C0.93316 1.88892 0 2.82208 0 3.97225V17.8611C0 19.0113 0.93316 19.9445 2.08333 19.9445H10.4167L9.72222 22.0278H6.59722C6.01997 22.0278 5.55556 22.4922 5.55556 23.0695C5.55556 23.6467 6.01997 24.1111 6.59722 24.1111H18.4028C18.98 24.1111 19.4444 23.6467 19.4444 23.0695C19.4444 22.4922 18.98 22.0278 18.4028 22.0278H15.2778L14.5833 19.9445H22.9167C24.0668 19.9445 25 19.0113 25 17.8611V3.97225C25 2.82208 24.0668 1.88892 22.9167 1.88892ZM22.2222 17.1667H2.77778V4.66669H22.2222V17.1667Z" fill="#1F1A38"/>
</g>
</g>
<defs>
<clipPath id="clip0_14_19">
<rect width="25" height="25" fill="white" transform="translate(0 0.5)"/>
</clipPath>
</defs>
</svg>
