<svg width="25" height="25" viewBox="0 0 25 25" fill="none" xmlns="http://www.w3.org/2000/svg">
<path d="M12.583 13.2422C13.0127 13.2422 13.3398 13.374 13.5742 13.6377C14.043 14.1699 14.0527 15.2344 13.5645 15.791C13.3252 16.0645 12.9834 16.2061 12.5342 16.2061H11.2207V13.2422H12.583ZM21.5332 5.12695L16.748 0.341797C16.5283 0.12207 16.2305 0 15.918 0H15.625V6.25H21.875V5.95215C21.875 5.64453 21.7529 5.34668 21.5332 5.12695ZM14.0625 6.64062V0H4.29688C3.64746 0 3.125 0.522461 3.125 1.17188V23.8281C3.125 24.4775 3.64746 25 4.29688 25H20.7031C21.3525 25 21.875 24.4775 21.875 23.8281V7.8125H15.2344C14.5898 7.8125 14.0625 7.28516 14.0625 6.64062ZM16.6504 14.707C16.6504 19.1162 12.3145 18.4961 11.2256 18.4961V21.2891C11.2256 21.6113 10.9619 21.875 10.6396 21.875H9.13574C8.81348 21.875 8.5498 21.6113 8.5498 21.2891V11.5332C8.5498 11.2109 8.81348 10.9473 9.13574 10.9473H13.0908C15.2637 10.9473 16.6504 12.5488 16.6504 14.707Z" fill="#1F1A38"/>
</svg>
