<svg width="25" height="26" viewBox="0 0 25 26" fill="none" xmlns="http://www.w3.org/2000/svg">
<path d="M7.5 13C9.91797 13 11.875 11.043 11.875 8.625C11.875 6.20703 9.91797 4.25 7.5 4.25C5.08203 4.25 3.125 6.20703 3.125 8.625C3.125 11.043 5.08203 13 7.5 13ZM10.5 14.25H10.1758C9.36328 14.6406 8.46094 14.875 7.5 14.875C6.53906 14.875 5.64062 14.6406 4.82422 14.25H4.5C2.01562 14.25 0 16.2656 0 18.75V19.875C0 20.9102 0.839844 21.75 1.875 21.75H13.125C14.1602 21.75 15 20.9102 15 19.875V18.75C15 16.2656 12.9844 14.25 10.5 14.25ZM18.75 13C20.8203 13 22.5 11.3203 22.5 9.25C22.5 7.17969 20.8203 5.5 18.75 5.5C16.6797 5.5 15 7.17969 15 9.25C15 11.3203 16.6797 13 18.75 13ZM20.625 14.25H20.4766C19.9336 14.4375 19.3594 14.5625 18.75 14.5625C18.1406 14.5625 17.5664 14.4375 17.0234 14.25H16.875C16.0781 14.25 15.3437 14.4805 14.6992 14.8516C15.6523 15.8789 16.25 17.2422 16.25 18.75V20.25C16.25 20.3359 16.2305 20.418 16.2266 20.5H23.125C24.1602 20.5 25 19.6602 25 18.625C25 16.207 23.043 14.25 20.625 14.25Z" fill="#1F1A38"/>
</svg>
