<svg width="25" height="26" viewBox="0 0 25 26" fill="none" xmlns="http://www.w3.org/2000/svg">
<path d="M23.8933 12.349L21.7193 8.58223C21.7657 8.48926 21.8006 8.38461 21.8006 8.26834C21.8006 7.91955 21.51 7.62889 21.1612 7.61725L18.7547 3.45523C18.7779 3.38548 18.8012 3.31573 18.8012 3.24599C18.8012 2.87398 18.4989 2.58331 18.1385 2.58331C17.9292 2.58331 17.7548 2.67633 17.6269 2.82745H12.9999C12.8837 2.67637 12.7093 2.58336 12.5 2.58336C12.2908 2.58336 12.1164 2.67637 12.0001 2.8275H7.39634C7.26843 2.67637 7.09409 2.58336 6.8848 2.58336C6.52442 2.58336 6.22212 2.87398 6.22212 3.24603C6.22212 3.31578 6.24539 3.39716 6.26865 3.45527L3.83883 7.67546C3.60637 7.78006 3.44357 8.00098 3.44357 8.26838C3.44357 8.2916 3.4552 8.31487 3.4552 8.33813L1.14166 12.3374C0.827767 12.3955 0.595215 12.6629 0.595215 12.9884C0.595215 13.3023 0.816092 13.5697 1.11839 13.6395L3.51331 17.7783C3.49005 17.848 3.47842 17.9061 3.47842 17.9875C3.47842 18.3014 3.69929 18.5688 4.00159 18.6269L6.24539 22.5216C6.22212 22.5913 6.1989 22.6727 6.1989 22.7541C6.1989 23.1261 6.50116 23.4167 6.86158 23.4167C7.07082 23.4167 7.24521 23.3237 7.36149 23.1842H12.0002C12.1164 23.3237 12.3024 23.4167 12.5 23.4167C12.6976 23.4167 12.8837 23.3237 12.9999 23.1842H17.6502C17.7665 23.312 17.9409 23.3934 18.1269 23.3934C18.4989 23.3934 18.7896 23.0912 18.7896 22.7308C18.7896 22.661 18.778 22.6029 18.7547 22.5448L20.9985 18.6269C21.3008 18.5688 21.5217 18.3014 21.5217 17.9875C21.5217 17.9177 21.5101 17.848 21.4868 17.7782L23.8701 13.6394C24.1723 13.5813 24.4049 13.3139 24.4049 12.9884C24.4048 12.6745 24.1839 12.4071 23.8933 12.349ZM6.66388 21.4519L4.76891 18.1619H6.66388V21.4519ZM6.66388 17.8131H4.76891C4.75728 17.7666 4.73402 17.7201 4.7108 17.6736L6.66388 15.6159V17.8131ZM6.66388 15.1043L4.47824 17.4178C4.42013 17.3946 4.36197 17.3597 4.30385 17.3481L1.88575 13.1628C1.90897 13.1047 1.90897 13.0465 1.90897 12.9884C1.90897 12.9303 1.90897 12.8838 1.89734 12.8373L4.15277 8.93101C4.26904 8.91938 4.38528 8.88448 4.48992 8.81474L6.66392 11.0702L6.66388 15.1043ZM6.66388 10.6632L4.6759 8.60549C4.73402 8.51248 4.76891 8.39625 4.76891 8.26838C4.76891 8.25675 4.75728 8.23349 4.75728 8.22185L6.66388 7.53592V10.6632ZM6.66388 7.16387L4.76891 7.84981L6.66388 4.57133V7.16387ZM20.8357 8.86126L20.8706 8.91938L19.336 16.1739L16.569 13.2558L20.8241 8.84963L20.8357 8.86126ZM12.6628 17.3015L13.1627 17.8131H12.1745L12.6628 17.3015ZM12.6512 16.8133L9.03558 13.1047L12.4884 9.44256L16.0924 13.2442L12.6512 16.8133ZM12.8837 17.069L16.3249 13.4999L19.2546 16.5924L18.9989 17.8131H13.6161L12.8837 17.069ZM17.813 3.81569C17.8595 3.83896 17.906 3.86222 17.9641 3.87385L20.4753 8.24512V8.26838C20.4753 8.39625 20.5101 8.51248 20.5683 8.60549L16.3365 13L12.7326 9.19842L17.813 3.81569ZM17.4177 3.72268L12.4884 8.94264L10.0121 6.32685L17.2317 3.72268H17.4177ZM12.0582 3.72268C12.1745 3.83891 12.3256 3.90866 12.5 3.90866C12.6745 3.90866 12.8256 3.83891 12.9418 3.72268H16.197L9.75637 6.04781L7.54747 3.72268H12.0582ZM7.01271 3.96682L7.05919 3.87385C7.09841 3.86383 7.13721 3.85219 7.17547 3.83896L9.396 6.17576L7.01271 7.03605V3.96682ZM7.01271 7.40805L9.65173 6.45475L12.2443 9.19842L8.79144 12.8489L7.01271 11.0237V7.40805ZM7.01271 11.4305L8.59378 13.0698L7.01271 14.7323V11.4305ZM7.01271 15.2438L8.83792 13.314L12.4303 17.0458L11.6862 17.8131H7.01271V15.2438ZM7.31496 22.2774C7.24521 22.2076 7.16383 22.1611 7.05919 22.1262L7.01271 22.0565V18.1619H11.3491L7.37308 22.2774H7.31496ZM12.9535 22.2774C12.8372 22.1728 12.6745 22.0914 12.5 22.0914C12.3256 22.0914 12.1629 22.1728 12.0466 22.2774H7.86132L11.8373 18.1619H13.4998L17.4758 22.2774H12.9535ZM18.1618 21.7658L17.9758 22.0913C17.9177 22.103 17.8712 22.1262 17.8246 22.1495L13.9533 18.1618H18.9175L18.1618 21.7658ZM18.7198 20.8009L19.2779 18.1619H20.2312L18.7198 20.8009ZM20.2312 17.8131H19.3476L19.5452 16.8947L20.2893 17.6852C20.266 17.7201 20.2428 17.7666 20.2312 17.8131ZM23.1027 13.1512L20.6962 17.3481C20.6381 17.3713 20.5799 17.3946 20.5218 17.4294L19.6266 16.4761L21.1263 9.36118L23.1143 12.8024C23.1027 12.8605 23.0795 12.9186 23.0795 12.9884C23.0795 13.0465 23.0911 13.093 23.1027 13.1512Z" fill="#1F1A38"/>
</svg>
