<svg width="25" height="26" viewBox="0 0 25 26" fill="none" xmlns="http://www.w3.org/2000/svg">
<g clip-path="url(#clip0_14_35)">
<mask id="mask0_14_35" style="mask-type:luminance" maskUnits="userSpaceOnUse" x="0" y="0" width="25" height="26">
<path d="M25 0.5H0V25.5H25V0.5Z" fill="white"/>
</mask>
<g mask="url(#mask0_14_35)">
<path d="M12.5269 0.890625C5.68945 0.890625 0.390625 5.8877 0.390625 12.6372C0.390625 16.1675 1.84131 19.2183 4.20264 21.3257C4.61035 21.6924 4.52637 21.9048 4.5957 24.1689C4.60116 24.3275 4.64534 24.4824 4.72439 24.62C4.80344 24.7576 4.91495 24.8738 5.0492 24.9584C5.18346 25.043 5.33637 25.0934 5.49461 25.1054C5.65285 25.1173 5.8116 25.0904 5.95703 25.0269C8.54053 23.8892 8.57373 23.7993 9.01172 23.9185C16.4966 25.9785 24.6094 21.1885 24.6094 12.6372C24.6094 5.8877 19.3647 0.890625 12.5269 0.890625ZM19.814 9.93018L16.2495 15.5732C16.1149 15.7854 15.9379 15.9675 15.7297 16.1082C15.5214 16.2488 15.2863 16.3448 15.0392 16.3904C14.7921 16.4359 14.5382 16.4299 14.2935 16.3727C14.0488 16.3155 13.8186 16.2084 13.6172 16.0581L10.7812 13.9355C10.6545 13.8405 10.5003 13.7891 10.3418 13.7891C10.1833 13.7891 10.0291 13.8405 9.90234 13.9355L6.07568 16.8379C5.56494 17.2251 4.896 16.6133 5.24023 16.0728L8.80469 10.4297C8.93924 10.2174 9.1162 10.0353 9.32446 9.89462C9.53273 9.75398 9.7678 9.65788 10.015 9.61235C10.2621 9.56683 10.516 9.57286 10.7607 9.63007C11.0054 9.68729 11.2357 9.79444 11.437 9.94482L14.272 12.0669C14.3988 12.162 14.553 12.2134 14.7114 12.2134C14.8699 12.2134 15.0241 12.162 15.1509 12.0669L18.9795 9.16748C19.4893 8.77783 20.1582 9.38916 19.814 9.93018Z" fill="#1F1A38"/>
</g>
</g>
<defs>
<clipPath id="clip0_14_35">
<rect width="25" height="25" fill="white" transform="translate(0 0.5)"/>
</clipPath>
</defs>
</svg>
