<svg width="106" height="126" viewBox="0 0 106 126" fill="none" xmlns="http://www.w3.org/2000/svg">
<path d="M83.9576 59.7645L68.1903 53.7874C67.3955 51.9076 66.5137 50.0388 65.5337 48.2011C59.5141 36.9127 50.5341 28.2894 42.5238 22.5561L42.5231 22.5556C41.2023 21.6102 39.908 20.7432 38.6575 19.9561L38.6567 19.9556C38.4824 19.8459 38.3097 19.7389 38.1372 19.6323C38.0831 19.5989 38.0286 19.5649 37.9747 19.5318C37.8146 19.4334 37.6559 19.3373 37.4975 19.2417C37.4326 19.2025 37.3678 19.1631 37.3033 19.1244C37.1491 19.0321 36.9959 18.9412 36.8433 18.8514C36.7777 18.8128 36.7123 18.7744 36.6469 18.7363C36.4949 18.6473 36.3434 18.5593 36.193 18.4731C36.1322 18.4381 36.0719 18.4038 36.0113 18.3694C35.8557 18.2808 35.7006 18.1927 35.547 18.1067C35.5038 18.0827 35.4613 18.0594 35.4184 18.0355C34.6846 17.6274 33.975 17.2518 33.2938 16.9089C33.2537 16.8886 33.213 16.8679 33.1731 16.848C33.0343 16.7784 32.8975 16.7112 32.7611 16.6445C32.7043 16.6167 32.6472 16.5886 32.5907 16.5613C32.462 16.4987 32.3347 16.438 32.2083 16.3781C32.1469 16.3491 32.0857 16.3202 32.0249 16.2918C31.9024 16.2344 31.7812 16.178 31.661 16.1231C31.5993 16.0948 31.5383 16.0673 31.4773 16.0397C31.3589 15.9862 31.2411 15.9332 31.1252 15.8821C31.0668 15.8564 31.0096 15.8318 30.9519 15.8066C30.8347 15.7557 30.7176 15.7047 30.6029 15.6562C30.5589 15.6375 30.5162 15.6201 30.4724 15.6018C30.0836 15.4389 29.7108 15.2908 29.3541 15.1571C29.2954 15.1351 29.2358 15.1121 29.178 15.0909C29.0897 15.0585 29.004 15.0281 28.9178 14.9976C28.8522 14.9742 28.7862 14.9506 28.7217 14.9284C28.6409 14.9004 28.5621 14.8741 28.4834 14.8479C28.4168 14.8256 28.3506 14.8037 28.2854 14.7828C28.211 14.7587 28.1376 14.7356 28.065 14.7131C27.9985 14.6926 27.9331 14.6729 27.868 14.6537C27.8 14.6335 27.7324 14.6135 27.6662 14.5948C27.5994 14.576 27.5345 14.5586 27.4695 14.5411C27.4086 14.5249 27.347 14.508 27.2878 14.493C27.2174 14.4751 27.1499 14.4595 27.0821 14.4436C27.0319 14.4318 26.9802 14.4189 26.9314 14.4081C26.8196 14.3834 26.7111 14.3612 26.6067 14.3419C26.5734 14.3359 26.5429 14.3316 26.5104 14.326C26.4372 14.3135 26.3645 14.3012 26.2954 14.2914C26.256 14.2858 26.2191 14.2821 26.1809 14.2774C26.1414 14.2725 26.1003 14.2667 26.0622 14.2629L26.0623 14.2624L26.0575 14.2622L26.0088 14.2582C25.9708 14.2549 25.9347 14.2526 25.8982 14.2502C25.8466 14.2468 25.796 14.2441 25.7474 14.2427C25.7129 14.2418 25.6793 14.2415 25.6461 14.2416C25.5997 14.2417 25.5549 14.2428 25.5116 14.245C25.4813 14.2465 25.4511 14.2481 25.4223 14.2506L25.3901 14.2526L25.3807 14.2533C25.3525 14.2562 25.3276 14.2615 25.3009 14.2655L25.2267 14.2772C25.2001 14.2825 25.1757 14.2891 25.1509 14.2955L25.1032 14.3087L25.0592 14.3214C25.0085 14.3394 24.9616 14.3596 24.9205 14.3832C24.8795 14.4069 24.8386 14.4374 24.7977 14.4724L24.7574 14.5117C24.73 14.5378 24.7029 14.5645 24.6757 14.5954L24.6284 14.6539C24.6037 14.6848 24.5792 14.7167 24.5548 14.7516C24.5382 14.7753 24.5217 14.8006 24.5052 14.8261C24.4817 14.8625 24.4583 14.9007 24.4351 14.9409C24.4185 14.9695 24.4019 14.9987 24.3854 15.0292C24.3624 15.0719 24.3395 15.1171 24.3167 15.1634C24.3004 15.1962 24.2842 15.2287 24.268 15.2635C24.2448 15.3138 24.2218 15.3673 24.1989 15.4211C24.1837 15.4568 24.1685 15.4911 24.1534 15.5283C24.1274 15.5928 24.1018 15.6617 24.0762 15.7309C24.0648 15.7621 24.053 15.7909 24.0416 15.823C24.0062 15.923 23.9711 16.0281 23.9365 16.1372C23.9214 16.1853 23.9066 16.2369 23.8915 16.2867C23.8716 16.3529 23.8517 16.4186 23.8321 16.4877C23.8154 16.5471 23.799 16.6092 23.7826 16.6708C23.7652 16.7353 23.748 16.7998 23.7311 16.8669C23.7142 16.9334 23.6976 17.0021 23.681 17.0712C23.6653 17.137 23.6496 17.2035 23.634 17.2715C23.6172 17.3456 23.6006 17.4208 23.5841 17.4973C23.5697 17.564 23.5556 17.6317 23.5417 17.7002C23.525 17.782 23.5083 17.8642 23.4918 17.9488C23.4791 18.0146 23.4668 18.0824 23.4544 18.1498C23.4376 18.2409 23.4208 18.3312 23.4045 18.4251C23.3943 18.4839 23.3846 18.545 23.3747 18.6047C23.3119 18.9823 23.2534 19.3814 23.1997 19.8017C23.1937 19.8484 23.1876 19.8937 23.1818 19.9407C23.1663 20.065 23.1518 20.1924 23.1373 20.3202C23.1304 20.3818 23.1231 20.4428 23.1165 20.5052C23.1027 20.6317 23.0895 20.7607 23.0766 20.8904C23.0701 20.9568 23.0634 21.0231 23.0571 21.0903C23.0447 21.2224 23.0326 21.356 23.021 21.4912C23.0154 21.5575 23.0099 21.6243 23.0044 21.6913C22.9931 21.8311 22.982 21.9718 22.9716 22.115C22.9671 22.1776 22.9629 22.241 22.9585 22.3041C22.9482 22.4558 22.9379 22.6078 22.9287 22.7629C22.926 22.8066 22.9238 22.8514 22.9214 22.8952C22.8777 23.6574 22.8483 24.4605 22.8346 25.3009C22.8338 25.3501 22.8328 25.3985 22.8321 25.4478C22.8297 25.6244 22.8284 25.8033 22.8274 25.9831C22.8269 26.0516 22.8265 26.12 22.8263 26.189C22.8259 26.3635 22.8262 26.5396 22.8271 26.717C22.8275 26.7917 22.828 26.8666 22.8287 26.9417C22.8304 27.1192 22.8324 27.2975 22.8354 27.4776C22.8366 27.5529 22.8382 27.6288 22.8397 27.7045C22.8432 27.8895 22.8471 28.0751 22.8524 28.2629C22.854 28.3261 22.8562 28.3903 22.8581 28.4538C22.8642 28.6565 22.8705 28.8597 22.8784 29.0655L22.8784 29.0663C22.9241 30.2622 23.0011 31.5096 23.1126 32.7994L23.113 32.8028C23.1391 33.1043 23.1669 33.4078 23.1969 33.7139L23.1969 33.7147C24.1569 43.5185 27.135 55.607 33.9012 66.4644C35.0028 68.2319 36.1804 69.9299 37.4108 71.5582L34.703 88.2017L44.7118 106.196L46.8735 103.071L42.386 91.945L47.6485 82.608C50.8363 85.4391 54.047 87.8246 57.045 89.709L56.7091 89.9029L61.018 92.4513L61.1136 92.3961C62.487 97.0167 66.9066 107.048 80.5214 110.747C80.5214 110.747 85.6301 96.8133 74.3707 84.7421L74.4805 84.6787L74.4279 79.6729L74.0926 79.8665L74.0887 79.7816C74.0806 79.5724 74.071 79.3617 74.0607 79.1496C74.0534 79.0022 74.0462 78.855 74.0378 78.7062C74.0254 78.4851 74.011 78.2617 73.9959 78.0375C73.9864 77.8955 73.9776 77.7541 73.967 77.6108C73.9487 77.3616 73.9279 77.1095 73.9065 76.8569C73.8962 76.7355 73.8872 76.6156 73.8762 76.4934C73.8428 76.1207 73.8062 75.7449 73.7658 75.3653L73.7649 75.3552C73.5211 73.0672 73.1497 70.6579 72.6405 68.1788L83.3578 68.2899L90.7495 77.7392L94.5369 77.4297L83.9576 59.7645Z" fill="#E2F3FE"/>
<path d="M74.3667 84.7413L72.6125 85.7541L69.373 87.6244L70.7464 91.1621L68.4924 92.4634L66.1154 89.5052L62.917 91.3518L61.1086 92.3958C62.4821 97.0164 66.9017 107.047 80.5164 110.747C80.5164 110.747 85.6264 96.8126 74.3667 84.7413Z" fill="#EAE325"/>
<path d="M83.9552 59.7637L68.1912 53.788C69.6208 57.1688 70.7604 60.5864 71.6435 63.9296C72.022 65.3623 72.3534 66.7814 72.6402 68.1781L83.3556 68.2891L90.7473 77.7385L94.5346 77.4289L83.9552 59.7637Z" fill="#D34734"/>
<path d="M44.4602 79.6225C42.0065 77.1861 39.6165 74.4903 37.4034 71.5619L34.6967 88.2018L44.7055 106.196L46.8672 103.071L42.3797 91.9451L47.6411 82.6099C46.5751 81.6631 45.5117 80.6666 44.4602 79.6225Z" fill="#D34734"/>
<path d="M38.658 19.9561C33.0368 16.4181 28.3046 14.4888 26.0628 14.2626L26.0621 14.2624L26.0231 14.2587L26.0077 14.2573L25.9691 14.254L25.9578 14.2531L25.8736 14.2471L25.8731 14.2471L25.8383 14.2452L25.8208 14.2442L25.7882 14.2428L25.7707 14.2422C25.7349 14.2409 25.7 14.2402 25.6659 14.2401L25.6474 14.2401L25.6196 14.2403L25.6177 14.2403L25.6012 14.2405L25.5974 14.2404L25.5734 14.241L25.5466 14.2419L25.5327 14.2423L25.5078 14.2435L25.487 14.2446L25.4641 14.2461L25.4418 14.2478L25.42 14.2495L25.4139 14.2501L25.3904 14.2523L25.3817 14.2532L25.3641 14.2552L25.3628 14.2553L25.3402 14.258L25.3218 14.2605L25.3054 14.2628L25.2982 14.2639L25.2818 14.2663L25.2562 14.2707L25.2454 14.2726L25.2328 14.275L25.2079 14.28L25.1927 14.2834L25.1925 14.2834L25.1685 14.289L25.1572 14.2918L25.1504 14.2935L25.1298 14.2989L25.1232 14.3009L25.1139 14.3036L25.0899 14.3109L25.0773 14.315L25.0676 14.318L25.0657 14.3187L25.0548 14.3226L25.0456 14.3259L25.0327 14.3308L25.0238 14.3342L25.0152 14.3376L25.0149 14.3378L25.0108 14.3395L24.9908 14.3481L24.9904 14.3482L24.9852 14.3507L24.9766 14.3546L24.9583 14.3634L24.9554 14.3649L24.9479 14.3688L24.921 14.3833L24.8902 14.4024L24.8804 14.409L24.8594 14.4235L24.848 14.432L24.8286 14.4468L24.816 14.4569L24.7982 14.4718L24.7849 14.4833L24.7666 14.5L24.7545 14.5114L24.7357 14.5299L24.7235 14.5424L24.7004 14.5669L24.6935 14.5742L24.6637 14.6081L24.6514 14.623L24.6334 14.6447L24.6196 14.6621L24.6034 14.6831L24.5889 14.7025L24.5736 14.7233L24.5584 14.7446L24.5439 14.7656L24.5283 14.7886L24.515 14.8087L24.4983 14.8344L24.4868 14.8527C24.4645 14.8884 24.4423 14.9255 24.4201 14.9646L24.4129 14.9775L24.3931 15.0133L24.3841 15.0297L24.3646 15.0666L24.3554 15.0842L24.3357 15.1227L24.3281 15.1378L24.3062 15.1819L24.302 15.191C23.3491 17.1623 22.6201 22.295 22.8786 29.0664C22.9571 29.0009 23.036 28.9355 23.1152 28.8701C23.1378 28.8516 23.1606 28.8329 23.1834 28.8141C23.2422 28.7659 23.3011 28.7177 23.3601 28.6696C23.3832 28.6508 23.4062 28.6321 23.4292 28.6134C23.49 28.564 23.5512 28.5147 23.6125 28.4655C23.6334 28.4487 23.6542 28.432 23.675 28.4152C23.7529 28.353 23.8311 28.2907 23.9095 28.2286L23.9138 28.2251C24.0887 28.0869 24.2652 27.9493 24.4432 27.8123L24.4471 27.8093C24.5327 27.7434 24.6186 27.6777 24.7049 27.6122L24.7231 27.5984C24.8096 27.5328 24.8966 27.4671 24.984 27.4017L24.9851 27.4009C26.6593 26.147 28.4633 24.9531 30.3834 23.8445C33.1371 22.2546 35.9236 20.9585 38.658 19.9561Z" fill="#D34734"/>
<path d="M41.7681 22.0248C38.4786 23.1063 35.1413 24.6048 31.898 26.4773C29.4847 27.8707 27.2247 29.4127 25.1625 31.0617C24.8098 31.3435 24.4631 31.6286 24.1224 31.9165L24.1157 31.9221C24.0333 31.9917 23.9512 32.0616 23.8694 32.1316L23.8597 32.1399C23.7825 32.2062 23.7056 32.2726 23.6289 32.3392L23.6054 32.3594C23.533 32.4224 23.461 32.4855 23.3891 32.5488L23.3544 32.5792C23.2715 32.6522 23.1891 32.7255 23.107 32.7988C23.1332 33.1017 23.1612 33.4067 23.1913 33.7141C23.2727 33.6397 23.3546 33.5656 23.4368 33.4915L23.4388 33.4897C23.5206 33.4161 23.6029 33.3426 23.6855 33.2693L23.6887 33.2665C23.8542 33.1195 24.0214 32.9733 24.1901 32.8277L24.1954 32.8232C24.3639 32.6778 24.534 32.5332 24.7056 32.3893L24.7111 32.3848C24.8834 32.2404 25.0572 32.0968 25.2325 31.9538L25.2344 31.9523C27.3729 30.21 29.7353 28.5828 32.2691 27.1199C35.6396 25.174 39.1102 23.6357 42.5186 22.5554C42.2674 22.3757 42.0173 22.199 41.7681 22.0248Z" fill="#D34734"/>
<path d="M51.7882 46.1838C53.2825 40.628 49.9878 34.9214 44.4292 33.4376C38.8706 31.9539 33.1531 35.2548 31.6588 40.8106C30.1645 46.3663 33.4592 52.0729 39.0178 53.5567C44.5764 55.0405 50.2939 51.7395 51.7882 46.1838Z" fill="white"/>
<path d="M48.0067 49.3651L48.0226 49.3479C48.0432 49.3258 48.0638 49.3035 48.0842 49.2812L48.0928 49.2718C48.1414 49.2183 48.1892 49.1642 48.2364 49.1096L48.2395 49.1061C48.2623 49.0795 48.2849 49.0531 48.3073 49.0265L48.3106 49.0225C50.5742 46.33 51.0373 42.409 49.1798 39.1917C46.8066 35.0812 41.5441 33.6763 37.4257 36.0541C34.1695 37.9341 32.6037 41.6154 33.2635 45.1062L33.2642 45.1095C33.2776 45.1804 33.2919 45.2511 33.3072 45.3219L33.3099 45.3342C33.3161 45.3631 33.3225 45.3919 33.3292 45.4209L33.3353 45.4473L33.3533 45.5236L33.3595 45.5493C33.3677 45.5826 33.376 45.6159 33.3846 45.6492L33.3876 45.661C33.4044 45.7255 33.4219 45.7899 33.4401 45.8543L33.4464 45.8762L33.4635 45.935L33.47 45.9568C33.4797 45.9892 33.4896 46.0217 33.4997 46.0541L33.5108 46.0898L33.526 46.1374L33.5401 46.181L33.561 46.2435L33.5798 46.2992L33.5948 46.342L33.6114 46.3889L33.6258 46.429C33.6355 46.4559 33.6454 46.4825 33.6553 46.5092L33.6666 46.5393L33.6896 46.599L33.7017 46.6302C33.7126 46.6582 33.7238 46.6862 33.7349 46.7141L33.7439 46.7359L33.7726 46.8059L33.783 46.8306C33.7951 46.8596 33.8075 46.8886 33.8201 46.9175L33.8228 46.9237C33.8352 46.9522 33.8477 46.9807 33.8605 47.0091L33.8698 47.0297C33.8821 47.0568 33.8944 47.0838 33.9068 47.1108L33.9111 47.1202C33.9251 47.1502 33.9393 47.1803 33.9537 47.2102L33.9619 47.2272C33.9744 47.2533 33.9872 47.2794 34.0001 47.3053L34.0071 47.3198C34.022 47.3499 34.0371 47.3799 34.0525 47.4097L34.0586 47.4217C34.0721 47.4481 34.0858 47.4743 34.0996 47.5006L34.1087 47.5179C34.1245 47.5477 34.1404 47.5775 34.1567 47.6073L34.1596 47.6126C34.1745 47.6401 34.1898 47.6677 34.2051 47.6951L34.2159 47.7145C34.2324 47.7437 34.2489 47.7729 34.2658 47.802C34.6328 48.4378 35.0691 49.0088 35.5596 49.5113L35.5942 49.5465C35.6551 49.6081 35.7168 49.6688 35.7794 49.7283L35.8251 49.7716C35.9366 49.8762 36.0506 49.9776 36.167 50.0756C36.2034 50.1062 36.24 50.1367 36.2768 50.1668C36.4808 50.3328 36.6916 50.4884 36.9083 50.6339C36.937 50.6532 36.9658 50.6722 36.9947 50.6912C37.0231 50.7097 37.0515 50.728 37.08 50.7463C37.1405 50.7849 37.2017 50.8227 37.2632 50.8597C37.2893 50.8755 37.3156 50.8912 37.342 50.9066C37.3762 50.9268 37.4107 50.9467 37.4452 50.9663L37.5192 51.008C37.556 51.0284 37.5929 51.0485 37.6298 51.0684C37.7127 51.1129 37.7959 51.1559 37.88 51.1977C37.9218 51.2184 37.9637 51.2387 38.0058 51.2587C38.3585 51.4264 38.7215 51.5699 39.0923 51.688C39.1907 51.7194 39.2896 51.749 39.389 51.7768C39.4548 51.7952 39.5209 51.8129 39.5872 51.8297C39.721 51.8637 39.8555 51.8945 39.9908 51.9221C40.0246 51.9291 40.0583 51.9357 40.092 51.9422C40.1597 51.9551 40.2274 51.9673 40.2954 51.9786C40.3293 51.9843 40.3633 51.9897 40.3974 51.995C40.4654 52.0055 40.5337 52.0153 40.602 52.0242C40.6362 52.0286 40.6703 52.0329 40.7047 52.0369C40.773 52.045 40.8417 52.0523 40.9104 52.0588C40.9447 52.062 40.9791 52.0651 41.0135 52.0679C41.0823 52.0735 41.1513 52.0784 41.2202 52.0823C41.2891 52.0862 41.3583 52.0894 41.4274 52.0917C41.4965 52.0941 41.5656 52.0955 41.6349 52.0963C41.7041 52.0969 41.7735 52.0966 41.8427 52.0957C41.9468 52.0941 42.051 52.0908 42.155 52.0854C42.2244 52.0819 42.2939 52.0775 42.3633 52.0724C42.5715 52.0566 42.7798 52.0332 42.9876 52.0021C43.0915 51.9865 43.1954 51.969 43.2989 51.9497C43.4025 51.9301 43.506 51.9087 43.6093 51.8853C43.6781 51.8697 43.7469 51.8534 43.8155 51.836C43.8497 51.8273 43.8841 51.8183 43.9183 51.8093C43.98 51.7929 44.0415 51.7757 44.103 51.7579C44.144 51.746 44.1849 51.7338 44.2258 51.7214C44.2599 51.711 44.294 51.7003 44.3279 51.6894C44.3959 51.6677 44.4637 51.6451 44.5315 51.6216C45.039 51.445 45.5373 51.2183 46.0199 50.9396C46.0483 50.9233 46.0765 50.9066 46.1048 50.89L46.1286 50.8758C46.1532 50.8611 46.1776 50.8464 46.202 50.8315L46.2138 50.8244C46.2416 50.8073 46.2692 50.7902 46.2967 50.7729L46.3182 50.7594C46.341 50.745 46.3636 50.7305 46.3864 50.7159L46.4034 50.705C46.4305 50.6875 46.4574 50.6697 46.4842 50.6519L46.5031 50.6392C46.5251 50.6246 46.547 50.6098 46.5688 50.595L46.5891 50.5811C46.6155 50.563 46.6418 50.545 46.6678 50.5267L46.6827 50.5162C46.7045 50.5008 46.7261 50.4853 46.7479 50.4698L46.7711 50.4531C46.7935 50.4368 46.816 50.4206 46.8383 50.4041L46.857 50.3901C46.8793 50.3736 46.9015 50.357 46.9235 50.3402L46.9496 50.3204L47.0029 50.2794L47.0271 50.2606C47.05 50.2428 47.0725 50.2249 47.0952 50.2068L47.1239 50.1838L47.1712 50.1455L47.199 50.1227C47.2202 50.1054 47.2412 50.088 47.2621 50.0703L47.2995 50.0385L47.3314 50.0113L47.3701 49.9781L47.4019 49.9502C47.4236 49.9312 47.4452 49.9121 47.4667 49.8929L47.4942 49.8682L47.5352 49.8308L47.5555 49.8122C47.5849 49.7852 47.614 49.758 47.643 49.7305L47.6503 49.7237L47.6986 49.6775L47.709 49.6674C47.7593 49.6189 47.8089 49.5697 47.8579 49.5199L47.8612 49.5165C47.8852 49.4921 47.9089 49.4677 47.9325 49.4431L47.9514 49.4234C47.9698 49.4041 47.9883 49.3847 48.0067 49.3651Z" fill="#356EB5"/>
<path d="M68.4944 92.4636L66.1174 89.5053L62.9189 91.352C64.5602 94.7987 67.9911 99.351 75.045 101.267C75.045 101.267 77.7866 93.3111 72.6144 85.7543L69.3749 87.6246L70.7483 91.1623L68.4944 92.4636Z" fill="#DA802E"/>
<path d="M91.1146 76.5064L83.3171 66.354L71.6468 63.93C72.0253 65.3628 72.3567 66.7819 72.6435 68.1785L83.3589 68.2895L90.7506 77.7389L94.5379 77.4293L91.1146 76.5064Z" fill="#AA3324"/>
<path d="M40.7277 90.9406L45.621 102.77L44.7088 106.196L46.8705 103.071L42.383 91.9445L47.6444 82.6094C46.5783 81.6626 45.515 80.6661 44.4635 79.6219L40.7277 90.9406Z" fill="#AA3324"/>
<path d="M47.595 32.0131C49.6502 34.1047 51.6715 36.2342 53.5375 38.4977C57.335 43.1041 60.6546 48.1123 63.339 53.4466C65.1068 56.9475 66.6238 60.5976 68.1143 64.3519C67.9488 63.935 68.0322 63.2349 67.9861 62.7818C67.9293 62.226 67.861 61.6715 67.7808 61.1185C67.6262 60.0498 67.4283 58.9874 67.1893 57.9343C65.6432 51.1247 62.3853 44.7582 58.0173 39.3312C53.5667 33.8016 47.8995 29.0536 41.4453 26.0381C42.6618 26.7982 43.4585 27.8388 44.4558 28.8457C45.5019 29.9019 46.5532 30.9528 47.595 32.0131Z" fill="#F7FCFF"/>
<path d="M66.2529 79.5794L67.7792 83.5107L74.0921 79.8659L74.089 79.7834L74.0872 79.7392C74.0845 79.6698 74.0816 79.6004 74.0786 79.5307L74.0766 79.4849C74.0735 79.4143 74.0704 79.3436 74.0669 79.2728L74.0651 79.2326C74.0614 79.1584 74.0579 79.0842 74.0539 79.0097L74.0531 78.9921C74.0491 78.9167 74.0451 78.841 74.0409 78.7652L74.0398 78.7461C74.0358 78.6736 74.0316 78.6008 74.0273 78.5278L74.0242 78.4775C74.02 78.4066 74.0157 78.3355 74.0111 78.2642L74.0083 78.2196C74.0037 78.1469 73.9988 78.0742 73.9939 78.0011L73.9909 77.9572C73.9861 77.8862 73.9813 77.8149 73.9761 77.7435L73.9735 77.7075C73.9685 77.6372 73.9633 77.5668 73.9579 77.4961L73.9549 77.4554C73.9493 77.3824 73.9437 77.3094 73.938 77.2361L73.9339 77.1856C73.928 77.1116 73.922 77.0376 73.9159 76.9634L73.9123 76.9215C73.906 76.8455 73.8996 76.7692 73.8928 76.6928L73.8898 76.6598C73.8838 76.5896 73.8775 76.5191 73.8711 76.4485L73.8676 76.4095C73.8608 76.3343 73.8537 76.259 73.8465 76.1835L73.8422 76.1372C73.8352 76.0636 73.8279 75.9897 73.8208 75.9158L73.815 75.8576C73.8077 75.7846 73.8004 75.7113 73.7929 75.638L73.788 75.5908C73.7803 75.5166 73.7726 75.4421 73.7646 75.3676L73.7633 75.3553L66.2529 79.5794Z" fill="#C5DDF1"/>
<path d="M60.6044 82.6432L58.6698 83.6861C50.8002 79.6212 40.426 71.1287 33.6784 59.6248C28.3546 50.5484 25.9851 40.5607 25.2373 31.953L25.2354 31.9546C25.06 32.0975 24.8862 32.2411 24.714 32.3856L24.7085 32.39C24.5369 32.5339 24.3668 32.6785 24.1982 32.824L24.193 32.8284C24.0242 32.974 23.8571 33.1202 23.6915 33.2673L23.6884 33.27C23.6057 33.3434 23.5235 33.4168 23.4417 33.4905L23.4397 33.4923C23.3577 33.566 23.2761 33.6401 23.1951 33.7142C24.1547 43.5181 27.1318 55.6063 33.8985 66.4645C35.0004 68.2325 36.1766 69.9331 37.4076 71.5618C39.6206 74.4903 42.0106 77.1861 44.4643 79.6224C45.5158 80.6666 46.5792 81.6631 47.6452 82.6099C50.8322 85.4403 54.0437 87.8258 57.0411 89.71L63.354 86.0652L60.6044 82.6432Z" fill="#C5DDF1"/>
<path d="M23.1081 32.7991C23.1902 32.7257 23.2726 32.6525 23.3554 32.5795L23.3902 32.5491C23.4621 32.4858 23.5341 32.4227 23.6065 32.3597L23.63 32.3395C23.7067 32.2729 23.7836 32.2065 23.8608 32.1402L23.8705 32.1319C23.9523 32.0619 24.0344 31.992 24.1168 31.9224L24.1235 31.9168C24.4641 31.6288 24.8109 31.3439 25.1636 31.062C25.0696 29.8073 25.0099 28.5844 24.9803 27.4005L24.9792 27.4013C24.8918 27.4667 24.8049 27.5324 24.7184 27.598L24.7002 27.6118C24.6139 27.6773 24.528 27.743 24.4424 27.8089L24.4385 27.8118C24.2605 27.9489 24.084 28.0865 23.9091 28.2247L23.9048 28.2282C23.8263 28.2903 23.7482 28.3525 23.6703 28.4148C23.6495 28.4316 23.6287 28.4482 23.6078 28.465C23.5465 28.5142 23.4853 28.5636 23.4245 28.613C23.4014 28.6317 23.3783 28.6504 23.3554 28.6692C23.2963 28.7173 23.2374 28.7654 23.1786 28.8137C23.1559 28.8325 23.1331 28.8512 23.1105 28.8697C23.0314 28.9351 22.9525 29.0003 22.8741 29.0659C22.9204 30.2784 22.9986 31.5435 23.1126 32.8526L23.113 32.8524L23.1081 32.7991Z" fill="#C5DDF1"/>
<path d="M66.1145 89.5049L63.3503 86.0646L57.0374 89.7093L56.7031 89.9023L61.0121 92.4507L61.1077 92.3955L62.916 91.3515L66.1145 89.5049Z" fill="#605E6F"/>
<path d="M67.7788 83.5098L69.376 87.6238L72.6155 85.7535L74.3697 84.7407L74.4785 84.6779L74.426 79.672L74.0917 79.865L67.7788 83.5098Z" fill="#605E6F"/>
<path d="M22.8786 29.0663C22.9571 29.0009 23.036 28.9355 23.1151 28.8701C23.1378 28.8515 23.1606 28.8328 23.1833 28.8141C23.2421 28.7658 23.301 28.7177 23.3601 28.6695C23.3832 28.6507 23.4061 28.6321 23.4292 28.6134C23.49 28.564 23.5512 28.5146 23.6125 28.4654C23.6334 28.4486 23.6542 28.4319 23.6749 28.4152C23.7529 28.3529 23.8311 28.2906 23.9095 28.2285L23.9138 28.2251C24.0887 28.0869 24.2652 27.9492 24.4431 27.8122L24.4471 27.8093C24.5326 27.7434 24.6186 27.6777 24.7048 27.6122L24.723 27.5984C24.8096 27.5327 24.8965 27.4671 24.9839 27.4017L24.985 27.4009C24.8487 21.9569 25.3463 17.3395 26.0628 14.2626L26.0621 14.2624L26.0231 14.2587L26.0077 14.2573L25.9691 14.254L25.9578 14.2531L25.8736 14.2471L25.8731 14.2471L25.8383 14.2452L25.8208 14.2442L25.7882 14.2428L25.7707 14.2422C25.7349 14.2409 25.7 14.2402 25.6659 14.2401L25.6474 14.2401L25.6196 14.2403L25.6177 14.2403L25.6012 14.2405L25.5974 14.2404L25.5734 14.241L25.5466 14.2419L25.5327 14.2423L25.5078 14.2435L25.487 14.2446L25.4641 14.2461L25.4418 14.2478L25.42 14.2495L25.4139 14.2501L25.3904 14.2523L25.3817 14.2532L25.3641 14.2552L25.3628 14.2553L25.3402 14.258L25.3218 14.2605L25.3054 14.2628L25.2982 14.2639L25.2818 14.2663L25.2562 14.2707L25.2454 14.2726L25.2328 14.275L25.2079 14.28L25.1927 14.2834L25.1925 14.2834L25.1685 14.289L25.1572 14.2918L25.1504 14.2935L25.1298 14.2989L25.1232 14.3009L25.1139 14.3036L25.0899 14.3109L25.0773 14.315L25.0676 14.318L25.0657 14.3187L25.0548 14.3226L25.0456 14.3259L25.0327 14.3308L25.0238 14.3342L25.0152 14.3376L25.0149 14.3378L25.0108 14.3395L24.9908 14.3481L24.9904 14.3482L24.9852 14.3507L24.9766 14.3546L24.9583 14.3634L24.9554 14.3649L24.9479 14.3688L24.921 14.3833L24.8902 14.4024L24.8804 14.409L24.8594 14.4235L24.848 14.432L24.8286 14.4468L24.816 14.4569L24.7982 14.4718L24.7849 14.4833L24.7666 14.5L24.7545 14.5114L24.7357 14.5299L24.7235 14.5424L24.7004 14.5669L24.6935 14.5742L24.6637 14.6081L24.6514 14.623L24.6334 14.6447L24.6196 14.6621L24.6034 14.6831L24.5889 14.7025L24.5736 14.7232L24.5584 14.7446L24.5439 14.7656L24.5283 14.7886L24.515 14.8087L24.4983 14.8344L24.4868 14.8527C24.4645 14.8884 24.4423 14.9255 24.4201 14.9646L24.4129 14.9775L24.3931 15.0133L24.3841 15.0297L24.3646 15.0666L24.3554 15.0842L24.3357 15.1227L24.3281 15.1378L24.3062 15.1819L24.302 15.191C23.349 17.1622 22.62 22.295 22.8786 29.0663Z" fill="#AA3324"/>
<path d="M25.2378 31.953C25.212 31.6544 25.188 31.3576 25.166 31.0625C24.8135 31.3443 24.4667 31.6292 24.1259 31.9172L24.1192 31.9228C24.0368 31.9925 23.9547 32.0623 23.8729 32.1323L23.8632 32.1406C23.786 32.2069 23.7091 32.2733 23.6324 32.3399L23.6088 32.3601C23.5365 32.4231 23.4645 32.4863 23.3925 32.5495L23.3578 32.58C23.275 32.653 23.1926 32.7262 23.1105 32.7995C23.1367 33.1025 23.1646 33.4074 23.1948 33.7148C23.2762 33.6405 23.358 33.5663 23.4403 33.4922L23.4423 33.4905C23.5241 33.4168 23.6063 33.3434 23.689 33.27L23.6921 33.2672C23.8577 33.1202 24.0248 32.974 24.1936 32.8284L24.1988 32.8239C24.3674 32.6785 24.5375 32.5339 24.7091 32.39L24.7146 32.3855C24.8868 32.2411 25.0606 32.0975 25.236 31.9546L25.2378 31.953Z" fill="#AA3324"/>
<path d="M37.2718 35.7828C37.526 35.6361 37.6133 35.3115 37.4668 35.0578C37.3203 34.8041 36.9956 34.7175 36.7414 34.8642C36.4873 35.0109 36.4 35.3355 36.5464 35.5892C36.6929 35.8429 37.0176 35.9296 37.2718 35.7828Z" fill="#C5DDF1"/>
<path d="M46.1789 51.2109C45.9248 51.3576 45.8375 51.6822 45.9839 51.9359C46.1304 52.1896 46.4551 52.2762 46.7093 52.1295C46.9635 51.9828 47.0508 51.6582 46.9043 51.4045C46.7578 51.1508 46.433 51.0642 46.1789 51.2109Z" fill="#C5DDF1"/>
<path d="M50.178 39.2281C50.4322 39.0814 50.5195 38.7568 50.373 38.5031C50.2266 38.2495 49.9018 38.1628 49.6477 38.3095C49.3935 38.4562 49.3062 38.7808 49.4527 39.0345C49.5991 39.2882 49.9239 39.3749 50.178 39.2281Z" fill="#C5DDF1"/>
<path d="M33.2727 47.7656C33.0185 47.9123 32.9312 48.2369 33.0777 48.4906C33.2241 48.7442 33.5489 48.8309 33.803 48.6842C34.0572 48.5374 34.1445 48.2129 33.9981 47.9592C33.8516 47.7055 33.5268 47.6189 33.2727 47.7656Z" fill="#C5DDF1"/>
<path d="M44.6914 34.5113C44.7674 34.228 44.5996 33.9373 44.3163 33.8616C44.0331 33.786 43.7417 33.9542 43.6656 34.2373C43.5895 34.5206 43.7573 34.8113 44.0407 34.8869C44.3238 34.9626 44.6152 34.7943 44.6914 34.5113Z" fill="#C5DDF1"/>
<path d="M38.7594 52.4824C38.6832 52.7657 38.851 53.0564 39.1344 53.132C39.4177 53.2076 39.709 53.0394 39.7852 52.7563C39.8612 52.4732 39.6934 52.1825 39.4101 52.1067C39.1269 52.0311 38.8355 52.1993 38.7594 52.4824Z" fill="#C5DDF1"/>
<path d="M50.3375 45.7959C50.2613 46.0791 50.4292 46.3699 50.7125 46.4455C50.9958 46.5211 51.2872 46.3529 51.3632 46.0698C51.4393 45.7867 51.2715 45.496 50.9882 45.4202C50.705 45.3446 50.4136 45.5128 50.3375 45.7959Z" fill="#C5DDF1"/>
<path d="M33.1133 41.1978C33.1893 40.9146 33.0215 40.6239 32.7382 40.5481C32.455 40.4725 32.1636 40.6408 32.0875 40.9238C32.0113 41.2071 32.1792 41.4978 32.4626 41.5734C32.7458 41.649 33.0371 41.4808 33.1133 41.1978Z" fill="#C5DDF1"/>
<path d="M47.3327 46.0789C43.2143 48.4567 37.9518 47.052 35.5785 42.9414C34.8496 41.6787 34.4793 40.3075 34.4337 38.9449C33.1984 40.9214 32.7979 43.3499 33.3899 45.6491L33.393 45.6608C33.4098 45.7254 33.4273 45.7898 33.4455 45.8542L33.4518 45.876L33.4689 45.9349L33.4754 45.9567C33.4851 45.9891 33.495 46.0216 33.505 46.054L33.5162 46.0897L33.5314 46.1373L33.5455 46.1809L33.5664 46.2434L33.5852 46.299L33.6002 46.3419L33.6168 46.3887L33.6312 46.4289C33.6409 46.4557 33.6508 46.4824 33.6606 46.5091L33.672 46.5392L33.695 46.5989L33.7071 46.6301C33.718 46.6581 33.7291 46.6861 33.7403 46.714L33.7493 46.7358L33.778 46.8058L33.7883 46.8305C33.8005 46.8595 33.8129 46.8885 33.8255 46.9174L33.8282 46.9235C33.8406 46.9521 33.8531 46.9806 33.8659 47.009L33.8752 47.0296C33.8875 47.0567 33.8998 47.0837 33.9122 47.1107L33.9165 47.1201C33.9305 47.1501 33.9447 47.1801 33.959 47.2101L33.9673 47.2271C33.9798 47.2532 33.9926 47.2793 34.0055 47.3052L34.0125 47.3197C34.0274 47.3498 34.0425 47.3798 34.0578 47.4096L34.064 47.4216C34.0775 47.4479 34.0912 47.4742 34.105 47.5005L34.114 47.5178C34.1299 47.5476 34.1458 47.5774 34.1621 47.6072L34.165 47.6125C34.1799 47.64 34.1952 47.6676 34.2105 47.695L34.2213 47.7144C34.2378 47.7436 34.2543 47.7727 34.2711 47.8019C34.6382 48.4377 35.0744 49.0087 35.565 49.5111L35.5996 49.5464C35.6605 49.608 35.7222 49.6687 35.7848 49.7282L35.8305 49.7714C35.942 49.8761 36.056 49.9774 36.1724 50.0754C36.2088 50.1061 36.2454 50.1366 36.2822 50.1667C36.4862 50.3327 36.6969 50.4883 36.9136 50.6338C36.9424 50.6531 36.9712 50.6721 37.0001 50.691C37.0285 50.7096 37.0569 50.7279 37.0854 50.7462C37.1459 50.7847 37.2071 50.8226 37.2686 50.8596C37.2947 50.8754 37.3209 50.891 37.3474 50.9065C37.3816 50.9267 37.4161 50.9466 37.4506 50.9662L37.5246 51.0078C37.5614 51.0283 37.5983 51.0484 37.6351 51.0683C37.7181 51.1128 37.8013 51.1558 37.8853 51.1976C37.9272 51.2182 37.969 51.2386 38.0112 51.2586C38.3639 51.4263 38.7269 51.5697 39.0977 51.6879C39.1961 51.7193 39.295 51.7489 39.3943 51.7766C39.4602 51.7951 39.5263 51.8128 39.5926 51.8296C39.7263 51.8636 39.8609 51.8944 39.9962 51.922C40.03 51.9289 40.0637 51.9356 40.0974 51.9421C40.1651 51.955 40.2328 51.9672 40.3008 51.9785C40.3346 51.9842 40.3687 51.9896 40.4028 51.9949C40.4708 52.0054 40.539 52.0152 40.6073 52.0241C40.6416 52.0285 40.6757 52.0327 40.7101 52.0368C40.7784 52.0449 40.847 52.0521 40.9158 52.0587C40.9501 52.0619 40.9845 52.065 41.0189 52.0678C41.0877 52.0734 41.1567 52.0782 41.2256 52.0822C41.2945 52.0861 41.3637 52.0893 41.4327 52.0916C41.5019 52.094 41.571 52.0954 41.6403 52.0962C41.7095 52.0968 41.7789 52.0965 41.8481 52.0955C41.9522 52.094 42.0563 52.0907 42.1604 52.0853C42.2298 52.0818 42.2992 52.0774 42.3687 52.0722C42.5769 52.0564 42.7852 52.0331 42.993 52.002C43.0969 51.9864 43.2007 51.9689 43.3043 51.9495C43.4079 51.93 43.5114 51.9086 43.6147 51.8852C43.6835 51.8696 43.7523 51.8533 43.8208 51.8358C43.8551 51.8272 43.8895 51.8182 43.9237 51.8092C43.9853 51.7928 44.0469 51.7756 44.1083 51.7578C44.1494 51.7459 44.1903 51.7337 44.2312 51.7213C44.2653 51.7109 44.2994 51.7001 44.3332 51.6893C44.4013 51.6676 44.4691 51.645 44.5368 51.6214C45.0444 51.4449 45.5427 51.2182 46.0253 50.9395C46.0536 50.9232 46.0819 50.9065 46.1101 50.8899L46.1339 50.8757C46.1586 50.861 46.183 50.8463 46.2074 50.8314L46.2192 50.8243C46.247 50.8072 46.2746 50.79 46.3021 50.7728L46.3236 50.7593C46.3464 50.7449 46.369 50.7304 46.3918 50.7158L46.4088 50.7049C46.4358 50.6874 46.4627 50.6696 46.4896 50.6517L46.5085 50.6391C46.5305 50.6245 46.5523 50.6097 46.5742 50.5949L46.5945 50.5809C46.6209 50.5629 46.6472 50.5449 46.6732 50.5266L46.688 50.5161C46.7099 50.5007 46.7315 50.4852 46.7533 50.4696L46.7764 50.453C46.7989 50.4367 46.8214 50.4205 46.8437 50.404L46.8624 50.39C46.8847 50.3734 46.9068 50.3569 46.9289 50.3401L46.955 50.3203L47.0083 50.2793L47.0325 50.2605C47.0554 50.2427 47.0779 50.2248 47.1006 50.2067L47.1293 50.1837L47.1765 50.1454L47.2043 50.1226C47.2255 50.1053 47.2465 50.0878 47.2675 50.0702L47.3049 50.0384L47.3368 50.0112L47.3755 49.978L47.4073 49.95C47.4289 49.9311 47.4506 49.912 47.4721 49.8928L47.4996 49.8681L47.5406 49.8307L47.5609 49.8121C47.5903 49.7851 47.6194 49.7578 47.6484 49.7304L47.6557 49.7236L47.704 49.6774L47.7144 49.6673C47.7647 49.6188 47.8143 49.5696 47.8633 49.5198L47.8665 49.5164C49.5349 47.82 50.4081 45.5162 50.3301 43.1877C49.6065 44.3455 48.5979 45.3485 47.3327 46.0789Z" fill="#24488E"/>
<path d="M53.67 57.1438L47.5771 60.6615L55.4487 76.2237L60.6064 82.6428L63.356 86.0648L66.1201 89.5051L68.4972 92.4633L70.7511 91.162L69.3777 87.6243L67.7804 83.5103L66.2542 79.579L63.2114 71.7419L53.67 57.1438Z" fill="#AA3324"/>
<path d="M68.8269 92.0065L70.1836 91.2232L61.7043 72.7082L53.6906 57.5348L47.8984 60.8789L57.0321 75.4057L68.8269 92.0065Z" fill="#D34734"/>
</svg>
