<svg width="102" height="101" viewBox="0 0 102 101" fill="none" xmlns="http://www.w3.org/2000/svg">
<path d="M1.68228 55.8906L3.17129 56.0722C3.46969 56.1085 3.71006 56.334 3.76529 56.6295L4.04143 58.1039L4.22276 56.6149C4.25923 56.3165 4.48457 56.0761 4.78023 56.0209L6.25447 55.7448L4.76564 55.5633C4.46708 55.5268 4.22686 55.3013 4.17146 55.006L3.89563 53.5316L3.71399 55.0206C3.67769 55.3188 3.45218 55.5592 3.15669 55.6146L1.68228 55.8906Z" fill="#25295B"/>
<path d="M15.1588 4.93159L16.648 5.11322C16.9463 5.14952 17.1866 5.37503 17.2419 5.67052L17.518 7.14493L17.6995 5.65593C17.7358 5.35752 17.9613 5.11715 18.2568 5.06192L19.7312 4.78578L18.2422 4.60431C17.9438 4.56784 17.7035 4.34233 17.6481 4.04702L17.3722 2.5726L17.1906 4.06161C17.1542 4.35985 16.9287 4.60021 16.6334 4.65561L15.1588 4.93159Z" fill="#25295B"/>
<path d="M84.1276 95.1611L85.6168 95.3427C85.915 95.379 86.1554 95.6045 86.2106 95.9L86.4867 97.3744L86.6682 95.8854C86.7045 95.587 86.9301 95.3466 87.2255 95.2914L88.6999 95.0153L87.2109 94.8338C86.9125 94.7973 86.6721 94.5718 86.6167 94.2765L86.3409 92.8021L86.1593 94.2911C86.123 94.5893 85.8975 94.8297 85.6021 94.8851L84.1276 95.1611Z" fill="#25295B"/>
<path d="M87.6126 16.1269L89.5932 16.3683C89.9901 16.4168 90.31 16.7167 90.3834 17.1097L90.7505 19.0709L90.9919 17.0903C91.0404 16.6934 91.3403 16.3737 91.7333 16.3001L93.6946 15.933L91.7138 15.6914C91.317 15.643 90.9973 15.3431 90.9237 14.9502L90.5566 12.989L90.3152 14.9696C90.2669 15.3664 89.9668 15.686 89.5738 15.7597L87.6126 16.1269Z" fill="#25295B"/>
<path d="M99.6327 49.2539C99.6426 49.5639 99.3995 49.8232 99.0895 49.8331C98.7793 49.843 98.52 49.5997 98.5101 49.2897C98.5002 48.9797 98.7435 48.7205 99.0537 48.7106C99.3637 48.7007 99.6228 48.9439 99.6327 49.2539Z" fill="#25295B"/>
<path d="M54.4921 95.2705C54.502 95.5805 54.2589 95.8398 53.9488 95.8497C53.6387 95.8596 53.3793 95.6163 53.3695 95.3063C53.3596 94.9963 53.6029 94.7371 53.913 94.7272C54.2231 94.7173 54.4822 94.9605 54.4921 95.2705Z" fill="#25295B"/>
<path d="M22.328 88.4269C22.3379 88.7369 22.0948 88.9963 21.7848 89.0061C21.4746 89.016 21.2153 88.7727 21.2054 88.4627C21.1955 88.1527 21.4388 87.8934 21.749 87.8835C22.059 87.8736 22.3182 88.1169 22.328 88.4269Z" fill="#25295B"/>
<path d="M88.8202 42.3527C88.8301 42.6627 88.587 42.922 88.277 42.9319C87.9668 42.9418 87.7075 42.6985 87.6976 42.3885C87.6877 42.0785 87.931 41.8191 88.2412 41.8092C88.5512 41.7994 88.8103 42.0427 88.8202 42.3527Z" fill="#25295B"/>
<path d="M5.45109 76.268C5.47105 76.894 4.97991 77.4174 4.35397 77.4374C3.72803 77.4573 3.20454 76.9662 3.18458 76.3403C3.16462 75.7143 3.65572 75.1909 4.2817 75.1709C4.90764 75.1509 5.43113 75.6421 5.45109 76.268Z" fill="#25295B"/>
<path d="M79.5995 26.2094C79.6195 26.8354 79.1283 27.3588 78.5024 27.3788C77.8765 27.3987 77.353 26.9076 77.333 26.2817C77.3131 25.6558 77.8042 25.1323 78.4301 25.1123C79.0561 25.0923 79.5795 25.5835 79.5995 26.2094Z" fill="#25295B"/>
<path d="M26.9287 94.3682C38.6974 94.1201 69.5827 84.6363 86.1414 75.6015C89.9384 73.5298 91.9643 69.251 91.1995 64.9937C88.5178 50.0665 82.3218 37.0387 74.6412 24.4146L67.8339 56.7362L28.3565 79.8163L21.2567 86.9008L24.6062 94.2781L26.9287 94.3682Z" fill="#FFCF02"/>
<path d="M24.7568 94.5928C36.5255 94.3448 67.4109 84.8609 83.9695 75.8261C87.7665 73.7544 89.7924 69.4756 89.0276 65.2184C86.346 50.2911 80.15 37.2633 72.4693 24.6392L65.662 56.9608L26.1846 80.041L19.0848 87.1254L22.4343 94.5027L24.7568 94.5928Z" fill="#FFCA00"/>
<path d="M27.2245 95.1404C27.1293 95.1435 27.0368 95.1459 26.9438 95.1479C26.9283 95.1482 26.9127 95.1481 26.8971 95.1475L24.5748 95.0574C24.2804 95.0459 24.0177 94.8694 23.8958 94.601L20.5461 87.2238C20.4118 86.9279 20.4752 86.5798 20.7051 86.3503L27.8049 79.2658C27.8519 79.219 27.9047 79.1782 27.9621 79.1448L67.1416 56.2388L73.8777 24.2549C73.9435 23.9422 74.1935 23.7015 74.5084 23.6477C74.8228 23.5936 75.1392 23.7376 75.3052 24.0105C84.453 39.0462 89.591 51.6437 91.9648 64.8568C92.7922 69.4624 90.6014 74.0555 86.5132 76.2861C70.6351 84.9495 39.804 94.7393 27.2245 95.1404ZM26.9341 93.5899C27.0087 93.5882 27.0849 93.5862 27.1612 93.5837C38.5478 93.2206 68.7761 84.1893 85.7672 74.9187C89.2657 73.0097 91.1403 69.0769 90.4314 65.1323C88.1826 52.6143 83.4019 40.6355 74.994 26.514L68.5948 56.8976C68.5496 57.1127 68.4154 57.2986 68.2257 57.4096L28.8346 80.4392L22.188 87.0715L25.1155 93.5193L26.9341 93.5899Z" fill="#650000"/>
<path d="M52.8469 32.9694L48.6733 25.5062L46.7272 22.0277L39.8304 9.69205L14.3394 23.9457L4.85319 29.2513L8.76638 36.2474L10.7102 39.7256L14.8837 47.1888" fill="#29B860"/>
<g opacity="0.6">
<path d="M52.8469 32.9693L51.1042 33.6208L47.9899 28.051L46.0438 24.5725L39.147 12.2369L13.656 26.4905L5.7746 30.8977L4.85319 29.2513L14.3394 23.9457L39.8303 9.69205L46.7272 22.0277L48.6733 25.5062L52.8469 32.9693Z" fill="white"/>
</g>
<path d="M14.9079 47.9661C14.6262 47.9751 14.3496 47.8305 14.2025 47.5676L4.17197 29.6302C4.07128 29.4499 4.04608 29.237 4.10223 29.0381C4.15841 28.8393 4.29141 28.6709 4.47165 28.5702L13.9578 23.2646L39.4489 9.01086C39.6293 8.91016 39.842 8.88521 40.041 8.94122C40.2398 8.9974 40.4081 9.1303 40.509 9.31064L53.5255 32.5878C53.7354 32.9633 53.6012 33.4379 53.2257 33.6479C52.8497 33.8576 52.3756 33.7235 52.1657 33.3482L39.5294 10.7508L5.91191 29.5496L15.5623 46.8072C15.7723 47.1827 15.638 47.6573 15.2626 47.8673C15.15 47.9302 15.0284 47.9622 14.9079 47.9661Z" fill="#650000"/>
<path d="M48.7439 34.5049L44.5726 27.042L40.1806 19.1898C38.1918 20.3028 35.6777 19.5907 34.5648 17.6019L14.3548 28.9044C15.4677 30.8932 14.7556 33.4073 12.7668 34.5202L14.816 38.1868L18.9898 45.6476" fill="#4FEC91"/>
<path d="M35.8204 38.8676C37.7589 36.8014 37.6553 33.555 35.5891 31.6165C33.523 29.678 30.2765 29.7815 28.3381 31.8477C26.3996 33.9139 26.5031 37.1603 28.5693 39.0988C30.6355 41.0373 33.8819 40.9338 35.8204 38.8676Z" fill="#1FBC61"/>
<path d="M69.3319 32.6849L67.6307 24.305L66.837 20.3989L64.0267 6.5484L35.4048 12.3575L24.7531 14.5205L26.3486 22.3761L27.1402 26.2813L28.8413 34.6612" fill="#29B860"/>
<g opacity="0.6">
<path d="M69.3319 32.6849L67.4736 32.7744L66.2045 26.5206L65.4108 22.6145L62.6004 8.76398L33.9786 14.5731L25.1291 16.3693L24.7531 14.5205L35.4048 12.3575L64.0267 6.5484L66.837 20.3989L67.6307 24.305L69.3319 32.6849Z" fill="white"/>
</g>
<path d="M28.8718 35.4408C28.4992 35.4527 28.1613 35.1947 28.0845 34.8171L23.9963 14.6764C23.9552 14.474 23.9963 14.2635 24.1102 14.0913C24.2243 13.919 24.4021 13.7991 24.6048 13.758L35.2565 11.595L63.8783 5.78594C64.0806 5.7445 64.2914 5.78595 64.4635 5.89997C64.6357 6.01409 64.7556 6.19188 64.7967 6.3944L70.1019 32.5309C70.1875 32.9524 69.915 33.3636 69.4934 33.4492C69.0712 33.5352 68.6606 33.2622 68.575 32.8408L63.4248 7.46755L35.5664 13.1217L25.6781 15.1297L29.6114 34.5072C29.697 34.9287 29.4246 35.3399 29.0029 35.4254C28.9591 35.4344 28.9151 35.4394 28.8718 35.4408Z" fill="#650000"/>
<path d="M64.9683 32.8978L63.2693 24.5188L61.4786 15.7018C59.2453 16.1558 57.0677 14.7116 56.6137 12.4782L33.9209 17.0855C34.3749 19.3189 32.9306 21.4964 30.6973 21.9505L31.5319 26.0671L33.2339 34.4449" fill="#4FEC91"/>
<path d="M52.5704 32.1439C54.5089 30.0777 54.4053 26.8313 52.3391 24.8928C50.273 22.9544 47.0265 23.0579 45.0881 25.1241C43.1496 27.1903 43.2531 30.4367 45.3193 32.3752C47.3855 34.3136 50.6319 34.2101 52.5704 32.1439Z" fill="#1FBC61"/>
<path d="M82.5501 36.9082L83.4959 28.4098L83.936 24.4483L85.5004 10.4024L56.4744 7.17089L45.6719 5.96932L44.786 13.9363L44.3442 17.8963L43.3984 26.3947" fill="#29B860"/>
<g opacity="0.6">
<path d="M82.552 36.9078L80.7555 36.4242L81.4617 30.0821L81.9019 26.1206L83.4663 12.0747L54.4402 8.84318L45.4658 7.84413L45.6738 5.96901L56.4763 7.17058L85.5023 10.4021L83.9379 24.448L83.4978 28.4095L82.552 36.9078Z" fill="white"/>
</g>
<path d="M82.5748 37.6855C82.5378 37.6867 82.5006 37.6853 82.4628 37.6811C82.0352 37.6335 81.7273 37.2483 81.7748 36.8208L84.639 11.0891L46.3586 6.82839L44.1713 26.4795C44.1238 26.9073 43.7369 27.2153 43.311 27.1675C42.8834 27.1199 42.5755 26.7347 42.623 26.3072L44.8964 5.88206C44.9193 5.67674 45.0228 5.48888 45.1841 5.35979C45.3455 5.23081 45.5507 5.17123 45.7567 5.19396L56.5592 6.39553L85.5854 9.62702C85.7907 9.64988 85.9787 9.75337 86.1077 9.91471C86.2366 10.0761 86.2963 10.2821 86.2734 10.4874L83.3231 36.9931C83.2798 37.3829 82.9557 37.6734 82.5748 37.6855Z" fill="#650000"/>
<path d="M78.3311 35.7687L79.2786 27.2719L80.2729 18.33C78.0078 18.0785 76.3769 16.037 76.6283 13.7719L53.6145 11.2113C53.3631 13.4764 51.3216 15.1073 49.0565 14.8559L48.5908 19.0303L47.6465 27.527" fill="#4FEC91"/>
<path d="M68.0079 30.2796C69.9464 28.2134 69.8429 24.967 67.7767 23.0285C65.7105 21.09 62.4641 21.1936 60.5256 23.2598C58.5871 25.326 58.6906 28.5724 60.7568 30.5109C62.823 32.4494 66.0694 32.3458 68.0079 30.2796Z" fill="#1FBC61"/>
<path d="M57.4483 50.5493L61.8537 57.8779L63.9066 61.2946L71.1888 73.4067L46.1583 88.4542L36.8424 94.0534L32.7131 87.1827L30.6594 83.7682L26.254 76.4395" fill="#29B860"/>
<path d="M36.8739 94.8309C36.8027 94.8332 36.731 94.8257 36.6607 94.8082C36.4602 94.7583 36.2879 94.6307 36.1815 94.4536L25.5931 76.8399C25.3714 76.4711 25.4906 75.9926 25.8595 75.7709C26.2276 75.5493 26.7067 75.6685 26.9283 76.0372L37.1154 92.9835L70.1265 73.1395L56.7875 50.9496C56.5658 50.5809 56.685 50.1023 57.0538 49.8807C57.422 49.659 57.9012 49.7782 58.1227 50.147L71.8631 73.0044C71.9696 73.1814 72.0014 73.3936 71.9513 73.594C71.9014 73.7944 71.774 73.9669 71.5968 74.0733L37.2504 94.72C37.1355 94.7891 37.0056 94.8267 36.8739 94.8309Z" fill="#650000"/>
<path d="M54.0689 53.35L58.4752 60.6766L63.1097 68.3881C61.1561 69.5616 60.5258 72.0974 61.6993 74.0511L41.8528 85.9804C40.6793 84.0268 38.1434 83.3964 36.1898 84.57L34.0249 80.9705L29.6216 73.6428" fill="#4FEC91"/>
<path d="M48.7969 70.9027C50.7354 68.8365 50.6319 65.5901 48.5657 63.6516C46.4995 61.7132 43.2531 61.8167 41.3146 63.8829C39.3761 65.949 39.4797 69.1955 41.5459 71.134C43.612 73.0724 46.8585 72.9689 48.7969 70.9027Z" fill="#1FBC61"/>
<path d="M28.8927 73.3233C28.7935 73.5518 28.8025 73.8231 28.9406 74.0529L35.5089 84.9803C35.7359 85.358 36.2261 85.4802 36.6039 85.2532C38.178 84.3078 40.2269 84.8179 41.1717 86.3903C41.2808 86.5719 41.4574 86.7027 41.6629 86.7539C41.8683 86.8051 42.0857 86.7726 42.2671 86.6635L62.1136 74.7343C62.4919 74.5072 62.6139 74.0167 62.3867 73.6391C61.4414 72.0651 61.9514 70.0161 63.524 69.0713C63.7054 68.9622 63.8362 68.7851 63.8874 68.5803C63.9387 68.3747 63.9062 68.1574 63.7971 67.9759L54.756 52.9376C54.5289 52.5599 54.0384 52.4378 53.6606 52.665C53.2825 52.8921 53.1608 53.3828 53.388 53.7604L62.0508 68.1695C60.4458 69.5305 59.8833 71.7873 60.6625 73.7438L42.0736 84.9172C40.7124 83.3121 38.4555 82.7501 36.499 83.5292L30.3089 73.2305C30.0818 72.8527 29.5914 72.7305 29.2136 72.9575C29.0655 73.0465 28.9566 73.176 28.8927 73.3233Z" fill="#650000"/>
<path d="M72.372 54.975L74.2928 63.3073L75.1874 67.1915L78.3633 80.9628L49.9046 87.5244L39.3131 89.9653L37.5132 82.1539L36.6171 78.2714L34.6962 69.9392" fill="#29B860"/>
<path d="M39.3212 90.7438C39.1679 90.7487 39.0153 90.7082 38.8834 90.6256C38.7082 90.5161 38.5837 90.3414 38.5373 90.1401L33.9204 70.1141C33.8238 69.6949 34.0853 69.2767 34.5046 69.1801C34.923 69.083 35.3419 69.3449 35.4386 69.7641L39.8805 89.0312L49.7128 86.7653L77.4125 80.3787L71.5961 55.1499C71.4995 54.7307 71.761 54.3125 72.1803 54.216C72.5985 54.1192 73.0174 54.3807 73.1142 54.8L79.1055 80.7877C79.1518 80.989 79.1165 81.2005 79.0068 81.3757C78.8973 81.5508 78.7227 81.6753 78.5215 81.7217L50.0627 88.2833L39.4712 90.7242C39.4216 90.7357 39.3713 90.7422 39.3212 90.7438Z" fill="#650000"/>
<path d="M68.2931 56.5943L70.2154 64.9249L72.2356 73.6922C70.0147 74.2035 68.6305 76.4196 69.1418 78.6406L46.5776 83.8415C46.0663 81.6206 43.8501 80.2364 41.6292 80.7476L40.6846 76.6548L38.7655 68.324" fill="#4FEC91"/>
<path d="M59.1094 70.6664C61.0479 68.6002 60.9444 65.3538 58.8782 63.4153C56.812 61.4768 53.5656 61.5803 51.6271 63.6465C49.6886 65.7127 49.7922 68.9591 51.8583 70.8976C53.9245 72.8361 57.171 72.7326 59.1094 70.6664Z" fill="#1FBC61"/>
<path d="M80.3135 56.4934L79.3125 64.9854L78.8451 68.9438L77.1919 82.9796L48.1872 79.5617L37.3929 78.2887L38.332 70.3279L38.7974 66.3705L39.7984 57.8785" fill="#29B860"/>
<path d="M77.2155 83.7581C77.1771 83.7593 77.1383 83.7577 77.0995 83.7531L48.0947 80.3353L37.3004 79.0623C37.0953 79.0381 36.9081 78.9334 36.7801 78.7712C36.6523 78.609 36.5938 78.4026 36.618 78.1975L39.0236 57.7873C39.074 57.3601 39.4591 57.0546 39.8885 57.1049C40.3157 57.1552 40.6211 57.5424 40.5709 57.9697L38.2566 77.6064L76.5083 82.1148L79.5386 56.4021C79.5891 55.9749 79.9753 55.6692 80.4035 55.7198C80.8307 55.7701 81.1362 56.1573 81.0859 56.5846L77.9644 83.0706C77.9401 83.2758 77.8354 83.463 77.6733 83.591C77.5418 83.6948 77.3811 83.7528 77.2155 83.7581Z" fill="#650000"/>
<path d="M75.9317 56.6437L74.9327 65.1347L73.8787 74.0697C71.6154 73.8023 69.565 75.422 69.2975 77.6853L46.301 74.9739C46.5684 72.7107 44.9487 70.6602 42.6855 70.3928L43.1761 66.2211L44.1782 57.7311" fill="#4FEC91"/>
<path d="M60.3606 67.3588C63.1924 67.2685 65.4147 64.8997 65.3244 62.0679C65.2341 59.2362 62.8653 57.0138 60.0336 57.1041C57.2018 57.1944 54.9795 59.5632 55.0698 62.3949C55.1601 65.2267 57.5288 67.4491 60.3606 67.3588Z" fill="#1FBC61"/>
<path d="M76.7939 70.9337C54.1937 80.0368 27.9333 87.6076 28.3912 90.726L28.3508 94.1999L28.3497 94.3122C25.9262 94.4643 23.7665 94.3367 22.0395 93.7512C20.404 93.1986 19.2073 91.7919 18.8836 90.0955C16.0801 75.3994 12.6287 61.4052 8.61082 48.0229C7.5381 44.4442 8.82691 40.5765 11.8493 38.3806C23.902 29.6201 43.2896 22.5147 64.1009 17.4353C68.2057 16.4347 72.4125 18.6323 73.9347 22.5724C76.7666 29.8982 79.5134 37.9296 82.201 46.4493C83.0349 49.088 83.8624 51.7737 84.6851 54.5C86.7034 61.194 83.2788 68.3219 76.7939 70.9337Z" fill="#FFCF02"/>
<g opacity="0.4">
<path d="M19.8725 91.7785C17.0689 77.0824 13.6176 63.0882 9.5997 49.7059C8.52698 46.1272 9.81579 42.2595 12.8382 40.0636C24.8909 31.3031 44.2785 24.1977 65.0898 19.1183C68.4154 18.3076 71.8075 19.5966 73.7851 22.2103C72.1512 18.4989 68.0782 16.4658 64.1009 17.4353C43.2896 22.5147 23.902 29.6201 11.8493 38.3806C8.82694 40.5765 7.53809 44.4441 8.61082 48.0229C12.6287 61.4052 16.0801 75.3995 18.8836 90.0955C19.0529 90.9828 19.4628 91.7892 20.0476 92.4372C19.9749 92.2234 19.9155 92.0038 19.8725 91.7785Z" fill="white"/>
</g>
<path d="M76.7978 70.934C54.1976 80.0372 27.9372 87.608 28.3951 90.7263L28.3547 94.2003L28.1257 93.913C27.2146 93.8618 26.292 93.9497 25.3761 93.9933C23.3949 94.0877 23.0195 93.9366 22.6671 93.8081C21.7351 93.4681 20.5135 92.6088 20.3132 91.4516C20.0743 90.0717 21.3781 88.7897 21.8531 88.3226C26.6283 83.6272 58.4403 73.5271 71.8599 68.2937C76.1951 66.603 80.8678 64.3966 82.6953 60.119C84.6576 55.5223 82.6219 50.2909 80.6027 45.7198C81.162 45.9093 81.6967 46.1556 82.2049 46.4496C83.0388 49.0883 83.8663 51.774 84.6889 54.5004C86.7073 61.1944 83.2827 68.3222 76.7978 70.934Z" fill="#FFCA00"/>
<path d="M27.4342 95.1367C25.1431 95.2098 23.2912 94.9969 21.7944 94.4904C19.9087 93.8524 18.5023 92.2248 18.1242 90.2427C15.4012 75.973 11.9513 61.8436 7.87067 48.2471C6.70133 44.3515 8.1181 40.1335 11.3959 37.7511C25.5241 27.4829 47.7577 20.625 63.9215 16.68C68.3893 15.5895 73.0089 18.0025 74.6671 22.2927C78.1084 31.1972 81.6309 41.6592 85.436 54.2764C86.4683 57.6999 86.184 61.3612 84.6353 64.5856C83.0868 67.8095 80.4072 70.3209 77.0899 71.6571C68.9952 74.9178 60.3936 77.9958 52.8045 80.7114C46.1384 83.0967 40.3815 85.1568 36.0833 86.9252C30.0986 89.3874 29.2756 90.3869 29.1725 90.6598C29.2081 91.0675 28.9198 91.4373 28.5095 91.4975C28.0826 91.5593 27.6882 91.2656 27.6257 90.8399C27.269 88.4093 33.3561 86.016 52.2796 79.2446C59.8551 76.5338 68.4414 73.4614 76.5079 70.2121C82.6621 67.7331 85.8592 61.0757 83.9443 54.7263C80.1509 42.1471 76.6408 31.7217 73.2138 22.8543C71.8369 19.2916 68.002 17.2881 64.2907 18.1935C48.263 22.1053 26.2348 28.8923 12.3119 39.0113C9.56856 41.0051 8.38332 44.5367 9.36268 47.7993C13.4588 61.4467 16.9214 75.6285 19.6543 89.9506C19.9275 91.3822 20.9388 92.5563 22.2937 93.0147C23.8005 93.5245 25.767 93.6949 28.3061 93.5356C28.7318 93.5099 29.1054 93.8349 29.1323 94.2642C29.1592 94.6936 28.8331 95.0634 28.4036 95.0904C28.0722 95.1113 27.7489 95.1267 27.4342 95.1367ZM29.1671 90.6137C29.1671 90.614 29.1671 90.6142 29.1671 90.6145C29.1671 90.6142 29.1671 90.614 29.1671 90.6137Z" fill="#650000"/>
<path d="M92.6621 56.044C91.7903 56.6143 90.7838 57.0656 89.6634 57.4162C89.0341 55.3258 88.4572 53.4146 87.9222 51.6423C86.6638 50.4994 85.4479 49.5205 84.3154 48.8552C83.4974 48.3747 82.5145 48.2486 81.598 48.4929C77.748 49.515 74.3188 51.4169 69.7064 51.8445C65.7428 52.2873 62.6661 50.0911 60.8236 46.9577C59.4921 44.6949 58.8026 41.941 58.8864 39.3384C58.9944 35.9823 60.8686 32.9237 63.7931 31.2749C66.9196 29.5121 69.9847 28.0692 72.9512 27.1532C74.5842 26.6491 76.3426 26.7037 77.9322 27.331C80.3789 28.2973 82.81 29.5073 85.2266 30.9452C86.9615 31.9778 88.3716 33.4759 89.3338 35.2517C91.6372 39.4942 93.3269 43.7017 94.2395 47.4882C94.5609 48.8184 94.7871 50.0971 94.9099 51.3058C95.1006 53.1825 94.2393 55.0087 92.6621 56.044Z" fill="#FFCF02"/>
<g opacity="0.4">
<path d="M94.901 51.3058C94.7782 50.0971 94.552 48.8184 94.2306 47.4883C93.318 43.7018 91.6283 39.4942 89.3249 35.2518C88.3627 33.476 86.9527 31.9779 85.2177 30.9452C82.8011 29.5073 80.37 28.2974 77.9232 27.3311C76.3337 26.7038 74.5753 26.6492 72.9423 27.1533C69.9758 28.0693 66.9107 29.5121 63.7842 31.2749C60.8597 32.9237 58.9855 35.9824 58.8775 39.3385C58.8594 39.9016 58.8796 40.4718 58.9325 41.0425C59.0436 37.6898 60.9168 34.6351 63.8388 32.9877C66.9653 31.2249 70.0304 29.7821 72.997 28.866C72.9977 28.8658 72.9984 28.8656 72.9991 28.8654C73.1532 28.8179 73.3169 28.809 73.476 28.8349C74.0969 28.9359 74.6892 29.218 75.1448 29.6524C75.6431 30.1276 75.9692 30.7507 76.2864 31.3618C77.3947 33.4971 78.503 35.6324 79.6113 37.7677C78.9744 35.9051 78.3375 34.0426 77.7006 32.18C77.5274 31.6734 77.3928 31.153 77.3235 30.6221C77.2798 30.2879 77.281 29.9375 77.449 29.6495C77.4665 29.6195 77.4856 29.5906 77.5061 29.5631C77.7518 29.2329 78.2076 29.1354 78.5881 29.2921C80.8289 30.2149 83.0568 31.3397 85.2723 32.658C87.0073 33.6906 88.4173 35.1887 89.3795 36.9645C91.6829 41.207 93.3726 45.4145 94.2852 49.201C94.5553 50.3189 94.7572 51.3998 94.888 52.434C94.933 52.064 94.9396 51.6862 94.901 51.3058Z" fill="white"/>
</g>
<path d="M92.5119 56.0499C91.6401 56.6201 90.6336 57.0715 89.5132 57.4221C88.8839 55.3317 88.307 53.4205 87.772 51.6482C86.5136 50.5053 85.2977 49.5263 84.1652 48.8611C83.3472 48.3806 82.3643 48.2545 81.4478 48.4988C77.5978 49.5209 74.1686 51.4228 69.5561 51.8504C65.5925 52.2932 62.5159 50.097 60.6734 46.9636C60.7667 46.7627 60.8759 46.569 60.9977 46.3828L61.092 46.4047C61.5161 47.3608 62.5126 49.2096 64.5139 50.1408C66.7264 51.1703 68.9557 50.5146 71.5157 49.7616C75.0991 48.7077 78.4792 46.7243 78.7396 46.5698C79.7122 45.9929 81.0335 45.1378 83.0448 44.718C84.3083 44.4543 84.9401 44.3225 85.7385 44.5308C87.4139 44.9681 87.91 45.984 90.4856 48.7686C91.183 49.5226 92.1333 50.3885 93.0926 50.0197C93.5977 49.8244 93.9259 49.3136 94.0477 48.7844C94.1433 48.3621 94.1279 47.9262 94.0892 47.4941C94.4106 48.8243 94.6368 50.1029 94.7596 51.3117C94.9503 53.1884 94.089 55.0146 92.5119 56.0499Z" fill="#FFCA00"/>
<path d="M89.5323 58.1999C89.3979 58.2042 89.2635 58.1737 89.1426 58.1095C88.9589 58.0122 88.8217 57.8454 88.7618 57.6463L87.0825 52.0806C85.7888 50.9177 84.7022 50.0832 83.7649 49.5328C83.1346 49.1625 82.3594 49.0601 81.641 49.2509C80.3196 49.6019 79.0615 50.0545 77.7294 50.5336C75.2619 51.4213 72.7103 52.3392 69.622 52.6255C66.8703 52.932 64.3035 52.0742 62.2123 50.1419C59.4513 47.5904 57.8184 43.443 57.9513 39.3181C58.0669 35.7216 60.0987 32.3818 63.254 30.6021C66.7108 28.6521 69.7565 27.2822 72.565 26.4142C74.3711 25.8561 76.323 25.9262 78.0614 26.6119C80.5086 27.5775 83.0008 28.8119 85.4685 30.281C87.3 31.3716 88.8196 32.9635 89.8626 34.8849C93.0407 40.7389 95.0528 46.5445 95.5287 51.2322C95.7497 53.4099 94.7548 55.5052 92.9325 56.7006C92.0316 57.2915 90.9574 57.7841 89.7398 58.1648C89.672 58.186 89.6021 58.1977 89.5323 58.1999ZM84.554 48.1896C85.6228 48.8173 86.8446 49.76 88.2892 51.0713C88.3938 51.1663 88.4705 51.2879 88.5113 51.4231L90.0196 56.4223C90.7929 56.1316 91.4829 55.7884 92.078 55.398C93.4125 54.5226 94.1408 52.9868 93.9787 51.3895C93.5233 46.9024 91.5754 41.305 88.4935 35.6281C87.584 33.953 86.2624 32.5668 84.6715 31.6197C82.2756 30.1933 79.8593 28.996 77.4896 28.0612C76.0795 27.5048 74.4938 27.4484 73.025 27.9026C70.3239 28.7375 67.3783 30.0643 64.0193 31.9591C61.335 33.4731 59.6065 36.3121 59.5082 39.3682C59.3913 42.9986 60.8678 46.7783 63.2696 48.9977C65.0187 50.6142 67.1622 51.3319 69.4637 51.0758C72.3693 50.8063 74.8261 49.9225 77.2022 49.0678C78.5063 48.5986 79.8551 48.1134 81.2411 47.7453C82.3597 47.4482 83.5674 47.61 84.554 48.1896Z" fill="#650000"/>
<path d="M87.7926 50.6298C88.8547 51.5011 89.6294 52.6694 90.342 53.8377L86.7794 51.8132C86.4041 51.5999 86.2728 51.1228 86.4861 50.7474C86.7144 50.3379 87.268 50.2257 87.6389 50.5114L87.7926 50.6298Z" fill="#650000"/>
<g opacity="0.25">
<path d="M25.2678 56.1789L19.4067 59.2011C18.2493 59.7979 16.9369 59.1492 16.4954 57.762L13.7818 49.2357C13.3506 47.8808 13.9136 46.3293 15.0461 45.7522L20.8764 42.7809C22.0277 42.1942 23.3293 42.8363 23.7743 44.2105L26.5187 52.6859C26.9567 54.0389 26.3994 55.5954 25.2678 56.1789Z" fill="#2E0F18"/>
</g>
<g opacity="0.25">
<path d="M28.7456 64.2892L21.3863 67.9206C20.6271 68.2952 19.7768 67.8652 19.489 66.9611L19.0179 65.4817C18.736 64.5963 19.0982 63.5817 19.8346 63.1937L27.1195 59.3559C27.8814 58.9546 28.751 59.376 29.0467 60.2901L29.5922 61.9758C29.8842 62.8779 29.5048 63.9146 28.7456 64.2892Z" fill="#CB9F07"/>
</g>
<g opacity="0.3">
<path d="M25.2493 86.157C27.182 85.1961 29.2041 84.4128 31.2033 83.6012C33.1948 82.7928 35.1653 81.934 37.1645 81.1434C41.1695 79.5595 45.2288 78.1143 49.2893 76.681C53.4864 75.1995 57.6885 73.7321 61.8826 72.2422C66.0714 70.7542 70.2468 69.221 74.3523 67.5133C76.1376 66.7707 77.9489 65.9953 79.4561 64.7559C79.8297 64.4487 80.183 64.1205 80.5054 63.7593C80.8363 63.3887 81.0444 62.9607 81.2941 62.536C81.7867 61.698 82.1864 60.8129 82.546 59.9108C82.721 59.4714 82.8736 59.0303 83.008 58.5767C83.0616 58.3957 82.7827 58.288 82.6996 58.4577C82.2722 59.331 81.8698 60.2078 81.3985 61.0587C81.1703 61.4708 80.9014 61.8538 80.6103 62.2238C80.466 62.4075 80.2935 62.5564 80.1236 62.7165C79.9425 62.8871 79.7883 63.0854 79.6156 63.2651C78.3052 64.6282 76.5672 65.4725 74.8491 66.1966C70.8051 67.901 66.672 69.396 62.54 70.8691C58.3898 72.3487 54.2289 73.798 50.0725 75.2599C46.0438 76.6768 42.0203 78.1071 38.045 79.67C36.0594 80.4506 34.0829 81.257 32.1356 82.1295C30.1866 83.0028 28.3295 84.0313 26.4733 85.082C26.006 85.3465 25.5291 85.5938 25.0575 85.8508C24.8516 85.963 25.0446 86.2587 25.2493 86.157Z" fill="white"/>
</g>
<path d="M69.2079 45.948C71.5676 45.7582 73.3097 43.4809 73.099 40.8616C72.8882 38.2423 70.8043 36.2729 68.4446 36.4628C66.0848 36.6527 64.3427 38.93 64.5535 41.5493C64.7643 44.1685 66.8481 46.1379 69.2079 45.948Z" fill="#A34F38"/>
<path d="M68.5394 44.5567C70.6892 44.4882 72.3765 42.6898 72.3079 40.5399C72.2394 38.39 70.441 36.7028 68.2911 36.7714C66.1413 36.8399 64.454 38.6383 64.5226 40.7882C64.5911 42.938 66.3895 44.6253 68.5394 44.5567Z" fill="#FEDA24"/>
<path d="M70.1901 37.1976C70.6348 37.5992 70.9803 38.1229 71.1682 38.7384C71.7193 40.5431 70.7093 42.4509 68.9123 42.9997C67.1153 43.5484 65.2118 42.5304 64.6607 40.7257C64.6092 40.557 64.5713 40.3873 64.5464 40.2179C64.5251 40.4047 64.5165 40.5952 64.5227 40.7887C64.5913 42.9385 66.3897 44.6258 68.5395 44.5572C70.6894 44.4886 72.3766 42.6903 72.3081 40.5404C72.2613 39.0739 71.4093 37.8231 70.1901 37.1976Z" fill="#EA9F1B"/>
<path d="M68.5534 45.1801C66.0637 45.2595 63.9734 43.2984 63.894 40.8086C63.8146 38.3187 65.7757 36.2284 68.2654 36.149C70.7552 36.0696 72.8455 38.0307 72.9249 40.5206C73.0043 43.0105 71.0432 45.1007 68.5534 45.1801ZM68.3052 37.3947C66.5021 37.4522 65.0821 38.9659 65.1396 40.7689C65.1971 42.5719 66.7107 43.9919 68.5137 43.9344C70.3167 43.8769 71.7368 42.3633 71.6793 40.5603C71.6218 38.7573 70.1082 37.3372 68.3052 37.3947Z" fill="#650000"/>
</svg>
