<svg width="27" height="27" viewBox="0 0 27 27" fill="none" xmlns="http://www.w3.org/2000/svg">
<g clip-path="url(#clip0_8_11)">
<path d="M24.3791 3.30118C21.4893 0.838488 17.1914 1.28146 14.5389 4.01837L13.5 5.08888L12.4612 4.01837C9.8139 1.28146 5.51078 0.838488 2.62094 3.30118C-0.690784 6.12775 -0.864807 11.2008 2.09886 14.2647L12.303 24.801C12.9621 25.4813 14.0327 25.4813 14.6918 24.801L24.8959 14.2647C27.8649 11.2008 27.6909 6.12775 24.3791 3.30118Z" fill="#1F1A38"/>
<rect x="14" y="6" width="16" height="16" rx="8" fill="white"/>
<path d="M28 12.5H23.5V8C23.5 7.44781 23.0522 7 22.5 7H21.5C20.9478 7 20.5 7.44781 20.5 8V12.5H16C15.4478 12.5 15 12.9478 15 13.5V14.5C15 15.0522 15.4478 15.5 16 15.5H20.5V20C20.5 20.5522 20.9478 21 21.5 21H22.5C23.0522 21 23.5 20.5522 23.5 20V15.5H28C28.5522 15.5 29 15.0522 29 14.5V13.5C29 12.9478 28.5522 12.5 28 12.5Z" fill="#1F1A38"/>
</g>
<defs>
<clipPath id="clip0_8_11">
<rect width="27" height="27" fill="white"/>
</clipPath>
</defs>
</svg>
