<svg width="353" height="323" viewBox="0 0 353 323" fill="none" xmlns="http://www.w3.org/2000/svg">
<path d="M212.305 134.344C211.35 134.233 210.657 133.61 210.07 132.898C206.594 131.045 204.319 127.43 201.629 124.623C196.483 118.399 191.626 111.924 187.287 105.115C184.688 105.003 181.985 104.992 179.509 104.128C179.511 104.127 179.513 104.125 179.515 104.124C179.316 104.028 179.186 103.792 179.192 103.568C175.755 98.4169 173.458 89.2525 174.123 83.0608C172.859 81.2998 178.193 80.9406 179.244 80.1642C187.017 76.9578 194.336 72.7617 202.062 69.4401C202.002 69.4676 201.942 69.4964 201.882 69.525C202.259 69.3509 202.632 69.168 203.006 68.9947C207.475 66.8623 211.942 64.7237 216.432 62.6357C216.373 62.6632 216.313 62.692 216.253 62.7196C231.677 55.3544 247.003 47.7823 262.395 40.3535C262.392 40.3552 262.389 40.357 262.386 40.3582C263.407 40.0044 264.83 38.5726 265.723 39.8301C265.934 39.8269 266.147 39.9059 266.288 40.0804C271.52 42.4924 273.612 51.85 275.435 56.9078C275.419 56.8708 275.405 56.8323 275.389 56.7953C275.483 57.0419 275.529 57.2874 275.511 57.5424C277.354 57.6288 282.465 55.4636 281.276 59.1097C283.07 62.8614 283.646 67.0177 284.524 71.0494C285.493 75.7889 284.488 80.0823 278.967 80.409C279.11 80.7479 278.953 81.1759 278.627 81.3549C280.538 88.2328 282.807 96.0338 279.84 102.904C279.699 105.936 273.517 104.041 271.413 104.396C266.638 104.191 261.866 103.93 257.089 103.787C243.924 103.345 230.729 103.444 217.568 103.953C217.624 103.951 217.68 103.948 217.736 103.946C214.143 104.126 210.549 104.307 206.952 104.401C210.146 110.445 213.671 116.305 217.128 122.201C218.256 124.055 220.129 126.154 219.433 128.465C218.255 131.201 215.542 134.491 212.305 134.344ZM191.313 105.169C191.401 105.292 191.49 105.415 191.577 105.539C191.6 105.515 191.624 105.493 191.65 105.472C191.597 105.371 191.545 105.269 191.494 105.167C191.434 105.167 191.373 105.169 191.313 105.169ZM251.218 100.661C258.028 100.793 264.834 101.149 271.637 101.46C267.647 96.4961 265.282 90.4898 263.101 84.5648C263.128 84.6331 263.155 84.7014 263.182 84.7697C263.09 84.5373 262.998 84.3039 262.906 84.0705C262.932 84.1388 262.959 84.2071 262.986 84.2754C260.782 78.4558 258.884 72.4042 258.183 66.2029C258.184 66.2148 258.186 66.2279 258.187 66.2401C258.159 65.9779 258.133 65.717 258.106 65.4546C258.106 65.4558 258.106 65.4558 258.106 65.4571C258.104 65.4432 258.103 65.429 258.102 65.4151C258.103 65.4235 258.104 65.4307 258.104 65.4379C258.104 65.4295 258.103 65.4201 258.102 65.4104C258.102 65.4116 258.102 65.4139 258.102 65.4151C257.364 58.7093 256.139 51.5394 258.806 45.1012C243.672 52.4647 228.744 60.2466 213.481 67.3452C213.541 67.3176 213.6 67.2888 213.66 67.2612C210.587 68.7171 207.53 70.209 204.452 71.6554C204.511 71.6266 204.571 71.5991 204.631 71.5705C204.538 71.6147 204.444 71.6579 204.351 71.7021C204.411 71.6733 204.471 71.6457 204.531 71.6172C204.391 71.683 204.25 71.7488 204.11 71.8148C204.17 71.7872 204.23 71.7584 204.291 71.7309C203.875 71.9312 203.458 72.1338 203.036 72.3213C203.037 72.32 203.039 72.3193 203.04 72.3185C202.311 72.6614 201.58 72.9961 200.845 73.327C203.136 81.6874 206.37 89.887 209.811 97.8628C209.81 97.8613 209.81 97.8601 209.809 97.8588C209.81 97.8601 209.81 97.8616 209.811 97.8631C209.812 97.8645 209.813 97.868 209.814 97.8702C209.813 97.8688 209.813 97.8673 209.812 97.866C209.831 97.9152 209.852 97.9643 209.87 98.0135C209.869 98.0115 209.869 98.0095 209.868 98.0078C209.871 98.017 209.875 98.0262 209.878 98.0353C209.878 98.0344 209.878 98.0336 209.877 98.0326C209.878 98.0336 209.878 98.0346 209.879 98.0356C210.247 99.0222 210.673 99.9863 211.088 100.954C211.088 100.953 211.088 100.953 211.088 100.953C211.089 100.954 211.089 100.957 211.09 100.958C211.09 100.958 211.09 100.958 211.09 100.958C211.145 101.097 211.194 101.235 211.22 101.382C212.443 101.341 213.665 101.292 214.887 101.24C214.851 101.242 214.816 101.243 214.779 101.246C226.914 100.644 239.072 100.574 251.218 100.661ZM274.374 81.9175C271.704 82.6484 268.987 83.1954 266.359 84.0775C268.726 90.032 270.672 97.0688 276.002 101.05C278.914 95.7001 277.616 89.289 276.287 83.6549C276.288 83.6596 276.29 83.6634 276.291 83.6681C276.144 82.9285 275.796 82.1948 275.87 81.4291C275.376 81.6039 274.879 81.7715 274.374 81.9175ZM260.937 63.4955C261.589 69.992 263.478 76.3254 265.731 82.4337C269.877 80.2322 274.443 79.009 278.779 77.2517C276.558 72.2719 274.321 65.7369 275.904 60.3407C271.055 60.9842 266.188 60.9603 261.317 61.1992C261.21 61.4311 260.939 61.6436 260.677 61.5679C260.767 62.2096 260.858 62.8512 260.937 63.4955ZM279.339 69.5228C279.906 71.7416 280.745 74.0505 281.935 75.9669C282.573 71.8324 280.305 63.9987 278.446 60.1813C276.901 62.6248 278.576 65.7023 279.038 68.2717C279.021 68.2012 279.005 68.1317 278.988 68.0609C279.035 68.2561 279.082 68.4512 279.129 68.6463C279.112 68.5768 279.096 68.5063 279.078 68.4356C279.165 68.7985 279.253 69.16 279.339 69.5228ZM265.105 41.9484C258.645 45.1881 259.802 53.5732 260.404 59.6115C264.367 58.4086 268.527 58.5605 272.582 57.8969C270.898 53.3585 269.375 44.557 265.543 41.5857C265.42 41.7326 265.273 41.8573 265.105 41.9484Z" fill="#E9A43D"/>
<path d="M131.532 88.0771C130.277 88.1528 128.553 87.0594 130.08 85.9673C136.168 85.2021 140.249 82.2956 131.761 80.1577C128.856 79.2647 128.679 75.7253 128.249 73.2024C128.253 73.2212 128.258 73.2401 128.264 73.259C128.251 73.2093 128.238 73.1596 128.226 73.11C128.227 73.1137 128.228 73.1175 128.229 73.1212C128.171 72.3617 127.209 70.9741 128.24 70.5841C128.351 67.5549 130.467 75.4204 130.748 75.9299C131.043 77.0389 131.384 78.132 132.71 78.2254C132.7 78.2229 132.69 78.2204 132.68 78.2177C140.823 80.0889 138.911 87.4003 131.532 88.0771Z" fill="#FFFCFD"/>
<path d="M112.92 93.2785C112.791 93.2333 112.735 93.0997 112.744 92.9721H112.743C113.711 90.941 115.141 89.108 116.799 87.5853C117.769 87.313 117.021 88.3684 116.626 88.6127C116.626 88.6119 116.627 88.6114 116.628 88.6107C116.125 89.1105 115.633 89.6199 115.193 90.1775C115.202 90.1644 115.212 90.1525 115.221 90.1393C115.215 90.1467 115.209 90.1547 115.203 90.1624C115.204 90.1619 115.204 90.1614 115.205 90.1609C115.121 90.2687 115.038 90.3764 114.954 90.4842C114.956 90.4817 114.957 90.4794 114.959 90.477C114.95 90.4894 114.94 90.5018 114.93 90.5139C114.933 90.5105 114.936 90.5067 114.939 90.503C114.444 91.1614 113.993 91.8511 113.575 92.5602C113.582 92.5471 113.591 92.5339 113.598 92.5207C113.563 92.5793 113.53 92.6382 113.495 92.6968C113.495 92.6963 113.495 92.696 113.496 92.6955C113.336 92.9043 113.269 93.3718 112.92 93.2785Z" fill="#FFFCFD"/>
<path d="M117.436 91.9323C116.335 91.5492 120.942 86.5329 121.509 85.7732C123.561 85.1706 120.335 88.2423 120.071 88.7346C120.075 88.7291 120.079 88.7239 120.083 88.7187C120.071 88.7348 120.058 88.7507 120.046 88.7666C120.048 88.7639 120.051 88.7609 120.053 88.7579C119.168 89.5621 118.486 91.6585 117.436 91.9323Z" fill="#FFFCFD"/>
<path d="M108.964 94.6986C107.838 94.5456 111.846 87.8641 112.528 88.9416C112.654 89.9429 110.979 90.8816 110.584 91.8861C110.111 92.6876 109.469 93.4917 109.258 94.3979C109.247 94.5454 109.123 94.705 108.964 94.6986Z" fill="#FFFCFD"/>
<path d="M139.978 85.005C140.187 84.1819 142.833 79.0109 143.676 79.6465C143.974 80.5775 141.651 82.5344 141.268 83.6891C141.269 83.6866 141.271 83.6844 141.272 83.6819C140.907 84.0042 140.49 86.1277 139.978 85.005Z" fill="#FFFCFD"/>
<path d="M143.381 84.8074C142.14 84.4007 144.309 82.6849 144.525 81.9662C145.117 81.421 145.485 79.732 146.424 80.0083C146.662 80.1952 146.629 80.5582 146.45 80.7712C145.219 81.9158 144.655 83.8463 143.381 84.8074Z" fill="#FFFCFD"/>
<path d="M106.052 84.4683C104.677 82.8458 105.987 80.6809 106.924 79.1724C108.956 76.2432 112.734 75.6603 116.034 76.2427C118.625 76.4327 121.677 79.0964 120.47 81.8438C118.903 83.0539 116.5 83.0956 114.588 83.5911C112.205 84.0534 109.872 84.6646 107.434 84.138C107.255 84.7145 106.472 84.9022 106.052 84.4683ZM107.162 83.1656C111.264 82.9848 115.128 81.5429 119.146 80.8038C117.559 75.7224 106.487 77.5099 107.052 83.111C107.091 83.1251 107.128 83.1435 107.162 83.1656Z" fill="#FFFCFD"/>
<path d="M106.776 84.7341C105.897 84.7274 105.835 83.5074 106.691 83.3848C110.172 83.1286 113.859 82.0794 117.231 80.9703C120.735 82.3167 111.116 84.393 110.099 84.4385C110.099 84.4382 110.1 84.4382 110.1 84.438C109.014 84.7371 107.9 84.9367 106.776 84.7341Z" fill="#FFFCFD"/>
<path d="M104.799 79.2875C104.799 79.2875 104.799 79.2875 104.798 79.2875C104.639 79.1103 104.775 78.8933 104.919 78.761C104.916 78.7649 104.913 78.7687 104.909 78.7726C107.331 74.5143 113.327 72.6001 117.673 74.9795C118.13 75.1431 118.223 75.7963 117.731 75.9758C116.979 75.8284 116.295 75.1958 115.474 75.0826C115.494 75.0873 115.513 75.0922 115.532 75.097C114.132 74.7218 112.641 74.8035 111.23 75.0813C111.248 75.0766 111.265 75.0729 111.283 75.0682C108.822 75.552 106.774 77.0109 105.36 79.0579C105.235 79.2227 105.005 79.4968 104.799 79.2875Z" fill="#FFFCFD"/>
<path d="M135.963 76.8314C133.967 76.3234 134.664 73.72 135.043 72.2714C135.694 69.9537 138.054 68.3621 140.268 67.7213C143.309 67.0045 148.458 69.0905 146.917 72.8809C145.682 74.4204 143.262 74.3499 141.581 75.2638C139.744 75.809 137.893 76.8823 135.963 76.8314ZM136.604 75.1724C136.802 75.1945 136.954 75.3149 137.053 75.4746C139.723 74.1719 142.404 72.9057 145.265 72.0968C145.248 72.1038 145.231 72.1107 145.214 72.1179C145.251 72.1033 145.288 72.0879 145.325 72.0737C145.318 72.0762 145.312 72.0787 145.305 72.0812C145.384 72.0489 145.464 72.0161 145.543 71.9811C145.168 69.3527 141.02 69.0369 139.107 70.1553C137.526 70.9131 136.34 72.182 136.224 73.9954C136.213 74.4045 135.972 75.2117 136.604 75.1724Z" fill="#FFFCFD"/>
<path d="M140.226 73.4653C138.306 72.6537 138.689 69.557 140.65 69.0731C141.835 67.6473 144.021 68.5523 144.266 70.2663C144.678 72.4338 142.263 74.5058 140.226 73.4653Z" fill="#FFFCFD"/>
<path d="M113.311 81.4885C111.211 79.9787 112.849 76.1846 115.393 76.953C119.155 78.1805 116.649 83.6092 113.311 81.4885Z" fill="#FFFCFD"/>
<path d="M97.6826 78.141C96.9276 78.2411 96.0264 77.9598 95.8218 77.1445C95.5321 74.6163 98.6072 73.3186 100.35 72.0904C104.084 69.8837 108.258 68.5396 112.491 67.6855C120.101 66.3441 127.876 69.956 115.164 71.8548C115.2 71.8463 115.235 71.8379 115.271 71.8297C109.458 73.2441 104.121 76.2129 98.4416 78.0301C98.3284 78.3446 97.8611 78.4601 97.6826 78.141Z" fill="#FBF4F6"/>
<path d="M120.354 70.3721C119.603 70.245 119.355 69.2921 119.702 68.6866C116.504 68.0584 112.952 68.6898 109.842 69.565C110.699 71.1211 105.696 69.5436 112.327 67.8002C112.311 67.804 112.295 67.8074 112.28 67.8109C115.255 67.1863 119.27 65.2343 121.889 67.5388C122.619 68.6506 121.706 70.4376 120.354 70.3721Z" fill="#FFFCFD"/>
<path d="M101.379 114.245C101.363 114.144 101.35 114.043 101.339 113.941C101.341 113.964 101.343 113.986 101.346 114.009C101.28 113.411 101.239 112.808 101.176 112.208C101.177 112.23 101.179 112.25 101.182 112.272C101.137 111.57 100.89 110.877 100.886 110.178C100.884 110.186 100.881 110.195 100.879 110.203C100.879 110.202 100.879 110.202 100.879 110.202C100.885 110.134 100.908 110.067 100.935 110.003C100.934 110.007 100.933 110.012 100.932 110.016C101.868 108.987 101.78 111.169 101.961 111.715C101.923 112.587 102.71 113.995 101.901 114.586C101.665 114.663 101.42 114.494 101.379 114.245Z" fill="#FFFCFD"/>
<path d="M103.375 115.039C103.348 113.855 102.372 111.142 103.334 110.388C103.773 110.338 103.781 110.838 103.749 111.149C103.749 111.144 103.749 111.14 103.749 111.135C103.741 111.744 103.774 112.346 103.836 112.952C103.836 112.951 103.836 112.95 103.836 112.949C103.902 113.429 104.461 116.243 103.375 115.039Z" fill="#FFFCFD"/>
<path d="M131.755 116.961C130.999 116.745 129.266 115.681 130.473 114.953C131.135 114.949 131.445 115.868 132.162 116.005C132.645 116.267 132.28 117.14 131.755 116.961Z" fill="#FFFCFD"/>
<path d="M133.182 115.653C132.895 115.158 132.203 114.895 132.075 114.372C132.408 113.324 133.334 114.676 133.734 115.026C134.063 115.361 133.552 116.021 133.182 115.653Z" fill="#FFFCFD"/>
<path d="M11.9059 179.253C9.07017 180.068 15.6539 166.101 16.1988 167.764C16.1998 167.764 16.2008 167.764 16.202 167.763C15.1834 170.178 14.233 172.624 13.6433 175.187C13.6518 175.151 13.6602 175.115 13.6684 175.079C13.0405 176.367 13.7412 179.018 11.9059 179.253Z" fill="#FFFCFD"/>
<path d="M0.771759 176.516C-1.85447 176.299 3.02186 167.854 3.54199 166.325C3.89453 165.84 5.2002 162.852 5.70469 163.444C5.67589 163.587 5.65851 163.887 5.45567 163.868C4.0584 166.751 3.36447 169.906 2.57571 172.994C2.57819 172.983 2.58093 172.972 2.58341 172.961C2.57298 173.004 2.5628 173.048 2.55237 173.092C2.55362 173.087 2.5546 173.082 2.55585 173.078C2.0948 174.218 2.41756 176.418 0.771759 176.516Z" fill="#FFFCFD"/>
<path d="M27.7232 152.316C25.9416 151.645 34.1949 144.441 34.6041 146.441C34.9511 147.863 32.7944 148.088 31.9831 148.839C30.7581 149.668 29.5135 150.552 28.5842 151.715C28.6147 152.143 28.115 152.514 27.7232 152.316Z" fill="#FFFCFD"/>
<path d="M24.78 143.113C22.5848 142.623 26.6264 137.104 27.9623 138.714C28.5666 140.255 25.8421 140.482 25.7845 142.039C25.7929 142.002 25.8024 141.965 25.8108 141.928C25.7326 142.49 25.4419 143.136 24.78 143.113Z" fill="#FFFCFD"/>
<path d="M44.9416 48.109C44.0052 47.3652 37.2439 45.806 38.5322 44.5699C39.1621 43.7593 42.8117 45.7507 44.1025 45.7892C44.9486 46.0747 46.7523 46.1765 46.2254 47.4898C46.0184 47.9519 45.4434 48.2893 44.9416 48.109Z" fill="#FFFCFD"/>
<path d="M63.7187 27.0225C62.7125 25.6326 61.8353 23.9985 60.3733 23.0422C59.3539 26.4785 58.3191 18.5288 63.7078 24.975C63.6922 24.9546 63.6768 24.9355 63.6624 24.9164C63.6827 24.9424 63.7033 24.968 63.7237 24.9938C63.7177 24.9864 63.7115 24.9787 63.7056 24.9712C63.721 24.9909 63.7369 25.0102 63.7523 25.0298C63.7513 25.0286 63.7503 25.0274 63.7495 25.0261C63.784 25.0688 63.8178 25.1118 63.8521 25.1547C63.8483 25.1502 63.8446 25.1455 63.8409 25.1411C63.8565 25.1604 63.8722 25.18 63.8876 25.1997C63.8821 25.1925 63.8766 25.1855 63.8712 25.1786C63.8861 25.1972 63.9012 25.216 63.9164 25.2349C63.9102 25.2272 63.9037 25.2195 63.8973 25.2116C63.9417 25.2667 63.9846 25.3218 64.0278 25.3757C64.0122 25.3553 63.9968 25.3362 63.9812 25.3158C64.2361 25.6356 64.4792 25.9636 64.7247 26.2916C65.1133 26.8678 64.142 27.6141 63.7187 27.0225Z" fill="#FFFCFD"/>
<path d="M126.407 8.52645C125.318 6.25674 126.908 3.42321 126.847 0.971274C126.958 -0.267108 129.106 -0.399432 128.896 1.02987C128.712 3.21914 128.113 5.35949 128.131 7.56489C128.132 8.37401 127.094 9.03292 126.407 8.52645Z" fill="#FFFCFD"/>
<path d="M168.493 28.8138C167.07 27.2457 170.607 25.3824 171.683 24.5189C173.643 23.9526 173.239 26.1498 171.707 26.594C170.406 26.9892 169.839 29.2368 168.493 28.8138Z" fill="#FFFCFD"/>
<path d="M296.838 29.3721C294.416 27.8552 304.727 19.2461 306.613 18.9266C310.709 17.3401 308.736 22.2571 312.285 20.2578C320.443 15.6427 328.583 10.9908 336.982 6.82055C339.398 6.40792 339.285 9.44206 336.319 10.1861C336.34 10.1765 336.361 10.1668 336.382 10.1573C336.309 10.1913 336.237 10.2256 336.165 10.2591C336.218 10.234 336.272 10.2087 336.326 10.1836C329.683 13.259 323.2 16.6437 316.764 20.124C314.112 21.4386 309.611 25.1515 307.865 20.9063C305.877 21.303 304.311 22.7832 302.736 23.9697C302.742 23.9645 302.749 23.9593 302.756 23.9543C301.035 25.4211 299.3 26.8983 297.841 28.632C297.788 29.1221 297.312 29.5017 296.838 29.3721Z" fill="#FFFCFD"/>
<path d="M306.046 63.2896C305.19 63.3015 305.52 62.1208 306.242 62.4261C310.784 61.1232 321.242 50.3417 322.259 60.465C330.138 60.7409 338.025 58.2224 345.842 57.1985C347.864 57.2482 353.217 54.3374 352.993 57.9781C352.469 59.9968 349.863 59.3317 348.301 59.8118C344.99 60.3369 341.669 60.7935 338.355 61.3012C333.819 61.4581 323.533 64.9719 320.178 62.2166C319.502 60.9698 320.391 58.3135 318.081 58.7281C313.804 59.3771 310.398 62.9736 306.046 63.2896Z" fill="#FFFCFD"/>
<path d="M347.504 123.245C337.681 121.195 327.726 119.04 319.06 113.698C317.911 113.142 316.837 112.057 317.507 110.714C317.676 109.48 319.476 107.569 318.055 106.667C314.007 104.792 309.344 105.677 305.051 105.281L305.051 105.281C303.85 103.987 309.677 104.121 310.449 103.732C315.947 103.177 323.725 103.412 319.767 111.049C324.515 113.803 329.762 115.603 335.027 117.086C334.966 117.071 334.905 117.056 334.844 117.041C339.427 118.302 344.218 118.579 348.811 119.778C350.84 120.546 349.475 123.873 347.504 123.245Z" fill="#FFFCFD"/>
<path d="M80.6016 322.937C70.8698 322.979 61.1676 322.427 51.5758 320.736C46.7305 320.414 42.0441 319.245 37.6256 317.226C29.0275 313.925 27.0572 303.769 25.9241 295.628C25.9253 295.643 25.9265 295.657 25.9275 295.67C25.9084 295.497 25.8893 295.322 25.8702 295.147C25.8774 295.209 25.8846 295.272 25.8918 295.334C24.059 277.905 22.9128 260.427 21.6438 242.952C20.0797 217.38 17.3947 187.85 34.6583 166.685C42.0109 158.773 52.4242 154.681 62.2125 150.636C72.3989 146.391 82.8474 142.808 92.9159 138.285C91.9528 133.823 91.7152 129.234 91.0024 124.73C91.0049 124.747 91.0059 124.764 91.0084 124.782C90.7822 122.825 90.5454 120.853 90.0672 118.94C90.0397 118.925 90.0146 118.908 89.9895 118.889C83.6012 121.198 80.1408 113.463 79.4002 108.332C70.0761 109.345 66.3416 98.6349 71.633 92.0569C68.5835 88.343 64.5103 85.0917 63.266 80.2464C61.6577 75.0719 64.5828 69.6248 70.4237 70.0714C69.2079 63.124 73.3965 55.654 80.5723 54.3349C81.4735 42.864 90.997 32.734 103.041 36.3499C106.598 29.4831 116.357 21.6112 123.119 29.1264C125.704 19.7347 143.578 17.9499 143.17 29.725C150.386 25.3035 160.421 30.3414 155.166 39.1325C159.75 40.0471 159.483 46.4158 157.136 49.4234C154.451 53.6885 149.447 55.7717 144.522 55.6508C145.019 56.7149 145.364 57.8343 145.773 58.9327C145.772 58.9302 145.772 58.9292 145.771 58.928C147.879 64.1869 149.013 69.7693 150.591 75.1973C151.55 78.3543 152.796 81.4175 153.844 84.5462C154.556 86.0786 155.319 88.1655 153.43 89.1678C143.732 93.4175 133.034 95.3823 122.643 97.3062C126.061 105.618 135.944 104.805 143.157 102.711C143.149 102.713 143.141 102.716 143.133 102.718C143.168 102.709 143.205 102.699 143.24 102.692C143.24 102.692 143.239 102.692 143.239 102.693C143.251 102.69 143.263 102.687 143.275 102.685C143.269 102.686 143.264 102.687 143.259 102.688C145.601 102.472 154.476 98.3976 155.628 99.9446C161.734 109.393 151.006 113.884 143.135 114.818C143.333 120.668 145.051 126.335 145.53 132.16C154.84 135.785 165.358 135.705 174.588 139.782C190.908 145.503 201.04 166.422 209.526 180.469C209.525 180.468 209.525 180.467 209.524 180.465C212.924 186.73 216.362 192.976 219.816 199.212C219.815 199.21 219.813 199.208 219.812 199.206C219.892 199.346 219.972 199.487 220.052 199.627C220.021 199.572 219.988 199.517 219.957 199.462C220.117 199.738 220.275 200.012 220.429 200.292C220.398 200.237 220.367 200.182 220.336 200.126C225.515 209.836 231.272 219.207 236.83 228.697C236.822 228.684 236.815 228.671 236.807 228.659C236.828 228.696 236.848 228.732 236.87 228.768C236.868 228.765 236.867 228.762 236.865 228.759C237.954 230.537 239.074 232.762 241.221 233.374C242.74 230.056 240.511 226.394 240.09 223.01C240.092 223.012 240.092 223.016 240.093 223.018C240.028 222.757 239.965 222.496 239.9 222.235C239.902 222.238 239.902 222.241 239.903 222.244C239.688 221.375 239.478 220.507 239.266 219.638C239.272 219.664 239.278 219.69 239.285 219.716C234.79 203.838 228.738 188.398 222.538 173.116C219.453 166.171 216.712 159.051 213.321 152.251C210.698 148.55 208.385 144.627 205.633 141.024C205.648 141.044 205.664 141.063 205.679 141.084C205.653 141.05 205.628 141.018 205.602 140.984C205.606 140.99 205.612 140.997 205.617 141.003C205.601 140.982 205.584 140.96 205.567 140.94C201.62 135.229 198.371 127.542 200.458 120.594C200.447 120.628 200.438 120.664 200.427 120.7C200.439 120.657 200.452 120.614 200.464 120.571C200.463 120.575 200.462 120.58 200.461 120.585C200.999 116.984 205.688 111.464 206.722 118.01C206.751 120.908 206.156 123.799 206.52 126.707C206.61 127.141 206.396 127.644 205.951 127.784C203.607 127.699 205.886 119.164 204.932 117.379C203.161 115.062 201.215 125.949 202.323 127.148C203.293 130.261 204.023 133.49 205.732 136.307C208.97 141.013 212.514 145.518 215.696 150.278C222.627 164.046 228.481 178.4 233.67 192.914C233.67 192.913 233.67 192.912 233.67 192.911C233.672 192.915 233.673 192.921 233.676 192.926C233.676 192.925 233.675 192.925 233.675 192.925C233.676 192.926 233.676 192.927 233.677 192.928V192.929C233.677 192.928 233.676 192.927 233.674 192.926C233.757 193.131 233.838 193.337 233.919 193.542C233.917 193.539 233.916 193.534 233.915 193.531C236.719 200.679 239.119 208.008 241.207 215.396C241.189 215.327 241.172 215.256 241.154 215.187C241.19 215.331 241.226 215.476 241.261 215.622C241.257 215.604 241.252 215.588 241.249 215.571C241.807 219.258 247.674 238.784 239.068 234.942C235.832 232.965 234.511 229.152 232.452 226.146C227.33 218.341 222.72 210.216 218.216 202.043C218.218 202.046 218.22 202.05 218.222 202.053C218.209 202.03 218.196 202.007 218.182 201.983C218.183 201.985 218.184 201.987 218.185 201.99C218.162 201.948 218.139 201.907 218.115 201.866C218.124 201.881 218.131 201.895 218.139 201.91C214.216 194.953 210.457 187.902 206.596 180.912C206.596 180.913 206.596 180.914 206.596 180.914C205.226 178.548 203.802 176.209 202.48 173.816C202.48 173.816 202.481 173.816 202.481 173.817C202.478 173.812 202.476 173.808 202.473 173.804C202.474 173.804 202.474 173.805 202.474 173.806C202.471 173.799 202.466 173.791 202.462 173.784C202.462 173.784 202.462 173.784 202.462 173.784C202.462 173.783 202.461 173.783 202.461 173.782C202.461 173.782 202.461 173.782 202.461 173.782C202.457 173.778 202.455 173.771 202.451 173.765C202.453 173.768 202.454 173.77 202.455 173.772C202.453 173.769 202.452 173.766 202.45 173.763C202.45 173.763 202.45 173.763 202.45 173.764C197.485 165.143 192.075 156.616 184.813 149.729C184.819 149.735 184.825 149.74 184.831 149.746C184.824 149.739 184.815 149.731 184.808 149.724C184.809 149.725 184.811 149.727 184.812 149.728C184.582 149.514 184.354 149.298 184.125 149.084C184.129 149.087 184.132 149.091 184.136 149.095C184.116 149.077 184.097 149.059 184.078 149.041C184.104 149.066 184.132 149.09 184.158 149.116C177.282 141.705 166.749 140.699 157.527 138.056C155.841 143.676 153.76 149.163 151.822 154.701C150.541 157.531 150.164 161.02 148.225 163.448C146.92 164.225 146.074 162.503 145.236 161.778C143.178 159.561 141.017 157.46 138.839 155.365C137.978 154.298 134.502 151.913 137.914 152.048C138.346 151.849 138.661 152.393 138.431 152.748C141.673 154.854 144.751 157.203 147.351 160.081C149.852 152.508 152.702 145.05 155.017 137.418C152.529 136.902 150.064 136.237 147.747 135.174C147.764 135.182 147.781 135.189 147.798 135.196C147.231 134.941 146.664 134.679 146.131 134.364C141.028 143.438 134.622 151.815 129.251 160.769C129.254 160.763 129.257 160.757 129.26 160.751C129.236 160.792 129.212 160.834 129.187 160.875C129.191 160.869 129.195 160.863 129.198 160.857C129.159 160.924 129.119 160.993 129.079 161.061C129.087 161.048 129.094 161.036 129.101 161.023C127.348 163.792 126.135 167.177 123.498 169.236C126.794 183.229 128.02 197.566 129.373 211.848C129.372 211.83 129.369 211.812 129.368 211.794C130.93 224.866 133.293 237.859 133.901 251.029C134.1 263.51 135.82 275.892 135.853 288.374C143.376 288.319 150.87 288.627 158.364 289.278C162.777 290 167.564 289.29 171.765 290.863C172.056 290.823 172.179 291.141 172.342 291.328C172.337 291.321 172.332 291.315 172.327 291.308C172.363 291.347 172.395 291.401 172.446 291.422C172.593 291.429 172.71 291.508 172.774 291.621C179.574 291.744 186.583 289.737 193.186 292.263C190.66 273.378 190.327 254.314 189.94 235.289C189.622 229.128 188.928 222.997 188.284 216.862C188.406 214.667 186.438 211.429 188.706 209.964C190.746 209.098 191.198 211.957 192.073 213.176C193.512 215.741 195.094 218.219 196.643 220.719C205.439 235.78 212.871 251.858 224.55 265C227.187 267.842 230.152 270.742 233.719 272.344C241.343 274.685 249.587 273.465 257.221 271.774C261.268 270.534 265.002 268.298 266.987 264.43C269.81 260.275 271.781 255.509 271.891 250.431C272.642 234.583 267.626 219.455 261.385 205.103C261.389 205.113 261.392 205.121 261.396 205.131C261.355 205.029 261.315 204.928 261.275 204.825C261.278 204.834 261.282 204.842 261.285 204.851C259.111 198.698 256.502 192.722 254.02 186.692C254.045 186.755 254.07 186.819 254.096 186.882C250.286 177.724 246.193 168.571 240.687 160.291C237.086 154.71 232.725 149.691 228.537 144.571C227.024 141.737 225.469 138.935 223.82 136.174C223.85 136.228 223.881 136.282 223.911 136.336C219.124 127.424 222.301 130.569 223.466 124.232C222.287 124.059 221.209 125.44 220.124 124.84C218.748 123.2 222.219 120.383 221.061 118.448C219.607 118.503 218.137 119.959 216.738 119.35C215.133 117.378 219.177 114.617 218.533 112.171C218.541 112.209 218.551 112.248 218.56 112.286C218.504 111.988 218.366 111.681 218.081 111.541C218.114 111.556 218.146 111.57 218.178 111.585C218.022 111.508 217.858 111.452 217.686 111.417C217.72 111.425 217.753 111.435 217.787 111.443C217.69 111.426 217.593 111.411 217.496 111.395C217.529 111.398 217.563 111.401 217.597 111.404C216.536 111.305 215.474 111.635 214.533 112.101C215.023 112.757 213.568 113.275 213.122 113.59C211.124 114.146 213.026 111.605 213.801 111.28C219.102 107.563 221.734 111.464 219.211 116.637C223.596 114.906 223.659 119.32 222.397 122.246C227.034 121.104 225.231 127.356 223.661 129.476C225.021 134.169 228.523 137.844 230.441 142.304C235.191 148.349 240.302 154.171 244.375 160.735C253.801 175.989 259.65 193.094 266.5 209.579C266.474 209.512 266.448 209.446 266.422 209.379C268.805 215.405 271.036 221.512 272.64 227.795V227.794C272.64 227.795 272.641 227.797 272.641 227.798C272.64 227.797 272.64 227.796 272.64 227.795C272.64 227.798 272.641 227.8 272.642 227.803C272.642 227.802 272.642 227.802 272.642 227.802C272.642 227.802 272.642 227.803 272.642 227.803L272.642 227.803C272.677 227.941 272.71 228.08 272.744 228.218C272.742 228.213 272.741 228.208 272.74 228.204C274.755 238.187 276.475 250.16 272.791 259.88C269.977 265.983 266.257 272.301 259.468 274.432C252.367 276.774 244.451 277.736 237.01 276.798C227.727 275.895 222.046 267.405 216.471 260.859C216.484 260.875 216.496 260.891 216.508 260.907C206.668 247.976 199.965 233.039 191.457 219.263C193.487 235.595 192.771 252.061 193.944 268.449C194.439 274.596 194.879 280.746 195.473 286.884C195.437 288.821 196.765 291.48 195.148 292.982C200.67 295.422 206.687 298.457 209.904 303.781C212.366 309.069 207.73 309.516 204.373 306.605C208.923 309.628 207.451 314.822 201.957 311.765C201.957 311.767 201.958 311.767 201.958 311.767C204.601 317.124 197.854 314.904 195.275 313.752C197.374 318.688 189.668 315.278 187.459 315.353C181.755 314.712 176.071 313.612 170.308 314.21C166.186 318.009 148.863 316.655 142.581 317.484H142.583C142.582 317.484 142.581 317.484 142.581 317.484C142.581 317.484 142.581 317.484 142.581 317.484C140.772 317.619 138.963 317.764 137.155 317.894C137.216 317.89 137.277 317.885 137.338 317.88C129.507 318.392 121.745 319.518 113.946 320.302C110.234 320.482 106.496 320.498 102.856 321.343C95.5779 323.056 88.0123 322.255 80.6016 322.937ZM53.0257 318.575C68.2853 320.918 83.7767 320.406 99.1088 319.411C105.936 317.597 113.005 317.982 119.924 316.83C135.332 314.247 151.07 315.124 166.49 312.986C166.962 308.696 167.345 304.402 168.091 300.146C168.091 300.147 168.091 300.148 168.091 300.148C168.441 297.897 168.695 295.615 169.383 293.434C147.012 290.986 124.487 291.963 102.038 291.226C102.041 291.226 102.045 291.226 102.048 291.226C97.8669 290.835 93.7106 290.191 89.5217 289.862C83.3038 289.198 74.1606 290.98 72.1318 283.079C69.3551 273.663 68.4082 263.829 67.9638 254.056C67.5435 240.917 66.3619 227.837 65.2886 214.739C64.7886 210.866 63.9798 207.009 64.0664 203.085C64.0547 201.781 66.1266 201.24 66.3532 202.737C66.424 203.331 66.487 203.926 66.5533 204.521C66.5533 204.521 66.5533 204.52 66.5531 204.52C66.5747 204.719 66.5973 204.916 66.6189 205.115C66.6164 205.095 66.6142 205.074 66.6117 205.054C68.8198 219.431 70.9157 233.901 71.2154 248.477C71.736 256.706 71.7363 265.001 73.3682 273.113C74.1882 276.883 74.1271 281.206 76.407 284.446C76.3914 284.432 76.376 284.418 76.3604 284.403C76.3891 284.431 76.4179 284.458 76.4465 284.485C76.4286 284.468 76.4105 284.45 76.3926 284.433C80.5507 287.767 86.641 285.832 91.6167 286.791C105.766 288.868 120.035 288.365 134.292 288.354C134.382 280.77 133.94 273.208 133.272 265.655C132.689 256.374 132.707 247.056 131.502 237.819C131.506 237.851 131.511 237.883 131.514 237.917C130.044 225.981 127.845 214.146 126.668 202.172C126.671 202.2 126.675 202.228 126.678 202.256C126.642 201.94 126.607 201.624 126.573 201.306C126.578 201.352 126.583 201.396 126.587 201.44C125.493 190.773 123.525 180.181 122.683 169.494C120.801 169.228 119.669 167.198 118.275 166.057C116.009 163.859 113.959 161.45 111.765 159.184C105.769 152.954 99.7471 146.79 94.3586 140.026C94.0175 140.1 93.651 139.948 93.4521 139.664C91.6611 141.057 89.663 142.172 87.724 143.346C90.9151 150.36 94.0803 157.405 96.7303 164.647C98.0901 163.247 103.025 153.502 104.865 155.574C105.369 156.124 105.245 156.962 104.805 157.503C102.851 159.987 101.121 162.629 99.4077 165.28C98.4457 166.45 98.0062 168.412 96.4396 168.891C94.3077 168.825 94.2566 165.345 93.3705 163.839C90.9347 157.264 88.3593 150.737 86.7197 143.903C73.9136 150.294 59.9585 154.244 47.385 161.131C47.3947 161.125 47.4041 161.121 47.4138 161.114C47.3986 161.123 47.3845 161.132 47.3696 161.139C47.3703 161.139 47.3713 161.139 47.3721 161.138C47.3666 161.142 47.3609 161.145 47.3554 161.148C47.3601 161.145 47.3649 161.142 47.3696 161.139C47.3435 161.154 47.3184 161.169 47.2926 161.184C47.2939 161.183 47.2951 161.182 47.2966 161.182C28.1101 170.69 23.9374 194.513 23.2494 213.972C23.2494 213.93 23.2507 213.888 23.2507 213.846C23.2482 214.015 23.2445 214.186 23.2422 214.355C23.2422 214.354 23.2422 214.352 23.2422 214.351C23.2425 214.386 23.2412 214.422 23.2402 214.457C23.2405 214.451 23.2412 214.445 23.2412 214.438C23.1504 233.929 25.1485 253.387 26.362 272.828C28.2618 284.292 26.2317 307.481 36.6032 314.267C36.565 314.241 36.5253 314.214 36.4871 314.188C37.1738 314.611 37.8958 314.963 38.6314 315.29C38.5894 315.27 38.5465 315.25 38.5033 315.231C41.7996 316.604 45.1609 317.977 48.7656 318.191H48.7644C48.7788 318.192 48.7932 318.193 48.8086 318.194C48.8061 318.194 48.8051 318.194 48.8026 318.194C49.0968 318.22 49.3895 318.245 49.6825 318.27C49.677 318.27 49.6713 318.27 49.6659 318.269C49.6763 318.271 49.6867 318.271 49.6971 318.272C49.6966 318.272 49.6961 318.272 49.6956 318.272C49.7033 318.273 49.7108 318.273 49.7182 318.274C49.7113 318.273 49.7043 318.273 49.6971 318.272C50.8082 318.366 51.9169 318.457 53.0257 318.575ZM174.945 311.059C180.931 311.274 186.931 312.427 192.683 314.049C191.379 313.05 189.963 312.212 188.533 311.472C187.945 310.824 188.438 309.622 189.33 309.614C193.136 310.43 196.622 312.304 200.427 313.162C198.25 310.41 194.429 308.898 191.122 307.886C190.194 307.384 190.687 305.721 191.726 305.753C193.841 306.184 195.988 306.654 197.979 307.512C200.485 308.284 202.629 310.699 205.271 310.68C202.84 306.958 198.462 304.901 194.587 302.97C192.494 301.946 194.004 299.863 195.909 300.869C198.528 301.71 201.135 302.623 203.651 303.734C205.331 304.434 206.611 305.965 208.447 306.285C205.211 299.691 197.023 296.794 190.409 294.656C184.497 293.112 178.203 294.855 172.36 293.008C172.316 293.266 172.27 293.523 172.23 293.78C172.241 293.704 172.253 293.627 172.264 293.551C171.392 299.37 170.396 305.234 170.472 311.125C171.96 311.004 173.455 311.031 174.945 311.059ZM95.2869 138.903C105.015 147.53 113.807 157.156 122.837 166.51C129.949 156.063 136.56 145.213 143.36 134.568C142.811 127.52 140.472 120.634 140.589 113.539C141.784 109.828 159.338 112.346 154.293 101.619C150.274 102.823 146.332 104.308 142.232 105.212C142.235 105.211 142.24 105.209 142.245 105.208C141.895 105.291 141.544 105.372 141.195 105.454C141.197 105.454 141.201 105.452 141.205 105.452C141.195 105.454 141.187 105.457 141.177 105.458C141.178 105.458 141.179 105.458 141.18 105.457C132.164 107.75 122.567 106.518 120.006 96.2398C120.853 93.9975 126.172 94.4106 128.316 93.591C130.826 93.0324 133.351 92.554 135.862 92.0004C135.805 92.0135 135.749 92.0267 135.693 92.0398C141.347 90.3483 147.512 89.8573 152.829 87.2708C152.754 87.0086 152.652 86.7546 152.553 86.5009C152.553 86.5009 152.553 86.5011 152.553 86.5014C149.393 78.755 147.465 70.6221 145.236 62.5816C144.631 65.2699 140.943 64.5178 138.892 65.2614C136.354 65.2905 134.555 67.4837 132.086 67.5912C132.157 68.2536 131.404 68.0716 131.487 67.4894C126.033 63.7169 141.967 57.7581 144.504 60.2875C144.243 59.5201 144.049 58.7316 143.867 57.9431C143.867 57.9431 143.867 57.9431 143.867 57.9443C143.685 57.163 143.477 56.3825 143.333 55.5927C139.393 54.5909 136.189 51.3368 133.342 48.5596C131.582 55.2416 123.998 57.4341 118.643 53.2952C117.602 60.9882 108.541 63.7569 102.177 60.5043C102.166 64.82 98.2865 68.553 93.91 67.408C94.696 70.5067 92.1817 73.4114 88.9805 72.7756C91.2624 79.6123 94.0428 86.3154 96.8803 92.9435C97.8083 95.7438 99.7987 98.4601 99.5557 101.501C97.0898 105.832 92.4144 97.0472 91.277 94.9836C91.2783 94.9848 91.2795 94.9871 91.2808 94.9883C91.2736 94.9761 91.2678 94.9627 91.2604 94.9501C91.2641 94.9585 91.2688 94.968 91.2736 94.9764C90.4828 93.1578 87.9254 94.7592 86.5981 95.2646C83.0778 97.4105 89.1153 102.519 91.0985 103.973C93.3541 107.098 94.6223 114.489 91.8987 117.6C93.4941 124.514 94.1411 131.589 95.2727 138.592C95.2715 138.59 95.2702 138.59 95.2702 138.59C95.2891 138.69 95.2951 138.794 95.2869 138.903Z" fill="white"/>
<path d="M213.364 151.839C212.676 148.693 218.575 148.114 220.469 146.672C222.762 145.258 225.292 144.33 227.694 143.148C228.269 142.662 229.293 142.498 229.582 143.376C232.05 145.153 222.052 148.375 220.807 149.365C218.929 149.639 214.493 153.834 213.364 151.839Z" fill="#FFFCFD"/>
<path d="M212.535 114.425C211.297 113.787 212.957 112.053 213.884 112.099C215.247 112.633 213.439 114.525 212.535 114.425Z" fill="#FFFCFD"/>
<path d="M217.555 118.792C215.938 118.632 218.913 114.391 217.844 111.955C217.858 111.992 217.872 112.028 217.887 112.064C216.921 110.893 214.914 112.938 214.035 113.652C213.335 114.092 212.944 115.192 212.075 115.242C208.854 115.428 215.707 109.525 216.953 109.821C221.078 108.477 219.724 118.69 217.555 118.792Z" fill="#FFFCFD"/>
<path d="M61.1146 289.279C60.9989 288.348 62.1415 288.395 62.7731 288.25C62.7691 288.251 62.7651 288.252 62.7611 288.253C62.783 288.249 62.8051 288.245 62.8269 288.241C62.8249 288.241 62.8227 288.242 62.8207 288.242C62.8383 288.239 62.8562 288.236 62.8739 288.232C62.8734 288.232 62.8729 288.233 62.8724 288.233C62.8942 288.229 62.9161 288.225 62.9382 288.221C62.9332 288.221 62.9282 288.222 62.9233 288.223C62.9555 288.217 62.9878 288.211 63.0196 288.205C63.826 288.228 65.1602 287.278 65.7064 288.065C65.6486 288.376 65.5736 288.926 65.2312 289.03C64.9291 289.054 64.907 288.703 65.0055 288.495C64.0157 288.64 61.6836 290.494 61.1146 289.279Z" fill="#FFFCFD"/>
<path d="M62.991 281.59C61.6935 281.301 55.2092 280.213 56.2271 278.337C56.4572 277.894 56.9791 277.631 57.4511 277.853C59.368 278.723 61.2283 279.878 63.3634 280.092C64.2711 280.281 63.8366 281.748 62.991 281.59Z" fill="#FFFCFD"/>
<path d="M87.0003 261.257C86.322 261.016 84.7137 261.3 84.6953 260.348C85.1055 259.442 86.4712 260.345 87.2552 260.231C87.8757 260.361 87.5782 261.363 87.0003 261.257Z" fill="#FFFCFD"/>
<path d="M111.992 177.075C110.811 175.977 113.805 173.981 114.16 172.733C114.472 172.274 114.668 171.361 115.394 171.554C115.777 171.682 115.869 172.168 115.69 172.496C114.858 173.581 113.405 177.265 111.992 177.075Z" fill="#FFFCFD"/>
<path d="M191.251 203.376C190.022 202.795 191.989 201.387 192.403 200.746C193.141 200.212 193.902 198.38 194.937 198.97C195.661 200.201 192.371 201.759 191.802 202.944C191.806 202.94 191.809 202.935 191.813 202.931C191.696 203.149 191.532 203.39 191.251 203.376Z" fill="#FFFCFD"/>
<path d="M197.432 210.261C197.361 209.362 199.303 206.531 200.266 207.271C200.934 208.279 199.292 208.938 198.863 209.709C198.566 210.026 198.619 210.61 198.106 210.715C197.803 210.793 197.469 210.587 197.432 210.261Z" fill="#FFFCFD"/>
<path d="M235.262 249.19C234.646 247.662 236.479 246.16 237.184 244.897C237.181 244.9 237.178 244.904 237.175 244.908C237.224 244.844 237.273 244.78 237.323 244.715C237.321 244.718 237.318 244.722 237.316 244.725C237.328 244.708 237.34 244.692 237.353 244.676C237.35 244.679 237.348 244.683 237.346 244.686C237.356 244.672 237.366 244.659 237.376 244.646C237.374 244.648 237.372 244.65 237.371 244.652C237.388 244.63 237.405 244.608 237.422 244.585C237.419 244.589 237.416 244.593 237.413 244.597C239.191 241.836 240.519 243.987 239.032 244.336C239.022 244.346 239.012 244.356 239.002 244.366C239.011 244.357 239.02 244.347 239.029 244.338C239.011 244.356 238.994 244.374 238.976 244.393C238.98 244.388 238.985 244.384 238.989 244.38C237.964 245.643 236.989 247.083 236.458 248.618C236.447 249.177 235.693 249.645 235.262 249.19Z" fill="#FFFCFD"/>
<path d="M241.806 250.251C240.201 249.447 242.502 247.025 242.924 245.922C242.919 245.93 242.915 245.937 242.911 245.945C243.588 245.173 244.24 243.091 245.494 243.565C245.862 243.843 245.822 244.418 245.536 244.737C243.924 245.87 243.037 250.47 241.806 250.251Z" fill="#FFFCFD"/>
<path d="M288.63 255.046C289.123 251.996 289.38 248.842 288.412 245.856C288.419 245.887 288.426 245.916 288.434 245.946C288.41 245.846 288.385 245.745 288.361 245.645C288.368 245.673 288.375 245.702 288.382 245.732C287.759 244.439 289.412 243.311 289.488 244.948C290.53 247.539 290.906 250.307 290.766 253.093C290.767 253.07 290.768 253.046 290.769 253.023C290.767 253.071 290.765 253.118 290.764 253.166C290.764 253.165 290.764 253.164 290.764 253.162C290.762 253.219 290.76 253.276 290.759 253.333C290.76 253.312 290.761 253.29 290.761 253.269C290.665 254.263 290.962 255.908 289.634 256.132C289.041 256.203 288.539 255.64 288.63 255.046Z" fill="#FFFCFD"/>
<path d="M277.283 267.806C276.357 266.956 277.61 266.055 278.116 265.376C279.33 263.698 280.066 261.736 280.658 259.766C280.652 259.786 280.646 259.807 280.64 259.827C281.019 258.47 281.392 257.098 281.503 255.688C281.499 256.126 280.855 256.347 280.896 255.787C281.007 255.368 281.242 254.894 281.651 254.704C283.39 255.554 280.969 263.278 280.183 264.91C280.199 264.871 280.216 264.832 280.233 264.794C279.595 265.822 278.821 268.399 277.283 267.806Z" fill="#FFFCFD"/>
<path d="M268.813 275.077C267.014 274.37 269.42 273.024 270.191 272.532C270.725 272.229 271.148 271.616 271.782 271.554C273.587 272.289 270.02 274.055 269.472 274.758C269.498 274.737 269.524 274.716 269.551 274.694C269.336 274.875 269.115 275.091 268.813 275.077Z" fill="#FFFCFD"/>
<path d="M12.6491 321.033C11.5611 321.017 10.8612 319.788 11.6661 318.947C12.9356 317.886 14.8557 318.34 16.3977 318.074C20.0699 317.588 23.7386 318.163 27.4061 317.887C31.9349 317.454 36.4874 317.525 41.003 316.933C42.9413 316.466 43.1702 318.682 41.3131 318.965C41.3622 318.951 41.4112 318.936 41.4603 318.922C32.0443 321.223 22.2259 320.214 12.6491 321.033Z" fill="#FFFCFD"/>
<path d="M209.687 304.558C209.571 304.514 209.47 304.462 209.39 304.356C207.8 304.917 206.982 302.673 208.493 301.99C211.357 301.335 214.407 301.347 217.326 300.837C228.952 300.003 240.647 300.528 252.284 299.77C252.276 299.77 252.269 299.771 252.262 299.771C252.3 299.77 252.338 299.768 252.377 299.767C252.36 299.767 252.344 299.768 252.328 299.769C252.36 299.767 252.391 299.766 252.423 299.765C252.411 299.766 252.399 299.766 252.386 299.767C258.059 299.724 263.698 299.056 269.368 298.945C270.928 299.257 275.175 297.861 275.27 300.142C274.644 302.467 269.632 301.439 267.658 301.939C254.349 303.616 240.912 303.096 227.561 304.286C227.624 304.284 227.686 304.281 227.75 304.279C222.25 304.382 216.749 304.559 211.248 304.533C210.941 305.256 210.17 304.816 209.687 304.558Z" fill="#FFFCFD"/>
<path d="M74.5165 84.4176C72.9574 82.8398 70.8935 80.657 71.3116 78.2744C71.3113 78.2751 71.3111 78.2758 71.3108 78.2763C71.4032 77.8848 72.0318 77.9454 71.9194 78.3794C71.8248 78.6122 71.862 78.869 71.9134 79.1073C71.9109 79.0917 71.9074 79.0763 71.9037 79.0606C72.4455 80.9175 73.9539 82.2921 75.3281 83.571C75.7822 84.0454 75.0151 84.896 74.5165 84.4176Z" fill="white"/>
<path d="M79.4414 66.285C77.2074 65.7197 79.7815 62.1821 80.8851 61.4251C81.7531 61.1068 83.264 59.3992 84.0498 60.2967C84.2067 60.6274 84.0367 61.0502 83.7313 61.2309C82.3993 62.0547 80.8074 62.626 80.0387 64.0913C80.0556 64.0662 80.071 64.0409 80.0879 64.0146C79.864 64.4026 79.6388 64.8143 79.6135 65.2696C80.2356 65.352 80.001 66.3173 79.4414 66.285Z" fill="white"/>
<path d="M97.4845 54.9337C96.5515 54.7848 94.0633 54.4178 93.9834 53.346C93.9834 53.346 93.9846 53.346 93.9846 53.3448C93.9841 53.3483 93.9836 53.3517 93.9834 53.3552C94.4499 52.2027 95.7988 53.5963 96.6364 53.5861C97.1762 53.7636 98.3428 53.5563 98.1752 54.433C98.097 54.7391 97.7996 54.9692 97.4845 54.9337Z" fill="white"/>
<path d="M102.708 46.9568C101.425 45.6516 105.924 41.7865 107.393 41.8143C108.767 41.7646 108.008 43.2873 107.021 43.3156C107.05 43.3049 107.08 43.294 107.11 43.2821C105.573 43.7369 104.47 45.0289 103.591 46.3083C103.615 46.7567 103.125 47.143 102.708 46.9568Z" fill="white"/>
<path d="M124.089 39.0838C122.966 38.1994 127.625 36.5283 128.345 36.2855C128.985 36.2177 130.443 36.6346 130.065 37.4842C129.935 37.7178 129.601 37.9104 129.341 37.7595C127.675 36.7388 125.574 38.3983 124.089 39.0838Z" fill="white"/>
<path d="M136.179 42.6066C135.368 42.5105 134.14 42.3136 133.78 41.5134C133.829 41.3523 133.996 41.3875 134.053 41.5164L134.052 41.5159C134.075 41.5333 134.099 41.5504 134.124 41.5663C134.123 41.5656 134.122 41.5646 134.121 41.5638C134.385 41.7197 134.679 41.8208 134.975 41.8943C134.971 41.8933 134.967 41.8923 134.963 41.8918C134.972 41.8938 134.981 41.8958 134.99 41.8977H134.99C135.159 41.934 135.331 41.9561 135.504 41.9697C135.502 41.9697 135.5 41.9695 135.498 41.9695C135.509 41.97 135.521 41.971 135.533 41.972C135.527 41.9715 135.522 41.9707 135.516 41.9705C136.559 42.1286 137.602 41.4141 138.587 41.5742C139.279 42.7826 136.873 42.579 136.179 42.6066Z" fill="white"/>
<path d="M142.887 35.3863C142.715 34.5916 143.756 34.5466 144.253 34.2619C145.107 33.9818 145.819 33.2524 146.691 33.1014C147.306 33.2045 147.206 34.0734 146.703 34.2703C145.741 34.4764 143.571 36.2731 142.887 35.3863Z" fill="white"/>
<path d="M116.255 48.7588C114.412 47.4042 116.187 45.6727 116.578 47.1651C116.744 47.4044 116.975 47.5924 117.184 47.7925C117.708 48.3297 116.814 49.3074 116.255 48.7588Z" fill="white"/>
<path d="M179.254 90.1425C178.896 88.3775 180.976 86.5585 181.798 85.0452C182.05 84.721 182.542 84.6371 182.842 84.9412C183.658 86.2243 180.796 88.2758 180.473 89.7341C180.481 89.6969 180.491 89.6586 180.499 89.6217C180.493 89.648 180.486 89.6755 180.48 89.7031C180.481 89.6944 180.482 89.6859 180.482 89.6775C180.437 90.2681 179.651 90.6905 179.254 90.1425Z" fill="white"/>
<path d="M183.245 89.6579C182.181 88.8761 184.208 87.9039 184.47 87.0667C185.124 86.4606 185.438 84.5291 186.553 84.9509C186.842 85.1619 186.888 85.6277 186.686 85.9137C185.648 87.1288 184.827 89.2041 183.245 89.6579Z" fill="white"/>
<path d="M188.037 88.6186C188.685 86.6468 189.782 84.4804 191.266 83.034C192.783 82.7956 192.266 84.6154 191.527 85.2396C191.552 85.2048 191.577 85.1701 191.601 85.1343C190.819 86.2588 190.037 87.3956 189.446 88.633C189.395 89.5747 187.979 89.6318 188.037 88.6186Z" fill="white"/>
</svg>
