<svg width="65" height="99" viewBox="0 0 65 99" fill="none" xmlns="http://www.w3.org/2000/svg">
<path d="M32.5 98.5817C50.4492 98.5817 65 97.6321 65 96.4608C65 95.2894 50.4492 94.3398 32.5 94.3398C14.5507 94.3398 0 95.2894 0 96.4608C0 97.6321 14.5507 98.5817 32.5 98.5817Z" fill="#BCBECD"/>
<path d="M31.9531 19.5254V59.0037" stroke="#50A050" stroke-width="5" stroke-miterlimit="10"/>
<path d="M40.4531 14.8809H50.6619C52.2833 14.8809 53.7417 15.4626 54.754 16.3892C55.6616 17.2154 56.2124 18.3171 56.2124 19.5243C56.2124 20.8061 55.5909 21.9695 54.5848 22.8086C53.5817 23.6477 52.1941 24.1676 50.6619 24.1676H40.4531V14.8809Z" fill="#F9B240"/>
<path d="M40.4531 14.8809H50.6619C52.2833 14.8809 53.7417 15.4626 54.754 16.3892C55.1847 17.0507 55.4309 17.8074 55.4309 18.6105C55.4309 19.8923 54.8094 21.0532 53.8033 21.8923C52.8002 22.734 51.4126 23.2539 49.8804 23.2539H40.4531V14.8809Z" fill="#FCCB3F"/>
<path d="M54.6081 19.5249L39.2109 20.4258V18.624L54.6081 19.5249Z" fill="#F29A39"/>
<path d="M35.5781 11.5901L43.8371 6.57018C45.1487 5.77277 46.7376 5.52645 48.2074 5.77818C49.5221 6.00031 50.7417 6.62063 51.59 7.59744C52.4906 8.63448 52.8053 9.8813 52.581 11.0548C52.3592 12.2269 51.6017 13.3299 50.3623 14.0833L42.1034 19.1032L35.5781 11.5901Z" fill="#F9B240"/>
<path d="M35.5781 11.5901L43.8371 6.57018C45.1487 5.77277 46.7376 5.52645 48.2074 5.77818C49.0206 6.10147 49.7516 6.59257 50.3156 7.24249C51.2162 8.27954 51.5291 9.52429 51.3048 10.6978C51.0848 11.872 50.3273 12.9749 49.0876 13.7283L41.4609 18.364L35.5781 11.5901Z" fill="#FCCB3F"/>
<path d="M50.2923 8.38477L38.4689 16.6844L37.2031 15.2268L50.2923 8.38477Z" fill="#F29A39"/>
<path d="M29.2891 11.3319L32.4437 3.20961C32.9449 1.91955 34.0568 0.938875 35.4229 0.419968C36.6429 -0.046945 38.0653 -0.144498 39.4378 0.228466C40.895 0.624596 42.0257 1.47863 42.6687 2.53832C43.3127 3.5957 43.4752 4.86028 43.0016 6.07955L39.847 14.2019L29.2891 11.3319Z" fill="#F9B240"/>
<path d="M29.2891 11.3312L32.4437 3.20891C32.9449 1.91885 34.0568 0.938177 35.4229 0.41927C36.3081 0.281049 37.2444 0.318886 38.1576 0.567014C39.6147 0.963143 40.7424 1.81641 41.3854 2.8761C42.0322 3.93425 42.1946 5.19882 41.7211 6.4181L38.808 13.9186L29.2891 11.3312Z" fill="#FCCB3F"/>
<path d="M38.9538 1.50586L35.2201 14.0345L33.1719 13.4778L38.9538 1.50586Z" fill="#F29A39"/>
<path d="M24.0372 14.2019L20.8825 6.07958C20.3813 4.78952 20.5921 3.44953 21.3327 2.35766C21.9914 1.38008 23.0738 0.601458 24.4461 0.228493C25.9032 -0.167636 27.4179 -0.0325031 28.6828 0.50854C29.9467 1.04727 30.9667 1.99061 31.4402 3.20963L34.5948 11.332L24.0372 14.2019Z" fill="#F9B240"/>
<path d="M24.0372 14.2017L20.8825 6.07939C20.3813 4.78933 20.5921 3.44934 21.3327 2.35747C21.9517 1.81025 22.736 1.38066 23.6489 1.13253C25.106 0.736399 26.618 0.872304 27.8828 1.41335C29.1495 1.9513 30.1695 2.89465 30.643 4.11367L33.5561 11.6141L24.0372 14.2017Z" fill="#FCCB3F"/>
<path d="M24.9375 1.50586L30.7197 13.4778L28.6712 14.0345L24.9375 1.50586Z" fill="#F29A39"/>
<path d="M21.8119 19.1075L13.5529 14.0875C12.2413 13.2901 11.47 12.1025 11.3023 10.8552C11.1484 9.74038 11.477 8.57825 12.325 7.60169C13.2256 6.56465 14.5458 5.92915 15.9494 5.74485C17.3506 5.55927 18.8385 5.82104 20.0782 6.57443L28.3372 11.5944L21.8119 19.1075Z" fill="#F9B240"/>
<path d="M21.7909 19.1079L13.5319 14.088C12.2203 13.2906 11.4489 12.103 11.2812 10.8556C11.3976 10.1087 11.7302 9.37535 12.2944 8.72569C13.195 7.68865 14.5134 7.0552 15.917 6.87091C17.32 6.68327 18.808 6.94478 20.0473 7.69843L27.674 12.3341L21.7909 19.1079Z" fill="#FCCB3F"/>
<path d="M13.6172 8.38867L26.7064 15.2307L25.4406 16.6883L13.6172 8.38867Z" fill="#F29A39"/>
<path d="M23.4624 24.1676H13.2536C11.6322 24.1676 10.1738 23.5859 9.16152 22.6593C8.25387 21.8331 7.70312 20.7314 7.70312 19.5243C7.70312 18.2424 8.32463 17.079 9.33074 16.2399C10.3338 15.4008 11.7214 14.8809 13.2536 14.8809H23.4624V24.1676Z" fill="#F9B240"/>
<path d="M23.4621 24.167H13.2534C11.6319 24.167 10.1735 23.5853 9.16127 22.6586C8.73052 21.9971 8.48438 21.2404 8.48438 20.4373C8.48438 19.1555 9.10589 17.9947 10.112 17.1556C11.115 16.3139 12.5026 15.7939 14.0349 15.7939H23.4621V24.167Z" fill="#FCCB3F"/>
<path d="M9.32031 19.5239L24.7174 18.623V20.4248L9.32031 19.5239Z" fill="#F29A39"/>
<path d="M28.3381 27.4613L20.0791 32.4813C18.7672 33.2787 17.1786 33.525 15.7088 33.2733C14.3941 33.0512 13.1745 32.4308 12.3262 31.454C11.4257 30.417 11.1109 29.1702 11.3352 27.9967C11.557 26.8245 12.3145 25.7216 13.5542 24.9682L21.8132 19.9482L28.3381 27.4613Z" fill="#F9B240"/>
<path d="M28.351 27.4613L20.092 32.4813C18.78 33.2787 17.1915 33.525 15.7217 33.2733C14.9085 32.95 14.1778 32.4587 13.6135 31.809C12.7129 30.7719 12.4 29.5272 12.6246 28.3537C12.8446 27.1795 13.6021 26.0766 14.8414 25.3232L22.4682 20.6875L28.351 27.4613Z" fill="#FCCB3F"/>
<path d="M13.6172 30.6642L25.4406 22.3643L26.7064 23.8221L13.6172 30.6642Z" fill="#F29A39"/>
<path d="M34.5949 27.7215L31.4403 35.8438C30.9394 37.1339 29.8272 38.1146 28.4611 38.6335C27.2411 39.1004 25.8187 39.1979 24.4462 38.825C22.989 38.4288 21.8583 37.5748 21.2153 36.5151C20.5713 35.4577 20.4088 34.1932 20.8824 32.9739L24.037 24.8516L34.5949 27.7215Z" fill="#F9B240"/>
<path d="M34.603 27.7221L31.4484 35.8444C30.9475 37.1345 29.8352 38.1152 28.4691 38.6341C27.5839 38.7723 26.6477 38.7345 25.7348 38.4863C24.2776 38.0902 23.15 37.2369 22.5069 36.1772C21.8602 35.1191 21.6977 33.8545 22.1713 32.6352L25.0843 25.1348L34.603 27.7221Z" fill="#FCCB3F"/>
<path d="M24.9375 37.5511L28.6712 25.0225L30.7197 25.5792L24.9375 37.5511Z" fill="#F29A39"/>
<path d="M39.8936 24.8477L43.0482 32.97C43.5491 34.26 43.3387 35.6 42.5981 36.6919C41.9393 37.6695 40.8569 38.4479 39.4847 38.8211C38.0275 39.2172 36.5128 39.0823 35.248 38.541C33.984 38.0023 32.9641 37.059 32.4906 35.8399L29.3359 27.7176L39.8936 24.8477Z" fill="#F9B240"/>
<path d="M39.8783 24.8477L43.0329 32.97C43.5338 34.26 43.3234 35.6 42.5828 36.6919C41.9637 37.2391 41.1798 37.6687 40.2666 37.9169C38.8094 38.313 37.2975 38.1771 36.0326 37.636C34.7659 37.0981 33.746 36.1547 33.2725 34.9357L30.3594 27.4352L39.8783 24.8477Z" fill="#FCCB3F"/>
<path d="M38.9853 37.5482L33.2031 25.5763L35.2516 25.0195L38.9853 37.5482Z" fill="#F29A39"/>
<path d="M42.1033 19.9453L50.3623 24.9653C51.674 25.7627 52.4453 26.9503 52.613 28.1976C52.7668 29.3124 52.4382 30.4745 51.5903 31.4511C50.6897 32.4881 49.3695 33.1236 47.9658 33.3079C46.5647 33.4935 45.0767 33.232 43.8371 32.4784L35.5781 27.4584L42.1033 19.9453Z" fill="#F9B240"/>
<path d="M42.1019 19.9453L50.3609 24.9653C51.6725 25.7627 52.4438 26.9503 52.6115 28.1976C52.4952 28.9446 52.1626 29.6779 51.5983 30.3276C50.6978 31.3646 49.3794 31.9981 47.9757 32.1823C46.5727 32.37 45.0848 32.1085 43.8455 31.3548L36.2188 26.7192L42.1019 19.9453Z" fill="#FCCB3F"/>
<path d="M50.2923 30.6632L37.2031 23.8212L38.4689 22.3633L50.2923 30.6632Z" fill="#F29A39"/>
<path d="M44.3628 10.5331C43.0859 9.30792 41.5537 8.27319 39.8337 7.48557C38.8523 7.0377 37.8092 6.66963 36.717 6.39422C35.9385 6.19602 35.1355 6.04674 34.314 5.94635C33.5171 5.85112 32.7018 5.80221 31.8741 5.80478C22.8222 5.84082 15.5057 11.9719 15.4688 19.529V19.6449C15.4718 20.2987 15.5303 20.9421 15.641 21.5702C15.758 22.2574 15.9364 22.9292 16.1733 23.5804C16.5025 24.4916 16.9425 25.3642 17.4779 26.1853C18.4194 27.6241 19.6562 28.9059 21.1208 29.9767C24.0314 32.1002 27.8435 33.382 32.0126 33.3691C41.1137 33.3357 48.4549 27.1402 48.418 19.529C48.3995 16.0851 46.8734 12.9423 44.3628 10.5331Z" fill="#E77D33"/>
<path d="M48.418 19.529H15.4688C15.5057 11.9719 22.8222 5.84082 31.8741 5.80478C32.7018 5.80221 33.5171 5.85112 34.314 5.94635C35.1355 6.04674 35.9385 6.19602 36.717 6.39422C37.8092 6.66963 38.8523 7.0377 39.8337 7.48557C41.5537 8.27319 43.0859 9.30792 44.3628 10.5331C46.8734 12.9423 48.3995 16.0851 48.418 19.529Z" fill="#FFD064"/>
<path d="M31.8808 6.6007C23.3511 6.63262 16.4579 12.4114 16.4219 19.5312V19.6431C16.46 26.817 23.4394 32.6055 32.0122 32.5756C40.5875 32.5455 47.5093 26.7071 47.4712 19.5332V19.5312C47.4327 12.3591 40.4561 6.57059 31.8808 6.6007Z" fill="#FDB73E"/>
<path d="M44.1983 19.5869C44.1983 25.0233 39.1459 29.4726 32.7545 29.8263C32.4828 29.8402 32.2056 29.8492 31.9284 29.8492C25.1527 29.8492 19.6641 25.2552 19.6641 19.5869C19.6641 13.9186 25.1527 9.32227 31.9284 9.32227C32.2056 9.32227 32.4828 9.33153 32.7545 9.34517C39.1459 9.70115 44.1983 14.1505 44.1983 19.5869Z" fill="#E77D33"/>
<path d="M44.1983 19.5879C44.1983 25.0243 39.1459 29.4736 32.7545 29.8273C32.4828 29.8412 32.2056 29.8502 31.9284 29.8502C25.1527 29.8502 19.6641 25.2562 19.6641 19.5879H44.1983Z" fill="#FFD064"/>
<path d="M43.4381 19.5887C43.4381 24.6787 38.7082 28.8421 32.7232 29.1736C32.4694 29.1875 32.211 29.1955 31.9522 29.1955C25.6091 29.1955 20.4688 24.8952 20.4688 19.589C20.4688 14.2826 25.6091 9.98047 31.9522 9.98047C32.2107 9.98047 32.4694 9.98845 32.7232 10.0023C38.7082 10.3334 43.4381 14.4988 43.4381 19.5887Z" fill="#F29A39"/>
<path d="M37.9456 15.1756V13.2119H26.1406V15.1756H28.8168C30.3032 15.1756 31.4631 15.4757 31.9702 16.3197H26.1406V18.2854H32.1779C32.0047 18.9248 31.5967 19.3593 31.0105 19.6241C30.4813 19.8704 29.8035 19.976 29.0245 19.976H26.8852V22.0411L31.7031 27.1393H35.2722V26.6371L30.469 22.0411C32.2969 21.7597 33.9193 20.9402 34.6959 19.6244C34.9334 19.2252 35.0891 18.7781 35.151 18.2857H37.9459V16.32H34.9433C34.7331 15.7738 34.4956 15.3743 34.3175 15.2253L34.3768 15.1756H37.9456Z" fill="#E77D33"/>
<path d="M37.9456 14.6717V12.708H26.1406V14.6717H28.8168C30.3032 14.6717 31.4631 14.9718 31.9702 15.8158H26.1406V17.7815H32.1779C32.0047 18.4209 31.5967 18.8554 31.0105 19.1202C30.4813 19.3665 29.8035 19.4721 29.0245 19.4721H26.8852V21.5369L31.7031 26.6351H35.2722L30.469 21.5369C32.2969 21.2556 33.9193 20.4363 34.6959 19.1202C34.9334 18.721 35.0891 18.2739 35.151 17.7815H37.9459V15.8158H34.9433C34.7331 15.2696 34.4956 14.8701 34.3175 14.7211L34.3768 14.6714L37.9456 14.6717Z" fill="#FDB73E"/>
<path d="M26.125 12.7959L26.1256 12.7951L26.2231 12.7109H26.125V12.7959Z" fill="#FDB73E"/>
<path d="M16.4851 20.8574L15.6328 21.5704C15.7497 22.2576 15.9282 22.9294 16.1651 23.5807L16.9312 22.9397C16.7189 22.2654 16.5681 21.5704 16.4851 20.8574Z" fill="#F29A39"/>
<path d="M19.661 19.5878C19.661 19.0756 19.7072 18.5737 19.7933 18.082L16.4766 20.8567C16.5596 21.5697 16.7104 22.2647 16.9227 22.9391L19.7226 20.5968C19.6795 20.2647 19.661 19.9275 19.661 19.5878Z" fill="#FDC74C"/>
<path d="M20.7824 17.251L19.7885 18.0824C19.7024 18.574 19.6562 19.0759 19.6562 19.5881H20.4377C20.4377 18.7825 20.5577 18 20.7824 17.251Z" fill="#EE9037"/>
<path d="M35.9344 7.03764L36.7036 6.39415C35.9252 6.19596 35.1222 6.04667 34.3007 5.94629L33.4453 6.66184C34.2976 6.73134 35.1314 6.85746 35.9344 7.03764Z" fill="#F9DF9B"/>
<path d="M31.9375 9.32454C32.2144 9.32454 32.4913 9.33484 32.7651 9.34771C32.8943 9.35543 33.0236 9.36315 33.1497 9.37602L35.9434 7.03888C35.1404 6.85871 34.3066 6.73258 33.4543 6.66309L30.1406 9.43522C30.7283 9.36315 31.3283 9.32454 31.9375 9.32454Z" fill="#FDC74C"/>
<path d="M31.9374 9.9796C32.0974 9.9796 32.2574 9.98217 32.4143 9.98732L33.1466 9.37472C33.0204 9.36185 32.8912 9.35413 32.762 9.34641C32.4882 9.33354 32.2112 9.32324 31.9343 9.32324C31.3251 9.32324 30.7252 9.36185 30.1375 9.43392L29.1406 10.2679C30.036 10.08 30.9713 9.9796 31.9374 9.9796Z" fill="#EE9037"/>
<path d="M20.4377 19.5889H19.6562C19.6562 19.9286 19.6747 20.2658 19.7178 20.5979L20.447 19.9878C20.4408 19.8566 20.4377 19.7227 20.4377 19.5889Z" fill="#F9DF9B"/>
<path d="M26.125 12.7959V14.6743H26.8145L26.8148 14.6741L29.1615 12.7109H26.2231L26.1256 12.7951L26.125 12.7959Z" fill="#FDC74C"/>
<path d="M44.349 10.5329L44.3493 10.5332L44.3496 10.5329C43.0728 9.3077 41.5405 8.27298 39.8206 7.48535L39.8203 7.48561C41.5402 8.27324 43.0725 9.3077 44.349 10.5329Z" fill="#FCDB7C"/>
<path d="M43.6842 11.0945L43.6845 11.095L44.3552 10.5339L44.3549 10.5336C43.078 9.30842 41.5461 8.27395 39.8265 7.48633L39.125 8.07319C40.8631 8.83482 42.4107 9.86156 43.6842 11.0945Z" fill="#F9DF9B"/>
<path d="M18.1775 25.5986L17.4766 26.185C18.4181 27.6238 19.6549 28.9056 21.1195 29.9764L21.793 29.413L21.7927 29.4127C20.3189 28.3471 19.0882 27.0552 18.1775 25.5986Z" fill="#F29A39"/>
<path d="M39.126 8.07227L36.6797 10.1183C38.5134 10.7618 40.1226 11.7682 41.3718 13.0294L41.3721 13.0299L43.6858 11.0943L43.6855 11.0938C42.4117 9.8609 40.8641 8.83415 39.126 8.07227Z" fill="#FDC74C"/>
<path d="M24.0974 27.481C22.5898 26.436 21.3871 25.0901 20.6179 23.5537L18.1719 25.6C19.0826 27.0566 20.3133 28.3487 21.7868 29.4141L21.7871 29.4143L24.0978 27.4813L24.0974 27.481Z" fill="#FDC74C"/>
<path d="M40.8116 13.4929L40.8119 13.4931L41.3658 13.0298L41.3654 13.0293C40.1163 11.7681 38.5071 10.7616 36.6734 10.1182L36.0703 10.6227C37.9348 11.2252 39.5655 12.2239 40.8116 13.4929Z" fill="#EE9037"/>
<path d="M24.6662 27.0173C23.1465 25.9723 21.9528 24.6084 21.2359 23.0488L20.6328 23.5533C21.402 25.0897 22.605 26.4359 24.1123 27.4806L24.1127 27.4809L24.6665 27.0176L24.6662 27.0173Z" fill="#F9DF9B"/>
<path d="M31.9444 15.8187H29.8565L27.5064 17.7844H32.1521C31.9788 18.4238 31.5708 18.8583 30.9847 19.1231C30.4555 19.3695 29.7777 19.475 28.9987 19.475H26.8594V19.5906H33.5224L33.5932 19.5314L35.0024 18.3525C35.0565 18.17 35.1005 17.9821 35.1251 17.7847H35.6811L37.9201 15.9116V15.819H34.9175C34.7073 15.2728 34.4698 14.8733 34.2916 14.7243L34.351 14.6746H37.9201V12.7109H33.5726L30.8589 14.9806C31.3355 15.1624 31.7115 15.4308 31.9444 15.8187Z" fill="#FDC74C"/>
<path d="M26.8594 19.5889V21.5384L28.7722 23.5628L30.773 21.8889L30.4429 21.5386C30.7875 21.4856 31.1247 21.4133 31.4502 21.3224L33.5218 19.5894H26.8594V19.5889Z" fill="#FDC74C"/>
<path d="M39.6545 10.6774L39.8397 9.00586L40.0249 10.6774C40.1 11.3538 40.7403 11.8894 41.5486 11.952L43.5466 12.1069L41.5486 12.2619C40.74 12.3247 40.0997 12.8603 40.0249 13.5368L39.8397 15.2083L39.6545 13.5368C39.5794 12.8603 38.9391 12.3247 38.1309 12.2619L36.1328 12.1069L38.1309 11.952C38.9391 11.8894 39.5794 11.3538 39.6545 10.6774Z" fill="#FFFCFF"/>
<path d="M39.0167 6.57886L39.1339 5.52148L39.2511 6.57886C39.2985 7.00665 39.7034 7.34538 40.2147 7.38502L41.4787 7.48308L40.2147 7.58115C39.7034 7.62079 39.2985 7.95952 39.2511 8.38731L39.1339 9.44469L39.0167 8.38731C38.9693 7.95952 38.5644 7.62079 38.053 7.58115L36.7891 7.48308L38.0527 7.38502C38.5641 7.34538 38.9693 7.00665 39.0167 6.57886Z" fill="#FFFCFF"/>
<path d="M42.8231 9.72216L42.8935 9.08691L42.964 9.72216C42.9926 9.9793 43.236 10.1829 43.543 10.2066L44.3024 10.2655L43.543 10.3245C43.2357 10.3484 42.9923 10.552 42.964 10.8089L42.8935 11.4441L42.8231 10.8089C42.7945 10.5517 42.5511 10.3481 42.244 10.3245L41.4844 10.2655L42.244 10.2066C42.5511 10.1826 42.7945 9.97904 42.8231 9.72216Z" fill="#FFFCFF"/>
<path d="M45.4152 43.4512C45.4152 43.4512 44.5183 47.953 40.4883 49.8788C36.459 51.8072 32.5026 49.6256 32.5026 49.6256C32.5026 49.6256 32.2678 45.6686 36.2941 43.7408C40.3243 41.8149 45.4152 43.4512 45.4152 43.4512Z" fill="#50A050"/>
<path d="M45.4132 43.4521C45.4132 43.4521 44.5148 47.954 40.4842 49.8793C36.4567 51.8072 32.5 49.627 32.5 49.627C32.5 49.627 32.6538 49.4185 32.9769 49.0788C34.2076 47.7738 37.8874 44.51 44.6502 43.55C44.8994 43.5139 45.1548 43.4805 45.4132 43.4521Z" fill="#8CC965"/>
<path d="M44.642 43.5508C44.2544 44.8944 43.1067 47.8235 40.2392 49.2546C37.0824 50.835 33.9349 49.5506 32.9688 49.0796C34.1995 47.7746 37.8793 44.5109 44.642 43.5508Z" fill="#7BB758"/>
<path d="M18.4844 43.4512C18.4844 43.4512 19.3813 47.953 23.4112 49.8788C27.4406 51.8072 31.397 49.6256 31.397 49.6256C31.397 49.6256 31.6317 45.6686 27.6055 43.7408C23.5752 41.8149 18.4844 43.4512 18.4844 43.4512Z" fill="#50A050"/>
<path d="M18.4844 43.4521C18.4844 43.4521 19.3828 47.954 23.4134 49.8793C27.4409 51.8072 31.3976 49.627 31.3976 49.627C31.3976 49.627 31.2438 49.4185 30.9207 49.0788C29.69 47.7738 26.0102 44.51 19.2474 43.55C18.9982 43.5139 18.7428 43.4805 18.4844 43.4521Z" fill="#8CC965"/>
<path d="M19.2578 43.5508C19.6455 44.8944 20.7931 47.8235 23.6607 49.2546C26.8175 50.835 29.965 49.5506 30.9311 49.0796C29.7004 47.7746 26.0206 44.5109 19.2578 43.5508Z" fill="#7BB758"/>
<path d="M40.4867 59.0047C39.7459 59.0047 39.0247 59.0564 38.3296 59.1521C36.9832 57.4181 34.6363 56.2686 31.9641 56.2686C29.2916 56.2686 26.9446 57.4181 25.5985 59.1521C24.9035 59.0566 24.1823 59.0047 23.4414 59.0047C17.9078 59.0047 13.4219 61.8131 13.4219 65.2776C13.4219 68.7421 17.9078 71.5506 23.4414 71.5506C26.8828 71.5506 29.918 70.4641 31.7219 68.8093C31.8025 68.8114 31.8828 68.8145 31.9644 68.8145C32.0456 68.8145 32.1259 68.8114 32.2068 68.8093C34.0107 70.4639 37.046 71.5506 40.4874 71.5506C46.021 71.5506 50.5069 68.7421 50.5069 65.2776C50.506 61.8131 46.0203 59.0047 40.4867 59.0047Z" fill="#82415A"/>
<path d="M40.4747 70.9047C37.3737 70.9047 34.4904 69.9582 32.7625 68.3735L32.5234 68.1539L32.1308 68.165C32.0718 68.1668 32.0121 68.1686 31.9524 68.1686C31.8924 68.1686 31.8327 68.1668 31.7733 68.165L31.381 68.1539L31.142 68.3735C29.414 69.9582 26.5308 70.9047 23.4297 70.9047C18.3293 70.9047 14.1797 68.3796 14.1797 65.2755C14.1797 62.1713 18.3293 59.646 23.4297 59.646C24.1069 59.646 24.7909 59.6928 25.4622 59.785L25.9582 59.8532L26.232 59.5006C27.4914 57.8785 29.6297 56.9102 31.9527 56.9102C34.2754 56.9102 36.4137 57.8787 37.673 59.5006L37.9469 59.8532L38.4428 59.785C39.1145 59.6928 39.7982 59.646 40.4757 59.646C45.5761 59.646 49.7257 62.1716 49.7257 65.2755C49.7257 68.3794 45.5751 70.9047 40.4747 70.9047Z" fill="#632D3D"/>
<path d="M50.815 67.3047L48.5936 90.6092L48.3782 92.8639L48.1321 95.4327C48.0828 96.0119 47.5044 96.4623 46.809 96.4623H17.795C17.0997 96.4623 16.5212 96.0119 16.472 95.4327L14.4044 73.7679L14.0044 69.5749L13.7891 67.3047H50.815Z" fill="#8E453F"/>
<path d="M54.892 63.2138V66.5059C54.892 67.0541 54.7197 67.5689 54.4182 68.0142C53.7874 68.946 52.5936 69.574 51.2245 69.574H13.3863C11.3617 69.574 9.71875 68.1995 9.71875 66.5059V63.2138C9.71875 62.8431 10.0787 62.542 10.5187 62.542H54.092C54.532 62.5422 54.892 62.8431 54.892 63.2138Z" fill="#653135"/>
<path d="M54.8806 63.2138V66.5059C54.8806 67.0541 54.7083 67.5689 54.4068 68.0142H13.8457C12.4826 68.0142 11.375 67.0902 11.375 65.9473V62.542H54.0807C54.5207 62.5422 54.8806 62.8431 54.8806 63.2138Z" fill="#8E453F"/>
<path opacity="0.5" d="M48.3738 92.8633L48.1276 95.432C48.0784 96.0112 47.4999 96.4616 46.8046 96.4616H17.7906C17.0952 96.4616 16.5168 96.0112 16.4676 95.432L14.4 73.7672L14 69.5742H18.009L20.2563 92.377C20.2834 92.6519 20.5578 92.8633 20.8874 92.8633H48.3738Z" fill="#653135"/>
<path d="M31.4402 81.3418V82.0648C31.4402 81.9598 31.4165 81.8409 31.3359 81.7024V81.7003C31.4165 81.5637 31.4402 81.4448 31.4402 81.3418Z" fill="#653135"/>
<path d="M36.2612 83.6833C37.415 84.7463 37.5073 86.0282 37.5073 87.4773H32.2891V75.2021H37.5073C37.5073 75.457 37.5042 75.7015 37.4919 75.9383C37.4488 76.9782 37.2704 78.0695 36.2612 78.9936C35.5412 79.6602 34.9043 80.0437 34.4397 80.3243C34.2028 80.4659 34.0151 80.5791 33.8828 80.6872C33.489 81.009 33.4429 81.2149 33.4429 81.341C33.4429 81.4234 33.4644 81.5032 33.5136 81.5855L33.5475 81.6396C33.6182 81.7503 33.7321 81.8687 33.8828 81.9922C34.0151 82.1003 34.2028 82.2136 34.4397 82.3551C34.5813 82.4401 34.7382 82.5353 34.9074 82.6434C35.4058 82.9628 35.8366 83.2949 36.2612 83.6833Z" fill="#9E5C59"/>
<path d="M37.5011 73.4004H32.2891V74.7157H37.5011V73.4004Z" fill="#9E5C59"/>
<path d="M37.5011 87.9688H32.2891V89.2789H37.5011V87.9688Z" fill="#9E5C59"/>
<path d="M36.0619 83.8587C37.1299 84.8433 37.2268 86.0417 37.2268 87.4777H27.3906C27.3906 86.0417 27.4879 84.843 28.5533 83.8587C29.6213 82.8762 30.4856 82.5337 30.9212 82.1769C31.1391 81.9985 31.2741 81.842 31.3523 81.7036V81.7015C31.4329 81.5648 31.4566 81.4459 31.4566 81.343C31.4566 81.1311 31.3594 80.8616 30.9215 80.5051C30.4859 80.1486 29.6216 79.8058 28.5536 78.8233C27.6728 78.0112 27.4525 77.0504 27.4051 75.9292C27.3934 75.6955 27.3909 75.4538 27.3909 75.2041H37.2271C37.2271 75.4538 37.2246 75.6955 37.2129 75.9292C37.1655 77.0504 36.9452 78.011 36.0622 78.8233C34.9967 79.8058 34.1325 80.1486 33.6943 80.5051C33.2587 80.8616 33.1614 81.1311 33.1614 81.343C33.1614 81.4459 33.1851 81.5648 33.2657 81.7015V81.7036C33.3439 81.8423 33.4765 81.9988 33.6943 82.1769C33.9312 82.371 34.2934 82.5591 34.7481 82.8505C35.129 83.094 35.5742 83.4109 36.0619 83.8587Z" fill="#653135"/>
<path d="M36.0553 84.5813C36.9386 85.3954 37.1586 86.356 37.206 87.4772H27.3984C27.4458 86.356 27.6661 85.3954 28.547 84.5813C29.6149 83.5988 30.4792 83.256 30.9149 82.8995C31.353 82.5448 31.4499 82.2735 31.4499 82.0655V81.3425C31.4499 81.1307 31.3527 80.8612 30.9149 80.5047C30.4792 80.1482 29.6149 79.8053 28.547 78.8229C27.6661 78.0108 27.4458 77.0499 27.3984 75.9287H37.206C37.1586 77.0499 36.9383 78.0105 36.0553 78.8229C34.9898 79.8053 34.1255 80.1482 33.6874 80.5047C33.2517 80.8612 33.1545 81.1307 33.1545 81.3425C33.1545 81.4454 33.1782 81.5644 33.2588 81.701V81.7031C33.1782 81.8418 33.1545 81.9607 33.1545 82.0655C33.1545 82.2735 33.2517 82.5448 33.6874 82.8995C33.9243 83.0935 34.2864 83.2817 34.7412 83.5731C35.1224 83.8166 35.5676 84.1334 36.0553 84.5813Z" fill="#7A3B3A"/>
<path d="M33.1641 81.3408V82.0638C33.1641 81.9588 33.1878 81.8399 33.2684 81.7014V81.6994C33.1878 81.5627 33.1641 81.4438 33.1641 81.3408Z" fill="#653135"/>
<path d="M37.2126 73.3984H27.3906V74.715H37.2126V73.3984Z" fill="#7A3B3A"/>
<path d="M37.224 73.4033H27.3906V74.0568H37.224V73.4033Z" fill="#653135"/>
<path d="M37.2126 87.9639H27.3906V89.2804H37.2126V87.9639Z" fill="#7A3B3A"/>
<path d="M37.224 87.9697H27.3906V88.6233H37.224V87.9697Z" fill="#653135"/>
<path d="M54.8842 63.2118V63.688H18.1875V62.54H54.0843C54.5242 62.5403 54.8842 62.8412 54.8842 63.2118Z" fill="#9E5C59"/>
</svg>
