<svg width="101" height="80" viewBox="0 0 101 80" fill="none" xmlns="http://www.w3.org/2000/svg">
<path d="M38.0405 70.4395H5.90625V75.4462H38.0405V70.4395Z" fill="#FFCC00"/>
<path opacity="0.5" d="M16.9184 70.4395H5.90625V75.4462H16.9184V70.4395Z" fill="#FFCC00"/>
<path opacity="0.5" d="M38.0423 70.4395H27.4922V75.4462H38.0423V70.4395Z" fill="#FFCC00"/>
<path d="M36.8686 65.4482H4.73438V70.455H36.8686V65.4482Z" fill="#FFCC00"/>
<path opacity="0.5" d="M13.262 65.4482H4.73438V70.455H13.262V65.4482Z" fill="#FFCC00"/>
<path opacity="0.5" d="M36.8655 65.4482H23.3281V70.455H36.8655V65.4482Z" fill="#FFCC00"/>
<path d="M40.3764 60.4209H8.24219V65.4276H40.3764V60.4209Z" fill="#FFCC00"/>
<path opacity="0.5" d="M20.8059 60.4209H8.24219V65.4276H20.8059V60.4209Z" fill="#FFCC00"/>
<path opacity="0.5" d="M40.3796 60.4209H31.2422V65.4276H40.3796V60.4209Z" fill="#FFCC00"/>
<path d="M38.3764 55.4531H6.24219V60.4598H38.3764V55.4531Z" fill="#FFCC00"/>
<path opacity="0.5" d="M15.8182 55.4531H6.24219V60.4598H15.8182V55.4531Z" fill="#FFCC00"/>
<path opacity="0.5" d="M38.3791 55.4531H25.3438V60.4598H38.3791V55.4531Z" fill="#FFCC00"/>
<path opacity="0.5" d="M36.7493 70.4395H5.90625V71.1864H36.7493V70.4395Z" fill="#FFCC00"/>
<path opacity="0.5" d="M38.373 60.46H8.23438V61.2351H38.373V60.46Z" fill="#FFCC00"/>
<path d="M84.5075 71.1867H44.465C42.1371 71.1867 40.25 69.2995 40.25 66.9717V4.215C40.25 1.88715 42.1371 0 44.465 0H84.5075C86.8354 0 88.7225 1.88715 88.7225 4.215V66.9717C88.7225 69.2995 86.8354 71.1867 84.5075 71.1867Z" fill="#F0F1F3"/>
<path d="M84.0391 61.5861L84.0391 4.68359L44.9332 4.68359L44.9332 61.5861L84.0391 61.5861Z" fill="white"/>
<path opacity="0.5" d="M49.2638 18.6162H47.1562V31.2612H49.2638V18.6162Z" fill="#F3A100"/>
<path opacity="0.5" d="M52.545 16.2744H50.4375V31.2611H52.545V16.2744Z" fill="#1E2346"/>
<path opacity="0.5" d="M55.8263 11.8252H53.7188V31.261H55.8263V11.8252Z" fill="#F3A100"/>
<path opacity="0.5" d="M59.0997 16.9766H56.9922V31.2607H59.0997V16.9766Z" fill="#1E2346"/>
<path opacity="0.5" d="M62.3809 22.3633H60.2734V31.2616H62.3809V22.3633Z" fill="#F3A100"/>
<path opacity="0.5" d="M65.6544 15.9238H63.5469V31.2617H65.6544V15.9238Z" fill="#F3A100"/>
<path opacity="0.5" d="M68.9356 25.4072H66.8281V31.2614H68.9356V25.4072Z" fill="#1E2346"/>
<path opacity="0.5" d="M72.2169 27.1631H70.1094V31.261H72.2169V27.1631Z" fill="#F3A100"/>
<path opacity="0.5" d="M75.4903 22.8311H73.3828V31.2611H75.4903V22.8311Z" fill="#F3A100"/>
<path opacity="0.5" d="M78.7716 20.4902H76.6641V31.2619H78.7716V20.4902Z" fill="#1E2346"/>
<path opacity="0.5" d="M82.0528 18.6162H79.9453V31.2612H82.0528V18.6162Z" fill="#F3A100"/>
<path opacity="0.5" d="M79.9394 56.3174H82.0469V43.6724H79.9394V56.3174Z" fill="#F3A100"/>
<path opacity="0.5" d="M76.6659 56.3174H78.7734V41.3307H76.6659V56.3174Z" fill="#1E2346"/>
<path opacity="0.5" d="M73.3847 56.3174H75.4922V36.8815H73.3847V56.3174Z" fill="#F3A100"/>
<path opacity="0.5" d="M70.1034 56.3174H72.2109V42.0332H70.1034V56.3174Z" fill="#1E2346"/>
<path opacity="0.5" d="M66.83 56.3174H68.9375V47.419H66.83V56.3174Z" fill="#F3A100"/>
<path opacity="0.5" d="M63.5487 56.3174H65.6562V40.9795H63.5487V56.3174Z" fill="#F3A100"/>
<path opacity="0.5" d="M60.2675 56.3174H62.375V50.4632H60.2675V56.3174Z" fill="#1E2346"/>
<path opacity="0.5" d="M56.9941 56.3174H59.1016V52.2195H56.9941V56.3174Z" fill="#F3A100"/>
<path opacity="0.5" d="M53.7128 56.3174H55.8203V47.8874H53.7128V56.3174Z" fill="#F3A100"/>
<path opacity="0.5" d="M50.4394 56.3174H52.5469V45.5457H50.4394V56.3174Z" fill="#1E2346"/>
<path opacity="0.5" d="M47.1581 56.3174H49.2656V43.6724H47.1581V56.3174Z" fill="#F3A100"/>
<path d="M64.49 68.2593C65.8479 68.2593 66.9488 67.1585 66.9488 65.8005C66.9488 64.4426 65.8479 63.3418 64.49 63.3418C63.1321 63.3418 62.0312 64.4426 62.0312 65.8005C62.0312 67.1585 63.1321 68.2593 64.49 68.2593Z" fill="white"/>
<path d="M96.2664 28.6523H49.1172V52.9874H96.2664V28.6523Z" fill="#6CACAC"/>
<path d="M89.7739 50.3255H55.6078V49.9452C55.6078 47.6389 53.9218 45.7625 51.8495 45.7625H51.5078V35.8765H51.8495C53.9218 35.8765 55.6078 34.0001 55.6078 31.6938V31.3135H89.7739V31.6938C89.7739 34.0001 91.4599 35.8765 93.5323 35.8765H93.874V45.7625H93.5323C91.4602 45.7625 89.7739 47.6389 89.7739 49.9452V50.3255ZM56.2783 49.5651H89.1037C89.2705 47.142 91.0136 45.2019 93.1909 45.0167V36.6225C91.0136 36.4373 89.2705 34.4972 89.1037 32.0741H56.2783C56.1118 34.4972 54.3686 36.4373 52.1913 36.6225V45.0167C54.3686 45.2019 56.1118 47.142 56.2783 49.5651Z" fill="#5A9997"/>
<path d="M77.2645 36.6265H76.059C75.9232 36.2846 75.7417 35.9662 75.5202 35.6791H76.7624L77.8124 34.1392L77.2645 33.7217H68.8003L67.7503 35.2616L68.2983 35.6791H72.3992V35.6793C72.8202 35.6793 73.2155 35.7882 73.559 35.9788C73.7445 36.1673 73.9 36.3856 74.0159 36.6268H68.6125L67.5625 38.1666L68.1104 38.5842H74.0702C73.7094 39.4548 72.8523 40.0681 71.851 40.0681H67.8468L67.844 41.8313L71.0675 47.4998L71.6155 47.9173H73.8269L70.5514 42.025H72.3521C72.3676 42.0257 72.3835 42.0257 72.399 42.0257C72.4109 42.0257 72.4229 42.0257 72.4341 42.025C74.4257 42.0081 76.0611 40.513 76.3068 38.5844H76.7624L77.8124 37.0445L77.2645 36.6265Z" fill="#5A9997"/>
<path d="M74.9722 35.2616H76.2145L77.2645 33.7217H68.8003L67.7503 35.2616H71.8513C72.806 35.2616 73.6281 35.82 74.0159 36.6265H68.6125L67.5625 38.1664H74.2009C73.97 39.2527 73.0062 40.0678 71.851 40.0678H67.8468L67.844 41.8311L71.0675 47.4996H73.279L70.0035 41.6072H71.8042C71.8197 41.6079 71.8358 41.6079 71.851 41.6079C71.863 41.6079 71.8749 41.6079 71.8859 41.6072C73.8775 41.5904 75.5129 40.0952 75.7586 38.1666H76.2143L77.2643 36.6268H75.6513C75.5146 36.1242 75.2816 35.6627 74.9722 35.2616Z" fill="#A2C2C0"/>
<path d="M95.2742 27.3994H48.125V51.7345H95.2742V27.3994Z" fill="#7BC3C3"/>
<path d="M88.7817 49.0725H54.6154V48.6923C54.6154 46.3859 52.9294 44.5096 50.8573 44.5096H50.5156V34.6235H50.8573C52.9296 34.6235 54.6154 32.7471 54.6154 30.4408V30.0605H88.7815V30.4408C88.7815 32.7471 90.4675 34.6235 92.5396 34.6235H92.8813V44.5096H92.5396C90.4675 44.5096 88.7815 46.3859 88.7815 48.6923V49.0725H88.7817ZM55.2858 48.312H88.1113C88.2778 45.8888 90.0212 43.9487 92.1982 43.7635V35.3693C90.0209 35.1841 88.2778 33.244 88.1113 30.8211H55.2858C55.1193 33.2443 53.3762 35.1843 51.1989 35.3693V43.7635C53.3762 43.949 55.1193 45.889 55.2858 48.312Z" fill="#68B0AE"/>
<path d="M76.2801 35.3746H75.0746C74.9386 35.0327 74.7573 34.7142 74.5358 34.4271H75.7781L76.8281 32.8872L76.2801 32.4697H67.8159L66.7659 34.0096L67.3139 34.4271H71.4148C71.8359 34.4271 72.2311 34.5362 72.5747 34.7269C72.7601 34.9154 72.9156 35.1336 73.0315 35.3746H67.6281L66.5781 36.9144L67.1261 37.332H73.0859C72.725 38.2028 71.868 38.8159 70.8667 38.8159H66.8624L66.8596 40.5792L70.0831 46.2476L70.6311 46.6651H72.8426L69.567 40.7728H71.3678C71.3832 40.7735 71.3994 40.7735 71.4146 40.7735C71.4266 40.7735 71.4385 40.7735 71.4495 40.7728C73.4411 40.756 75.0765 39.2608 75.3221 37.3322H75.7778L76.8278 35.7923L76.2801 35.3746Z" fill="#68B0AE"/>
<path d="M73.9879 34.0096H75.2301L76.2801 32.4697H67.8159L66.7659 34.0096H70.8669V34.0098C71.8216 34.0098 72.6437 34.5681 73.0315 35.3746H67.6281L66.5781 36.9144H73.2165C72.9856 38.0007 72.0218 38.8159 70.8667 38.8159H66.8624L66.8596 40.5792L70.0831 46.2476H72.2946L69.0191 40.3553H70.8198C70.8353 40.356 70.8512 40.356 70.8667 40.356C70.8786 40.356 70.8905 40.356 70.9015 40.3553C72.8931 40.3384 74.5286 38.8435 74.7742 36.9147H75.2299L76.2799 35.3748H74.6669C74.5302 34.8723 74.2972 34.4107 73.9879 34.0096Z" fill="#B5D9D7"/>
<path d="M93.6258 26.0469H46.4766V50.3819H93.6258V26.0469Z" fill="#86D4D4"/>
<path d="M87.1331 47.72H52.967V47.3397C52.967 45.0334 51.281 43.157 49.2088 43.157H48.8672V33.271H49.2088C51.2812 33.271 52.967 31.3946 52.967 29.0883V28.708H87.1331V29.0883C87.1331 31.3946 88.8191 33.271 90.8912 33.271H91.2329V43.157H90.8912C88.8191 43.157 87.1331 45.0334 87.1331 47.3397V47.72ZM53.6374 46.9597H86.4629C86.6294 44.5365 88.3727 42.5964 90.5498 42.4114V34.0173C88.3725 33.832 86.6294 31.892 86.4629 29.4688H53.6374C53.4709 31.892 51.7278 33.832 49.5505 34.0173V42.4114C51.7278 42.5964 53.4709 44.5365 53.6374 46.9597Z" fill="#72C1BF"/>
<path d="M74.6317 34.021H73.4262C73.2901 33.6792 73.1089 33.3607 72.8874 33.0736H74.1296L75.1796 31.5337L74.6317 31.1162H66.1675L65.1175 32.6561L65.6654 33.0736H69.7664V33.0738C70.1874 33.0738 70.5827 33.1827 70.9262 33.3733C71.1117 33.5618 71.2672 33.7801 71.3831 34.021H65.9797L64.9297 35.5609L65.4776 35.9784H71.4374C71.0766 36.8493 70.2195 37.4624 69.2182 37.4624H65.214L65.2112 39.2256L68.4347 44.8941L68.9826 45.3116H71.1941L67.9186 39.4193H69.7193C69.7348 39.42 69.7507 39.42 69.7662 39.42C69.7781 39.42 69.7901 39.42 69.8013 39.4193C71.7929 39.4024 73.4283 37.9075 73.6739 35.9787H74.1296L75.1796 34.4388L74.6317 34.021Z" fill="#72C1BF"/>
<path d="M72.3394 32.6561H73.5817L74.6317 31.1162H66.1675L65.1175 32.6561H69.2185C70.1731 32.6561 70.9953 33.2146 71.3831 34.021H65.9797L64.9297 35.5609H71.5681C71.3372 36.6472 70.3734 37.4624 69.2182 37.4624H65.214L65.2112 39.2256L68.4347 44.8941H70.6462L67.3706 39.0018H69.1714C69.1868 39.0025 69.2028 39.0025 69.2182 39.0025C69.2302 39.0025 69.2421 39.0025 69.2531 39.0018C71.2447 38.9849 72.8801 37.49 73.1258 35.5612H73.5814L74.6314 34.0213H73.0185C72.8815 33.5188 72.6488 33.0572 72.3394 32.6561Z" fill="#C3EAE8"/>
<g opacity="0.5">
<path d="M15.6663 30.0087L14.4453 28.9149L32.2169 9.07961L43.4335 20.3999L64.8157 1.13574L73.0188 12.8565L80.1457 6.61758L81.2252 7.85094L72.7235 15.2935L64.5359 3.59426L43.3693 22.6641L32.2769 11.4691L15.6663 30.0087Z" fill="#D7A403"/>
<path d="M82.2985 10.71L84.6685 3.74707L77.4531 5.17525L82.2985 10.71Z" fill="#664D00"/>
</g>
<path d="M80.9852 77.2692C88.9075 77.2692 95.3298 70.847 95.3298 62.9247C95.3298 55.0024 88.9075 48.5801 80.9852 48.5801C73.0629 48.5801 66.6406 55.0024 66.6406 62.9247C66.6406 70.847 73.0629 77.2692 80.9852 77.2692Z" fill="#FFCC00"/>
<path d="M80.9852 73.9333C87.0651 73.9333 91.9938 69.0046 91.9938 62.9247C91.9938 56.8448 87.0651 51.916 80.9852 51.916C74.9053 51.916 69.9766 56.8448 69.9766 62.9247C69.9766 69.0046 74.9053 73.9333 80.9852 73.9333Z" fill="#D68900"/>
<path d="M80.9822 73.5162C86.8318 73.5162 91.5738 68.7742 91.5738 62.9246C91.5738 57.075 86.8318 52.333 80.9822 52.333C75.1326 52.333 70.3906 57.075 70.3906 62.9246C70.3906 68.7742 75.1326 73.5162 80.9822 73.5162Z" fill="#F3A100"/>
<path d="M86.1562 58.6807H84.872C84.7271 58.3166 84.5339 57.9772 84.2981 57.6714H85.6216L86.7402 56.0309L86.1564 55.5859H77.1391L76.0205 57.2265L76.6043 57.6714H80.9731V57.6717C81.4218 57.6717 81.8426 57.7876 82.2088 57.9906C82.4065 58.1913 82.572 58.4238 82.6954 58.6807H76.9389L75.8203 60.3213L76.4041 60.7659H82.7533C82.3688 61.6935 81.456 62.3468 80.3891 62.3468H76.1231L76.1203 64.2253L79.5543 70.264L80.1381 70.7087H82.4941L79.0045 64.4311H80.9228C80.9392 64.4318 80.9563 64.4318 80.9727 64.4318C80.9853 64.4318 80.998 64.4318 81.0099 64.4311C83.1317 64.4133 84.8739 62.8205 85.1355 60.7657H85.6209L86.7395 59.1251L86.1562 58.6807Z" fill="#D68900"/>
<path d="M83.7143 57.2265H85.0378L86.1564 55.5859H77.1391L76.0205 57.2265H80.3894C81.4064 57.2265 82.2824 57.8213 82.6954 58.6807H76.9389L75.8203 60.3213H82.8926C82.6467 61.4785 81.6197 62.3468 80.3894 62.3468H76.1233L76.1205 64.2253L79.5548 70.264H81.9107L78.4212 63.9864H80.3395C80.3559 63.9871 80.373 63.9871 80.3894 63.9871C80.402 63.9871 80.4147 63.9871 80.4266 63.9864C82.5482 63.9686 84.2906 62.3758 84.5521 60.321H85.0376L86.1562 58.6804H84.4379C84.292 58.1456 84.0438 57.6539 83.7143 57.2265Z" fill="#FFCC00"/>
<path d="M62.645 63.1084H41.1797V75.8314H62.645V63.1084Z" fill="#F9A91C"/>
<path d="M57.1622 41.8875C57.1622 41.8875 56.2255 41.4777 55.0547 41.6826L56.3426 38.4043L57.8354 39.1653L57.1622 41.8875Z" fill="#141930"/>
<path d="M56.334 40.1309C56.9888 40.1309 57.5196 39.6001 57.5196 38.9453C57.5196 38.2906 56.9888 37.7598 56.334 37.7598C55.6792 37.7598 55.1484 38.2906 55.1484 38.9453C55.1484 39.6001 55.6792 40.1309 56.334 40.1309Z" fill="#E6976D"/>
<path d="M52.1561 37.7308C52.1561 37.7308 51.7755 39.692 51.395 40.1311C51.0145 40.5701 50.4876 40.9799 50.7803 41.4482C51.073 41.9166 51.7463 42.0292 52.3024 41.9458C52.8878 41.858 53.5025 41.7117 53.883 41.8873C54.2636 42.0629 54.0001 39.6042 54.0001 39.6042L53.2391 37.0576C53.2391 37.0576 52.039 37.7016 52.1561 37.7308Z" fill="#141930"/>
<path d="M42.318 53.3906C42.318 53.3906 41.1471 53.9369 39.5859 54.3664C39.5859 54.3664 41.2251 55.5763 42.9814 54.2102L42.318 53.3906Z" fill="#E6976D"/>
<path d="M51.0938 43.5947C51.0938 43.5947 49.1424 50.1514 42.3125 53.3906L42.8979 54.6006C42.8979 54.6006 47.5812 53.8981 52.5379 47.5364L51.0938 43.5947Z" fill="#E59303"/>
<path d="M40.2183 71.626C40.2183 71.626 38.9011 73.5871 37.5547 74.114C37.5547 74.114 39.0182 74.2311 39.8378 73.47C40.6574 72.709 40.2183 71.626 40.2183 71.626Z" fill="#E6976D"/>
<path d="M44.1406 62.6854C44.1406 62.6854 48.3371 71.9619 48.5579 73.7289C48.7788 75.496 47.159 78.0727 47.159 78.0727H47.8953L50.3247 75.0541L47.6007 63.6424L50.0302 63.3479L48.7785 60.1819L44.2139 60.1084L44.1406 62.6854Z" fill="#E37463"/>
<path d="M44.4032 56.5012C44.4032 56.5012 42.4153 56.0596 41.9737 57.8264C41.5318 59.5934 39.4297 73.508 39.4297 73.508L41.344 72.9926L44.5835 60.6975L49.9581 60.9183C49.9576 60.9185 47.2743 57.4583 44.4032 56.5012Z" fill="#E6976D"/>
<path d="M41.3425 72.9932C41.3425 72.9932 41.637 73.8767 41.1216 74.5394C40.6062 75.2021 39.7576 76.2223 39.7576 76.2223L39.5368 75.8542L40.0175 74.4658L37.0214 74.834L35.3281 73.8769C35.3281 73.8769 37.3965 74.1539 39.4286 73.5088L41.3425 72.9932Z" fill="#42528E"/>
<path d="M47.8932 78.0724L50.3227 75.0537C50.9116 75.7653 50.7643 76.4034 50.7643 76.4034L50.6662 78.9067H50.2245L50.0281 76.747L48.114 78.6613H46.1016L47.1567 78.0724H47.8932Z" fill="#42528E"/>
<path d="M56.1766 42.8592L58.2991 43.7858C58.8211 44.0137 59.0967 44.5892 58.947 45.1388C58.5335 46.6588 57.9834 50.6319 58.5403 54.4563H51.7082C51.7082 54.4563 50.7262 48.4113 50.8186 44.0849C50.8304 43.5397 51.2263 43.0791 51.763 42.9829L53.653 42.6436L56.1766 42.8592Z" fill="#F9A91C"/>
<path d="M57.2037 44.2577C57.143 45.0761 55.9661 45.6559 54.5751 45.5529C53.1842 45.4496 52.1059 44.7026 52.1665 43.8842C52.2271 43.0658 53.4041 42.486 54.795 42.589C56.186 42.692 57.2643 43.4393 57.2037 44.2577Z" fill="#E37463"/>
<path d="M55.9131 40.0928C55.9131 40.0928 55.949 41.8891 56.2365 42.9667C56.2365 42.9667 54.9432 43.2901 53.3984 42.9667C53.3984 42.9667 54.0091 42.356 54.1169 40.452L55.9131 40.0928Z" fill="#E37463"/>
<path d="M51.4026 45.0586L49.9297 47.8967C49.9297 47.8967 50.3966 49.4415 52.4086 49.2619L54.4922 47.8967L51.4026 45.0586Z" fill="#F9A91C"/>
<path d="M58.5388 54.4561C58.5388 54.4561 59.5759 57.2544 59.6342 59.0602C59.6899 60.7868 59.1886 62.9591 55.2712 63.256C51.5871 63.5354 51.0012 63.6274 48.1792 63.6274C48.1792 63.6274 47.3995 57.9835 45.4688 56.424C45.4688 56.424 48.3834 55.4958 51.7067 54.4561H58.5388Z" fill="#42528E"/>
<path d="M58.9072 44.4389C58.7969 44.3604 58.6964 44.3051 58.6267 44.2707C57.672 43.7982 56.6735 45.3191 56.6735 45.3191C56.6735 45.3191 55.1495 48.4558 51.2656 51.2484C51.3904 52.305 51.5138 53.1892 51.5977 53.7606C53.5118 52.9464 55.6895 51.6903 57.4628 49.7811C57.8272 49.3889 58.1342 49.0241 58.3946 48.6829C58.5194 47.1344 58.7463 45.8598 58.9425 45.1383C59.0076 44.8992 58.9882 44.6569 58.9072 44.4389Z" fill="#D68505"/>
<path d="M56.8305 44.9603C56.8305 44.9603 53.8643 50.5412 46.1953 53.1367L46.7416 54.4246C46.7416 54.4246 53.1421 53.7612 57.4548 49.4486C61.3185 45.5848 59.3119 44.2508 58.8206 43.9848C57.8842 43.4771 56.8305 44.9603 56.8305 44.9603Z" fill="#F3A100"/>
<path d="M46.1967 53.1367L43.3281 54.2099L43.8744 55.5369C43.8744 55.5369 45.3185 55.7711 46.743 54.4246L46.1967 53.1367Z" fill="#E6976D"/>
<path opacity="0.4" d="M56.0234 41.7233C56.0014 41.5249 55.9834 41.3299 55.9691 41.1472L54.1344 40.4482L54.1171 40.4518C54.0433 41.7533 53.7349 42.4497 53.5469 42.7606C54.8353 42.6721 55.6185 42.1228 56.0234 41.7233Z" fill="#E37463"/>
<path d="M54.4648 42.0691H54.2807C53.2799 42.0691 52.4688 41.2579 52.4688 40.2571V36.9678H56.2768V40.2571C56.2768 41.2579 55.4656 42.0691 54.4648 42.0691Z" fill="#E6976D"/>
<path d="M55.3187 37.0575C55.3187 37.0575 55.348 38.2576 56.1383 38.9894C56.1383 38.9894 56.4603 38.1405 56.8701 38.6966C57.2798 39.2528 56.8993 39.8382 56.2261 39.926C56.2261 39.926 56.0212 41.4774 56.6652 42.1506C57.3091 42.8238 57.3091 41.5945 58.158 41.7115C59.0068 41.8286 59.563 41.5945 59.0946 40.8334C58.6263 40.0724 57.836 38.1405 57.7482 37.2038C57.6604 36.2672 57.3677 34.7744 56.3139 35.1256C56.3139 35.1256 56.1676 34.1597 55.1138 34.1011C54.0601 34.0426 53.3283 35.0378 52.5087 34.8914C51.6891 34.7451 50.8695 35.0671 50.7525 36.0623C50.6084 37.2863 51.0452 38.1698 52.5672 37.9649C52.5672 37.9649 54.8211 37.6136 55.3187 37.0575Z" fill="#1E2346"/>
<path d="M64.4062 55.8301H31.2109V57.0925H64.4062V55.8301Z" fill="#1A427D"/>
<path d="M64.7846 56.3311H30.8281V56.591H64.7846V56.3311Z" fill="#A9BFF8"/>
<path d="M27.8322 55.2318C37.4347 55.2318 45.2191 47.4474 45.2191 37.8449C45.2191 28.2424 37.4347 20.458 27.8322 20.458C18.2297 20.458 10.4453 28.2424 10.4453 37.8449C10.4453 47.4474 18.2297 55.2318 27.8322 55.2318Z" fill="#FFCC00"/>
<path d="M40.8577 40.7437C42.4605 33.5504 37.9286 26.4197 30.7353 24.8169C23.542 23.214 16.4113 27.746 14.8085 34.9393C13.2056 42.1326 17.7376 49.2632 24.9309 50.8661C32.1242 52.4689 39.2548 47.937 40.8577 40.7437Z" fill="#D68900"/>
<path d="M40.3408 40.7273C41.9325 33.8179 37.6217 26.9263 30.7123 25.3346C23.8029 23.7428 16.9114 28.0536 15.3196 34.963C13.7279 41.8725 18.0387 48.764 24.9481 50.3558C31.8575 51.9475 38.749 47.6367 40.3408 40.7273Z" fill="#F3A100"/>
<path d="M34.0982 32.7003H32.5417C32.3661 32.2589 32.1319 31.8477 31.846 31.4768H33.4501L34.8059 29.4883L34.0982 28.9492H23.1685L21.8127 30.9378L22.5203 31.4768H27.8158C28.3595 31.4768 28.8698 31.6175 29.3135 31.8637C29.5531 32.107 29.7537 32.3889 29.9034 32.7001H22.9261L21.5703 34.6886L22.278 35.2277H29.9739C29.5079 36.3522 28.4014 37.1439 27.1084 37.1439H21.9377L21.9342 39.4209L26.0968 46.7405L26.8044 47.2796H29.6601L25.4306 39.6708H27.7558C27.7757 39.6717 27.7966 39.6717 27.8165 39.6717C27.8319 39.6717 27.8471 39.6717 27.8617 39.6708C30.4333 39.6492 32.5452 37.7185 32.8623 35.2279H33.4508L34.8066 33.2394L34.0982 32.7003Z" fill="#D68900"/>
<path d="M31.1386 30.9378H32.7426L34.0985 28.9492H23.1687L21.8129 30.9378H27.1084C28.3412 30.9378 29.403 31.6588 29.9034 32.7003H22.9261L21.5703 34.6889H30.1425C29.8444 36.0915 28.5998 37.1441 27.1081 37.1441H21.9375L21.934 39.4209L26.0965 46.7405H28.9522L24.7227 39.1317H27.0479C27.0678 39.1327 27.0887 39.1327 27.1084 39.1327C27.1238 39.1327 27.139 39.1327 27.1535 39.1317C29.7252 39.1102 31.8371 37.1795 32.1542 34.6889H32.7426L34.0985 32.7003H32.0158C31.839 32.0517 31.5383 31.4557 31.1386 30.9378Z" fill="#FFCC00"/>
<path d="M63.8782 57.0918H31.9453V57.6859H63.8782V57.0918Z" fill="#102F54"/>
<path d="M29.9488 79.7223H28.8906L32.7893 57.6855H34.4045L29.9488 79.7223Z" fill="#E6976D"/>
<path d="M65.2213 79.7223H66.2795L62.3807 57.6855H60.7656L65.2213 79.7223Z" fill="#E6976D"/>
<path d="M44.681 55.2465H33.8508L31.9531 48.1953H42.7833L44.681 55.2465Z" fill="#F0F1F5"/>
<path d="M44.7043 55.2465H44.3823L42.4844 48.1953L42.8064 48.5304L44.7043 55.2465Z" fill="#CBCED8"/>
<path d="M49.248 55.2471H33.8516V55.8292H49.248V55.2471Z" fill="#CBCED8"/>
<path d="M38.5112 51.8057C38.6253 52.4204 38.2881 52.9981 37.7582 53.0965C37.2282 53.1946 36.7065 52.7761 36.5925 52.1614C36.4784 51.5467 36.8156 50.9691 37.3456 50.8707C37.8755 50.7726 38.3974 51.191 38.5112 51.8057Z" fill="#CBCED8"/>
<path d="M9.42518 77.556H3.20642L2.42969 69.8154H10.2017L9.42518 77.556Z" fill="#F0F1F3"/>
<path d="M10.2017 69.8158C10.2017 69.3868 8.46182 69.0391 6.31568 69.0391C4.16955 69.0391 2.42969 69.3868 2.42969 69.8158C2.42969 70.2448 4.16955 70.5925 6.31568 70.5925C8.46182 70.5925 10.2017 70.2448 10.2017 69.8158Z" fill="#F0F1F3"/>
<path d="M9.73549 69.8152C9.73549 69.4384 8.20685 69.1328 6.32087 69.1328C4.43512 69.1328 2.90625 69.4384 2.90625 69.8152C2.90625 70.1919 4.43489 70.4975 6.32087 70.4975C8.20661 70.4975 9.73549 70.1922 9.73549 69.8152Z" fill="#1E2346"/>
<path d="M9.42947 77.5297C9.42947 77.1007 8.03735 76.7529 6.3202 76.7529C4.60306 76.7529 3.21094 77.1007 3.21094 77.5297C3.21094 77.9587 4.60306 78.3064 6.3202 78.3064C8.03735 78.3064 9.42947 77.9587 9.42947 77.5297Z" fill="#F0F1F3"/>
<path d="M10.0467 67.1383C10.0694 66.7749 9.91254 66.5086 9.77672 66.2717C9.64161 66.0351 9.53506 65.831 9.69078 65.6052C9.77157 65.4947 9.92518 65.387 10.1142 65.2736C10.3027 65.1598 10.5291 65.0427 10.7794 64.9273C11.2679 64.6849 11.8135 64.4311 12.2193 64.0689C12.4273 63.8914 12.5666 63.7087 12.6764 63.5396C12.7869 63.371 12.8544 63.2024 12.897 63.0348C12.978 62.6955 12.9801 62.3852 13.0045 62.0887C13.0192 61.944 13.1152 61.8002 13.2738 61.6764C13.4321 61.5523 13.6421 61.4352 13.8669 61.3197C14.095 61.2087 14.3458 61.1111 14.5732 61.0006C14.7994 60.8872 15.0237 60.7938 15.1892 60.6652C15.2817 60.5964 15.3564 60.5116 15.4173 60.417C15.4808 60.3269 15.5304 60.2259 15.5693 60.1194C15.647 59.9065 15.6829 59.6717 15.6988 59.4616C15.7288 59.0631 15.5466 58.6898 15.1907 58.5046C15.0036 58.4069 14.7759 58.3177 14.5322 58.2826C14.4104 58.265 14.2847 58.2608 14.1589 58.2756C14.0357 58.2948 13.9133 58.3336 13.7948 58.3962C13.5822 58.5135 13.3506 58.6722 13.1394 58.876C12.9263 59.0771 12.7108 59.2909 12.5123 59.4972C12.3167 59.708 12.1292 59.8997 11.95 60.0377C11.7709 60.1754 11.6112 60.2725 11.4519 60.2711C11.1396 60.2751 10.7811 60.2386 10.4033 60.3529C10.2125 60.4077 10.0114 60.4943 9.80084 60.6313C9.59079 60.7687 9.38496 60.9704 9.16765 61.2333C8.74077 61.7684 8.49653 62.4529 8.34292 63.0584C8.25885 63.3568 8.20429 63.6429 8.14669 63.8834C8.08908 64.1236 8.02539 64.3166 7.9453 64.4473C7.79145 64.7123 7.55588 64.7126 7.27043 64.7147C6.98592 64.7173 6.64497 64.7163 6.31175 65.0034C6.17992 65.1149 6.11248 65.2947 6.08649 65.5284C6.06284 65.7635 6.09257 66.059 6.13543 66.3911C6.17453 66.7213 6.25345 67.1013 6.32721 67.5074C6.39301 67.9104 6.48598 68.3529 6.54288 68.8107C6.58386 69.1318 6.92972 69.2456 7.16553 69.0341C7.50694 68.7292 7.84321 68.4855 8.18509 68.2967C8.51854 68.1045 8.82671 67.9553 9.10653 67.834C9.38262 67.7111 9.60461 67.6041 9.76993 67.4973C9.93759 67.3921 10.0362 67.2802 10.0467 67.1383Z" fill="#26377C"/>
<path d="M6.51961 69.9758C6.47371 69.9626 6.44983 69.9104 6.46599 69.8591C6.46599 69.8591 6.52945 69.6594 6.64021 69.3098C6.69149 69.1337 6.76923 68.925 6.86056 68.6864C6.95048 68.4473 7.04766 68.1759 7.17902 67.8903C7.67358 66.737 8.46788 65.2458 9.5057 63.9268C10.0066 63.2542 10.5798 62.6405 11.1257 62.0761C11.6893 61.5291 12.2354 61.0386 12.7335 60.655C13.2226 60.2597 13.6626 59.974 13.9612 59.7614C14.2724 59.5673 14.4501 59.4565 14.4501 59.4565C14.4958 59.4282 14.5527 59.4383 14.5775 59.479C14.6023 59.5197 14.5857 59.5757 14.5408 59.6038C14.5408 59.6038 14.3647 59.7136 14.0565 59.9057C13.761 60.1164 13.3252 60.399 12.8407 60.7908C12.3473 61.1706 11.8064 61.6567 11.2479 62.1986C10.7074 62.7578 10.1391 63.3657 9.64293 64.0321C8.6147 65.339 7.8279 66.8161 7.33826 67.9584C7.20806 68.2413 7.11205 68.5101 7.02283 68.7469C6.93245 68.9831 6.85541 69.1897 6.80459 69.3641C6.69477 69.7102 6.63201 69.9078 6.63201 69.9078C6.61585 69.9584 6.56551 69.9889 6.51961 69.9758Z" fill="white"/>
<path d="M7.42691 65.7174C7.18197 65.3961 6.85531 65.3338 6.58414 65.2797C6.31181 65.2258 6.08724 65.1839 6.00927 64.9214C5.96665 64.7912 5.95611 64.6083 5.9629 64.3835C5.97016 64.1585 5.99123 63.8923 5.98678 63.6089C5.99428 63.0373 5.93199 62.3732 5.65802 61.8161C5.51634 61.5415 5.37022 61.3249 5.20514 61.1673C5.03935 61.0099 4.87051 60.901 4.70425 60.8235C4.37642 60.665 4.03243 60.6505 3.74206 60.6064C3.59313 60.587 3.46739 60.4765 3.33274 60.3259C3.19833 60.1751 3.0679 59.9728 2.93419 59.7517C2.7965 59.5344 2.64429 59.3075 2.49091 59.0926C2.41551 58.9839 2.33261 58.8853 2.24667 58.7975C2.16167 58.7088 2.07526 58.6289 1.98815 58.5626C1.89215 58.4898 1.78724 58.4392 1.67812 58.4074C1.56548 58.3798 1.4491 58.3699 1.33413 58.3739C1.10371 58.3814 0.878205 58.4432 0.68853 58.5179C0.327913 58.6593 0.0904676 59.0001 0.0342676 59.3817C0.00499674 59.5829 -0.0125654 59.8086 0.0108513 60.0166C0.0225596 60.1205 0.044805 60.2201 0.0815692 60.3102C0.115055 60.4046 0.162826 60.4908 0.230031 60.5636C0.291149 60.6296 0.364208 60.6919 0.445932 60.7519C0.529296 60.8097 0.616875 60.8703 0.706561 60.9326C0.885698 61.057 1.08966 61.1715 1.27043 61.297C1.447 61.4263 1.61021 61.556 1.72495 61.6867C1.83969 61.8171 1.89238 61.9592 1.87013 62.0927C1.81909 62.3655 1.74298 62.6467 1.73034 62.9605C1.72659 63.1155 1.74462 63.2741 1.80223 63.4363C1.85936 63.5993 1.93968 63.7768 2.0851 63.9581C2.36446 64.3255 2.80516 64.6168 3.1995 64.8975C3.40393 65.0336 3.58587 65.1689 3.73363 65.2966C3.88163 65.4237 3.99848 65.5415 4.04531 65.6504C4.13242 65.871 3.97646 66.0307 3.78445 66.2117C3.59149 66.3932 3.37021 66.595 3.292 66.9048C3.26319 67.0259 3.32478 67.1369 3.45357 67.2561C3.57955 67.3757 3.75939 67.5062 3.9877 67.6616C4.22023 67.8164 4.47149 68.0014 4.73868 68.2295C5.01452 68.4564 5.27117 68.7304 5.52009 69.0587C5.69244 69.2872 6.0568 69.2744 6.1795 69.0069C6.35466 68.6231 6.56166 68.2583 6.73307 67.9204C6.91362 67.5813 7.09182 67.2643 7.21944 66.9816C7.35127 66.6983 7.46063 66.4426 7.50184 66.2295C7.54072 66.0162 7.52456 65.8426 7.42691 65.7174Z" fill="#86D4D4"/>
<path d="M5.90073 70.0042C5.85296 70.0044 5.81291 69.9667 5.81128 69.9201C5.81128 69.9201 5.80472 69.7379 5.79324 69.4192C5.79184 69.2595 5.77381 69.0666 5.75086 68.8455C5.72932 68.6242 5.70988 68.3741 5.66117 68.1048C5.49937 67.0253 5.14015 65.5953 4.50814 64.2767C4.21239 63.6088 3.83397 62.9824 3.46961 62.4043C3.08417 61.8395 2.70084 61.3276 2.33624 60.9194C1.98265 60.5012 1.64826 60.1902 1.4258 59.9615C1.18766 59.7491 1.0516 59.6278 1.0516 59.6278C1.01671 59.5966 1.0139 59.5423 1.04505 59.5062C1.07619 59.4702 1.13028 59.4664 1.16564 59.498C1.16564 59.498 1.30333 59.621 1.54453 59.8362C1.76979 60.0678 2.1084 60.383 2.46644 60.8061C2.83549 61.2194 3.2235 61.7374 3.61362 62.3092C3.98267 62.8942 4.36553 63.5283 4.6648 64.2041C5.3043 65.5384 5.6682 66.986 5.83212 68.0791C5.88153 68.3519 5.9012 68.6052 5.92297 68.8293C5.94639 69.0532 5.96442 69.2487 5.96583 69.4105C5.97753 69.7337 5.98409 69.9182 5.98409 69.9182C5.98573 69.9653 5.9485 70.0039 5.90073 70.0042Z" fill="white"/>
<path d="M8.10291 65.1477C7.95843 64.7541 7.6992 64.5639 7.47136 64.3937C7.24445 64.2237 7.05735 64.0726 7.09505 63.7549C7.118 63.5966 7.20792 63.401 7.32711 63.1791C7.4456 62.9568 7.59687 62.7091 7.77203 62.4482C8.10501 61.922 8.48811 61.3451 8.70026 60.7379C8.8129 60.4353 8.85973 60.1681 8.8869 59.9328C8.91476 59.6979 8.90305 59.4888 8.86886 59.2966C8.79416 58.9102 8.66139 58.6032 8.55297 58.2979C8.5031 58.147 8.52768 57.9487 8.62018 57.7328C8.71244 57.5167 8.85599 57.2764 9.01381 57.0282C9.17726 56.7823 9.36905 56.5355 9.5332 56.2896C9.61562 56.1667 9.69617 56.0466 9.77298 55.9316C9.84768 55.8154 9.91301 55.7014 9.96453 55.5899C10.0212 55.4672 10.0537 55.3406 10.0692 55.2132C10.0893 55.0886 10.091 54.9626 10.0802 54.8383C10.0584 54.5898 9.98654 54.3475 9.90646 54.1416C9.75425 53.7508 9.41119 53.5169 8.9925 53.5597C8.77215 53.582 8.51832 53.6358 8.27455 53.7485C8.15278 53.8047 8.03336 53.8756 7.9226 53.9639C7.81675 54.055 7.72028 54.1641 7.63879 54.2927C7.56479 54.4095 7.49501 54.5409 7.4285 54.6814C7.36083 54.8214 7.29901 54.9717 7.24749 55.1305C7.14142 55.4462 7.03791 55.7747 6.94729 56.0876C6.86182 56.403 6.77495 56.6964 6.67191 56.9329C6.56865 57.1694 6.46631 57.356 6.31973 57.4469C6.03568 57.6316 5.69099 57.8021 5.39875 58.1278C5.24958 58.2897 5.10557 58.4873 4.97538 58.739C4.84612 58.9908 4.75058 59.3022 4.67143 59.6799C4.52507 60.44 4.61171 61.2469 4.74542 61.9324C4.80303 62.2745 4.88288 62.5894 4.93955 62.8611C4.99575 63.1327 5.02525 63.3608 5.01214 63.5355C4.99411 63.8851 4.78383 64.0122 4.52976 64.1665C4.27686 64.3209 3.9715 64.5007 3.80524 64.9627C3.73827 65.1435 3.75982 65.3587 3.84271 65.6071C3.92865 65.8558 4.08999 66.138 4.27967 66.4522C4.46466 66.7665 4.70936 67.1124 4.96133 67.4901C5.20416 67.8687 5.49195 68.2769 5.75468 68.7222C5.93967 69.0339 6.30029 68.9822 6.41152 68.6436C6.57333 68.1549 6.75832 67.7287 6.97539 67.3545C7.1831 66.9808 7.38776 66.6623 7.58189 66.3862C7.77156 66.1104 7.91979 65.8778 8.01884 65.676C8.12023 65.4741 8.1577 65.3022 8.10291 65.1477Z" fill="#F3CE87"/>
<path d="M6.28604 69.9469C6.23897 69.9553 6.19331 69.9127 6.18394 69.8513C6.18394 69.8513 6.14694 69.6125 6.08231 69.1947C6.06733 69.09 6.04532 68.9751 6.03173 68.8484C6.01839 68.7217 6.00387 68.5847 5.98841 68.4381C5.9575 68.1452 5.91769 67.8152 5.90364 67.453C5.81232 66.0084 5.84182 64.0623 6.18862 62.1585C6.33826 61.2031 6.58671 60.2671 6.83305 59.396C7.10515 58.5319 7.38803 57.7341 7.67792 57.0698C7.9533 56.3989 8.23571 55.8641 8.41813 55.4826C8.62185 55.1122 8.73823 54.9005 8.73823 54.9005C8.76797 54.8462 8.82604 54.8213 8.86749 54.8448C8.90894 54.8682 8.91877 54.9309 8.88904 54.9845C8.88904 54.9845 8.77359 55.1946 8.57127 55.5622C8.39049 55.9409 8.1102 56.4713 7.83692 57.1372C7.54913 57.7967 7.26837 58.5884 6.99837 59.4459C6.75414 60.3107 6.50733 61.2396 6.35886 62.1878C6.01441 64.0775 5.98537 66.0089 6.07599 67.4422C6.08981 67.8019 6.12962 68.1293 6.16029 68.4199C6.17575 68.565 6.19003 68.7011 6.20314 68.8268C6.21673 68.9526 6.23874 69.0666 6.25349 69.1706C6.31765 69.5851 6.35441 69.8221 6.35441 69.8221C6.36355 69.8822 6.33287 69.9384 6.28604 69.9469Z" fill="white"/>
<path d="M93.7296 77.556H87.5111L86.7344 69.8154H94.5064L93.7296 77.556Z" fill="#F0F1F3"/>
<path d="M94.5064 69.8158C94.5064 69.3868 92.7665 69.0391 90.6204 69.0391C88.4742 69.0391 86.7344 69.3868 86.7344 69.8158C86.7344 70.2448 88.4742 70.5925 90.6204 70.5925C92.7665 70.5925 94.5064 70.2448 94.5064 69.8158Z" fill="#F0F1F3"/>
<path d="M94.0321 69.8152C94.0321 69.4384 92.5035 69.1328 90.6175 69.1328C88.7318 69.1328 87.2031 69.4384 87.2031 69.8152C87.2031 70.1919 88.7318 70.4975 90.6175 70.4975C92.5033 70.4975 94.0321 70.1922 94.0321 69.8152Z" fill="#1E2346"/>
<path d="M93.7342 77.5297C93.7342 77.1007 92.342 76.7529 90.6249 76.7529C88.9077 76.7529 87.5156 77.1007 87.5156 77.5297C87.5156 77.9587 88.9077 78.3064 90.6249 78.3064C92.3423 78.3064 93.7342 77.9587 93.7342 77.5297Z" fill="#F0F1F3"/>
<path d="M94.3586 67.1383C94.3814 66.7749 94.2245 66.5086 94.0886 66.2717C93.9535 66.0351 93.847 65.831 94.0027 65.6052C94.0835 65.4947 94.2371 65.387 94.4261 65.2736C94.6146 65.1598 94.841 65.0427 95.0914 64.9273C95.5798 64.6849 96.1254 64.4311 96.5315 64.0689C96.7394 63.8914 96.8787 63.7087 96.9886 63.5396C97.0991 63.371 97.1665 63.2024 97.2092 63.0348C97.2902 62.6955 97.2923 62.3852 97.3166 62.0887C97.3314 61.944 97.4274 61.8002 97.5859 61.6764C97.7442 61.5523 97.9543 61.4352 98.1791 61.3197C98.4072 61.2087 98.6579 61.1111 98.8853 61.0006C99.1115 60.8872 99.3359 60.7938 99.5014 60.6652C99.5939 60.5964 99.6686 60.5116 99.7295 60.417C99.793 60.3269 99.8426 60.2259 99.8815 60.1194C99.9592 59.9065 99.995 59.6717 100.011 59.4616C100.041 59.0631 99.8587 58.6898 99.5028 58.5046C99.3157 58.4069 99.0881 58.3177 98.8443 58.2826C98.7226 58.265 98.5968 58.2608 98.4711 58.2756C98.3479 58.2948 98.2254 58.3336 98.1069 58.3962C97.8943 58.5135 97.6627 58.6722 97.4515 58.876C97.2384 59.0771 97.023 59.2909 96.8244 59.4972C96.6289 59.708 96.4411 59.8997 96.2622 60.0377C96.083 60.1754 95.9234 60.2725 95.7641 60.2711C95.4517 60.2751 95.0932 60.2386 94.7155 60.3529C94.5247 60.4077 94.3235 60.4943 94.113 60.6313C93.903 60.7687 93.6971 60.9704 93.4798 61.2333C93.0529 61.7684 92.8087 62.4529 92.6551 63.0584C92.571 63.3568 92.5165 63.6429 92.4591 63.8834C92.4015 64.1236 92.3378 64.3166 92.2577 64.4473C92.1039 64.7123 91.8683 64.7126 91.5828 64.7147C91.2983 64.7173 90.9574 64.7163 90.6242 65.0034C90.4923 65.1149 90.4249 65.2947 90.3989 65.5284C90.3755 65.7635 90.405 66.059 90.4481 66.3911C90.4872 66.7213 90.5661 67.1013 90.6398 67.5074C90.7056 67.9104 90.7986 68.3529 90.8555 68.8107C90.8965 69.1318 91.2424 69.2456 91.4782 69.0341C91.8196 68.7292 92.1558 68.4855 92.4977 68.2967C92.8312 68.1045 93.1393 67.9553 93.4192 67.834C93.6953 67.7111 93.9172 67.6041 94.0826 67.4973C94.2493 67.3921 94.3481 67.2802 94.3586 67.1383Z" fill="#26377C"/>
<path d="M90.8243 69.9758C90.7784 69.9626 90.7545 69.9104 90.7707 69.8591C90.7707 69.8591 90.8341 69.6594 90.9449 69.3098C90.9962 69.1337 91.0739 68.925 91.1652 68.6864C91.2552 68.4473 91.3521 68.1759 91.4837 67.8903C91.9783 66.737 92.7726 65.2458 93.8104 63.9268C94.3113 63.2542 94.8845 62.6405 95.4304 62.0761C95.994 61.5291 96.5401 61.0386 97.0381 60.655C97.5273 60.2597 97.9673 59.974 98.2659 59.7614C98.5771 59.5673 98.7548 59.4565 98.7548 59.4565C98.8005 59.4282 98.8574 59.4383 98.8822 59.479C98.907 59.5197 98.8904 59.5757 98.8454 59.6038C98.8454 59.6038 98.6693 59.7136 98.3612 59.9057C98.0657 60.1164 97.6299 60.399 97.1454 60.7908C96.652 61.1706 96.1111 61.6567 95.5526 62.1986C95.0121 62.7578 94.4438 63.3657 93.9476 64.0321C92.9194 65.339 92.1326 66.8161 91.6429 67.9584C91.5127 68.2413 91.4167 68.5101 91.3275 68.7469C91.2371 68.9831 91.1601 69.1897 91.1093 69.3641C90.9995 69.7102 90.9367 69.9078 90.9367 69.9078C90.9205 69.9584 90.8702 69.9889 90.8243 69.9758Z" fill="white"/>
<path d="M91.7392 65.7174C91.4942 65.3961 91.1676 65.3338 90.8964 65.2797C90.6241 65.2258 90.3995 65.1839 90.3215 64.9214C90.2789 64.7912 90.2684 64.6083 90.2752 64.3835C90.2824 64.1585 90.3035 63.8923 90.2991 63.6089C90.3065 63.0373 90.2443 62.3732 89.9703 61.8161C89.8286 61.5415 89.6825 61.3249 89.5174 61.1673C89.3516 61.0099 89.1828 60.901 89.0165 60.8235C88.6887 60.665 88.3447 60.6505 88.0543 60.6064C87.9054 60.587 87.7797 60.4765 87.645 60.3259C87.5106 60.1751 87.3802 59.9728 87.2465 59.7517C87.1088 59.5344 86.9566 59.3075 86.8032 59.0926C86.7278 58.9839 86.6449 58.8853 86.5589 58.7975C86.4739 58.7088 86.3875 58.6289 86.3004 58.5626C86.2044 58.4898 86.0995 58.4392 85.9904 58.4074C85.8778 58.3798 85.7614 58.3699 85.6464 58.3739C85.416 58.3814 85.1905 58.4432 85.0008 58.5179C84.6402 58.6593 84.4027 59.0001 84.3468 59.3817C84.3175 59.5829 84.2999 59.8086 84.3234 60.0166C84.3351 60.1205 84.3573 60.2201 84.3941 60.3102C84.4276 60.4046 84.4753 60.4908 84.5425 60.5636C84.6036 60.6296 84.6767 60.6919 84.7584 60.7519C84.8418 60.8097 84.9294 60.8703 85.0191 60.9326C85.1982 61.057 85.4022 61.1715 85.5829 61.297C85.7595 61.4263 85.9227 61.556 86.0375 61.6867C86.1522 61.8171 86.2049 61.9592 86.1826 62.0927C86.1316 62.3655 86.0555 62.6467 86.0428 62.9605C86.0391 63.1155 86.0571 63.2741 86.1147 63.4363C86.1719 63.5993 86.2522 63.7768 86.3976 63.9581C86.6772 64.3255 87.1177 64.6168 87.512 64.8975C87.7164 65.0336 87.8984 65.1689 88.0461 65.2966C88.1941 65.4237 88.311 65.5415 88.3578 65.6504C88.4449 65.871 88.289 66.0307 88.0969 66.2117C87.904 66.3932 87.6827 66.595 87.6043 66.9048C87.5755 67.0259 87.637 67.1369 87.7658 67.2561C87.8918 67.3757 88.0719 67.5062 88.3 67.6616C88.5323 67.8164 88.7838 68.0014 89.0509 68.2295C89.3268 68.4564 89.5834 68.7304 89.8324 69.0587C90.0047 69.2872 90.3691 69.2744 90.4918 69.0069C90.6669 68.6231 90.8739 68.2583 91.0453 67.9204C91.2259 67.5813 91.4041 67.2643 91.5317 66.9816C91.6635 66.6983 91.7729 66.4426 91.8141 66.2295C91.853 66.0162 91.8368 65.8426 91.7392 65.7174Z" fill="#86D4D4"/>
<path d="M90.2132 70.0042C90.1655 70.0044 90.1254 69.9667 90.1238 69.9201C90.1238 69.9201 90.1172 69.7379 90.1057 69.4192C90.1043 69.2595 90.0863 69.0666 90.0634 68.8455C90.0418 68.6242 90.0224 68.3741 89.9737 68.1048C89.8119 67.0253 89.4527 65.5953 88.8206 64.2767C88.5249 63.6088 88.1465 62.9824 87.7821 62.4043C87.3967 61.8395 87.0133 61.3276 86.6487 60.9194C86.2952 60.5012 85.9608 60.1902 85.7383 59.9615C85.5002 59.7491 85.3641 59.6278 85.3641 59.6278C85.3292 59.5966 85.3264 59.5423 85.3575 59.5062C85.3887 59.4702 85.4428 59.4664 85.4781 59.498C85.4781 59.498 85.6158 59.621 85.857 59.8362C86.0823 60.0678 86.4209 60.383 86.7789 60.8061C87.148 61.2194 87.536 61.7374 87.9261 62.3092C88.2952 62.8942 88.678 63.5283 88.9773 64.2041C89.6168 65.5384 89.9807 66.986 90.1444 68.0791C90.1938 68.3519 90.2135 68.6052 90.2352 68.8293C90.2584 69.0532 90.2767 69.2487 90.2781 69.4105C90.2898 69.7337 90.2964 69.9182 90.2964 69.9182C90.2982 69.9653 90.2608 70.0039 90.2132 70.0042Z" fill="white"/>
<path d="M92.4388 65.1477C92.2944 64.7541 92.0351 64.5639 91.8073 64.3937C91.5804 64.2237 91.3933 64.0726 91.431 63.7549C91.4539 63.5966 91.5439 63.401 91.6631 63.1791C91.7815 62.9568 91.9328 62.7091 92.108 62.4482C92.441 61.922 92.8243 61.3451 93.0362 60.7379C93.1488 60.4353 93.1957 60.1681 93.2228 59.9328C93.2507 59.6979 93.239 59.4888 93.2048 59.2966C93.1301 58.9102 92.9973 58.6032 92.8889 58.2979C92.839 58.147 92.8636 57.9487 92.9561 57.7328C93.0484 57.5167 93.1919 57.2764 93.3498 57.0282C93.5132 56.7823 93.705 56.5355 93.8691 56.2896C93.9516 56.1667 94.0321 56.0466 94.1089 55.9316C94.1836 55.8154 94.249 55.7014 94.3005 55.5899C94.3571 55.4672 94.3897 55.3406 94.4051 55.2132C94.4253 55.0886 94.4272 54.9626 94.4161 54.8383C94.3944 54.5898 94.3225 54.3475 94.2424 54.1416C94.0902 53.7508 93.7471 53.5169 93.3284 53.5597C93.1081 53.582 92.8543 53.6358 92.6105 53.7485C92.4887 53.8047 92.3693 53.8756 92.2585 53.9639C92.1527 54.055 92.0564 54.1641 91.9747 54.2927C91.9007 54.4095 91.8309 54.5409 91.7644 54.6814C91.6968 54.8214 91.635 54.9717 91.5834 55.1305C91.4774 55.4462 91.3739 55.7747 91.2832 56.0876C91.1978 56.403 91.1109 56.6964 91.0079 56.9329C90.9046 57.1694 90.8023 57.356 90.6557 57.4469C90.3716 57.6316 90.0269 57.8021 89.7347 58.1278C89.5855 58.2897 89.4415 58.4873 89.3113 58.739C89.1821 58.9908 89.0865 59.3022 89.0074 59.6799C88.861 60.44 88.9477 61.2469 89.0814 61.9324C89.139 62.2745 89.2188 62.5894 89.2755 62.8611C89.3317 63.1327 89.3612 63.3608 89.3481 63.5355C89.33 63.8851 89.1198 64.0122 88.8657 64.1665C88.6128 64.3209 88.3074 64.5007 88.1412 64.9627C88.0742 65.1435 88.0958 65.3587 88.1786 65.6071C88.2646 65.8558 88.4262 66.138 88.6156 66.4522C88.8006 66.7665 89.0453 67.1124 89.2973 67.4901C89.5401 67.8687 89.8279 68.2769 90.0904 68.7222C90.2754 69.0339 90.636 68.9822 90.7472 68.6436C90.909 68.1549 91.094 67.7287 91.3111 67.3545C91.5188 66.9808 91.7235 66.6623 91.9176 66.3862C92.1073 66.1104 92.2555 65.8778 92.3545 65.676C92.4559 65.4741 92.4936 65.3022 92.4388 65.1477Z" fill="#F3CE87"/>
<path d="M90.6064 69.9469C90.5593 69.9553 90.5136 69.9127 90.5043 69.8513C90.5043 69.8513 90.4673 69.6125 90.4026 69.1947C90.3876 69.09 90.3656 68.9751 90.352 68.8484C90.3387 68.7217 90.3242 68.5847 90.3087 68.4381C90.2778 68.1452 90.238 67.8152 90.224 67.453C90.1326 66.0084 90.1621 64.0623 90.5089 62.1585C90.6586 61.2031 90.907 60.2671 91.1534 59.396C91.4252 58.5319 91.7083 57.7341 91.9982 57.0698C92.2736 56.3989 92.556 55.8641 92.7384 55.4826C92.9422 55.1122 93.0585 54.9005 93.0585 54.9005C93.0883 54.8462 93.1464 54.8213 93.1878 54.8448C93.2292 54.8682 93.2391 54.9309 93.2093 54.9845C93.2093 54.9845 93.0939 55.1946 92.8916 55.5622C92.7108 55.9409 92.4305 56.4713 92.1572 57.1372C91.8694 57.7967 91.5887 58.5884 91.3187 59.4459C91.0744 60.3107 90.8276 61.2396 90.6792 62.1878C90.3347 64.0775 90.3057 66.0089 90.3963 67.4422C90.4101 67.8019 90.4499 68.1293 90.4804 68.4199C90.4956 68.565 90.5101 68.7011 90.5232 68.8268C90.5368 68.9526 90.5588 69.0666 90.5736 69.1706C90.6377 69.5851 90.6745 69.8221 90.6745 69.8221C90.6836 69.8822 90.6532 69.9384 90.6064 69.9469Z" fill="white"/>
</svg>
