<svg width="100" height="98" viewBox="0 0 100 98" fill="none" xmlns="http://www.w3.org/2000/svg">
<path d="M81.1548 32.3076C84.6283 38.3262 85.4784 44.5923 84.3816 51.562C83.2433 58.7955 80.7019 65.0183 75.7888 70.4015C70.4142 76.2906 64.1815 80.2002 56.2103 82.1498C50.1613 83.6293 44.238 83.3036 38.9402 81.6287C31.8643 79.3917 24.779 76.3146 20.5973 68.9442C18.6222 65.463 15.6911 62.4488 14.656 58.4512C13.3208 53.2946 11.5622 48.3248 13.2444 42.6278C14.2137 39.3452 13.5262 35.5595 16.1548 32.6922" stroke="black" stroke-width="4" stroke-linecap="round" stroke-linejoin="round"/>
<path d="M33.8441 14.9995C31.5905 14.2904 29.2875 14.0193 26.9292 13.7686C21.0683 13.1455 16.3856 16.5523 15.2566 23.8855C14.8505 26.5235 15.5578 29.9288 17.8843 32.8439C20.681 36.3484 25.0006 39.7229 23.4827 45.3904C23.2508 46.2566 23.9102 46.7743 24.5836 47.3424C25.9645 48.5073 27.3546 49.7414 28.4144 51.1864C29.7233 52.9712 30.4758 55.1133 28.4309 56.8897C26.4942 58.572 25.5041 60.3486 25.1959 63.0552C24.9556 65.1658 22.7526 66.8224 20.7672 68.0765" stroke="black" stroke-width="4" stroke-linecap="round" stroke-linejoin="round"/>
<path d="M81.1512 31.9233C82.1879 28.3584 84.8453 25.5675 85.7977 21.9315C87.1496 16.77 83.0356 9.94883 77.7065 8.77015C72.0729 7.52414 67.5713 9.35446 64.3774 13.5748C62.7708 15.6977 61.8117 18.8707 63.0714 21.9245C65.7326 28.3759 69.6317 33.9792 74.6306 38.999C76.7211 36.5883 78.7438 34.2558 80.7665 31.9233" stroke="black" stroke-width="4" stroke-linecap="round" stroke-linejoin="round"/>
<path d="M45 12.3076C45 13.9743 45 15.641 45 17.3076C45 23.2014 47.7321 26.0577 53.4615 26.1538C57.9455 26.229 62.8056 31.1714 62.6407 35.7673C62.561 37.9891 63.762 40.6211 61.1538 42.3076" stroke="black" stroke-width="4" stroke-linecap="round" stroke-linejoin="round"/>
<path d="M39.2326 55C37.1642 55.1207 36.1189 56.7916 35.0568 58.1208C33.1942 60.4518 35.0601 64.4364 38.0812 64.5468C40.0566 64.619 41.6864 64.9412 42.2801 66.9318C43.792 72.0009 46.2791 76.9475 44.6172 82.5" stroke="black" stroke-width="4" stroke-linecap="round" stroke-linejoin="round"/>
<path d="M34.4267 13.8457C33.6256 15.3111 34.6173 16.1951 35.3498 17.332C39.0045 23.0049 39.8786 24.7508 36.1261 31.1349C34.2552 34.3179 31.9285 37.2323 30.0453 40.4089C28.6491 42.7641 26.7248 43.3948 24.2344 43.0765" stroke="black" stroke-width="4" stroke-linecap="round" stroke-linejoin="round"/>
<path d="M72.886 72.3078C72.4366 67.3206 70.1483 63.3904 66.1675 60.3686C64.5516 59.1421 65.5302 57.3091 65.4289 55.7665C65.2977 53.7683 65.1228 52.1394 62.7123 51.4714C60.9684 50.9881 61.1657 49.0639 61.2099 47.6942C61.2971 44.9879 61.0473 42.8246 58.1447 41.4031C56.995 40.8401 55.9191 39.2916 55.3437 37.7078C54.4322 35.1989 52.3822 35.2631 50.4028 36.1898C48.2772 37.1849 46.2198 38.3627 44.2443 39.6344C38.6685 43.2235 37.0595 49.2656 40.0014 55.1924" stroke="black" stroke-width="4" stroke-linecap="round" stroke-linejoin="round"/>
<path d="M53.8445 46.5385C53.5638 44.1004 51.3956 44.4203 49.9923 44.3471C48.5108 44.2699 46.4429 44.3058 46.5094 46.9238C46.5641 49.0812 48.0717 49.4838 49.6164 49.5647C51.276 49.6517 52.9513 49.588 53.4012 51.552C53.6138 52.4803 53.8047 53.5558 52.3506 54.3159C50.623 55.219 49.2425 55.9358 47.6792 54.2414C47.3745 53.9113 46.9214 53.718 46.5368 53.4616" stroke="black" stroke-width="4" stroke-linecap="round" stroke-linejoin="round"/>
<path d="M63.0769 14.0382C58.3138 11.1294 53.0386 10.8256 47.6944 11.1854C43.9521 11.4373 40.1624 11.5346 36.5474 12.7195C35.9705 12.9086 35.5128 13.4613 35 13.8459" stroke="black" stroke-width="4" stroke-linecap="round" stroke-linejoin="round"/>
<path d="M52.6901 67.6924C53.7351 70.568 54.0601 73.1277 51.2058 75.4511C49.0087 77.2396 50.0718 80.0779 49.9978 82.5001" stroke="black" stroke-width="4" stroke-linecap="round" stroke-linejoin="round"/>
<path d="M61.9231 51.9229C59.6883 55.996 56.4551 59.4842 55.3065 64.2116C54.7116 66.6598 52.2092 67.3746 49.7872 68.0161C45.4732 64.9438 43.65 59.6143 40 55.769" stroke="black" stroke-width="4" stroke-linecap="round" stroke-linejoin="round"/>
<path d="M29.9986 21.1538C26.5273 18.2696 25.7926 18.4242 22.5469 22.8904C23.3168 23.7134 23.9104 24.7179 25.3846 24.6424C26.0171 24.61 26.7543 24.8699 27.3113 24.8968C29.4968 25.0024 30.7623 25.9276 30.3167 28.063C29.8857 30.1289 27.8686 30.7087 26.1854 30.2607C25.0332 29.954 22.0292 30.3705 23.4601 27.3076" stroke="black" stroke-width="4" stroke-linecap="round" stroke-linejoin="round"/>
<path d="M78.8462 15.7688C77.0784 15.9439 75.8457 14.5137 74.159 14.2178C72.5682 14.6836 71.6833 16.0119 70.6354 17.2202C71.5642 18.8883 72.6518 19.8832 74.6184 19.639C76.4135 19.4161 77.552 20.6991 78.3675 21.9824C78.6271 22.3909 78.2119 23.839 77.2942 24.1956C75.9598 24.7141 74.9151 26.4422 72.9675 24.7401C72.1668 24.0403 70.521 24.1404 70 22.6919" stroke="black" stroke-width="4" stroke-linecap="round" stroke-linejoin="round"/>
</svg>
