<svg width="44" height="44" viewBox="0 0 44 44" fill="none" xmlns="http://www.w3.org/2000/svg">
<g clip-path="url(#clip0_24_318)">
<path d="M22 0.6875C10.2266 0.6875 0.6875 10.2266 0.6875 22C0.6875 33.7734 10.2266 43.3125 22 43.3125C33.7734 43.3125 43.3125 33.7734 43.3125 22C43.3125 10.2266 33.7734 0.6875 22 0.6875ZM31.9688 25.7812H22V31.8742C22 32.7938 20.8828 33.2578 20.2383 32.6047L10.4156 22.7305C10.0117 22.3266 10.0117 21.682 10.4156 21.2781L20.2383 11.3953C20.8914 10.7422 22 11.2063 22 12.1258V18.2188H31.9688C32.5359 18.2188 33 18.6828 33 19.25V24.75C33 25.3172 32.5359 25.7812 31.9688 25.7812Z" fill="white"/>
</g>
<defs>
<clipPath id="clip0_24_318">
<rect width="44" height="44" fill="white" transform="matrix(-1 0 0 1 44 0)"/>
</clipPath>
</defs>
</svg>
