<svg width="25" height="25" viewBox="0 0 25 25" fill="none" xmlns="http://www.w3.org/2000/svg">
<g clip-path="url(#clip0_40_36)">
<path d="M21.1115 6.05773C17.7726 3.85157 13.3346 3.3494 9.648 4.01476C5.52344 0.036462 0.901476 1.86632 0 2.39236C0 2.39236 3.17187 5.08768 2.65668 7.44835C-1.09852 11.2765 0.686632 15.5386 2.65668 17.5512C3.17187 19.9119 0 22.6072 0 22.6072C0.892795 23.135 5.50217 24.9592 9.648 21.0013C13.3264 21.6623 17.7643 21.1645 21.1115 18.9544C26.2878 15.6497 26.3047 9.37934 21.1115 6.0573V6.05773ZM12.7682 18.9332C11.4774 18.9369 10.1916 18.771 8.94401 18.4397L8.08594 19.2682C7.60931 19.7305 7.07563 20.13 6.49783 20.457C5.79681 20.81 5.03526 21.0269 4.25347 21.0964C4.29687 21.0191 4.33507 20.9418 4.3737 20.8689C5.2322 19.2775 5.46369 17.8497 5.06814 16.5855C3.65625 15.474 2.8112 14.0534 2.8112 12.5C2.8112 8.94098 7.2704 6.05773 12.7682 6.05773C18.2661 6.05773 22.7253 8.94098 22.7253 12.5C22.7253 16.059 18.2661 18.9332 12.7682 18.9332ZM7.99132 14.0321C7.59713 14.0377 7.21681 13.8868 6.9337 13.6124C6.65058 13.3381 6.48776 12.9627 6.4809 12.5686C6.45052 10.5985 9.42491 10.5556 9.45486 12.5213V12.5434C9.45669 12.7373 9.42028 12.9297 9.3477 13.1096C9.27512 13.2894 9.16779 13.4532 9.03187 13.5916C8.89594 13.7299 8.73408 13.8401 8.55553 13.9159C8.37698 13.9916 8.18526 14.0314 7.99132 14.033V14.0321ZM11.1931 12.5686C11.1589 10.5985 14.1332 10.5512 14.1675 12.5169V12.5434C14.1845 14.5 11.2274 14.5213 11.1931 12.5686ZM17.4162 14.0321C17.022 14.0377 16.6416 13.8868 16.3585 13.6125C16.0753 13.3382 15.9123 12.9628 15.9054 12.5686C15.8754 10.5985 18.8498 10.5556 18.8798 12.5213V12.5434C18.8822 12.7375 18.8463 12.9302 18.7739 13.1103C18.7015 13.2905 18.5943 13.4545 18.4582 13.593C18.3222 13.7314 18.16 13.8416 17.9812 13.9171C17.8024 13.9927 17.6104 14.032 17.4162 14.033V14.0321Z" fill="#818181"/>
</g>
<defs>
<clipPath id="clip0_40_36">
<rect width="25" height="25" fill="white"/>
</clipPath>
</defs>
</svg>
