<svg width="25" height="25" viewBox="0 0 25 25" fill="none" xmlns="http://www.w3.org/2000/svg">
<g clip-path="url(#clip0_37_17)">
<path d="M24.3101 8.48435L13.414 5.13669C12.8203 4.95427 12.1797 4.95427 11.5863 5.13669L0.689832 8.48435C-0.2297 8.76677 -0.2297 9.98279 0.689832 10.2652L2.58944 10.8488C2.17264 11.364 1.91639 11.9926 1.891 12.6808C1.51483 12.8965 1.24999 13.2855 1.24999 13.75C1.24999 14.1711 1.47186 14.5254 1.79139 14.7519L0.794128 19.2394C0.70741 19.6297 1.00428 20 1.40389 20H3.59569C3.99569 20 4.29257 19.6297 4.20585 19.2394L3.20858 14.7519C3.52811 14.5254 3.74999 14.1711 3.74999 13.75C3.74999 13.298 3.49725 12.9199 3.13827 12.7004C3.16796 12.1136 3.46796 11.5949 3.94647 11.266L11.5859 13.6133C11.9398 13.7219 12.6187 13.8574 13.4137 13.6133L24.3101 10.2656C25.2301 9.98279 25.2301 8.76716 24.3101 8.48435ZM13.7808 14.8082C12.6664 15.1504 11.7168 14.9613 11.2187 14.8082L5.55389 13.0679L4.99999 17.5C4.99999 18.8808 8.3578 20 12.5 20C16.6422 20 20 18.8808 20 17.5L19.4461 13.0676L13.7808 14.8082Z" fill="#FFF9F9"/>
</g>
<defs>
<clipPath id="clip0_37_17">
<rect width="25" height="25" fill="white"/>
</clipPath>
</defs>
</svg>
