<svg width="25" height="45" viewBox="0 0 25 45" fill="none" xmlns="http://www.w3.org/2000/svg">
<path d="M3.12541 23.3433L21.8657 16.3546V30.2534C21.9267 30.7046 21.6877 31.1445 21.1345 31.4641L8.46195 38.8033C7.36415 39.437 5.44654 39.3576 4.17905 38.6257C3.50853 38.2386 3.15433 37.7465 3.13169 37.275L3.12541 37.2773V23.3433Z" fill="#E1C7F4"/>
<path d="M8.46137 24.8396L21.1339 17.5002C22.2317 16.8665 22.094 15.7593 20.8263 15.0276C19.5588 14.2956 17.6412 14.2163 16.5434 14.85L3.8709 22.1891C2.7731 22.8229 2.91075 23.9301 4.17847 24.6618C5.44596 25.3937 7.36357 25.4733 8.46137 24.8396Z" fill="#9236C7"/>
<path d="M11.2461 6.32113C14.7854 4.28224 19.2051 6.83673 19.2051 10.9212C19.2051 10.9212 19.2051 16.6871 19.2051 16.6913C19.2051 17.2518 18.4249 17.7062 17.4623 17.7062C16.4999 17.7062 15.7198 17.2518 15.7198 16.6913C15.7198 16.6846 15.7214 16.6781 15.7216 16.6714H15.703V11.6642C15.703 9.93441 13.8322 8.85186 12.3325 9.7136C10.5911 10.7143 9.51749 12.5694 9.51749 14.578V22.2552H9.49888C9.47983 22.806 8.70843 23.2494 7.75792 23.2494C6.80136 23.2494 6.02504 22.8004 6.01584 22.2446V15.3714C6.01562 11.6364 8.00968 8.18561 11.2461 6.32113Z" fill="#E7CDFD"/>
<path d="M11.3488 8.9794C11.4553 8.91798 11.5638 8.86462 11.6738 8.81665C9.99923 9.94247 8.97496 11.8453 8.97496 13.8792V22.8882C8.78845 23.0003 8.55575 23.0866 8.29458 23.1375V14.2639C8.29458 12.0896 9.46479 10.0646 11.3488 8.9794Z" fill="#E0DCFF"/>
<path d="M14.8887 8.05554C16.4613 8.05554 17.7499 9.33515 17.7499 10.9077V17.545C17.7631 17.5972 16.7742 17.5169 16.7512 17.425V10.788C16.7512 9.50619 15.8921 8.41938 14.7262 8.06115C14.7802 8.05778 14.8344 8.05554 14.8887 8.05554Z" fill="#E7CDFD"/>
<path d="M13.1759 6.82303C12.2713 6.82303 11.4013 7.0434 10.5846 7.47315C10.8904 7.24516 11.2103 7.03309 11.545 6.8403C12.2783 6.41795 13.0665 6.20386 13.8879 6.20386C16.1568 6.20386 18.6055 8.00736 18.6055 10.9212V10.9342C17.904 8.35977 15.4634 6.82303 13.1759 6.82303Z" fill="#E0DCFF"/>
<path d="M7.36035 16.4237V23.1609C7.01669 23.1131 6.71405 23.0055 6.48875 22.858C6.45288 22.7822 6.42979 22.7035 6.42845 22.6217V15.7493C6.42845 12.7779 7.36035 13.3953 7.36035 16.4237Z" fill="#E7CDFD"/>
<path d="M12.369 27.2993C12.369 26.2103 13.1384 24.8834 14.0873 24.3355C15.0363 23.7876 15.8057 24.2261 15.8057 25.3151C15.8057 26.0491 15.4553 26.8904 14.937 27.5293V30.9788L13.2379 31.9598V28.5103C12.7194 28.4702 12.369 28.0333 12.369 27.2993Z" fill="#9139C5"/>
<path d="M14.6404 30.8517V27.4023C15.1589 26.7637 15.5091 25.9223 15.5091 25.1881C15.5091 24.6759 15.3374 24.31 15.0585 24.1206C15.5095 24.2157 15.8057 24.64 15.8057 25.3152C15.8057 26.0492 15.4553 26.8905 14.937 27.5294V30.9789L13.2379 31.9599V31.6615L14.6404 30.8517Z" fill="#9236C7"/>
</svg>
