<svg width="33" height="33" viewBox="0 0 33 33" fill="none" xmlns="http://www.w3.org/2000/svg">
<g clip-path="url(#clip0_40_50)" filter="url(#filter0_d_40_50)">
<path d="M28.9766 13.2812H16.8235L8.22971 21.875C9.98402 23.4227 12.1375 24.4471 14.4451 24.8315C16.7527 25.216 19.1219 24.9452 21.2833 24.0498C23.4446 23.1545 25.3113 21.6706 26.6711 19.7669C28.0308 17.8632 28.8307 15.6161 28.9766 13.2812ZM7.12503 20.7687C5.57731 19.0144 4.55297 16.861 4.1685 14.5534C3.78403 12.2457 4.05486 9.87653 4.9502 7.71519C5.84553 5.55385 7.32943 3.68715 9.23312 2.32738C11.1368 0.967619 13.3839 0.169375 15.7188 0.0234375V12.1766L7.12503 20.7703V20.7687ZM17.2813 0.0234375V11.7188H28.9766C28.7861 8.67935 27.4928 5.81399 25.3394 3.66059C23.186 1.5072 20.3207 0.213878 17.2813 0.0234375Z" fill="#686868"/>
</g>
<defs>
<filter id="filter0_d_40_50" x="0" y="0" width="33" height="33" filterUnits="userSpaceOnUse" color-interpolation-filters="sRGB">
<feFlood flood-opacity="0" result="BackgroundImageFix"/>
<feColorMatrix in="SourceAlpha" type="matrix" values="0 0 0 0 0 0 0 0 0 0 0 0 0 0 0 0 0 0 127 0" result="hardAlpha"/>
<feOffset dy="4"/>
<feGaussianBlur stdDeviation="2"/>
<feComposite in2="hardAlpha" operator="out"/>
<feColorMatrix type="matrix" values="0 0 0 0 0 0 0 0 0 0 0 0 0 0 0 0 0 0 0.25 0"/>
<feBlend mode="normal" in2="BackgroundImageFix" result="effect1_dropShadow_40_50"/>
<feBlend mode="normal" in="SourceGraphic" in2="effect1_dropShadow_40_50" result="shape"/>
</filter>
<clipPath id="clip0_40_50">
<rect width="25" height="25" fill="white" transform="translate(4)"/>
</clipPath>
</defs>
</svg>
