<svg width="25" height="24" viewBox="0 0 25 24" fill="none" xmlns="http://www.w3.org/2000/svg">
<path d="M24.9979 1.94425C24.9959 1.9789 24.9939 2.01354 24.9878 2.04819C24.8981 2.84097 24.2378 3.45033 23.4491 3.49313C22.4321 3.54408 21.4172 3.58485 20.4002 3.61745C20.2942 4.9177 20.2188 6.22202 20.1801 7.53041C20.1169 9.3585 20.1312 11.1927 20.1842 13.0269C20.229 14.8631 20.3411 16.6994 20.4878 18.5336L20.5021 18.7068C20.5021 18.719 20.5041 18.7415 20.5041 18.7435L20.5082 18.7557L20.5123 18.7802C20.5123 18.8148 20.5286 18.8454 20.5306 18.878C20.551 18.9391 20.5796 18.9962 20.6122 19.0533C20.6835 19.1593 20.7772 19.253 20.8914 19.3141C20.9444 19.3508 21.0055 19.3671 21.0666 19.3875C21.0891 19.3957 21.1115 19.4018 21.1339 19.4059C21.1441 19.4079 21.1563 19.4099 21.1665 19.412L21.1787 19.416L21.2236 19.4181L21.3112 19.4222L21.4865 19.4303C21.9532 19.4548 22.4219 19.4874 22.8886 19.5404C23.2718 19.5832 23.6101 19.7544 23.8648 20.0091V20.0111C24.2072 20.3494 24.3967 20.8365 24.3376 21.3521C24.252 22.1286 23.6345 22.7176 22.8886 22.8012C22.4219 22.8521 21.9532 22.8847 21.4865 22.9112L21.3112 22.9194L21.2236 22.9234L21.1787 22.9255H21.1033C20.9036 22.9234 20.7039 22.9153 20.5041 22.8847C20.1067 22.8277 19.7134 22.7156 19.3466 22.5444C18.9553 22.363 18.5945 22.1205 18.2786 21.827C18.0015 21.5722 17.759 21.2808 17.5592 20.9608C17.3493 20.6164 17.1822 20.2455 17.0722 19.8583C17.0232 19.6626 16.9743 19.467 16.9519 19.2673L16.9356 19.1185L16.9254 19.0431L16.9213 18.9942L16.9091 18.8148C16.7685 16.9195 16.6686 15.018 16.6319 13.1105C16.5993 11.2029 16.634 9.29125 16.7359 7.38164C16.7828 6.42581 16.8643 5.46999 16.956 4.51621C16.9825 4.24108 17.0151 3.96595 17.0457 3.69082C16.4444 3.70101 15.8412 3.70712 15.2379 3.71527L12.5009 3.72343C11.1762 3.72139 9.85151 3.71323 8.52681 3.69489C8.537 3.92315 8.54719 4.14937 8.55534 4.37558C8.58387 5.23358 8.58999 6.09362 8.5798 6.95162C8.55534 8.6717 8.4514 10.3918 8.2741 12.12C8.09883 13.8482 7.84612 15.5826 7.40387 17.3291C7.18173 18.2034 6.92901 19.0798 6.5581 19.9582C6.18718 20.8345 5.74086 21.7292 5.02144 22.577C4.43654 23.2618 3.40938 23.3453 2.72258 22.7624C2.62679 22.6809 2.5412 22.5913 2.46783 22.4934C2.05004 21.9309 2.03577 21.1463 2.45968 20.5634L2.50451 20.5023C2.84486 20.0376 3.15463 19.4059 3.40123 18.7211C3.64987 18.0343 3.85163 17.2884 4.02079 16.5262C4.18994 15.7619 4.32649 14.9773 4.4345 14.1825C4.5527 13.3876 4.64849 12.5826 4.72186 11.7715C4.87471 10.1513 4.944 8.51069 5.00718 6.86602L5.08055 4.39393L5.09685 3.6256C3.91481 3.59299 2.73481 3.5502 1.55276 3.49313C0.912831 3.46256 0.376837 3.06515 0.138391 2.51489C0.038529 2.29275 -0.0103835 2.04412 0.00184451 1.78325C0.0426046 0.939519 0.727373 0.275127 1.55276 0.232329C5.20283 0.0550228 8.85085 0.01019 12.5009 0L15.2379 0.0101875C16.151 0.0224155 17.062 0.026492 17.975 0.0489101C19.799 0.0774421 21.625 0.140619 23.4491 0.232329C24.3499 0.277165 25.0428 1.04345 24.9979 1.94425Z" fill="#7A3A98"/>
<path d="M24.3373 21.3521C24.2517 22.1286 23.6342 22.7176 22.8883 22.8011C22.4216 22.8521 21.9528 22.8847 21.4861 22.9112L21.3109 22.9193L21.2232 22.9234L21.1784 22.9255H21.103C20.9033 22.9234 20.7035 22.9153 20.5038 22.8847C20.1064 22.8276 19.7131 22.7155 19.3462 22.5443C18.9549 22.363 18.5942 22.1204 18.2783 21.827C19.7273 22.5077 21.4719 22.5586 22.9474 21.9268C23.2877 21.7821 23.6301 21.5865 23.8196 21.2686C23.997 20.969 24.0153 20.5981 23.9379 20.2597C23.9175 20.1741 23.893 20.0926 23.8645 20.0111C24.2069 20.3494 24.3964 20.8365 24.3373 21.3521Z" fill="#4D325D"/>
<path d="M24.988 2.04822C24.8984 2.841 24.238 3.45036 23.4493 3.49316C22.4324 3.54411 21.4175 3.58487 20.4005 3.61748C20.2945 4.91773 20.2191 6.22204 20.1804 7.53044C20.1172 9.35853 20.1315 11.1927 20.1845 13.0269C20.2293 14.8632 20.3414 16.6994 20.4881 18.5336L20.5024 18.7068C20.5024 18.7191 20.5044 18.7415 20.5044 18.7435L20.5085 18.7558L20.5126 18.7802C20.5126 18.8149 20.5289 18.8454 20.5309 18.878C20.5513 18.9392 20.5798 18.9962 20.6124 19.0533C20.6838 19.1593 20.7775 19.253 20.8916 19.3142C20.9446 19.3509 21.0058 19.3672 21.0669 19.3875C21.0893 19.3957 21.1117 19.4018 21.1342 19.4059C20.7571 19.4079 20.3985 19.3325 20.1233 19.0839C19.8074 18.7965 19.6953 18.3522 19.6097 17.9344C18.658 13.2654 19.0717 8.39456 19.4059 3.6399C18.5958 3.29874 17.8118 3.3556 17.0459 3.69085C16.4447 3.70104 15.8415 3.70715 15.2382 3.7153L12.5012 3.72346C11.1765 3.72142 9.85179 3.71326 8.52709 3.69492C8.53728 3.92318 8.54747 4.14939 8.55562 4.37561C8.58415 5.23361 8.59027 6.09365 8.58008 6.95165C8.55562 8.67172 8.45168 10.3918 8.27438 12.12C8.09911 13.8482 7.8464 15.5826 7.40415 17.3292C7.18201 18.2035 6.92929 19.0798 6.55838 19.9582C6.18746 20.8345 5.74114 21.7292 5.02172 22.577C4.43682 23.2618 3.40967 23.3453 2.72286 22.7625C2.62707 22.6809 2.54148 22.5913 2.46811 22.4935C2.61688 22.6055 2.79011 22.681 2.97761 22.7034C3.37094 22.7523 3.76428 22.5668 4.05164 22.2937C4.33899 22.0206 4.53668 21.6681 4.71806 21.3135C6.08149 18.6477 6.76014 15.6743 7.05157 12.6927C7.34301 9.7376 7.27372 6.6378 7.1922 3.66843C6.51823 3.3234 5.81879 3.3238 5.09713 3.62563C3.91509 3.59302 2.73509 3.55022 1.55304 3.49316C0.913112 3.46259 0.377118 3.06518 0.138672 2.51492C0.244648 2.60663 0.36489 2.68 0.491246 2.73095C0.849934 2.87361 1.24531 2.87768 1.63049 2.87972C8.52097 2.89806 15.4115 2.91844 22.3019 2.93678C22.9113 2.93882 23.537 2.93679 24.1056 2.71872C24.452 2.58421 24.7761 2.3478 24.988 2.04822Z" fill="#4D325D"/>
<path d="M13.9565 0.336875C14.124 0.336059 14.296 0.33565 14.4526 0.377836C14.6091 0.420023 14.7489 0.514591 14.7644 0.632387C14.7817 0.76445 14.6372 0.885507 14.465 0.938903C14.293 0.992298 14.0986 0.992905 13.9107 0.992701C12.6455 0.991071 11.3803 0.989444 10.1153 0.988018C9.40096 0.987203 8.68644 0.98618 7.97253 0.968246C7.56921 0.958056 7.16527 0.95969 6.76236 0.939717C6.58281 0.93075 5.56972 0.944403 5.71666 0.69169C5.76211 0.613635 5.90518 0.553923 6.01563 0.532932C6.65027 0.412282 7.28694 0.411875 7.93808 0.401277C9.23486 0.38049 10.5318 0.363978 11.829 0.352361C12.5385 0.345636 13.2475 0.340543 13.9565 0.336875Z" fill="white"/>
<path d="M3.85319 0.977397C3.69116 0.97006 3.51692 0.931339 3.54871 0.773802C3.56522 0.692893 3.65835 0.656208 3.73885 0.636643C4.07961 0.553493 4.43585 0.532094 4.78516 0.573466C4.88951 0.585694 5.0071 0.613003 5.05866 0.704305C5.14446 0.856136 5.00506 0.958849 4.8675 0.958645C4.60276 0.958441 4.33823 0.97332 4.07329 0.975562C4.02845 0.975766 3.94265 0.981473 3.85319 0.977397Z" fill="white"/>
<path d="M5.88823 7.98873C5.92736 8.08553 5.92471 8.19335 5.92145 8.29749C5.87233 9.85758 5.81975 11.4397 5.361 12.9319C5.33124 13.0289 5.27703 13.1437 5.17554 13.1471C5.03471 13.1522 4.99762 12.9551 5.01006 12.8149C5.10136 11.777 5.19286 10.739 5.28417 9.70106C5.32574 9.22967 5.37893 8.7593 5.37995 8.2871C5.38056 8.02827 5.70461 7.53527 5.88823 7.98873Z" fill="white"/>
<path d="M17.3354 11.2086C17.4412 11.2178 17.526 11.3081 17.5612 11.4084C17.5967 11.5086 17.5926 11.6177 17.5881 11.7238C17.5231 13.2658 17.4581 14.8077 17.3931 16.3497C17.3894 16.4353 17.3837 16.527 17.3309 16.5945C17.2781 16.6619 17.1599 16.6833 17.1106 16.6132C17.022 15.592 16.9755 14.5671 16.9708 13.5419C16.9694 13.2371 16.8074 11.163 17.3354 11.2086Z" fill="white"/>
</svg>
