<svg width="25" height="25" viewBox="0 0 25 25" fill="none" xmlns="http://www.w3.org/2000/svg">
<path d="M1.5625 3.125C1.5625 2.7106 1.72712 2.31317 2.02015 2.02015C2.31317 1.72712 2.7106 1.5625 3.125 1.5625H6.25C6.6644 1.5625 7.06183 1.72712 7.35485 2.02015C7.64788 2.31317 7.8125 2.7106 7.8125 3.125V6.25C7.8125 6.6644 7.64788 7.06183 7.35485 7.35485C7.06183 7.64788 6.6644 7.8125 6.25 7.8125H3.125C2.7106 7.8125 2.31317 7.64788 2.02015 7.35485C1.72712 7.06183 1.5625 6.6644 1.5625 6.25V3.125ZM9.375 3.125C9.375 2.7106 9.53962 2.31317 9.83265 2.02015C10.1257 1.72712 10.5231 1.5625 10.9375 1.5625H14.0625C14.4769 1.5625 14.8743 1.72712 15.1674 2.02015C15.4604 2.31317 15.625 2.7106 15.625 3.125V6.25C15.625 6.6644 15.4604 7.06183 15.1674 7.35485C14.8743 7.64788 14.4769 7.8125 14.0625 7.8125H10.9375C10.5231 7.8125 10.1257 7.64788 9.83265 7.35485C9.53962 7.06183 9.375 6.6644 9.375 6.25V3.125ZM17.1875 3.125C17.1875 2.7106 17.3521 2.31317 17.6451 2.02015C17.9382 1.72712 18.3356 1.5625 18.75 1.5625H21.875C22.2894 1.5625 22.6868 1.72712 22.9799 2.02015C23.2729 2.31317 23.4375 2.7106 23.4375 3.125V6.25C23.4375 6.6644 23.2729 7.06183 22.9799 7.35485C22.6868 7.64788 22.2894 7.8125 21.875 7.8125H18.75C18.3356 7.8125 17.9382 7.64788 17.6451 7.35485C17.3521 7.06183 17.1875 6.6644 17.1875 6.25V3.125ZM1.5625 10.9375C1.5625 10.5231 1.72712 10.1257 2.02015 9.83265C2.31317 9.53962 2.7106 9.375 3.125 9.375H6.25C6.6644 9.375 7.06183 9.53962 7.35485 9.83265C7.64788 10.1257 7.8125 10.5231 7.8125 10.9375V14.0625C7.8125 14.4769 7.64788 14.8743 7.35485 15.1674C7.06183 15.4604 6.6644 15.625 6.25 15.625H3.125C2.7106 15.625 2.31317 15.4604 2.02015 15.1674C1.72712 14.8743 1.5625 14.4769 1.5625 14.0625V10.9375ZM9.375 10.9375C9.375 10.5231 9.53962 10.1257 9.83265 9.83265C10.1257 9.53962 10.5231 9.375 10.9375 9.375H14.0625C14.4769 9.375 14.8743 9.53962 15.1674 9.83265C15.4604 10.1257 15.625 10.5231 15.625 10.9375V14.0625C15.625 14.4769 15.4604 14.8743 15.1674 15.1674C14.8743 15.4604 14.4769 15.625 14.0625 15.625H10.9375C10.5231 15.625 10.1257 15.4604 9.83265 15.1674C9.53962 14.8743 9.375 14.4769 9.375 14.0625V10.9375ZM17.1875 10.9375C17.1875 10.5231 17.3521 10.1257 17.6451 9.83265C17.9382 9.53962 18.3356 9.375 18.75 9.375H21.875C22.2894 9.375 22.6868 9.53962 22.9799 9.83265C23.2729 10.1257 23.4375 10.5231 23.4375 10.9375V14.0625C23.4375 14.4769 23.2729 14.8743 22.9799 15.1674C22.6868 15.4604 22.2894 15.625 21.875 15.625H18.75C18.3356 15.625 17.9382 15.4604 17.6451 15.1674C17.3521 14.8743 17.1875 14.4769 17.1875 14.0625V10.9375ZM1.5625 18.75C1.5625 18.3356 1.72712 17.9382 2.02015 17.6451C2.31317 17.3521 2.7106 17.1875 3.125 17.1875H6.25C6.6644 17.1875 7.06183 17.3521 7.35485 17.6451C7.64788 17.9382 7.8125 18.3356 7.8125 18.75V21.875C7.8125 22.2894 7.64788 22.6868 7.35485 22.9799C7.06183 23.2729 6.6644 23.4375 6.25 23.4375H3.125C2.7106 23.4375 2.31317 23.2729 2.02015 22.9799C1.72712 22.6868 1.5625 22.2894 1.5625 21.875V18.75ZM9.375 18.75C9.375 18.3356 9.53962 17.9382 9.83265 17.6451C10.1257 17.3521 10.5231 17.1875 10.9375 17.1875H14.0625C14.4769 17.1875 14.8743 17.3521 15.1674 17.6451C15.4604 17.9382 15.625 18.3356 15.625 18.75V21.875C15.625 22.2894 15.4604 22.6868 15.1674 22.9799C14.8743 23.2729 14.4769 23.4375 14.0625 23.4375H10.9375C10.5231 23.4375 10.1257 23.2729 9.83265 22.9799C9.53962 22.6868 9.375 22.2894 9.375 21.875V18.75ZM17.1875 18.75C17.1875 18.3356 17.3521 17.9382 17.6451 17.6451C17.9382 17.3521 18.3356 17.1875 18.75 17.1875H21.875C22.2894 17.1875 22.6868 17.3521 22.9799 17.6451C23.2729 17.9382 23.4375 18.3356 23.4375 18.75V21.875C23.4375 22.2894 23.2729 22.6868 22.9799 22.9799C22.6868 23.2729 22.2894 23.4375 21.875 23.4375H18.75C18.3356 23.4375 17.9382 23.2729 17.6451 22.9799C17.3521 22.6868 17.1875 22.2894 17.1875 21.875V18.75Z" fill="#686868"/>
</svg>
