<svg width="25" height="36" viewBox="0 0 25 36" fill="none" xmlns="http://www.w3.org/2000/svg">
<path d="M17.7321 32.167C17.7321 33.436 15.2225 34.4648 12.1268 34.4648C9.03107 34.4648 6.52148 33.436 6.52148 32.167C6.52148 30.898 9.03107 29.8693 12.1268 29.8693C15.2225 29.8693 17.7321 30.898 17.7321 32.167Z" fill="#1F1A38"/>
<path d="M17.7321 32.167C17.7321 33.436 15.2225 34.4648 12.1268 34.4648C9.03107 34.4648 6.52148 33.436 6.52148 32.167C6.52148 30.898 9.03107 29.8693 12.1268 29.8693C15.2225 29.8693 17.7321 30.898 17.7321 32.167Z" fill="#1F1A38"/>
<path opacity="0.9" d="M12.1265 34.6527C15.4755 34.6527 18.1903 33.5398 18.1903 32.167C18.1903 30.7942 15.4755 29.6813 12.1265 29.6813C8.7776 29.6813 6.06274 30.7942 6.06274 32.167C6.06274 33.5398 8.7776 34.6527 12.1265 34.6527Z" fill="white"/>
<path d="M6.4177 30.1297C6.45237 28.7851 7.55414 27.7073 8.90736 27.7073C10.2584 27.7073 11.3623 28.7852 11.397 30.1297C11.3992 30.1536 11.3992 30.1752 11.3992 30.199C11.3992 30.2229 11.3992 30.2446 11.397 30.2685C11.3689 30.6133 11.1259 30.9516 10.6684 31.2162C9.69675 31.7779 8.11796 31.7779 7.14418 31.2162C6.6888 30.9516 6.44585 30.6132 6.4177 30.2685C6.41553 30.2446 6.41553 30.2229 6.41553 30.199C6.41553 30.1752 6.41553 30.1535 6.4177 30.1297Z" fill="#1F1A38"/>
<path opacity="0.8" d="M6.4177 30.1297C6.45237 28.7851 7.55414 27.7073 8.90736 27.7073C10.2584 27.7073 11.3623 28.7852 11.397 30.1297C11.3992 30.1536 11.3992 30.1752 11.3992 30.199C11.3992 30.2229 11.3992 30.2446 11.397 30.2685C11.3689 30.6133 11.1259 30.9516 10.6684 31.2162C9.69675 31.7779 8.11796 31.7779 7.14418 31.2162C6.6888 30.9516 6.44585 30.6132 6.4177 30.2685C6.41553 30.2446 6.41553 30.2229 6.41553 30.199C6.41553 30.1752 6.41553 30.1535 6.4177 30.1297Z" fill="white"/>
<path opacity="0.3" d="M7.82666 27.956C8.15387 27.7982 8.51961 27.7073 8.90737 27.7073C10.2584 27.7073 11.3624 28.7852 11.397 30.1297C11.3992 30.1536 11.3992 30.1752 11.3992 30.199C11.3992 30.2229 11.3992 30.2446 11.397 30.2685C11.3689 30.6133 11.1259 30.9516 10.6684 31.2162C10.3133 31.4214 9.8768 31.5508 9.41877 31.6061C10.0649 31.4945 10.483 30.7732 10.2844 29.9767C10.0538 29.0528 9.11962 27.7172 7.82666 27.956Z" fill="white"/>
<path opacity="0.1" d="M6.4177 30.2685C6.41553 30.2446 6.41553 30.2229 6.41553 30.199C6.41553 30.1752 6.41553 30.1535 6.4177 30.1297C6.43621 29.412 6.76059 28.7723 7.26311 28.33C6.99258 28.6082 6.39069 29.6567 7.04472 30.456C7.47489 30.9817 9.51652 31.7318 11.1969 30.7678C11.0753 30.9302 10.8994 31.0827 10.6684 31.2162C9.69675 31.7779 8.11796 31.7779 7.14418 31.2162C6.6888 30.9516 6.44585 30.6133 6.4177 30.2685Z" fill="#1F1A38"/>
<path opacity="0.5" d="M8.93257 28.2688C8.82111 28.5227 9.03525 28.8622 9.41101 29.0272C9.78667 29.1922 10.1816 29.1201 10.2932 28.8663C10.4046 28.6124 10.1905 28.2729 9.81473 28.1079C9.43906 27.9429 9.04413 28.0149 8.93257 28.2688Z" fill="white"/>
<path opacity="0.5" d="M10.3753 29.302C10.3172 29.4343 10.4016 29.5992 10.5636 29.6703C10.7256 29.7415 10.9041 29.692 10.9622 29.5597C11.0203 29.4275 10.9359 29.2627 10.7739 29.1914C10.6118 29.1203 10.4334 29.1698 10.3753 29.302Z" fill="white"/>
<path d="M16.8285 30.0913C16.7991 28.9493 15.8634 28.034 14.7142 28.034C13.5668 28.034 12.6293 28.9494 12.5998 30.0913C12.5979 30.1116 12.5979 30.1299 12.5979 30.1502C12.5979 30.1705 12.5979 30.1888 12.5998 30.2091C12.6238 30.502 12.83 30.7893 13.2186 31.014C14.0437 31.491 15.3845 31.491 16.2115 31.014C16.5982 30.7893 16.8045 30.502 16.8284 30.2091C16.8303 30.1889 16.8303 30.1705 16.8303 30.1502C16.8303 30.1299 16.8303 30.1116 16.8285 30.0913Z" fill="#1F1A38"/>
<path opacity="0.8" d="M16.8285 30.0913C16.7991 28.9493 15.8634 28.034 14.7142 28.034C13.5668 28.034 12.6293 28.9494 12.5998 30.0913C12.5979 30.1116 12.5979 30.1299 12.5979 30.1502C12.5979 30.1705 12.5979 30.1888 12.5998 30.2091C12.6238 30.502 12.83 30.7893 13.2186 31.014C14.0437 31.491 15.3845 31.491 16.2115 31.014C16.5982 30.7893 16.8045 30.502 16.8284 30.2091C16.8303 30.1889 16.8303 30.1705 16.8303 30.1502C16.8303 30.1299 16.8303 30.1116 16.8285 30.0913Z" fill="white"/>
<path opacity="0.3" d="M15.6319 28.2452C15.354 28.1112 15.0434 28.0339 14.7142 28.0339C13.5668 28.0339 12.6293 28.9493 12.5998 30.0912C12.5979 30.1115 12.5979 30.1298 12.5979 30.1501C12.5979 30.1704 12.5979 30.1887 12.5998 30.209C12.6238 30.5019 12.83 30.7892 13.2186 31.0139C13.5201 31.1882 13.8909 31.2982 14.2798 31.3451C13.7311 31.2504 13.376 30.6378 13.5448 29.9613C13.7405 29.1767 14.5338 28.0424 15.6319 28.2452Z" fill="white"/>
<path opacity="0.1" d="M16.8286 30.2091C16.8305 30.1889 16.8305 30.1705 16.8305 30.1502C16.8305 30.1299 16.8305 30.1116 16.8286 30.0912C16.813 29.4817 16.5375 28.9385 16.1108 28.5628C16.3405 28.799 16.8517 29.6895 16.2963 30.3683C15.9309 30.8148 14.197 31.4518 12.77 30.6332C12.8733 30.7712 13.0226 30.9006 13.2188 31.014C14.0439 31.491 15.3847 31.491 16.2117 31.014C16.5984 30.7893 16.8047 30.502 16.8286 30.2091Z" fill="#1F1A38"/>
<path opacity="0.5" d="M14.6927 28.5109C14.7873 28.7264 14.6055 29.0148 14.2864 29.155C13.9673 29.2951 13.6319 29.2339 13.5373 29.0183C13.4426 28.8027 13.6244 28.5144 13.9435 28.3742C14.2626 28.2341 14.598 28.2953 14.6927 28.5109Z" fill="white"/>
<path opacity="0.5" d="M13.4673 29.3884C13.5166 29.5007 13.445 29.6407 13.3074 29.7011C13.1698 29.7616 13.0183 29.7195 12.969 29.6072C12.9196 29.4949 12.9912 29.3549 13.1289 29.2945C13.2665 29.234 13.418 29.2761 13.4673 29.3884Z" fill="white"/>
<path d="M18.8938 30.3349C18.8743 29.5798 18.2556 28.9745 17.4956 28.9745C16.7368 28.9745 16.117 29.5798 16.0974 30.3349C16.0962 30.3484 16.0962 30.3605 16.0962 30.374C16.0962 30.3874 16.0962 30.3996 16.0974 30.413C16.1133 30.6066 16.2497 30.7966 16.5066 30.9452C17.0522 31.2606 17.9389 31.2606 18.4857 30.9452C18.7414 30.7966 18.8779 30.6066 18.8937 30.413C18.8949 30.3996 18.8949 30.3874 18.8949 30.374C18.895 30.3605 18.895 30.3484 18.8938 30.3349Z" fill="#1F1A38"/>
<path opacity="0.9" d="M18.8938 30.3349C18.8743 29.5798 18.2556 28.9745 17.4956 28.9745C16.7368 28.9745 16.117 29.5798 16.0974 30.3349C16.0962 30.3484 16.0962 30.3605 16.0962 30.374C16.0962 30.3874 16.0962 30.3996 16.0974 30.413C16.1133 30.6066 16.2497 30.7966 16.5066 30.9452C17.0522 31.2606 17.9389 31.2606 18.4857 30.9452C18.7414 30.7966 18.8779 30.6066 18.8937 30.413C18.8949 30.3996 18.8949 30.3874 18.8949 30.374C18.895 30.3605 18.895 30.3484 18.8938 30.3349Z" fill="white"/>
<path opacity="0.5" d="M18.1025 29.1143C17.9188 29.0256 17.7133 28.9745 17.4956 28.9745C16.7368 28.9745 16.117 29.5798 16.0974 30.3349C16.0962 30.3484 16.0962 30.3605 16.0962 30.374C16.0962 30.3874 16.0962 30.3996 16.0974 30.413C16.1133 30.6066 16.2497 30.7966 16.5066 30.9452C16.706 31.0604 16.9511 31.1331 17.2084 31.1641C16.8455 31.1015 16.6106 30.6964 16.7223 30.2491C16.8518 29.7302 17.3764 28.9801 18.1025 29.1143Z" fill="white"/>
<path opacity="0.1" d="M18.8936 30.4129C18.8948 30.3995 18.8948 30.3873 18.8948 30.3739C18.8948 30.3605 18.8948 30.3483 18.8936 30.3349C18.8832 29.9318 18.7011 29.5726 18.4188 29.3241C18.5707 29.4804 18.9088 30.0692 18.5414 30.518C18.2998 30.8132 17.1533 31.2346 16.2097 30.6931C16.278 30.7844 16.3768 30.87 16.5065 30.945C17.0521 31.2604 17.9388 31.2604 18.4856 30.945C18.7413 30.7966 18.8778 30.6065 18.8936 30.4129Z" fill="#1F1A38"/>
<path opacity="0.5" d="M17.4813 29.2899C17.544 29.4324 17.4236 29.6231 17.2127 29.7158C17.0017 29.8084 16.7799 29.768 16.7173 29.6254C16.6546 29.4828 16.775 29.2921 16.9859 29.1995C17.1969 29.1069 17.4187 29.1473 17.4813 29.2899Z" fill="white"/>
<path opacity="0.5" d="M16.6712 29.8702C16.7038 29.9445 16.6564 30.037 16.5655 30.0771C16.4744 30.117 16.3742 30.0893 16.3416 30.015C16.309 29.9408 16.3563 29.8481 16.4473 29.8081C16.5384 29.7681 16.6386 29.796 16.6712 29.8702Z" fill="white"/>
<path d="M21.8732 30.9433C21.8468 29.9171 21.0059 29.0945 19.9732 29.0945C18.9421 29.0945 18.0996 29.9171 18.0731 30.9433C18.0715 30.9615 18.0715 30.978 18.0715 30.9963C18.0715 31.0145 18.0715 31.031 18.0731 31.0492C18.0947 31.3124 18.28 31.5707 18.6293 31.7725C19.3708 32.2012 20.5757 32.2012 21.3188 31.7725C21.6664 31.5706 21.8518 31.3124 21.8733 31.0492C21.875 31.031 21.875 31.0145 21.875 30.9963C21.8749 30.978 21.8749 30.9615 21.8732 30.9433Z" fill="#1F1A38"/>
<path opacity="0.7" d="M21.8732 30.9433C21.8468 29.9171 21.0059 29.0945 19.9732 29.0945C18.9421 29.0945 18.0996 29.9171 18.0731 30.9433C18.0715 30.9615 18.0715 30.978 18.0715 30.9963C18.0715 31.0145 18.0715 31.031 18.0731 31.0492C18.0947 31.3124 18.28 31.5707 18.6293 31.7725C19.3708 32.2012 20.5757 32.2012 21.3188 31.7725C21.6664 31.5706 21.8518 31.3124 21.8733 31.0492C21.875 31.031 21.875 31.0145 21.875 30.9963C21.8749 30.978 21.8749 30.9615 21.8732 30.9433Z" fill="white"/>
<path opacity="0.3" d="M20.7979 29.2844C20.5482 29.1638 20.269 29.0945 19.9732 29.0945C18.9421 29.0945 18.0996 29.9171 18.0731 30.9433C18.0715 30.9615 18.0715 30.978 18.0715 30.9963C18.0715 31.0145 18.0715 31.031 18.0731 31.0492C18.0947 31.3124 18.28 31.5707 18.6293 31.7725C18.9002 31.9291 19.2334 32.0279 19.583 32.0701C19.0899 31.985 18.7707 31.4345 18.9223 30.8265C19.0982 30.1214 19.8112 29.1021 20.7979 29.2844Z" fill="white"/>
<path opacity="0.1" d="M21.8733 31.0492C21.875 31.031 21.875 31.0145 21.875 30.9963C21.875 30.978 21.875 30.9615 21.8733 30.9433C21.8593 30.3955 21.6117 29.9073 21.2282 29.5697C21.4346 29.782 21.894 30.5822 21.3949 31.1922C21.0666 31.5934 19.5084 32.1658 18.2261 31.4302C18.3188 31.5542 18.4532 31.6705 18.6294 31.7724C19.3709 32.2011 20.5758 32.2011 21.3189 31.7724C21.6665 31.5706 21.8519 31.3124 21.8733 31.0492Z" fill="#1F1A38"/>
<path opacity="0.5" d="M19.9539 29.5231C20.039 29.7168 19.8755 29.9759 19.5888 30.1018C19.3021 30.2277 19.0007 30.1728 18.9156 29.979C18.8305 29.7853 18.994 29.5262 19.2807 29.4002C19.5674 29.2742 19.8689 29.3293 19.9539 29.5231Z" fill="white"/>
<path opacity="0.5" d="M18.8527 30.3117C18.897 30.4126 18.8327 30.5385 18.709 30.5927C18.5854 30.6471 18.4492 30.6093 18.4049 30.5084C18.3606 30.4075 18.4249 30.2816 18.5485 30.2273C18.6722 30.173 18.8084 30.2107 18.8527 30.3117Z" fill="white"/>
<path d="M14.401 23.7065C14.401 24.4003 14.0902 25.0198 13.5997 25.437C13.266 25.7193 13.0614 26.1251 13.0614 26.5628V32.0045C13.0614 32.1428 12.9711 32.2811 12.7883 32.3863C12.6877 32.4446 12.57 32.4858 12.4454 32.512C12.2408 32.5544 12.0144 32.5544 11.8098 32.512C11.6853 32.4858 11.5676 32.4435 11.4681 32.3863C11.2864 32.2812 11.1949 32.1428 11.1949 32.0045V26.5526C11.1949 26.1194 10.9903 25.7194 10.66 25.4393C10.1628 25.0198 9.84963 24.3912 9.8553 23.6883C9.86446 22.5006 10.8166 21.5005 12.0019 21.4365C13.314 21.3656 14.401 22.4092 14.401 23.7065Z" fill="#1F1A38"/>
<path opacity="0.5" d="M14.401 23.7065C14.401 24.4003 14.0902 25.0198 13.5997 25.437C13.266 25.7193 13.0614 26.1251 13.0614 26.5628V32.0045C13.0614 32.1428 12.9711 32.2811 12.7883 32.3863C12.6877 32.4446 12.57 32.4858 12.4454 32.512C12.2408 32.5544 12.0144 32.5544 11.8098 32.512C11.6853 32.4858 11.5676 32.4435 11.4681 32.3863C11.2864 32.2812 11.1949 32.1428 11.1949 32.0045V26.5526C11.1949 26.1194 10.9903 25.7194 10.66 25.4393C10.1628 25.0198 9.84963 24.3912 9.8553 23.6883C9.86446 22.5006 10.8166 21.5005 12.0019 21.4365C13.314 21.3656 14.401 22.4092 14.401 23.7065Z" fill="white"/>
<path d="M13.3961 23.7065C13.3961 24.1333 13.1842 24.5098 12.8613 24.7394C12.592 24.931 12.4452 25.252 12.4452 25.5825V32.1398C12.4452 32.3153 12.3062 32.4645 12.1307 32.4649C12.1285 32.4649 12.1263 32.4649 12.1242 32.4649C11.9488 32.4645 11.8097 32.3153 11.8097 32.1398V25.5662C11.8097 25.2404 11.66 24.9284 11.3936 24.7386C11.0621 24.5032 10.8484 24.1123 10.8598 23.6711C10.8781 23.0138 11.4199 22.4652 12.0771 22.4388C12.8007 22.4115 13.3961 22.9898 13.3961 23.7065Z" fill="#1F1A38"/>
<path opacity="0.7" d="M13.3961 23.7065C13.3961 24.1333 13.1842 24.5098 12.8613 24.7394C12.592 24.931 12.4452 25.252 12.4452 25.5825V32.1398C12.4452 32.3153 12.3062 32.4645 12.1307 32.4649C12.1285 32.4649 12.1263 32.4649 12.1242 32.4649C11.9488 32.4645 11.8097 32.3153 11.8097 32.1398V25.5662C11.8097 25.2404 11.66 24.9284 11.3936 24.7386C11.0621 24.5032 10.8484 24.1123 10.8598 23.6711C10.8781 23.0138 11.4199 22.4652 12.0771 22.4388C12.8007 22.4115 13.3961 22.9898 13.3961 23.7065Z" fill="white"/>
<path opacity="0.8" d="M13.2795 25.2736C13.5448 25.2736 13.7599 25.0586 13.7599 24.7932C13.7599 24.5279 13.5448 24.3128 13.2795 24.3128C13.0142 24.3128 12.7991 24.5279 12.7991 24.7932C12.7991 25.0586 13.0142 25.2736 13.2795 25.2736Z" fill="white"/>
<path opacity="0.7" d="M12.7144 23.3668C12.7144 23.1668 12.8764 23.0048 13.0764 23.0048C13.2764 23.0048 13.4385 23.1669 13.4385 23.3668C13.4385 23.5668 13.2764 23.7289 13.0764 23.7289C12.8764 23.7289 12.7144 23.5668 12.7144 23.3668Z" fill="white"/>
<path opacity="0.8" d="M12.0225 22.7892C12.0225 22.6901 12.1027 22.6098 12.2018 22.6098C12.3009 22.6098 12.3812 22.6901 12.3812 22.7892C12.3812 22.8883 12.3009 22.9686 12.2018 22.9686C12.1027 22.9685 12.0225 22.8882 12.0225 22.7892Z" fill="white"/>
<path opacity="0.7" d="M10.5894 23.0048C10.5894 22.736 10.8073 22.5181 11.0761 22.5181C11.3449 22.5181 11.5629 22.736 11.5629 23.0048C11.5629 23.2737 11.3449 23.4916 11.0761 23.4916C10.8073 23.4916 10.5894 23.2737 10.5894 23.0048Z" fill="white"/>
<path opacity="0.8" d="M10.5083 23.8846C10.5083 24.0106 10.6105 24.1128 10.7365 24.1128C10.8625 24.1128 10.9647 24.0106 10.9647 23.8846C10.9647 23.7585 10.8625 23.6564 10.7365 23.6564C10.6105 23.6563 10.5083 23.7585 10.5083 23.8846Z" fill="white"/>
<path opacity="0.7" d="M10.5325 24.7565C10.5325 24.5115 10.7311 24.3127 10.9762 24.3127C11.2213 24.3127 11.42 24.5114 11.42 24.7565C11.42 25.0016 11.2214 25.2003 10.9762 25.2003C10.7311 25.2003 10.5325 25.0016 10.5325 24.7565Z" fill="white"/>
<path opacity="0.7" d="M11.6348 25.4041C11.6348 25.2355 11.7714 25.0988 11.9401 25.0988C12.1087 25.0988 12.2454 25.2355 12.2454 25.4041C12.2454 25.5727 12.1087 25.7093 11.9401 25.7093C11.7714 25.7093 11.6348 25.5727 11.6348 25.4041Z" fill="white"/>
<path opacity="0.7" d="M10.0747 23.3668C10.0747 23.2808 10.1444 23.2111 10.2304 23.2111C10.3163 23.2111 10.386 23.2808 10.386 23.3668C10.386 23.4528 10.3163 23.5225 10.2304 23.5225C10.1444 23.5225 10.0747 23.4528 10.0747 23.3668Z" fill="white"/>
<path opacity="0.8" d="M13.4612 22.7232C13.4612 22.6099 13.553 22.5181 13.6663 22.5181C13.7795 22.5181 13.8713 22.6099 13.8713 22.7232C13.8713 22.8364 13.7795 22.9282 13.6663 22.9282C13.553 22.9281 13.4612 22.8364 13.4612 22.7232Z" fill="white"/>
<path opacity="0.7" d="M13.665 23.7289C13.665 23.615 13.7574 23.5225 13.8713 23.5225C13.9853 23.5225 14.0776 23.6149 14.0776 23.7289C14.0776 23.8428 13.9853 23.9353 13.8713 23.9353C13.7574 23.9352 13.665 23.8428 13.665 23.7289Z" fill="white"/>
<path opacity="0.8" d="M11.7336 23.9352C11.7336 23.8213 11.826 23.7288 11.94 23.7288C12.054 23.7288 12.1463 23.8212 12.1463 23.9352C12.1463 24.0491 12.054 24.1415 11.94 24.1415C11.826 24.1416 11.7336 24.0492 11.7336 23.9352Z" fill="white"/>
<path d="M24.0191 31.2726C24.0029 30.6471 23.4905 30.1458 22.861 30.1458C22.2326 30.1458 21.7191 30.647 21.7029 31.2726C21.7019 31.2836 21.7019 31.2937 21.7019 31.3049C21.7019 31.316 21.7019 31.326 21.7029 31.3371C21.7161 31.4975 21.829 31.6548 22.0419 31.7779C22.4938 32.0392 23.2282 32.0392 23.6811 31.7779C23.8929 31.6548 24.0059 31.4975 24.019 31.3371C24.02 31.326 24.02 31.3159 24.02 31.3049C24.02 31.2938 24.0201 31.2836 24.0191 31.2726Z" fill="#1F1A38"/>
<path opacity="0.5" d="M24.0191 31.2726C24.0029 30.6471 23.4905 30.1458 22.861 30.1458C22.2326 30.1458 21.7191 30.647 21.7029 31.2726C21.7019 31.2836 21.7019 31.2937 21.7019 31.3049C21.7019 31.316 21.7019 31.326 21.7029 31.3371C21.7161 31.4975 21.829 31.6548 22.0419 31.7779C22.4938 32.0392 23.2282 32.0392 23.6811 31.7779C23.8929 31.6548 24.0059 31.4975 24.019 31.3371C24.02 31.326 24.02 31.3159 24.02 31.3049C24.02 31.2938 24.0201 31.2836 24.0191 31.2726Z" fill="white"/>
<path opacity="0.5" d="M23.3637 30.2615C23.2115 30.1881 23.0414 30.1458 22.861 30.1458C22.2326 30.1458 21.7191 30.647 21.7029 31.2726C21.7019 31.2836 21.7019 31.2937 21.7019 31.3049C21.7019 31.316 21.7019 31.326 21.7029 31.3371C21.7161 31.4975 21.829 31.6548 22.0419 31.7779C22.207 31.8734 22.4101 31.9336 22.6232 31.9593C22.3226 31.9074 22.1281 31.5719 22.2205 31.2013C22.3278 30.7715 22.7623 30.1504 23.3637 30.2615Z" fill="white"/>
<path opacity="0.2" d="M24.019 31.3371C24.0201 31.326 24.0201 31.3159 24.0201 31.3049C24.0201 31.2938 24.0201 31.2837 24.019 31.2726C24.0105 30.9387 23.8596 30.6412 23.6258 30.4355C23.7516 30.5649 24.0316 31.0526 23.7275 31.4243C23.5274 31.6689 22.5777 32.0178 21.7961 31.5694C21.8527 31.645 21.9345 31.7159 22.042 31.778C22.4939 32.0393 23.2283 32.0393 23.6813 31.778C23.8929 31.6548 24.006 31.4975 24.019 31.3371Z" fill="#1F1A38"/>
<path opacity="0.5" d="M22.8495 30.4069C22.9013 30.525 22.8017 30.6829 22.6269 30.7596C22.4522 30.8363 22.2685 30.8029 22.2166 30.6848C22.1647 30.5668 22.2644 30.4088 22.4392 30.332C22.6139 30.2553 22.7976 30.2889 22.8495 30.4069Z" fill="white"/>
<path opacity="0.5" d="M22.1783 30.8875C22.2053 30.949 22.1661 31.0257 22.0907 31.0588C22.0153 31.0919 21.9323 31.0689 21.9053 31.0074C21.8783 30.9459 21.9175 30.8692 21.9928 30.8362C22.0683 30.803 22.1512 30.8261 22.1783 30.8875Z" fill="white"/>
<path d="M22.2845 32.226C22.2623 31.3648 21.5566 30.6744 20.6898 30.6744C19.8245 30.6744 19.1175 31.3648 19.0952 32.226C19.0938 32.2413 19.0938 32.2552 19.0938 32.2704C19.0938 32.2857 19.0938 32.2996 19.0952 32.3149C19.1132 32.5358 19.2688 32.7524 19.5619 32.9219C20.1842 33.2817 21.1954 33.2817 21.8191 32.9219C22.1108 32.7524 22.2663 32.5358 22.2844 32.3149C22.2858 32.2996 22.2858 32.2857 22.2858 32.2704C22.2858 32.2552 22.2858 32.2413 22.2845 32.226Z" fill="#1F1A38"/>
<path opacity="0.6" d="M22.2845 32.226C22.2623 31.3648 21.5566 30.6744 20.6898 30.6744C19.8245 30.6744 19.1175 31.3648 19.0952 32.226C19.0938 32.2413 19.0938 32.2552 19.0938 32.2704C19.0938 32.2857 19.0938 32.2996 19.0952 32.3149C19.1132 32.5358 19.2688 32.7524 19.5619 32.9219C20.1842 33.2817 21.1954 33.2817 21.8191 32.9219C22.1108 32.7524 22.2663 32.5358 22.2844 32.3149C22.2858 32.2996 22.2858 32.2857 22.2858 32.2704C22.2858 32.2552 22.2858 32.2413 22.2845 32.226Z" fill="white"/>
<path opacity="0.5" d="M21.382 30.8338C21.1724 30.7327 20.9382 30.6744 20.6898 30.6744C19.8245 30.6744 19.1175 31.3648 19.0952 32.226C19.0938 32.2413 19.0938 32.2552 19.0938 32.2704C19.0938 32.2857 19.0938 32.2996 19.0952 32.3149C19.1132 32.5358 19.2688 32.7524 19.5619 32.9219C19.7893 33.0534 20.0689 33.1362 20.3623 33.1717C19.9485 33.1002 19.6806 32.6382 19.808 32.128C19.9555 31.5363 20.5538 30.6809 21.382 30.8338Z" fill="white"/>
<path opacity="0.1" d="M22.2844 32.3149C22.2858 32.2996 22.2858 32.2857 22.2858 32.2704C22.2858 32.2551 22.2858 32.2412 22.2844 32.226C22.2726 31.7663 22.0648 31.3566 21.743 31.0732C21.9162 31.2514 22.3018 31.923 21.8829 32.435C21.6073 32.7717 20.2997 33.2521 19.2234 32.6347C19.3012 32.7388 19.4139 32.8364 19.5618 32.922C20.1841 33.2818 21.1953 33.2818 21.819 32.922C22.1108 32.7525 22.2664 32.5358 22.2844 32.3149Z" fill="#1F1A38"/>
<path opacity="0.3" d="M20.6735 31.0341C20.7449 31.1967 20.6077 31.4142 20.3671 31.5198C20.1264 31.6255 19.8734 31.5794 19.8021 31.4168C19.7307 31.2542 19.8679 31.0367 20.1085 30.931C20.3491 30.8254 20.6021 30.8715 20.6735 31.0341Z" fill="white"/>
<path opacity="0.3" d="M19.7493 31.696C19.7865 31.7806 19.7325 31.8862 19.6287 31.9319C19.5248 31.9775 19.4106 31.9458 19.3733 31.861C19.3361 31.7763 19.3901 31.6707 19.494 31.6252C19.5979 31.5795 19.7122 31.6113 19.7493 31.696Z" fill="white"/>
<path d="M19.4552 33.0025C19.4276 31.9337 18.5519 31.0768 17.4761 31.0768C16.4021 31.0768 15.5246 31.9336 15.4971 33.0025C15.4954 33.0215 15.4954 33.0386 15.4954 33.0576C15.4954 33.0766 15.4954 33.0938 15.4971 33.1128C15.5194 33.3869 15.7125 33.6558 16.0763 33.8661C16.8486 34.3126 18.1036 34.3126 18.8777 33.8661C19.2396 33.6557 19.4328 33.3869 19.4552 33.1128C19.4569 33.0938 19.4569 33.0766 19.4569 33.0576C19.4569 33.0386 19.4569 33.0214 19.4552 33.0025Z" fill="#1F1A38"/>
<path opacity="0.8" d="M19.4552 33.0025C19.4276 31.9337 18.5519 31.0768 17.4761 31.0768C16.4021 31.0768 15.5246 31.9336 15.4971 33.0025C15.4954 33.0215 15.4954 33.0386 15.4954 33.0576C15.4954 33.0766 15.4954 33.0938 15.4971 33.1128C15.5194 33.3869 15.7125 33.6558 16.0763 33.8661C16.8486 34.3126 18.1036 34.3126 18.8777 33.8661C19.2396 33.6557 19.4328 33.3869 19.4552 33.1128C19.4569 33.0938 19.4569 33.0766 19.4569 33.0576C19.4569 33.0386 19.4569 33.0214 19.4552 33.0025Z" fill="white"/>
<path opacity="0.3" d="M18.3353 31.2746C18.0752 31.1491 17.7845 31.0768 17.4763 31.0768C16.4023 31.0768 15.5249 31.9336 15.4973 33.0025C15.4956 33.0215 15.4956 33.0386 15.4956 33.0576C15.4956 33.0766 15.4956 33.0938 15.4973 33.1128C15.5197 33.3869 15.7128 33.6558 16.0765 33.8661C16.3588 34.0293 16.7057 34.1321 17.0699 34.176C16.5562 34.0874 16.2238 33.514 16.3818 32.8808C16.5649 32.1464 17.3075 31.0848 18.3353 31.2746Z" fill="white"/>
<path opacity="0.1" d="M19.4552 33.1128C19.4569 33.0938 19.4569 33.0766 19.4569 33.0576C19.4569 33.0387 19.4569 33.0215 19.4552 33.0025C19.4405 32.4319 19.1827 31.9235 18.7832 31.5719C18.9982 31.793 19.4767 32.6265 18.9568 33.2619C18.6149 33.6798 16.992 34.2761 15.6562 33.5097C15.7529 33.6389 15.8927 33.76 16.0763 33.8662C16.8486 34.3127 18.1036 34.3127 18.8777 33.8662C19.2396 33.6559 19.4328 33.3869 19.4552 33.1128Z" fill="#1F1A38"/>
<path opacity="0.3" d="M17.456 31.5232C17.5446 31.7249 17.3744 31.9949 17.0757 32.126C16.777 32.2571 16.4631 32.1999 16.3745 31.9981C16.2859 31.7963 16.4561 31.5264 16.7548 31.3953C17.0534 31.2642 17.3674 31.3214 17.456 31.5232Z" fill="white"/>
<path opacity="0.3" d="M16.3093 32.3446C16.3554 32.4497 16.2884 32.5807 16.1595 32.6373C16.0307 32.6939 15.8889 32.6545 15.8427 32.5495C15.7965 32.4443 15.8636 32.3133 15.9924 32.2567C16.1213 32.2001 16.2631 32.2394 16.3093 32.3446Z" fill="white"/>
<path d="M12.3703 32.6143C12.3472 31.7199 11.6144 31.0031 10.7144 31.0031C9.81583 31.0031 9.0816 31.7199 9.05855 32.6143C9.05713 32.6301 9.05713 32.6446 9.05713 32.6604C9.05713 32.6763 9.05713 32.6908 9.05855 32.7066C9.07734 32.936 9.23887 33.161 9.54321 33.337C10.1894 33.7105 11.2395 33.7105 11.8871 33.337C12.1901 33.161 12.3516 32.936 12.3703 32.7066C12.3717 32.6908 12.3717 32.6763 12.3717 32.6604C12.3717 32.6446 12.3717 32.6301 12.3703 32.6143Z" fill="#1F1A38"/>
<path opacity="0.8" d="M12.3703 32.6143C12.3472 31.7199 11.6144 31.0031 10.7144 31.0031C9.81583 31.0031 9.0816 31.7199 9.05855 32.6143C9.05713 32.6301 9.05713 32.6446 9.05713 32.6604C9.05713 32.6763 9.05713 32.6908 9.05855 32.7066C9.07734 32.936 9.23887 33.161 9.54321 33.337C10.1894 33.7105 11.2395 33.7105 11.8871 33.337C12.1901 33.161 12.3516 32.936 12.3703 32.7066C12.3717 32.6908 12.3717 32.6763 12.3717 32.6604C12.3717 32.6446 12.3717 32.6301 12.3703 32.6143Z" fill="white"/>
<path opacity="0.3" d="M11.4332 31.1686C11.2155 31.0635 10.9723 31.0031 10.7144 31.0031C9.81583 31.0031 9.0816 31.7199 9.05855 32.6143C9.05713 32.6301 9.05713 32.6446 9.05713 32.6604C9.05713 32.6763 9.05713 32.6908 9.05855 32.7066C9.07734 32.936 9.23887 33.161 9.54321 33.337C9.77936 33.4735 10.0696 33.5596 10.3744 33.5963C9.94467 33.5221 9.66648 33.0423 9.79863 32.5125C9.95175 31.8981 10.5732 31.0098 11.4332 31.1686Z" fill="white"/>
<path opacity="0.1" d="M12.3702 32.7066C12.3716 32.6908 12.3716 32.6763 12.3716 32.6604C12.3716 32.6446 12.3716 32.6301 12.3702 32.6143C12.3579 32.1369 12.1422 31.7115 11.808 31.4173C11.9878 31.6023 12.3882 32.2997 11.9533 32.8312C11.6671 33.1809 10.3092 33.6798 9.19165 33.0387C9.27251 33.1467 9.38954 33.2481 9.54313 33.337C10.1893 33.7105 11.2394 33.7105 11.887 33.337C12.1899 33.161 12.3514 32.936 12.3702 32.7066Z" fill="#1F1A38"/>
<path opacity="0.3" d="M10.6975 31.3766C10.7716 31.5453 10.6292 31.7712 10.3793 31.881C10.1294 31.9907 9.86673 31.9427 9.79257 31.7739C9.71842 31.605 9.86087 31.3793 10.1107 31.2695C10.3606 31.1599 10.6233 31.2078 10.6975 31.3766Z" fill="white"/>
<path opacity="0.3" d="M9.73806 32.0638C9.77669 32.1518 9.72058 32.2614 9.6128 32.3088C9.50502 32.3561 9.38629 32.3232 9.34766 32.2352C9.30902 32.1472 9.36513 32.0376 9.47291 31.9902C9.58069 31.943 9.69942 31.9759 9.73806 32.0638Z" fill="white"/>
<path d="M15.1226 32.9573C15.1023 32.1724 14.4591 31.5431 13.669 31.5431C12.8803 31.5431 12.2358 32.1724 12.2156 32.9573C12.2144 32.9712 12.2144 32.9839 12.2144 32.9979C12.2144 33.0118 12.2144 33.0245 12.2156 33.0384C12.232 33.2397 12.3738 33.4372 12.641 33.5916C13.2083 33.9196 14.13 33.9196 14.6984 33.5916C14.9643 33.4372 15.1061 33.2397 15.1226 33.0384C15.1238 33.0245 15.1238 33.0118 15.1238 32.9979C15.1238 32.984 15.1238 32.9713 15.1226 32.9573Z" fill="#1F1A38"/>
<path opacity="0.8" d="M15.1226 32.9573C15.1023 32.1724 14.4591 31.5431 13.669 31.5431C12.8803 31.5431 12.2358 32.1724 12.2156 32.9573C12.2144 32.9712 12.2144 32.9839 12.2144 32.9979C12.2144 33.0118 12.2144 33.0245 12.2156 33.0384C12.232 33.2397 12.3738 33.4372 12.641 33.5916C13.2083 33.9196 14.13 33.9196 14.6984 33.5916C14.9643 33.4372 15.1061 33.2397 15.1226 33.0384C15.1238 33.0245 15.1238 33.0118 15.1238 32.9979C15.1238 32.984 15.1238 32.9713 15.1226 32.9573Z" fill="white"/>
<path opacity="0.3" d="M14.2999 31.6884C14.1089 31.5962 13.8953 31.5431 13.669 31.5431C12.8803 31.5431 12.2358 32.1724 12.2156 32.9573C12.2144 32.9712 12.2144 32.9839 12.2144 32.9979C12.2144 33.0118 12.2144 33.0245 12.2156 33.0384C12.232 33.2397 12.3738 33.4372 12.641 33.5916C12.8483 33.7115 13.1031 33.7871 13.3705 33.8193C12.9934 33.7542 12.7492 33.3331 12.8652 32.868C12.9997 32.3286 13.5451 31.5489 14.2999 31.6884Z" fill="white"/>
<path opacity="0.1" d="M15.1224 33.0384C15.1236 33.0245 15.1236 33.0118 15.1236 32.9979C15.1236 32.984 15.1236 32.9713 15.1224 32.9573C15.1116 32.5383 14.9222 32.1649 14.6289 31.9067C14.7868 32.069 15.1382 32.6812 14.7564 33.1479C14.5052 33.4547 13.3133 33.8928 12.3323 33.3299C12.4032 33.4247 12.506 33.5137 12.6408 33.5917C13.208 33.9197 14.1297 33.9197 14.6982 33.5917C14.9641 33.4372 15.106 33.2397 15.1224 33.0384Z" fill="#1F1A38"/>
<path opacity="0.3" d="M13.6543 31.8709C13.7194 32.0192 13.5943 32.2174 13.375 32.3137C13.1557 32.41 12.9251 32.3679 12.86 32.2197C12.7949 32.0715 12.92 31.8732 13.1393 31.777C13.3586 31.6806 13.5892 31.7226 13.6543 31.8709Z" fill="white"/>
<path opacity="0.3" d="M12.8119 32.4742C12.8458 32.5513 12.7966 32.6476 12.702 32.6892C12.6073 32.7307 12.5032 32.7018 12.4692 32.6246C12.4353 32.5475 12.4845 32.4512 12.5792 32.4097C12.6738 32.3681 12.778 32.397 12.8119 32.4742Z" fill="white"/>
<path d="M24.9993 31.5439C24.9896 31.166 24.6799 30.8631 24.2995 30.8631C23.9198 30.8631 23.6095 31.166 23.5998 31.5439C23.5991 31.5506 23.5991 31.5568 23.5991 31.5635C23.5991 31.5702 23.5991 31.5762 23.5998 31.583C23.6077 31.68 23.6759 31.7751 23.8046 31.8494C24.0777 32.0072 24.5214 32.0072 24.7951 31.8494C24.9231 31.7751 24.9914 31.68 24.9993 31.583C24.9999 31.5763 25 31.5703 25 31.5635C25 31.5568 24.9999 31.5506 24.9993 31.5439Z" fill="#1F1A38"/>
<path opacity="0.2" d="M24.9993 31.5439C24.9896 31.166 24.6799 30.8631 24.2995 30.8631C23.9198 30.8631 23.6095 31.166 23.5998 31.5439C23.5991 31.5506 23.5991 31.5568 23.5991 31.5635C23.5991 31.5702 23.5991 31.5762 23.5998 31.583C23.6077 31.68 23.6759 31.7751 23.8046 31.8494C24.0777 32.0072 24.5214 32.0072 24.7951 31.8494C24.9231 31.7751 24.9914 31.68 24.9993 31.583C24.9999 31.5763 25 31.5703 25 31.5635C25 31.5568 24.9999 31.5506 24.9993 31.5439Z" fill="white"/>
<path opacity="0.5" d="M24.6033 30.9331C24.5113 30.8887 24.4085 30.8632 24.2995 30.8632C23.9198 30.8632 23.6095 31.1661 23.5998 31.544C23.5991 31.5507 23.5991 31.5569 23.5991 31.5636C23.5991 31.5703 23.5991 31.5763 23.5998 31.5831C23.6077 31.6801 23.6759 31.7752 23.8046 31.8495C23.9043 31.9072 24.027 31.9436 24.1558 31.9591C23.9742 31.9277 23.8566 31.725 23.9124 31.5011C23.9773 31.2413 24.2399 30.8659 24.6033 30.9331Z" fill="white"/>
<path opacity="0.05" d="M24.9995 31.5829C25.0001 31.5762 25.0001 31.5702 25.0001 31.5634C25.0001 31.5567 25.0001 31.5506 24.9995 31.5438C24.9943 31.3422 24.9031 31.1623 24.7619 31.038C24.8379 31.1162 25.0071 31.4109 24.8233 31.6356C24.7024 31.7833 24.1285 31.9941 23.6562 31.7232C23.6904 31.7688 23.7398 31.8117 23.8048 31.8492C24.0779 32.0071 24.5217 32.0071 24.7953 31.8492C24.9233 31.775 24.9916 31.6799 24.9995 31.5829Z" fill="white"/>
<path opacity="0.3" d="M24.2925 31.0209C24.3239 31.0922 24.2637 31.1877 24.1581 31.2341C24.0525 31.2805 23.9415 31.2602 23.9102 31.1889C23.8788 31.1175 23.9391 31.022 24.0447 30.9757C24.1502 30.9293 24.2612 30.9496 24.2925 31.0209Z" fill="white"/>
<path opacity="0.3" d="M23.8869 31.3114C23.9032 31.3485 23.8795 31.3949 23.834 31.4149C23.7885 31.4349 23.7383 31.421 23.722 31.3838C23.7056 31.3467 23.7293 31.3003 23.7749 31.2803C23.8205 31.2603 23.8706 31.2742 23.8869 31.3114Z" fill="white"/>
<path d="M0.980774 30.6821C0.996927 30.0567 1.50937 29.5553 2.13884 29.5553C2.76728 29.5553 3.28076 30.0567 3.29691 30.6821C3.29795 30.6932 3.29795 30.7032 3.29795 30.7144C3.29795 30.7255 3.29795 30.7355 3.29691 30.7467C3.28378 30.9071 3.17081 31.0645 2.9579 31.1875C2.506 31.4488 1.77159 31.4488 1.31866 31.1875C1.10678 31.0645 0.993809 30.9071 0.980774 30.7467C0.979735 30.7356 0.979736 30.7255 0.979736 30.7144C0.979831 30.7032 0.979829 30.6932 0.980774 30.6821Z" fill="#1F1A38"/>
<path opacity="0.5" d="M0.980774 30.6821C0.996927 30.0567 1.50937 29.5553 2.13884 29.5553C2.76728 29.5553 3.28076 30.0567 3.29691 30.6821C3.29795 30.6932 3.29795 30.7032 3.29795 30.7144C3.29795 30.7255 3.29795 30.7355 3.29691 30.7467C3.28378 30.9071 3.17081 31.0645 2.9579 31.1875C2.506 31.4488 1.77159 31.4488 1.31866 31.1875C1.10678 31.0645 0.993809 30.9071 0.980774 30.7467C0.979735 30.7356 0.979736 30.7255 0.979736 30.7144C0.979831 30.7032 0.979829 30.6932 0.980774 30.6821Z" fill="white"/>
<path opacity="0.5" d="M1.63623 29.671C1.7884 29.5976 1.95852 29.5553 2.13894 29.5553C2.76738 29.5553 3.28086 30.0567 3.29701 30.6821C3.29805 30.6932 3.29805 30.7032 3.29805 30.7144C3.29805 30.7255 3.29805 30.7355 3.29701 30.7467C3.28388 30.9071 3.17091 31.0645 2.958 31.1875C2.79288 31.283 2.58979 31.3432 2.37679 31.3689C2.67736 31.317 2.87185 30.9815 2.77937 30.611C2.67216 30.1812 2.23765 29.5599 1.63623 29.671Z" fill="white"/>
<path opacity="0.2" d="M0.980774 30.7466C0.979735 30.7355 0.979736 30.7254 0.979736 30.7143C0.979736 30.7032 0.979735 30.6931 0.980774 30.682C0.98937 30.3482 1.14022 30.0506 1.37401 29.8449C1.24819 29.9743 0.968212 30.462 1.27237 30.8338C1.47243 31.0783 2.42212 31.4273 3.20368 30.9789C3.1471 31.0544 3.0653 31.1254 2.9578 31.1874C2.50591 31.4487 1.77149 31.4487 1.31856 31.1874C1.10688 31.0644 0.993904 30.907 0.980774 30.7466Z" fill="#1F1A38"/>
<path opacity="0.3" d="M2.15069 29.8165C2.09883 29.9345 2.19848 30.0925 2.37323 30.1692C2.54798 30.246 2.7317 30.2124 2.78356 30.0944C2.83542 29.9763 2.73576 29.8184 2.56101 29.7417C2.38627 29.6649 2.20254 29.6984 2.15069 29.8165Z" fill="white"/>
<path opacity="0.3" d="M2.82177 30.2971C2.79476 30.3586 2.83396 30.4353 2.90934 30.4684C2.98471 30.5015 3.06774 30.4785 3.09476 30.417C3.12178 30.3555 3.08257 30.2788 3.0072 30.2458C2.93182 30.2126 2.84879 30.2356 2.82177 30.2971Z" fill="white"/>
<path d="M3.46465 31.1242C3.48807 30.2171 4.23137 29.4898 5.14441 29.4898C6.05603 29.4898 6.80075 30.2171 6.82417 31.1242C6.82559 31.1404 6.82559 31.1549 6.82559 31.1711C6.82559 31.1872 6.82559 31.2018 6.82417 31.2179C6.80509 31.4506 6.6413 31.6789 6.33252 31.8573C5.67697 32.2363 4.61176 32.2363 3.95479 31.8573C3.64752 31.6788 3.48363 31.4506 3.46465 31.2179C3.46313 31.2019 3.46313 31.1872 3.46313 31.1711C3.46313 31.155 3.46313 31.1404 3.46465 31.1242Z" fill="#1F1A38"/>
<path opacity="0.7" d="M3.46465 31.1242C3.48807 30.2171 4.23137 29.4898 5.14441 29.4898C6.05603 29.4898 6.80075 30.2171 6.82417 31.1242C6.82559 31.1404 6.82559 31.1549 6.82559 31.1711C6.82559 31.1872 6.82559 31.2018 6.82417 31.2179C6.80509 31.4506 6.6413 31.6789 6.33252 31.8573C5.67697 32.2363 4.61176 32.2363 3.95479 31.8573C3.64752 31.6788 3.48363 31.4506 3.46465 31.2179C3.46313 31.2019 3.46313 31.1872 3.46313 31.1711C3.46313 31.155 3.46313 31.1404 3.46465 31.1242Z" fill="white"/>
<path opacity="0.3" d="M4.41528 29.6577C4.63613 29.5511 4.88286 29.4898 5.14441 29.4898C6.05604 29.4898 6.80075 30.2171 6.82418 31.1242C6.82559 31.1404 6.8256 31.1549 6.8256 31.1711C6.8256 31.1872 6.82559 31.2018 6.82418 31.2179C6.8051 31.4506 6.64131 31.6789 6.33252 31.8573C6.09297 31.9958 5.79845 32.0832 5.48938 32.1204C5.92531 32.0451 6.20745 31.5585 6.07342 31.021C5.91794 30.3977 5.28761 29.4966 4.41528 29.6577Z" fill="white"/>
<path opacity="0.1" d="M3.46465 31.218C3.46313 31.2019 3.46313 31.1873 3.46313 31.1711C3.46313 31.155 3.46313 31.1404 3.46465 31.1243C3.47711 30.6401 3.69597 30.2085 4.03499 29.91C3.85249 30.0977 3.44641 30.8051 3.88763 31.3443C4.17791 31.699 5.5554 32.2052 6.6891 31.5547C6.60711 31.6644 6.48837 31.7671 6.33252 31.8573C5.67697 32.2362 4.61176 32.2362 3.95479 31.8573C3.64752 31.6788 3.48363 31.4506 3.46465 31.218Z" fill="#1F1A38"/>
<path opacity="0.5" d="M5.16149 29.8687C5.08631 30.04 5.23083 30.269 5.48426 30.3804C5.73769 30.4917 6.00416 30.4431 6.07945 30.2719C6.15464 30.1006 6.01011 29.8714 5.75668 29.7602C5.50315 29.6488 5.23668 29.6975 5.16149 29.8687Z" fill="white"/>
<path opacity="0.5" d="M6.13495 30.5659C6.09575 30.6551 6.15262 30.7663 6.262 30.8143C6.37139 30.8623 6.49173 30.829 6.53093 30.7397C6.57013 30.6504 6.51326 30.5393 6.40388 30.4912C6.2945 30.4433 6.17415 30.4766 6.13495 30.5659Z" fill="white"/>
<path d="M1.98524 32.1105C2.00744 31.2492 2.71315 30.5589 3.5799 30.5589C4.44524 30.5589 5.15236 31.2493 5.17456 32.1105C5.17598 32.1258 5.17598 32.1397 5.17598 32.1549C5.17598 32.1702 5.17598 32.1841 5.17456 32.1994C5.15652 32.4202 5.00094 32.6369 4.70784 32.8064C4.08554 33.1662 3.07436 33.1662 2.45064 32.8064C2.15895 32.6369 2.00338 32.4202 1.98534 32.1994C1.98392 32.1841 1.98392 32.1702 1.98392 32.1549C1.98383 32.1397 1.98383 32.1258 1.98524 32.1105Z" fill="#1F1A38"/>
<path opacity="0.6" d="M1.98524 32.1105C2.00744 31.2492 2.71315 30.5589 3.5799 30.5589C4.44524 30.5589 5.15236 31.2493 5.17456 32.1105C5.17598 32.1258 5.17598 32.1397 5.17598 32.1549C5.17598 32.1702 5.17598 32.1841 5.17456 32.1994C5.15652 32.4202 5.00094 32.6369 4.70784 32.8064C4.08554 33.1662 3.07436 33.1662 2.45064 32.8064C2.15895 32.6369 2.00338 32.4202 1.98534 32.1994C1.98392 32.1841 1.98392 32.1702 1.98392 32.1549C1.98383 32.1397 1.98383 32.1258 1.98524 32.1105Z" fill="white"/>
<path opacity="0.5" d="M2.8877 30.7183C3.0973 30.6171 3.33156 30.5589 3.57989 30.5589C4.44523 30.5589 5.15235 31.2493 5.17455 32.1105C5.17597 32.1258 5.17596 32.1397 5.17596 32.1549C5.17596 32.1702 5.17597 32.1841 5.17455 32.1994C5.15651 32.4202 5.00093 32.6369 4.70783 32.8064C4.48037 32.9379 4.20086 33.0207 3.90747 33.0561C4.3213 32.9847 4.58919 32.5227 4.46195 32.0124C4.31422 31.4208 3.71591 30.5652 2.8877 30.7183Z" fill="white"/>
<path opacity="0.15" d="M1.9853 32.1994C1.98389 32.1841 1.98389 32.1702 1.98389 32.1549C1.98389 32.1396 1.98389 32.1257 1.9853 32.1105C1.99721 31.6508 2.20492 31.2411 2.52674 30.9577C2.3535 31.1359 1.96802 31.8075 2.38685 32.3193C2.66239 32.6561 3.97008 33.1366 5.04634 32.5191C4.96851 32.6232 4.85582 32.7208 4.7078 32.8064C4.0855 33.1662 3.07432 33.1662 2.45061 32.8064C2.15892 32.6369 2.00335 32.4202 1.9853 32.1994Z" fill="#1F1A38"/>
<path opacity="0.3" d="M3.59629 30.9186C3.52488 31.0812 3.66204 31.2987 3.90272 31.4044C4.14331 31.5101 4.39627 31.4639 4.46777 31.3014C4.53918 31.1388 4.40194 30.9213 4.16135 30.8157C3.92067 30.7099 3.66761 30.756 3.59629 30.9186Z" fill="white"/>
<path opacity="0.3" d="M4.52031 31.5804C4.48309 31.665 4.53712 31.7707 4.64093 31.8163C4.74474 31.8619 4.85904 31.8301 4.89625 31.7454C4.93347 31.6607 4.87944 31.5551 4.77563 31.5095C4.67182 31.464 4.55753 31.4958 4.52031 31.5804Z" fill="white"/>
<path d="M5.36913 32.8105C5.39671 31.7417 6.27244 30.8849 7.34814 30.8849C8.42214 30.8849 9.29957 31.7416 9.32725 32.8105C9.32895 32.8295 9.32895 32.8467 9.32895 32.8657C9.32895 32.8847 9.32895 32.9019 9.32725 32.9209C9.30486 33.195 9.11179 33.4639 8.74803 33.6742C7.97573 34.1207 6.72075 34.1207 5.94666 33.6742C5.58469 33.4639 5.39152 33.195 5.36913 32.9209C5.36743 32.9019 5.36743 32.8847 5.36743 32.8657C5.36743 32.8467 5.36743 32.8295 5.36913 32.8105Z" fill="#1F1A38"/>
<path opacity="0.8" d="M5.36913 32.8105C5.39671 31.7417 6.27244 30.8849 7.34814 30.8849C8.42214 30.8849 9.29957 31.7416 9.32725 32.8105C9.32895 32.8295 9.32895 32.8467 9.32895 32.8657C9.32895 32.8847 9.32895 32.9019 9.32725 32.9209C9.30486 33.195 9.11179 33.4639 8.74803 33.6742C7.97573 34.1207 6.72075 34.1207 5.94666 33.6742C5.58469 33.4639 5.39152 33.195 5.36913 32.9209C5.36743 32.9019 5.36743 32.8847 5.36743 32.8657C5.36743 32.8467 5.36743 32.8295 5.36913 32.8105Z" fill="white"/>
<path opacity="0.3" d="M6.48926 31.0827C6.7494 30.9572 7.04005 30.8849 7.34827 30.8849C8.42227 30.8849 9.2997 31.7416 9.32737 32.8105C9.32907 32.8295 9.32907 32.8467 9.32907 32.8657C9.32907 32.8847 9.32907 32.9019 9.32737 32.9209C9.30499 33.195 9.11191 33.4639 8.74815 33.6742C8.46591 33.8374 8.11896 33.9403 7.75482 33.9841C8.26849 33.8955 8.60089 33.322 8.44286 32.6889C8.2597 31.9545 7.51707 30.8928 6.48926 31.0827Z" fill="white"/>
<path opacity="0.1" d="M5.36913 32.9209C5.36743 32.9019 5.36743 32.8847 5.36743 32.8657C5.36743 32.8467 5.36743 32.8295 5.36913 32.8105C5.38387 32.24 5.64165 31.7315 6.04112 31.3799C5.82613 31.601 5.3476 32.4345 5.8675 33.0698C6.20944 33.4877 7.83243 34.084 9.16808 33.3177C9.07145 33.4468 8.93165 33.568 8.74803 33.6742C7.97573 34.1207 6.72075 34.1207 5.94666 33.6742C5.58459 33.4639 5.39152 33.195 5.36913 32.9209Z" fill="#1F1A38"/>
<path opacity="0.3" d="M7.36842 31.3313C7.27982 31.5331 7.45003 31.803 7.74871 31.9341C8.04739 32.0652 8.36128 32.008 8.44988 31.8062C8.53848 31.6045 8.36827 31.3345 8.06959 31.2034C7.77091 31.0722 7.45702 31.1294 7.36842 31.3313Z" fill="white"/>
<path opacity="0.3" d="M8.51509 32.1526C8.4689 32.2578 8.53596 32.3888 8.6648 32.4454C8.79365 32.5019 8.93552 32.4625 8.98162 32.3574C9.02781 32.2523 8.96075 32.1213 8.8319 32.0647C8.70306 32.0082 8.56118 32.0476 8.51509 32.1526Z" fill="white"/>
<path d="M15.9783 34.1205C15.9532 33.1447 15.1537 32.3625 14.1716 32.3625C13.1911 32.3625 12.3901 33.1447 12.3649 34.1205C12.3633 34.1378 12.3633 34.1536 12.3633 34.1708C12.3633 34.1882 12.3633 34.2039 12.3649 34.2212C12.3854 34.4714 12.5616 34.7169 12.8937 34.9089C13.5987 35.3165 14.7445 35.3165 15.4511 34.9089C15.7817 34.7169 15.9579 34.4714 15.9783 34.2212C15.9799 34.2039 15.9799 34.1881 15.9799 34.1708C15.9798 34.1535 15.9798 34.1378 15.9783 34.1205Z" fill="#1F1A38"/>
<path opacity="0.9" d="M15.9783 34.1205C15.9532 33.1447 15.1537 32.3625 14.1716 32.3625C13.1911 32.3625 12.3901 33.1447 12.3649 34.1205C12.3633 34.1378 12.3633 34.1536 12.3633 34.1708C12.3633 34.1882 12.3633 34.2039 12.3649 34.2212C12.3854 34.4714 12.5616 34.7169 12.8937 34.9089C13.5987 35.3165 14.7445 35.3165 15.4511 34.9089C15.7817 34.7169 15.9579 34.4714 15.9783 34.2212C15.9799 34.2039 15.9799 34.1881 15.9799 34.1708C15.9798 34.1535 15.9798 34.1378 15.9783 34.1205Z" fill="white"/>
<path opacity="0.5" d="M14.9558 32.543C14.7183 32.4285 14.4529 32.3625 14.1716 32.3625C13.1911 32.3625 12.3901 33.1447 12.3649 34.1205C12.3633 34.1378 12.3633 34.1536 12.3633 34.1708C12.3633 34.1882 12.3633 34.2039 12.3649 34.2212C12.3854 34.4714 12.5616 34.7169 12.8937 34.9089C13.1514 35.0579 13.4681 35.1518 13.8005 35.1919C13.3316 35.111 13.0281 34.5876 13.1723 34.0095C13.3395 33.3389 14.0174 32.3697 14.9558 32.543Z" fill="white"/>
<path opacity="0.1" d="M15.9784 34.2212C15.98 34.2039 15.98 34.1881 15.98 34.1708C15.98 34.1536 15.98 34.1378 15.9784 34.1205C15.965 33.5996 15.7296 33.1355 15.3649 32.8144C15.5612 33.0163 15.9981 33.7772 15.5234 34.3572C15.2112 34.7387 13.7296 35.2831 12.5103 34.5835C12.5985 34.7014 12.7261 34.812 12.8938 34.9089C13.5988 35.3165 14.7446 35.3165 15.4512 34.9089C15.7817 34.7169 15.9579 34.4714 15.9784 34.2212Z" fill="#1F1A38"/>
<path opacity="0.5" d="M14.1532 32.77C14.2341 32.9542 14.0787 33.2006 13.8061 33.3203C13.5335 33.4401 13.2468 33.3878 13.166 33.2036C13.085 33.0194 13.2405 32.7729 13.5131 32.6532C13.7857 32.5335 14.0724 32.5857 14.1532 32.77Z" fill="white"/>
<path opacity="0.5" d="M13.1062 33.5198C13.1483 33.6158 13.0872 33.7355 12.9695 33.787C12.8519 33.8387 12.7224 33.8028 12.6803 33.7068C12.6382 33.6109 12.6994 33.4912 12.817 33.4396C12.9346 33.388 13.0641 33.4239 13.1062 33.5198Z" fill="white"/>
<path d="M8.43169 34.3169C8.45558 33.3888 9.21598 32.6449 10.15 32.6449C11.0825 32.6449 11.8444 33.3888 11.8683 34.3169C11.8698 34.3333 11.8698 34.3483 11.8698 34.3648C11.8698 34.3812 11.8698 34.3962 11.8683 34.4127C11.8488 34.6506 11.6812 34.8841 11.3654 35.0668C10.6948 35.4544 9.60515 35.4544 8.93308 35.0668C8.61872 34.8842 8.45114 34.6507 8.43169 34.4127C8.43017 34.3962 8.43018 34.3812 8.43018 34.3648C8.43018 34.3483 8.43017 34.3333 8.43169 34.3169Z" fill="#1F1A38"/>
<path opacity="0.9" d="M8.43169 34.3169C8.45558 33.3888 9.21598 32.6449 10.15 32.6449C11.0825 32.6449 11.8444 33.3888 11.8683 34.3169C11.8698 34.3333 11.8698 34.3483 11.8698 34.3648C11.8698 34.3812 11.8698 34.3962 11.8683 34.4127C11.8488 34.6506 11.6812 34.8841 11.3654 35.0668C10.6948 35.4544 9.60515 35.4544 8.93308 35.0668C8.61872 34.8842 8.45114 34.6507 8.43169 34.4127C8.43017 34.3962 8.43018 34.3812 8.43018 34.3648C8.43018 34.3483 8.43017 34.3333 8.43169 34.3169Z" fill="white"/>
<path opacity="0.5" d="M9.40405 32.8167C9.6299 32.7078 9.8823 32.6449 10.1499 32.6449C11.0824 32.6449 11.8443 33.3888 11.8682 34.3169C11.8697 34.3333 11.8697 34.3483 11.8697 34.3648C11.8697 34.3812 11.8697 34.3962 11.8682 34.4127C11.8487 34.6506 11.6811 34.8841 11.3653 35.0668C11.1203 35.2085 10.819 35.2977 10.5028 35.3359C10.9487 35.2589 11.2374 34.7611 11.1003 34.2113C10.9412 33.5736 10.2964 32.6518 9.40405 32.8167Z" fill="white"/>
<path opacity="0.1" d="M8.43169 34.4127C8.43017 34.3962 8.43018 34.3812 8.43018 34.3648C8.43018 34.3483 8.43017 34.3333 8.43169 34.3169C8.44444 33.8215 8.66831 33.38 9.01516 33.0747C8.82851 33.2668 8.41308 33.9904 8.8644 34.5421C9.16129 34.9049 10.5704 35.4226 11.7301 34.7573C11.6462 34.8695 11.5248 34.9747 11.3654 35.0669C10.6948 35.4545 9.60515 35.4545 8.93308 35.0669C8.61872 34.8842 8.45114 34.6507 8.43169 34.4127Z" fill="#1F1A38"/>
<path opacity="0.5" d="M10.1676 33.0325C10.0907 33.2077 10.2384 33.4421 10.4978 33.556C10.7571 33.6699 11.0297 33.6201 11.1066 33.4449C11.1836 33.2697 11.0357 33.0353 10.7764 32.9214C10.5171 32.8076 10.2445 32.8573 10.1676 33.0325Z" fill="white"/>
<path opacity="0.5" d="M11.1633 33.7457C11.1232 33.8369 11.1814 33.9508 11.2933 33.9999C11.4051 34.049 11.5283 34.0148 11.5683 33.9235C11.6084 33.8323 11.5502 33.7185 11.4384 33.6694C11.3265 33.6202 11.2033 33.6544 11.1633 33.7457Z" fill="white"/>
<path d="M12.8906 34.9177C12.8809 34.5398 12.5713 34.2369 12.1909 34.2369C11.8112 34.2369 11.5009 34.5398 11.4911 34.9177C11.4905 34.9244 11.4905 34.9305 11.4905 34.9372C11.4905 34.9439 11.4905 34.95 11.4911 34.9567C11.4991 35.0536 11.5674 35.1488 11.6959 35.2231C11.969 35.3809 12.4128 35.3809 12.6864 35.2231C12.8144 35.1488 12.8827 35.0536 12.8906 34.9567C12.8913 34.95 12.8913 34.944 12.8913 34.9372C12.8912 34.9306 12.8912 34.9244 12.8906 34.9177Z" fill="#1F1A38"/>
<path opacity="0.9" d="M12.8906 34.9177C12.8809 34.5398 12.5713 34.2369 12.1909 34.2369C11.8112 34.2369 11.5009 34.5398 11.4911 34.9177C11.4905 34.9244 11.4905 34.9305 11.4905 34.9372C11.4905 34.9439 11.4905 34.95 11.4911 34.9567C11.4991 35.0536 11.5674 35.1488 11.6959 35.2231C11.969 35.3809 12.4128 35.3809 12.6864 35.2231C12.8144 35.1488 12.8827 35.0536 12.8906 34.9567C12.8913 34.95 12.8913 34.944 12.8913 34.9372C12.8912 34.9306 12.8912 34.9244 12.8906 34.9177Z" fill="white"/>
<path opacity="0.6" d="M12.4946 34.3068C12.4026 34.2624 12.2998 34.2369 12.1909 34.2369C11.8112 34.2369 11.5009 34.5398 11.4911 34.9177C11.4905 34.9244 11.4905 34.9305 11.4905 34.9372C11.4905 34.9439 11.4905 34.95 11.4911 34.9567C11.4991 35.0536 11.5674 35.1488 11.6959 35.2231C11.7958 35.2808 11.9184 35.3172 12.0471 35.3327C11.8655 35.3013 11.748 35.0986 11.8038 34.8747C11.8686 34.6151 12.1312 34.2397 12.4946 34.3068Z" fill="white"/>
<path opacity="0.1" d="M12.8906 34.9567C12.8912 34.95 12.8912 34.944 12.8912 34.9372C12.8912 34.9305 12.8912 34.9244 12.8906 34.9177C12.8854 34.7161 12.7942 34.5362 12.653 34.4119C12.729 34.4901 12.8982 34.7848 12.7144 35.0094C12.5935 35.1572 12.0197 35.3681 11.5474 35.0971C11.5816 35.1428 11.631 35.1856 11.6959 35.2231C11.969 35.3809 12.4128 35.3809 12.6864 35.2231C12.8143 35.1488 12.8826 35.0536 12.8906 34.9567Z" fill="#1F1A38"/>
<path opacity="0.5" d="M12.1836 34.3947C12.215 34.466 12.1547 34.5615 12.0492 34.6079C11.9436 34.6543 11.8326 34.6341 11.8013 34.5627C11.7699 34.4912 11.8302 34.3958 11.9357 34.3495C12.0414 34.3031 12.1524 34.3234 12.1836 34.3947Z" fill="white"/>
<path opacity="0.5" d="M11.7782 34.6852C11.7946 34.7223 11.7709 34.7687 11.7253 34.7887C11.6798 34.8087 11.6297 34.7947 11.6133 34.7576C11.597 34.7205 11.6207 34.6741 11.6662 34.6541C11.7117 34.6341 11.7619 34.6479 11.7782 34.6852Z" fill="white"/>
<path d="M0.000566443 30.9536C0.0102957 30.5756 0.319933 30.2727 0.700319 30.2727C1.08004 30.2727 1.39034 30.5756 1.40007 30.9536C1.40064 30.9603 1.40064 30.9663 1.40064 30.973C1.40064 30.9797 1.40064 30.9859 1.40007 30.9925C1.39214 31.0894 1.32384 31.1845 1.19529 31.2589C0.922204 31.4167 0.478435 31.4167 0.204787 31.2589C0.0767951 31.1845 0.008501 31.0894 0.000566443 30.9925C-3.11332e-07 30.9858 0 30.9797 0 30.973C0 30.9663 -3.11332e-07 30.9603 0.000566443 30.9536Z" fill="#1F1A38"/>
<path opacity="0.2" d="M0.000566443 30.9536C0.0102957 30.5756 0.319933 30.2727 0.700319 30.2727C1.08004 30.2727 1.39034 30.5756 1.40007 30.9536C1.40064 30.9603 1.40064 30.9663 1.40064 30.973C1.40064 30.9797 1.40064 30.9859 1.40007 30.9925C1.39214 31.0894 1.32384 31.1845 1.19529 31.2589C0.922204 31.4167 0.478435 31.4167 0.204787 31.2589C0.0767951 31.1845 0.008501 31.0894 0.000566443 30.9925C-3.11332e-07 30.9858 0 30.9797 0 30.973C0 30.9663 -3.11332e-07 30.9603 0.000566443 30.9536Z" fill="white"/>
<path opacity="0.5" d="M0.396729 30.3426C0.488732 30.2982 0.591503 30.2727 0.700414 30.2727C1.08014 30.2727 1.39044 30.5756 1.40017 30.9536C1.40073 30.9603 1.40073 30.9663 1.40073 30.973C1.40073 30.9797 1.40073 30.9859 1.40017 30.9925C1.39223 31.0894 1.32394 31.1845 1.19538 31.2589C1.09563 31.3166 0.972929 31.3529 0.844181 31.3684C1.02583 31.3371 1.14333 31.1344 1.08751 30.9104C1.02271 30.6508 0.760112 30.2754 0.396729 30.3426Z" fill="white"/>
<path opacity="0.05" d="M0.000566443 30.9925C-3.11332e-07 30.9858 0 30.9797 0 30.973C0 30.9663 -3.11332e-07 30.9603 0.000566443 30.9536C0.00576169 30.7519 0.0969146 30.572 0.238131 30.4477C0.162091 30.526 -0.00708422 30.8207 0.176733 31.0453C0.297641 31.193 0.871479 31.4039 1.34377 31.1329C1.30958 31.1786 1.26018 31.2215 1.19519 31.259C0.922109 31.4168 0.478341 31.4168 0.204693 31.259C0.0767959 31.1845 0.008501 31.0895 0.000566443 30.9925Z" fill="white"/>
<path opacity="0.3" d="M0.707518 30.4304C0.676158 30.5018 0.736423 30.5973 0.841934 30.6436C0.947539 30.69 1.05853 30.6698 1.08989 30.5984C1.12125 30.5271 1.06108 30.4316 0.955473 30.3852C0.849868 30.3389 0.738878 30.3591 0.707518 30.4304Z" fill="white"/>
<path opacity="0.3" d="M1.11283 30.7209C1.09649 30.758 1.1202 30.8044 1.16573 30.8244C1.21126 30.8445 1.26142 30.8306 1.27776 30.7934C1.2941 30.7562 1.27039 30.7099 1.22486 30.6898C1.17933 30.6698 1.12917 30.6838 1.11283 30.7209Z" fill="white"/>
<path d="M14.4287 18.6898L14.8124 14.0378L16.3582 14.9302C17.1006 15.3588 17.433 16.4568 17.3109 18.0774L17.1147 20.6835L16.6979 19.24C16.4709 18.4539 15.8924 18.1828 15.0584 18.4717L14.4287 18.6898Z" fill="#B7B7B7"/>
<path d="M9.8244 18.6898L9.44071 14.0378L7.89489 14.9302C7.15253 15.3588 6.82013 16.4568 6.94217 18.0774L7.13846 20.6835L7.55521 19.24C7.7822 18.4539 8.36066 18.1828 9.19474 18.4717L9.8244 18.6898Z" fill="#B7B7B7"/>
<path d="M14.4127 20.9403H14.4142L14.1238 19.6585H10.1321L9.84177 20.9403H9.84328C9.76743 21.3283 9.98563 21.7317 10.501 22.0293C11.3995 22.548 12.8563 22.548 13.7548 22.0293C14.2704 21.7317 14.4886 21.3282 14.4127 20.9403Z" fill="#CDCDCD"/>
<path d="M12.128 20.9788C13.2405 20.9788 14.1423 20.4581 14.1423 19.8159C14.1423 19.1737 13.2405 18.653 12.128 18.653C11.0156 18.653 10.1138 19.1737 10.1138 19.8159C10.1138 20.4581 11.0156 20.9788 12.128 20.9788Z" fill="white"/>
<path d="M9.84328 20.9402C9.76743 21.3283 9.98563 21.7317 10.501 22.0293C11.3995 22.548 12.8563 22.548 13.7548 22.0293C14.2702 21.7317 14.4884 21.3282 14.4125 20.9402L14.3313 20.5733C14.4114 20.9247 14.2121 21.3018 13.7326 21.5787C12.8463 22.0904 11.4094 22.0904 10.5231 21.5787C10.0452 21.3028 9.84574 20.9273 9.92357 20.577L9.84328 20.9402Z" fill="#B7B7B7"/>
<path d="M10.0244 20.1343C9.94508 20.4791 10.138 20.8454 10.6032 21.1141C11.4453 21.6002 12.8106 21.6002 13.6527 21.1141C14.1157 20.8467 14.3089 20.4827 14.2326 20.1393L14.1238 19.6585C14.2056 20.0061 14.015 20.371 13.5523 20.6383C12.7656 21.0924 11.4903 21.0924 10.7037 20.6383C10.2408 20.371 10.0503 20.0061 10.1321 19.6585L10.0244 20.1343Z" fill="#B7B7B7"/>
<path opacity="0.1" d="M13.6192 19.6585H13.3174C13.4172 20.0915 13.6817 21.2502 13.7164 21.5144C13.7592 21.8405 13.036 22.3896 11.1355 22.2871C11.991 22.5235 13.0461 22.4385 13.7548 22.0293C13.9542 21.9142 14.1085 21.7831 14.2191 21.6434L13.6192 19.6585Z" fill="white"/>
<path d="M12.128 20.9788C13.2405 20.9788 14.1423 20.4581 14.1423 19.8159C14.1423 19.1737 13.2405 18.653 12.128 18.653C11.0156 18.653 10.1138 19.1737 10.1138 19.8159C10.1138 20.4581 11.0156 20.9788 12.128 20.9788Z" fill="white"/>
<path d="M16.1403 10.3722C16.1403 5.40287 14.0408 1.10838 12.4796 0.113918C12.4661 0.104188 12.4521 0.0951203 12.4379 0.0864301C12.4354 0.0849188 12.4328 0.0829353 12.4303 0.0815184H12.4298C12.341 0.0300382 12.2381 0 12.1281 0C12.018 0 11.9151 0.0300382 11.8264 0.0815184H11.8257C11.8232 0.0830298 11.8207 0.0849188 11.8181 0.0864301C11.8038 0.0950259 11.7899 0.104188 11.7764 0.113918C10.2153 1.10838 8.11572 5.40287 8.11572 10.3722C8.11572 15.154 9.4561 19.3922 9.58409 19.786C9.58721 19.796 9.59042 19.8059 9.59391 19.8159V19.816C9.6913 20.0938 9.92622 20.3588 10.2993 20.5743C11.3093 21.1574 12.9468 21.1574 13.9568 20.5743C14.3434 20.3511 14.5814 20.0747 14.6721 19.786C14.8002 19.3914 16.1403 15.1535 16.1403 10.3722Z" fill="#1F1A38"/>
<path d="M13.6218 1.30835C13.2345 0.753875 12.8425 0.343922 12.4798 0.113442C12.4666 0.103996 12.4524 0.0954952 12.4382 0.0860493C12.4354 0.0851047 12.4326 0.0832152 12.4307 0.081326H12.4297C12.3409 0.0303181 12.238 9.15527e-05 12.1284 9.15527e-05C12.0179 9.15527e-05 11.9149 0.0303181 11.8261 0.081326H11.8252C11.8233 0.0832152 11.8205 0.0851047 11.8176 0.0860493C11.8035 0.0954952 11.7902 0.103996 11.7761 0.113442C11.4134 0.344867 11.0214 0.753874 10.6331 1.30929C10.4064 1.63329 10.1816 2.00735 9.96436 2.42391C10.0324 2.68084 10.2373 2.92738 10.5802 3.1248C11.4351 3.61882 12.8208 3.61882 13.6757 3.1248C14.0176 2.92738 14.2235 2.68084 14.2915 2.42391C14.0743 2.0064 13.8485 1.63234 13.6218 1.30835Z" fill="white"/>
<path opacity="0.15" d="M8.11572 10.3722C8.11572 15.154 9.4561 19.3922 9.58409 19.786C9.58721 19.796 9.59042 19.8059 9.59391 19.8159V19.816C9.6913 20.0938 9.92622 20.3588 10.2993 20.5743C10.4706 20.6732 10.6609 20.7539 10.8622 20.8192C10.2083 18.4684 9.44089 14.4766 9.4408 10.4935C9.4407 4.98734 10.7964 1.08581 11.7765 0.114105C10.2152 1.10838 8.11572 5.40287 8.11572 10.3722Z" fill="black"/>
<path opacity="0.35" d="M16.1404 10.3722C16.1404 15.154 14.8 19.3922 14.672 19.786C14.6689 19.796 14.6657 19.8059 14.6622 19.8159V19.816C14.5648 20.0938 14.3299 20.3588 13.9568 20.5743C14.7143 17.8038 15.5799 14.4766 15.5799 10.4935C15.58 4.98734 13.4597 1.08581 12.4797 0.114105C14.0409 1.10838 16.1404 5.40287 16.1404 10.3722Z" fill="white"/>
<path d="M16.6474 17.3796L15.196 14.7023L14.8123 14.9238L14.1453 19.1328L14.7749 19.6417C15.609 20.3159 16.1875 21.255 16.4145 22.3032L16.8312 24.2279C16.8312 24.2279 17.0143 23.0045 17.2149 21.5232C17.3946 20.1967 17.3897 18.6655 16.6474 17.3796Z" fill="white"/>
<path d="M14.1455 19.1329L14.8126 14.9239L16.2639 17.6012C17.0063 18.887 17.1498 20.3688 17.0277 21.8485L16.8315 24.2281L16.4147 22.3033C16.1877 21.2551 15.6092 20.316 14.7752 19.6418L14.1455 19.1329Z" fill="#CDCDCD"/>
<path d="M7.60567 17.3796L9.05703 14.7023L9.44073 14.9238L10.1078 19.1328L9.47813 19.6417C8.64406 20.3159 8.06559 21.255 7.83861 22.3032L7.42185 24.2279C7.42185 24.2279 7.23879 23.0045 7.03816 21.5232C6.8585 20.1967 6.86332 18.6655 7.60567 17.3796Z" fill="white"/>
<path d="M10.1077 19.1329L9.44063 14.9239L7.98927 17.6012C7.24692 18.887 7.10344 20.3688 7.22548 21.8485L7.42176 24.2281L7.83851 22.3033C8.0655 21.2551 8.64397 20.316 9.47804 19.6418L10.1077 19.1329Z" fill="#CDCDCD"/>
<path d="M13.8802 7.86884C13.9603 6.9015 13.241 6.0524 12.2737 5.97232C11.3064 5.89224 10.4573 6.61151 10.3772 7.57885C10.2971 8.5462 11.0164 9.3953 11.9837 9.47538C12.951 9.55546 13.8002 8.83618 13.8802 7.86884Z" fill="#CDCDCD"/>
<path d="M12.1279 9.12049C12.8992 9.12049 13.5245 8.49518 13.5245 7.72382C13.5245 6.95246 12.8992 6.32715 12.1279 6.32715C11.3565 6.32715 10.7312 6.95246 10.7312 7.72382C10.7312 8.49518 11.3565 9.12049 12.1279 9.12049Z" fill="#1F1A38"/>
<path opacity="0.7" d="M12.1279 9.12049C12.8992 9.12049 13.5245 8.49518 13.5245 7.72382C13.5245 6.95246 12.8992 6.32715 12.1279 6.32715C11.3565 6.32715 10.7312 6.95246 10.7312 7.72382C10.7312 8.49518 11.3565 9.12049 12.1279 9.12049Z" fill="white"/>
<path d="M13.3811 11.9357C13.3811 12.6279 12.82 13.189 12.1278 13.189C11.4357 13.189 10.8745 12.6279 10.8745 11.9357C10.8745 11.2436 11.4356 10.6825 12.1278 10.6825C12.82 10.6825 13.3811 11.2436 13.3811 11.9357Z" fill="#CDCDCD"/>
<path d="M13.0157 12.1475C13.1313 11.6576 12.828 11.1666 12.338 11.0509C11.8481 10.9353 11.3571 11.2386 11.2415 11.7286C11.1258 12.2185 11.4292 12.7095 11.9191 12.8251C12.409 12.9408 12.9 12.6374 13.0157 12.1475Z" fill="#1F1A38"/>
<path opacity="0.7" d="M13.0157 12.1475C13.1313 11.6576 12.828 11.1666 12.338 11.0509C11.8481 10.9353 11.3571 11.2386 11.2415 11.7286C11.1258 12.2185 11.4292 12.7095 11.9191 12.8251C12.409 12.9408 12.9 12.6374 13.0157 12.1475Z" fill="white"/>
<path d="M6.65269 5.8387C6.6491 5.86883 6.62294 5.89103 6.59262 5.8898L6.53632 5.88744C6.38953 5.88121 6.26239 5.98124 6.23386 6.12538L6.223 6.18055C6.21724 6.2103 6.18937 6.23061 6.15934 6.22702C6.1292 6.22343 6.10691 6.19727 6.10814 6.16694L6.1105 6.11065C6.11673 5.96386 6.0167 5.83672 5.87246 5.80828L5.8173 5.79733C5.78754 5.79147 5.76733 5.7637 5.77092 5.73357C5.77451 5.70353 5.80077 5.68114 5.83109 5.68246L5.88729 5.68492C6.03408 5.69106 6.16123 5.59103 6.18966 5.44688L6.20062 5.39162C6.20647 5.36187 6.23434 5.34166 6.26447 5.34525C6.29451 5.34884 6.3168 5.37509 6.31548 5.40542L6.31302 5.46171C6.30688 5.60841 6.40691 5.73555 6.55106 5.76408L6.60622 5.77494C6.63597 5.7807 6.65628 5.80857 6.65269 5.8387ZM6.194 5.93552C6.23717 5.87771 6.29479 5.83237 6.3611 5.80403C6.30329 5.76087 6.25795 5.70334 6.22961 5.63693C6.18654 5.69474 6.12892 5.74008 6.06252 5.76842C6.12032 5.8115 6.16566 5.86912 6.194 5.93552Z" fill="#1F1A38"/>
<path d="M5.25164 2.71259C5.22737 2.91643 5.04185 3.06237 4.83791 3.03809C4.63407 3.01382 4.48813 2.8282 4.5124 2.62446C4.53668 2.42061 4.72229 2.27467 4.92604 2.29895C5.12998 2.32323 5.27601 2.50874 5.25164 2.71259ZM4.62764 2.63815C4.61093 2.77842 4.71143 2.90613 4.8517 2.92285C4.99207 2.93957 5.11978 2.83907 5.1365 2.69879C5.15322 2.55852 5.05271 2.43081 4.91234 2.4141C4.77207 2.39747 4.64436 2.49797 4.62764 2.63815Z" fill="#1F1A38"/>
<path d="M8.0526 1.37938C8.04882 1.41131 8.02001 1.43389 7.98808 1.43011L7.79576 1.40716C7.76393 1.40338 7.74126 1.37457 7.74504 1.34264C7.74882 1.31081 7.77763 1.28814 7.80955 1.29192L8.00187 1.31487C8.03371 1.31874 8.05638 1.34755 8.0526 1.37938Z" fill="#1F1A38"/>
<path d="M8.15398 1.50804L8.13103 1.70046C8.12725 1.73229 8.09844 1.75496 8.06652 1.75118C8.03468 1.7474 8.01201 1.7185 8.01579 1.68666L8.03874 1.49425C8.04252 1.46242 8.07133 1.43975 8.10326 1.44353C8.13509 1.4474 8.15776 1.47621 8.15398 1.50804Z" fill="#1F1A38"/>
<path d="M8.4863 1.43105C8.48253 1.46288 8.45362 1.48555 8.42179 1.48177L8.22938 1.45882C8.19754 1.45504 8.17478 1.42623 8.17865 1.39431C8.18243 1.36247 8.21124 1.3398 8.24317 1.34358L8.43558 1.36654C8.46732 1.37041 8.49008 1.39922 8.4863 1.43105Z" fill="#1F1A38"/>
<path d="M8.20552 1.07446L8.18257 1.26678C8.17879 1.29862 8.14998 1.32129 8.11805 1.31751C8.08612 1.31373 8.06345 1.28492 8.06733 1.25299L8.09028 1.06067C8.09406 1.02875 8.12287 1.00617 8.15479 1.00995C8.18663 1.01373 8.2093 1.04254 8.20552 1.07446Z" fill="#1F1A38"/>
<path d="M18.0956 5.79014C18.0963 5.79043 18.097 5.79071 18.0977 5.7909C18.1256 5.80299 18.1394 5.83444 18.1296 5.86307L18.1113 5.91643L18.1112 5.91653C18.0633 6.05538 18.123 6.20576 18.253 6.27415L18.3028 6.30032C18.3296 6.31449 18.341 6.34688 18.3291 6.37466C18.317 6.40252 18.2856 6.41641 18.2569 6.40658L18.2037 6.38826C18.0647 6.34027 17.9143 6.39997 17.8461 6.53004L17.8199 6.57982C17.8057 6.60665 17.7726 6.61732 17.7455 6.60617C17.7177 6.59408 17.7038 6.56263 17.7136 6.53401L17.7319 6.48073C17.7799 6.34178 17.7202 6.19141 17.5902 6.12311L17.5403 6.09685C17.5135 6.08268 17.502 6.05019 17.514 6.02242C17.5261 5.99455 17.5577 5.98076 17.5863 5.99059L17.6395 6.009C17.7783 6.0568 17.9288 5.9971 17.9971 5.86722L18.0233 5.81735C18.0371 5.79099 18.0683 5.77956 18.0956 5.79014ZM18.0597 6.25819C18.0165 6.20038 17.9895 6.13227 17.9813 6.06058C17.9235 6.10375 17.8554 6.13076 17.7837 6.13889C17.8269 6.19669 17.8539 6.26489 17.8621 6.33659C17.9198 6.29333 17.988 6.26641 18.0597 6.25819Z" fill="#1F1A38"/>
<path d="M16.778 2.20533C16.8483 2.23253 16.9111 2.28127 16.9554 2.34928C17.0674 2.52129 17.0184 2.75234 16.8463 2.86427C16.6743 2.97621 16.4433 2.92747 16.3314 2.75517C16.2194 2.58316 16.2683 2.35212 16.4404 2.24018C16.5445 2.17264 16.6701 2.16377 16.778 2.20533ZM16.5505 2.79116C16.5633 2.79607 16.5766 2.80004 16.5903 2.80297C16.6571 2.81714 16.7256 2.80448 16.783 2.76717C16.8403 2.72976 16.8797 2.67243 16.8939 2.60546C16.908 2.53858 16.8954 2.4701 16.8581 2.41276C16.7809 2.29431 16.6219 2.26068 16.5036 2.33767C16.3852 2.41474 16.3515 2.57381 16.4285 2.69217C16.4583 2.7376 16.5007 2.77189 16.5505 2.79116Z" fill="#1F1A38"/>
<path d="M19.7946 3.27377C19.7949 3.27386 19.7952 3.27405 19.7956 3.27415L19.975 3.34726C20.0046 3.35935 20.0189 3.39326 20.0067 3.42292C19.9946 3.45258 19.9623 3.46599 19.931 3.45466L19.7517 3.38155C19.722 3.36945 19.7077 3.33554 19.7199 3.30588C19.7318 3.2766 19.7652 3.26243 19.7946 3.27377Z" fill="#1F1A38"/>
<path d="M19.8044 2.94334C19.8048 2.94344 19.8051 2.94362 19.8055 2.94372C19.8351 2.95581 19.8494 2.98972 19.8372 3.01938L19.7641 3.19876C19.752 3.22842 19.7154 3.24221 19.6884 3.23059C19.6588 3.2185 19.6445 3.18459 19.6567 3.15493L19.7298 2.97555C19.7417 2.94627 19.7751 2.93201 19.8044 2.94334Z" fill="#1F1A38"/>
<path d="M19.3905 3.10875C19.3909 3.10884 19.3912 3.10903 19.3915 3.10912L19.5709 3.18233C19.6006 3.19452 19.6148 3.22833 19.6026 3.25799C19.5906 3.28765 19.5561 3.3004 19.527 3.28982L19.3476 3.21662C19.318 3.20443 19.3037 3.17062 19.3159 3.14096C19.3278 3.11167 19.361 3.09741 19.3905 3.10875Z" fill="#1F1A38"/>
<path d="M19.6395 3.34782C19.6399 3.34791 19.6401 3.3481 19.6405 3.3482C19.6702 3.36038 19.6845 3.3942 19.6724 3.42386L19.5991 3.60324C19.587 3.63299 19.5498 3.64876 19.5234 3.63497C19.4937 3.62279 19.4795 3.58897 19.4917 3.55931L19.565 3.37993C19.5768 3.35065 19.6101 3.33648 19.6395 3.34782Z" fill="#1F1A38"/>
</svg>
