<svg width="25" height="24" viewBox="0 0 25 24" fill="none" xmlns="http://www.w3.org/2000/svg">
<path fill-rule="evenodd" clip-rule="evenodd" d="M9.59149 12.9117C9.58182 13.1404 9.57395 13.3482 9.56363 13.5558C9.56111 13.6076 9.55541 13.6604 9.54314 13.7106C9.50121 13.8831 9.43366 13.9403 9.25635 13.9424C9.04108 13.9451 8.82573 13.94 8.61039 13.9383C8.53908 13.9378 8.46786 13.9381 8.39179 13.9381C8.39179 13.967 8.38768 13.9862 8.39244 14.0029C8.44108 14.1734 8.44152 14.1735 8.61161 14.1737C8.7291 14.1738 8.84579 14.1768 8.96299 14.1921C9.10415 14.2103 9.18967 14.2843 9.22286 14.4192C9.29914 14.7293 9.37766 15.039 9.42897 15.3543C9.4551 15.5152 9.47307 15.6774 9.49255 15.8392C9.49962 15.8974 9.50662 15.9566 9.5028 16.0146C9.49096 16.1909 9.425 16.2607 9.24942 16.2766C9.15893 16.285 9.06655 16.2839 8.97577 16.2775C8.8984 16.2717 8.8533 16.2854 8.845 16.375C8.83858 16.4455 8.81577 16.5153 8.79355 16.5831C8.63738 17.06 8.72932 17.4827 9.0703 17.85C9.19017 17.9789 9.30954 18.1096 9.44016 18.2271C10.0306 18.7586 10.2072 19.434 10.1247 20.1956C10.0905 20.5119 10.1153 20.8203 10.1874 21.1271C10.2328 21.3205 10.3127 21.5032 10.4529 21.6435C10.88 22.0714 10.8825 22.6151 10.8764 23.1594C10.8744 23.3395 10.7815 23.4177 10.5999 23.4174C10.2346 23.4167 9.86897 23.4146 9.5041 23.3994C9.00247 23.3782 8.49954 23.3879 7.99913 23.3366C7.76589 23.3129 7.53315 23.2822 7.29948 23.2639C7.08312 23.2469 6.95683 23.1298 6.88365 22.9346C6.80348 22.7207 6.74026 22.5017 6.67697 22.2825C6.25378 20.8177 5.79473 19.364 5.33698 17.9096C4.96142 16.7165 4.60485 15.5173 4.26833 14.3124C4.24567 14.2308 4.21789 14.1506 4.19487 14.0692C4.16391 13.9593 4.12523 13.8687 3.99049 13.8398C3.86853 13.8138 3.82704 13.6966 3.79961 13.5876C3.7299 13.3095 3.66553 13.0301 3.59935 12.7513C3.5948 12.7324 3.59408 12.7124 3.58939 12.6935C3.56103 12.5804 3.57517 12.4405 3.49406 12.3619C3.41908 12.2891 3.28542 12.3088 3.17768 12.288C3.12016 12.277 3.0638 12.2597 3.00679 12.2464C2.8281 12.2045 2.70636 12.095 2.63888 11.9276C2.6155 11.8698 2.59739 11.8353 2.52248 11.8241C1.67481 11.6969 1.05244 11.2275 0.581844 10.5316C0.104606 9.82577 -0.0571192 9.04435 0.0172847 8.20433C0.0929153 7.3488 0.529379 6.7164 1.22774 6.24912C1.53235 6.0454 1.85429 5.87458 2.22479 5.81901C2.33513 5.80248 2.4454 5.79786 2.55647 5.79938C2.70419 5.8014 2.84355 5.80573 2.99134 5.73861C3.12088 5.67987 3.28485 5.69264 3.43416 5.68211C4.80201 5.58591 6.15665 5.39337 7.5014 5.12895C9.61495 4.71334 11.6884 4.15391 13.696 3.36845C15.1029 2.81803 16.4343 2.12386 17.6594 1.23101C18.1065 0.905109 18.553 0.576606 19.0333 0.296311C19.3297 0.123255 19.6452 0.0432943 19.978 0.0106028C20.2916 -0.0202123 20.603 0.0224384 20.9141 0.0582331C21.1504 0.0853677 21.3077 0.217649 21.4041 0.428736C21.5262 0.696402 21.6041 0.979585 21.6911 1.25937C21.8757 1.85331 21.9542 2.46759 22.0451 3.08036C22.2783 4.6551 22.2816 6.23902 22.2531 7.82466C22.2384 8.64657 22.2176 9.46833 22.1976 10.2902C22.1816 10.9488 22.1227 11.6052 22.0847 12.2627C22.0488 12.8809 22.0355 13.5015 21.9607 14.1168C21.8383 15.1257 21.7308 16.1379 21.4568 17.1216C21.4167 17.2659 21.3666 17.4073 21.3167 17.5484C21.232 17.7868 21.0566 17.9016 20.8079 17.8963C20.3904 17.8878 19.973 17.867 19.5555 17.884C19.1982 17.8986 18.8946 17.7674 18.6142 17.5634C18.3239 17.3524 18.0417 17.1319 17.782 16.8826C16.9629 16.096 16.0379 15.4525 15.0454 14.9078C13.8787 14.2673 12.6765 13.7038 11.3922 13.335C10.8475 13.1784 10.2955 13.05 9.74174 12.9291C9.69772 12.9198 9.65175 12.9185 9.59149 12.9117Z" fill="#010000"/>
<path fill-rule="evenodd" clip-rule="evenodd" d="M24.8191 11.7253C24.811 11.7839 24.7768 11.8194 24.7161 11.8157C24.6852 11.8137 24.6545 11.7964 24.6254 11.7828C24.3201 11.6398 24.0144 11.4976 23.7107 11.3513C23.6461 11.3202 23.5341 11.3001 23.5802 11.196C23.6247 11.0955 23.7133 11.1556 23.7815 11.186C24.0835 11.3209 24.3849 11.4568 24.6854 11.5947C24.7432 11.6211 24.8075 11.6465 24.8191 11.7253Z" fill="#FFCB4A"/>
<path fill-rule="evenodd" clip-rule="evenodd" d="M23.1777 13.3028C23.234 13.3038 23.2734 13.3396 23.3136 13.3715C23.5571 13.5649 23.8008 13.758 24.0627 13.9269C24.079 13.9374 24.0943 13.9494 24.1089 13.9621C24.1521 14.0003 24.1751 14.0457 24.1372 14.0979C24.0955 14.1552 24.0394 14.1568 23.9841 14.1182C23.91 14.0662 23.8371 14.0125 23.7658 13.9569C23.5664 13.8017 23.3678 13.6455 23.1697 13.4888C23.1448 13.4692 23.1175 13.4479 23.1025 13.4212C23.0692 13.3624 23.1111 13.3001 23.1777 13.3028Z" fill="#FFCB4A"/>
<path fill-rule="evenodd" clip-rule="evenodd" d="M24.2128 8.69681C24.3881 8.70857 24.5636 8.71961 24.7388 8.73238C24.7842 8.7357 24.8294 8.74249 24.8742 8.75014C24.9416 8.76161 25.0129 8.78218 24.9973 8.86791C24.9818 8.95343 24.9071 8.94492 24.8403 8.93719C24.5491 8.90306 24.2569 8.88516 23.964 8.8752C23.951 8.8747 23.9377 8.87441 23.9253 8.87116C23.8611 8.85435 23.7599 8.8752 23.7691 8.76912C23.7778 8.66751 23.8718 8.69284 23.9393 8.69096C24.0304 8.68836 24.1215 8.69031 24.2127 8.69031C24.2128 8.69255 24.2128 8.69464 24.2128 8.69681Z" fill="#FFCB4A"/>
<path fill-rule="evenodd" clip-rule="evenodd" d="M24.6335 5.71412C24.696 5.71131 24.7582 5.71802 24.7629 5.79618C24.7672 5.86943 24.7097 5.89245 24.6487 5.9045C24.3874 5.95603 24.1263 6.00813 23.8649 6.05836C23.8271 6.06565 23.7874 6.0663 23.7487 6.06594C23.704 6.06565 23.6755 6.03808 23.6663 5.99723C23.6563 5.95365 23.6812 5.92355 23.7188 5.90414C23.7303 5.89822 23.7428 5.89303 23.7553 5.89043C24.0351 5.83226 24.3148 5.77438 24.5948 5.71672C24.6073 5.71405 24.6205 5.71485 24.6335 5.71412Z" fill="#FFCB4A"/>
<path fill-rule="evenodd" clip-rule="evenodd" d="M24.0156 3.62166C24.0118 3.6563 23.9878 3.68639 23.9574 3.71172C23.7783 3.8606 23.5986 4.00898 23.4193 4.15743C23.3761 4.19322 23.3256 4.21602 23.2808 4.17157C23.227 4.11846 23.2532 4.06375 23.3024 4.02161C23.489 3.86154 23.6768 3.70256 23.865 3.54437C23.8971 3.51731 23.9379 3.51413 23.9745 3.53347C24.0045 3.54942 24.0179 3.5798 24.0156 3.62166Z" fill="#FFCB4A"/>
<path fill-rule="evenodd" clip-rule="evenodd" d="M2.77765 10.6106C2.75665 10.2063 2.78183 9.80234 2.79223 9.39842C2.80955 8.72705 2.83235 8.05561 2.86612 7.3849C2.88705 6.96857 2.93028 6.55325 2.96795 6.13793C2.98606 5.93824 3.00613 5.92446 3.20639 5.90404C3.80927 5.84255 4.41374 5.8004 5.01568 5.72622C5.92166 5.61465 6.81999 5.4623 7.71529 5.28687C8.98817 5.03739 10.2455 4.72361 11.4851 4.3456C12.7501 3.95987 13.9955 3.51438 15.1875 2.93654C16.009 2.53833 16.8008 2.08512 17.5453 1.55354C17.9645 1.25434 18.3843 0.956145 18.8062 0.660695C18.9227 0.579146 19.0472 0.508928 19.1794 0.426514C19.2013 0.508279 19.1631 0.564063 19.1469 0.622013C18.9906 1.1826 18.9093 1.75712 18.8361 2.33251C18.7097 3.32834 18.604 4.32654 18.53 5.32764C18.466 6.19249 18.4221 7.05914 18.4117 7.92643C18.3969 9.16561 18.4089 10.405 18.4481 11.6438C18.4631 12.1192 18.4971 12.5941 18.5226 13.0692C18.5422 13.1057 18.5327 13.1459 18.5375 13.1841C18.5552 13.3246 18.4863 13.3485 18.3631 13.3309C17.7531 13.2443 17.1624 13.0837 16.5904 12.8584C15.3588 12.3731 14.1198 11.9071 12.8468 11.5411C11.9547 11.2846 11.0417 11.1508 10.1134 11.0899C9.20957 11.0306 8.30403 10.9735 7.40115 10.9929C6.50188 11.0124 5.60304 11.0159 4.70406 11.0165C4.09296 11.0168 3.50776 10.8376 2.91592 10.7105C2.85616 10.6976 2.80796 10.6657 2.77765 10.6106Z" fill="#EEF7F9"/>
<path fill-rule="evenodd" clip-rule="evenodd" d="M2.77801 10.6106C3.04871 10.703 3.32872 10.7558 3.60923 10.8049C3.84529 10.8463 4.07817 10.9029 4.31581 10.9371C4.39967 10.9492 4.48223 10.9625 4.56666 10.9625C5.36771 10.9625 6.16876 10.9611 6.96989 10.9622C7.13277 10.9623 7.29045 10.9201 7.45485 10.9224C8.03384 10.9303 8.61204 10.9629 9.19118 10.9722C9.62446 10.979 10.0608 11.0079 10.4927 11.0494C11.6391 11.1594 12.7511 11.4244 13.8461 11.7892C14.7906 12.1039 15.7116 12.4762 16.6435 12.8216C17.1005 12.991 17.5658 13.137 18.0462 13.2227C18.1917 13.2486 18.3396 13.2668 18.4861 13.3008C18.5392 13.2248 18.495 13.141 18.523 13.0692C18.5835 13.2651 18.5674 13.4698 18.5809 13.6694C18.6693 14.9808 18.9038 16.2682 19.2005 17.5457C19.2075 17.5766 19.2244 17.6072 19.2003 17.647C19.0524 17.624 18.9245 17.5513 18.8044 17.4648C18.5554 17.286 18.3061 17.1057 18.0861 16.8918C16.8608 15.7004 15.4264 14.8275 13.8949 14.0904C12.3724 13.3576 10.7682 12.9086 9.11417 12.6051C8.50877 12.494 7.89622 12.4747 7.28699 12.4122C6.37841 12.3194 5.46536 12.2933 4.55454 12.2337C4.1315 12.206 3.70817 12.1858 3.29083 12.1045C3.27806 12.1021 3.26492 12.1015 3.25208 12.0992C2.86512 12.0308 2.79165 11.9528 2.76719 11.5676C2.74684 11.2485 2.74944 10.9293 2.77801 10.6106Z" fill="#CAD0D3"/>
<path fill-rule="evenodd" clip-rule="evenodd" d="M20.9574 0.268798C20.579 0.662251 20.4814 1.13025 20.4054 1.60078C20.2879 2.32771 20.2096 3.05963 20.1514 3.79428C20.0681 4.84113 20.0194 5.88885 19.9916 6.93851C19.9557 8.28226 19.9477 9.62643 19.9821 10.9693C20.0105 12.0766 20.0927 13.183 20.1733 14.288C20.2387 15.1848 20.3419 16.0785 20.5171 16.9622C20.5666 17.2114 20.6162 17.4601 20.7709 17.6695C20.7459 17.7205 20.7022 17.7039 20.6683 17.7022C20.3162 17.6853 19.9639 17.6886 19.6117 17.689C19.4206 17.6894 19.4186 17.6858 19.3787 17.5026C19.1828 16.5982 18.9994 15.691 18.8851 14.7722C18.8248 14.2874 18.7937 13.799 18.7512 13.3122C18.5972 11.5557 18.596 9.79458 18.6101 8.03379C18.619 6.92552 18.6834 5.81892 18.7827 4.71441C18.8533 3.92909 18.9358 3.14514 19.034 2.36293C19.1038 1.80689 19.1808 1.25164 19.3335 0.710313C19.4418 0.326026 19.4996 0.278612 19.8908 0.225137C20.2376 0.177796 20.5778 0.225859 20.9574 0.268798Z" fill="#CCAAE2"/>
<path fill-rule="evenodd" clip-rule="evenodd" d="M9.0352 23.1853C8.50016 23.1976 7.96952 23.1363 7.43743 23.0959C7.20823 23.0786 7.088 22.9728 7.02579 22.7567C6.83635 22.1 6.63775 21.446 6.44095 20.7915C5.91601 19.0459 5.34467 17.3148 4.83236 15.5655C4.82326 15.5343 4.818 15.5021 4.81092 15.4704C4.75911 15.3216 4.85971 15.3099 4.96435 15.295C5.32114 15.2443 5.68003 15.2541 6.03855 15.2541C6.2474 15.2541 6.45676 15.2645 6.66489 15.2522C7.33474 15.2121 7.8412 15.8347 7.75583 16.4511C7.63639 17.3144 7.93892 18.0248 8.44639 18.682C8.6022 18.8838 8.74365 19.0944 8.86099 19.3213C8.99197 19.5753 9.07778 19.839 9.05966 20.1284C9.01167 20.8953 9.22998 21.599 9.57306 22.2716C9.69552 22.5116 9.80255 22.7527 9.81929 23.0279C9.82694 23.1545 9.79396 23.2087 9.6598 23.1996C9.45189 23.1858 9.2429 23.2126 9.0352 23.1853Z" fill="#CCAAE2"/>
<path fill-rule="evenodd" clip-rule="evenodd" d="M22.0764 6.89447C22.0624 7.70021 22.0588 8.54153 22.0293 9.38206C22.0077 9.9941 22.0024 10.6069 21.9605 11.2184C21.9012 12.0827 21.8714 12.9493 21.7946 13.8119C21.7098 14.7648 21.5763 15.7131 21.3756 16.6497C21.3238 16.8911 21.2445 17.1265 21.1778 17.365C21.1761 17.3713 21.1749 17.3779 21.1724 17.3838C21.1392 17.4602 21.1218 17.5625 21.0171 17.5613C20.9119 17.56 20.8673 17.4694 20.833 17.3818C20.7518 17.1742 20.7269 16.9526 20.6737 16.7379C20.5951 16.4202 20.6211 16.1172 20.7106 15.8019C20.8887 15.1739 20.9539 14.5244 21.0297 13.8775C21.1843 12.5606 21.1988 11.2382 21.1928 9.91472C21.1874 8.72815 21.1915 7.54152 21.1751 6.35503C21.1644 5.59273 21.1389 4.83007 21.0926 4.06922C21.0489 3.34849 20.988 2.62783 20.8705 1.91396C20.8356 1.70172 20.7904 1.49171 20.7283 1.28575C20.711 1.22852 20.6951 1.17245 20.7097 1.11327C20.7617 0.902545 20.8401 0.702066 20.976 0.531175C21.0984 0.377388 21.1747 0.38778 21.2497 0.576641C21.3361 0.79444 21.4108 1.01736 21.4791 1.24158C21.6408 1.7723 21.7434 2.31506 21.8137 2.86562C21.8797 3.38205 21.9586 3.8971 21.9977 4.41656C22.0588 5.22951 22.0679 6.04435 22.0764 6.89447Z" fill="#CCAAE2"/>
<path fill-rule="evenodd" clip-rule="evenodd" d="M9.03391 23.1852C9.23568 23.183 9.43753 23.1817 9.63938 23.178C9.783 23.1754 9.76647 23.1741 9.76308 23.0391C9.75586 22.7544 9.63404 22.5135 9.50984 22.2696C9.30554 21.8688 9.14439 21.4511 9.05815 21.0082C9.02359 20.8307 8.99963 20.6514 9.00208 20.4674C9.00504 20.247 9.02741 20.0247 8.98079 19.8057C8.89311 19.3931 8.66102 19.0564 8.41089 18.7299C8.11205 18.3402 7.85975 17.9262 7.74025 17.4439C7.66461 17.1388 7.65292 16.8325 7.70084 16.518C7.78124 15.9914 7.45115 15.4282 6.9091 15.3223C6.85223 15.3114 6.79291 15.3087 6.73475 15.3087C6.2915 15.3081 5.8484 15.31 5.40522 15.3092C5.23592 15.3087 5.07195 15.3659 4.90114 15.35C4.81497 15.3422 4.81764 15.4128 4.80963 15.4701C4.70131 15.1772 4.63506 14.8717 4.54203 14.5742C4.47636 14.3639 4.41315 14.1527 4.34668 13.9352C4.44656 13.9352 4.53482 13.9339 4.62308 13.9355C5.71236 13.9572 6.80165 13.9389 7.89093 13.9439C7.93661 13.944 7.98265 13.9471 8.02783 13.9423C8.12071 13.9325 8.17368 13.9705 8.19937 14.0608C8.34147 14.562 8.53754 15.0477 8.63807 15.5607C8.7067 15.9109 8.69018 16.2522 8.58467 16.6011C8.43499 17.0959 8.53884 17.5577 8.88719 17.9484C9.09106 18.177 9.31232 18.39 9.51944 18.6156C9.79166 18.912 9.90799 19.2747 9.93541 19.6679C9.95035 19.8821 9.92884 20.0965 9.9173 20.3111C9.88706 20.8765 9.95511 21.4249 10.3683 21.8608C10.6191 22.1254 10.6426 22.4553 10.6782 22.7854C10.6893 22.8888 10.6823 22.9938 10.6848 23.0982C10.687 23.188 10.6466 23.2308 10.5548 23.2251C10.5094 23.2222 10.4635 23.2254 10.4178 23.2249C10.02 23.2212 9.62214 23.2178 9.22428 23.2125C9.16013 23.2117 9.09294 23.2243 9.03391 23.1852Z" fill="#9236C7"/>
<path fill-rule="evenodd" clip-rule="evenodd" d="M0.740638 6.9677C0.854228 6.78064 1.00823 6.63277 1.18923 6.51269C1.49853 6.30737 1.80726 6.10336 2.17906 6.02001C2.34115 5.98363 2.50237 5.99453 2.66431 5.98833C2.75142 5.98508 2.78505 6.0296 2.77184 6.10834C2.74168 6.28861 2.74009 6.47069 2.72703 6.65211C2.7079 6.91762 2.67449 7.18247 2.6641 7.44826C2.64187 8.0139 2.64237 8.5807 2.60997 9.14569C2.59395 9.42533 2.5951 9.70491 2.57764 9.9839C2.54329 10.1184 2.56775 10.255 2.56277 10.3906C2.55635 10.5654 2.52943 10.5905 2.35089 10.567C1.81527 10.4961 1.37722 10.2473 1.0472 9.82254C0.526231 9.15211 0.387671 8.38289 0.496498 7.55795C0.52486 7.3421 0.630223 7.15259 0.740638 6.9677Z" fill="#58505B"/>
<path fill-rule="evenodd" clip-rule="evenodd" d="M3.91787 13.2354C3.82832 12.9909 3.78805 12.7341 3.72721 12.4823C3.70924 12.4078 3.7454 12.3587 3.81908 12.3776C4.06827 12.4414 4.3267 12.3777 4.57502 12.4402C4.59371 12.445 4.61385 12.4472 4.63319 12.4463C4.96545 12.4329 5.29517 12.4797 5.62591 12.4966C6.09175 12.52 6.55953 12.5284 7.02263 12.5984C7.18904 12.6234 7.3595 12.6251 7.52693 12.6348C7.77973 12.6494 8.03145 12.6798 8.28475 12.6901C8.62841 12.7036 8.96413 12.7868 9.30223 12.846C9.36465 12.8569 9.39107 12.898 9.39107 12.9559C9.39107 13.2073 9.41365 13.461 9.32345 13.7046C8.83964 13.7239 8.37005 13.609 7.89411 13.5528C7.28012 13.4803 6.66338 13.4477 6.04679 13.4073C5.52142 13.3728 4.99294 13.3796 4.47089 13.3013C4.28708 13.2739 4.09129 13.3468 3.91787 13.2354Z" fill="#3D383F"/>
<path fill-rule="evenodd" clip-rule="evenodd" d="M20.1965 11.244C20.1578 11.1709 20.1679 11.091 20.1673 11.0137C20.1551 9.73563 20.1556 8.45727 20.1763 7.17934C20.1876 6.48214 20.2128 5.78458 20.2538 5.08853C20.3179 4.00271 20.4045 2.91833 20.5626 1.84117C20.5741 1.76396 20.5924 1.68782 20.6103 1.59631C20.6882 1.85684 20.715 2.1118 20.7427 2.36568C20.8651 3.48679 20.938 4.61093 20.9583 5.73919C20.9673 6.22783 20.9872 6.71661 20.9937 7.20547C20.9946 7.27027 20.9879 7.33508 20.9848 7.39989C20.9532 8.23377 20.6587 8.99535 20.341 9.751C20.2797 9.89671 20.2558 10.0498 20.2573 10.2082C20.2592 10.4748 20.2597 10.7413 20.2565 11.0079C20.2556 11.0901 20.2716 11.1795 20.1965 11.244Z" fill="#AB598F"/>
<path fill-rule="evenodd" clip-rule="evenodd" d="M20.1978 11.2441C20.1988 10.9317 20.2094 10.619 20.1982 10.3072C20.1882 10.0323 20.2614 9.78299 20.367 9.53495C20.6137 8.95517 20.8213 8.36369 20.9183 7.7362C20.9353 7.6255 20.9155 7.50159 20.9862 7.3999C20.9937 7.92131 21.0085 8.44264 21.0071 8.96404C21.0047 9.92884 21.0071 10.8938 20.9754 11.8582C20.9401 12.9339 20.8444 14.0041 20.6704 15.0665C20.6378 15.2651 20.59 15.4614 20.5467 15.6709C20.4298 15.3694 20.2001 12.4164 20.1978 11.2441Z" fill="#D38ABB"/>
<path fill-rule="evenodd" clip-rule="evenodd" d="M0.742007 6.96753C0.680376 7.19175 0.578766 7.40197 0.535538 7.63428C0.499094 7.83014 0.495629 8.02535 0.515547 8.21601C0.548455 8.53044 0.60821 8.84206 0.713429 9.14415C0.798441 9.388 0.932671 9.60233 1.09245 9.79711C1.39815 10.1698 1.77947 10.4251 2.27006 10.4959C2.5448 10.5356 2.54069 10.5422 2.5461 10.2674C2.54805 10.1728 2.51442 10.0719 2.57908 9.98381C2.57973 10.4916 2.58168 10.9993 2.58009 11.507C2.57973 11.6249 2.55765 11.6379 2.43612 11.612C1.83519 11.4842 1.34619 11.1792 0.958362 10.7009C0.612179 10.2738 0.369122 9.80115 0.262459 9.26048C0.188994 8.88846 0.187622 8.51673 0.221829 8.13814C0.259789 7.71799 0.443309 7.36957 0.673304 7.03457C0.690985 7.00866 0.718697 6.98968 0.742007 6.96753Z" fill="#3D383F"/>
<path fill-rule="evenodd" clip-rule="evenodd" d="M3.91768 13.2354C4.30724 13.2237 4.69427 13.2514 5.07942 13.3091C5.09854 13.312 5.11846 13.3126 5.1378 13.3113C5.52801 13.2843 5.91655 13.3364 6.30365 13.3621C6.57298 13.3799 6.84591 13.3699 7.11582 13.4206C7.28483 13.4524 7.46294 13.4466 7.63708 13.4642C7.9072 13.4915 8.17342 13.5444 8.4426 13.5717C8.67447 13.595 8.8992 13.6629 9.1336 13.6669C9.19696 13.6681 9.26003 13.6913 9.32325 13.7046C9.27266 13.7649 9.20259 13.7441 9.14038 13.7441C7.71148 13.7443 6.28258 13.7418 4.85383 13.7433C4.64418 13.7435 4.43851 13.7067 4.23009 13.6988C4.09059 13.6937 3.99576 13.6244 3.96913 13.4829C3.95333 13.4001 3.91111 13.3228 3.91768 13.2354Z" fill="#574F5A"/>
<path fill-rule="evenodd" clip-rule="evenodd" d="M8.52685 14.375C8.64333 14.354 8.75959 14.3692 8.87563 14.3692C8.97501 14.369 9.02682 14.4069 9.0502 14.5098C9.13933 14.9018 9.23286 15.2926 9.27746 15.6929C9.28756 15.7831 9.303 15.8726 9.31037 15.9629C9.31664 16.0416 9.27616 16.0847 9.19548 16.0865C9.18241 16.0869 9.1695 16.0872 9.15651 16.088C8.90674 16.1024 8.90739 16.1024 8.88148 15.8533C8.83818 15.4378 8.72452 15.0387 8.59505 14.6436C8.56705 14.5583 8.52115 14.4769 8.52685 14.375Z" fill="#57505A"/>
</svg>
